<svg xmlns="http://www.w3.org/2000/svg" xmlns:xlink="http://www.w3.org/1999/xlink" viewBox="0 0 422.84 334.94"><defs><style>.cls-1{isolation:isolate;}.cls-2{fill:#3f6d30;opacity:0.5;}.cls-3{fill:#83532c;}.cls-4{fill:url(#Dégradé_sans_nom_53);}.cls-5{fill:#acbf6d;}.cls-6{fill:#6abe6d;}.cls-7{fill:#d7e9d8;}.cls-8{fill:#c9daca;}.cls-9{fill:#d9ebda;}.cls-10{fill:#d2e3d2;}.cls-11{fill:#c2886d;}.cls-12{fill:#e0f3e1;}.cls-13{fill:#e2f5e3;}.cls-14{fill:#6d7cc1;}.cls-15{fill:#6abfa2;}.cls-16{fill:#c2a06d;}.cls-17{fill:#c37195;}.cls-18{fill:#6c696b;}.cls-19,.cls-20{fill:#959194;}.cls-20{opacity:0.17;}.cls-20,.cls-26,.cls-28,.cls-43,.cls-45,.cls-47,.cls-49,.cls-50,.cls-56,.cls-57,.cls-59,.cls-64,.cls-65,.cls-66,.cls-68{mix-blend-mode:multiply;}.cls-21{fill:#b7afb4;}.cls-22{fill:#7d73a0;}.cls-23{fill:#a39da1;}.cls-24,.cls-28{fill:#aa9a6b;}.cls-25{fill:#92835a;}.cls-26{opacity:0.26;}.cls-27{fill:#8e89a0;}.cls-28,.cls-47,.cls-68{opacity:0.28;}.cls-29{fill:#7e724e;}.cls-30,.cls-64{fill:#949396;}.cls-31,.cls-50{fill:#f7d25c;}.cls-32{fill:#eac0a0;}.cls-33{fill:#634b39;}.cls-34{fill:#fb8c37;}.cls-35,.cls-66{fill:#d6a27b;}.cls-36{fill:#bc8d6d;}.cls-37{fill:#66828a;}.cls-38{fill:#fce6d0;}.cls-39{fill:#515664;}.cls-40{fill:#6b5741;}.cls-41{fill:#f6a5b8;}.cls-42,.cls-60{fill:#f8dcc8;}.cls-42{stroke:#f6dbc4;}.cls-42,.cls-55,.cls-71{stroke-miterlimit:10;}.cls-43,.cls-66{opacity:0.22;}.cls-44{fill:#aa8260;}.cls-45{opacity:0.25;}.cls-46{fill:#fb8065;}.cls-48{fill:#f6bfcd;}.cls-49,.cls-56{opacity:0.2;}.cls-51{fill:#564634;}.cls-52{opacity:0.3;}.cls-53{fill:#898a8f;}.cls-54{fill:#854f19;}.cls-55,.cls-71,.cls-72{fill:none;}.cls-55{stroke:#c5c507;}.cls-56,.cls-58{fill:#f6dbc4;}.cls-57{opacity:0.39;}.cls-59{opacity:0.47;}.cls-61{opacity:0.62;}.cls-62{fill:#767576;}.cls-63{fill:#706f71;}.cls-64{opacity:0.11;}.cls-65{opacity:0.64;}.cls-67,.cls-68{fill:#819398;}.cls-69{fill:#6c675f;}.cls-70{fill:#8e6a52;}.cls-71{stroke:#91aa84;}.cls-73{fill:#5fac4a;}</style><radialGradient id="Dégradé_sans_nom_53" cx="236.82" cy="72.8" r="131.18" gradientUnits="userSpaceOnUse"><stop offset="0.04" stop-color="#bd8d3f"/><stop offset="1" stop-color="#b17f3c"/></radialGradient></defs><title>atelier</title><g class="cls-1"><g id="Calque_2" data-name="Calque 2"><g id="V6"><path class="cls-2" d="M422.84,219.47c0-11.59-34.41-21-76.86-21s-76.86,9.39-76.86,21a7.75,7.75,0,0,0,2.48,5.3c-31.26.76-57.44,5.92-68.76,13-10.91-2.66-24.82-4.26-40-4.26-35.06,0-63.48,8.54-63.48,19.07s28.42,19.07,63.48,19.07c25.79,0,48-4.62,57.9-11.26,15,3.84,35.79,6.22,58.79,6.22,45.7,0,82.75-9.39,82.75-21,0-1.91-1-3.76-2.92-5.52C395.44,238.4,422.84,229.81,422.84,219.47Z"/><polygon class="cls-3" points="101.17 212.96 63.97 214.04 63.97 113.31 88.86 113.31 101.17 212.96"/><polygon class="cls-3" points="375.92 200.44 407.33 198.78 407.33 110.92 387.92 110.92 375.92 200.44"/><polygon class="cls-3" points="401.46 137.25 62.44 150.65 60.2 5.04 66.19 0 401.46 13.05 403.69 134.8 401.46 137.25"/><polygon class="cls-4" points="407.45 132.21 68.42 145.61 66.19 0 407.45 8.01 407.45 132.21"/><polygon class="cls-5" points="296.9 78.72 313.07 78.03 313.07 51.03 296.9 50.34 296.9 78.72"/><polygon class="cls-6" points="296.9 78.72 313.07 78.03 313.07 51.03 296.9 50.34 296.9 78.72"/><polygon class="cls-6" points="241.19 94.2 257.36 93.5 257.36 66.51 241.19 65.82 241.19 94.2"/><polygon class="cls-6" points="241.19 94.2 257.36 93.5 257.36 66.51 241.19 65.82 241.19 94.2"/><polygon class="cls-7" points="242.65 83.65 256.2 83.71 256.2 82.5 242.65 82.32 242.65 83.65"/><polygon class="cls-8" points="242.5 86.23 256.06 86.2 256.06 84.98 242.5 84.9 242.5 86.23"/><polygon class="cls-9" points="242.5 88.73 256.06 88.61 256.06 87.39 242.5 87.4 242.5 88.73"/><polygon class="cls-7" points="242.5 90.87 256.06 90.66 256.06 89.44 242.5 89.54 242.5 90.87"/><polygon class="cls-10" points="242.5 93 256.06 92.71 256.06 91.49 242.5 91.67 242.5 93"/><polygon class="cls-6" points="217.07 121.64 233.25 120.94 233.25 93.95 217.07 93.26 217.07 121.64"/><polygon class="cls-11" points="217.07 121.64 233.25 120.94 233.25 93.95 217.07 93.26 217.07 121.64"/><polygon class="cls-12" points="218.53 103.52 223.55 103.68 223.66 94.66 218.53 94.38 218.53 103.52"/><polygon class="cls-13" points="218.53 105.75 232.08 106.02 232.08 104.8 218.53 104.42 218.53 105.75"/><polygon class="cls-13" points="218.38 108.47 231.94 108.64 231.94 107.42 218.38 107.14 218.38 108.47"/><polygon class="cls-7" points="218.53 111.09 232.08 111.15 232.08 109.94 218.53 109.76 218.53 111.09"/><polygon class="cls-8" points="218.38 113.68 231.94 113.64 231.94 112.43 218.38 112.34 218.38 113.68"/><polygon class="cls-9" points="218.38 116.17 231.94 116.05 231.94 114.83 218.38 114.84 218.38 116.17"/><polygon class="cls-7" points="218.38 118.31 231.94 118.1 231.94 116.88 218.38 116.98 218.38 118.31"/><polygon class="cls-10" points="218.38 120.44 231.94 120.15 231.94 118.94 218.38 119.11 218.38 120.44"/><polygon class="cls-12" points="298.35 60.6 303.38 60.76 303.49 51.74 298.35 51.47 298.35 60.6"/><polygon class="cls-13" points="298.36 62.83 311.9 63.1 311.9 61.88 298.36 61.5 298.36 62.83"/><polygon class="cls-13" points="298.21 65.55 311.77 65.72 311.77 64.5 298.21 64.22 298.21 65.55"/><polygon class="cls-7" points="298.36 68.17 311.9 68.24 311.9 67.02 298.36 66.84 298.36 68.17"/><polygon class="cls-8" points="298.21 70.76 311.77 70.73 311.77 69.51 298.21 69.43 298.21 70.76"/><polygon class="cls-9" points="298.21 73.26 311.77 73.13 311.77 71.91 298.21 71.92 298.21 73.26"/><polygon class="cls-7" points="298.21 75.39 311.77 75.18 311.77 73.97 298.21 74.06 298.21 75.39"/><polygon class="cls-10" points="298.21 77.53 311.77 77.24 311.77 76.02 298.21 76.19 298.21 77.53"/><polygon class="cls-6" points="252.85 46.11 269.02 45.41 269.02 18.42 252.85 17.73 252.85 46.11"/><polygon class="cls-14" points="252.85 46.11 269.02 45.41 269.02 18.42 252.85 17.73 252.85 46.11"/><polygon class="cls-12" points="254.31 27.99 259.33 28.14 259.44 19.13 254.31 18.85 254.31 27.99"/><polygon class="cls-13" points="254.31 30.22 267.86 30.49 267.86 29.27 254.31 28.89 254.31 30.22"/><polygon class="cls-13" points="254.16 32.94 267.72 33.1 267.72 31.89 254.16 31.61 254.16 32.94"/><polygon class="cls-7" points="254.31 35.56 267.86 35.62 267.86 34.41 254.31 34.23 254.31 35.56"/><polygon class="cls-8" points="254.16 38.14 267.72 38.11 267.72 36.89 254.16 36.81 254.16 38.14"/><polygon class="cls-9" points="254.16 40.64 267.72 40.51 267.72 39.3 254.16 39.31 254.16 40.64"/><polygon class="cls-7" points="254.16 42.77 267.72 42.57 267.72 41.35 254.16 41.44 254.16 42.77"/><polygon class="cls-10" points="254.16 44.91 267.72 44.62 267.72 43.4 254.16 43.58 254.16 44.91"/><polygon class="cls-6" points="207.8 72.06 223.97 71.37 223.97 44.37 207.8 43.68 207.8 72.06"/><polygon class="cls-6" points="207.8 72.06 223.97 71.37 223.97 44.37 207.8 43.68 207.8 72.06"/><polygon class="cls-12" points="209.25 53.94 214.28 54.1 214.39 45.08 209.25 44.8 209.25 53.94"/><polygon class="cls-13" points="209.26 56.17 222.81 56.44 222.81 55.22 209.26 54.84 209.26 56.17"/><polygon class="cls-13" points="209.11 58.89 222.67 59.06 222.67 57.84 209.11 57.56 209.11 58.89"/><polygon class="cls-7" points="209.26 61.51 222.81 61.58 222.81 60.36 209.26 60.18 209.26 61.51"/><polygon class="cls-8" points="209.11 64.1 222.67 64.06 222.67 62.85 209.11 62.77 209.11 64.1"/><polygon class="cls-9" points="209.11 66.59 222.67 66.47 222.67 65.25 209.11 65.26 209.11 66.59"/><polygon class="cls-7" points="209.11 68.73 222.67 68.52 222.67 67.3 209.11 67.4 209.11 68.73"/><polygon class="cls-10" points="209.11 70.86 222.67 70.57 222.67 69.36 209.11 69.53 209.11 70.86"/><polygon class="cls-6" points="186.27 43.66 202.44 42.97 202.44 15.98 186.27 15.28 186.27 43.66"/><polygon class="cls-15" points="186.27 43.66 202.44 42.97 202.44 15.98 186.27 15.28 186.27 43.66"/><polygon class="cls-12" points="187.72 25.55 192.75 25.7 192.85 16.69 187.72 16.41 187.72 25.55"/><polygon class="cls-13" points="187.73 27.77 201.28 28.04 201.28 26.83 187.73 26.45 187.73 27.77"/><polygon class="cls-13" points="187.58 30.5 201.14 30.66 201.14 29.44 187.58 29.16 187.58 30.5"/><polygon class="cls-7" points="187.73 33.11 201.28 33.18 201.28 31.96 187.73 31.78 187.73 33.11"/><polygon class="cls-8" points="187.58 35.7 201.14 35.67 201.14 34.45 187.58 34.37 187.58 35.7"/><polygon class="cls-9" points="187.58 38.2 201.14 38.07 201.14 36.85 187.58 36.87 187.58 38.2"/><polygon class="cls-7" points="187.58 40.33 201.14 40.12 201.14 38.91 187.58 39 187.58 40.33"/><polygon class="cls-10" points="187.58 42.47 201.14 42.18 201.14 40.96 187.58 41.14 187.58 42.47"/><polygon class="cls-6" points="188.47 112.2 204.64 111.51 204.64 84.52 188.47 83.82 188.47 112.2"/><polygon class="cls-16" points="188.47 112.2 204.64 111.51 204.64 84.52 188.47 83.82 188.47 112.2"/><polygon class="cls-13" points="189.92 96.31 203.47 96.58 203.47 95.37 189.92 94.99 189.92 96.31"/><polygon class="cls-13" points="189.78 99.04 203.33 99.2 203.33 97.98 189.78 97.7 189.78 99.04"/><polygon class="cls-7" points="189.92 101.65 203.47 101.72 203.47 100.5 189.92 100.32 189.92 101.65"/><polygon class="cls-8" points="189.78 104.24 203.33 104.21 203.33 102.99 189.78 102.91 189.78 104.24"/><polygon class="cls-9" points="189.78 106.74 203.33 106.61 203.33 105.39 189.78 105.41 189.78 106.74"/><polygon class="cls-7" points="189.78 108.87 203.33 108.67 203.33 107.45 189.78 107.54 189.78 108.87"/><polygon class="cls-10" points="189.78 111.01 203.33 110.72 203.33 109.5 189.78 109.68 189.78 111.01"/><polygon class="cls-12" points="189.92 94.09 194.94 94.24 195.05 85.23 189.92 84.95 189.92 94.09"/><polygon class="cls-6" points="118.38 77.97 134.55 77.28 134.55 50.28 118.38 49.59 118.38 77.97"/><polygon class="cls-17" points="118.38 77.97 134.55 77.28 134.55 50.28 118.38 49.59 118.38 77.97"/><polygon class="cls-12" points="119.83 59.86 124.86 60.01 124.96 50.99 119.83 50.72 119.83 59.86"/><polygon class="cls-13" points="119.84 62.08 133.38 62.35 133.38 61.13 119.84 60.75 119.84 62.08"/><polygon class="cls-13" points="119.69 64.8 133.24 64.97 133.24 63.75 119.69 63.47 119.69 64.8"/><polygon class="cls-7" points="119.84 67.42 133.38 67.49 133.38 66.27 119.84 66.09 119.84 67.42"/><polygon class="cls-8" points="119.69 70.01 133.24 69.98 133.24 68.76 119.69 68.68 119.69 70.01"/><polygon class="cls-9" points="119.69 72.51 133.24 72.38 133.24 71.16 119.69 71.18 119.69 72.51"/><polygon class="cls-7" points="119.69 74.64 133.24 74.43 133.24 73.22 119.69 73.31 119.69 74.64"/><polygon class="cls-10" points="119.69 76.78 133.24 76.49 133.24 75.27 119.69 75.44 119.69 76.78"/><path class="cls-18" d="M286.85,228.51v0A30.38,30.38,0,0,1,275,225.58a7.88,7.88,0,0,1-2,3.42,5.57,5.57,0,0,1-2,1.07,32.6,32.6,0,0,1-4.4,2.16c-2.45,1.1-4.87,2.25-7.24,3.52l-3.29,2.05-.3,2a1.62,1.62,0,0,0,0,.8c.18.49.77.68,1.29.8,3.48.8,7,1.22,10.57,1.67,1.52.19,3,.39,4.55.7,4.8,1,8.17,3.32,13,2.65,0,0,4.63-1.94,4.53-3.28C289.49,238.53,285.74,232.93,286.85,228.51Z"/><path class="cls-19" d="M286.85,228.48A30.38,30.38,0,0,1,275,225.58a7.88,7.88,0,0,1-2,3.42,5.57,5.57,0,0,1-2,1.07,32.6,32.6,0,0,1-4.4,2.16c-2.45,1.1-4.87,2.25-7.24,3.52l-2.37,1.48q6.89,1.21,13.86,1.9c2.12.21,4.25.38,6.34.75,3.34.59,6.93,1.64,10,.18a8.86,8.86,0,0,0,1.65-1c-1.15-3.59-2.84-7.35-2.05-10.51Z"/><path class="cls-18" d="M283.31,228.18l2-.08a63.62,63.62,0,0,0,2.37,17.06l-.31.1-.33.11A65,65,0,0,1,283.31,228.18Z"/><path class="cls-20" d="M286.85,228.48A30.38,30.38,0,0,1,275,225.58a7.88,7.88,0,0,1-2,3.42,5.57,5.57,0,0,1-2,1.07,16.6,16.6,0,0,1-1.87,1c3.84,2.81,10.65,4.76,18.19,3.38-.9-2.66-1.13-3.65-.54-6Z"/><path class="cls-18" d="M324.54,227.28h0a36.58,36.58,0,0,1-13,.36v0a3.28,3.28,0,0,1-.17,1.46,6.29,6.29,0,0,1-2.68,2h0c-1.05.83-2.25,1.48-3.37,2.23-.75.5-1.5,1-2.25,1.53-.32.25-.68.5-1,.78l-.06.1-.33.58,0,.08v.27a1.82,1.82,0,0,1,0,.34l.13.4c0,.24.13.35.22.56.22.52,1,.59,1.57.72l4.85,1.2a10.55,10.55,0,0,1,2.78,1,10.29,10.29,0,0,1,1.53,1.17,33.92,33.92,0,0,0,2.75,2.38,4.14,4.14,0,0,0,1.63.64c.34.07,3,.52,3.33.48A17.19,17.19,0,0,0,326,244,67.13,67.13,0,0,0,324.54,227.28Z"/><path class="cls-19" d="M316,240.09c2.69,1.47,6,.42,8.9-.66L326,239a67.4,67.4,0,0,0-1.48-11.72h0a36.58,36.58,0,0,1-13,.36v0a3.28,3.28,0,0,1-.17,1.46,6.29,6.29,0,0,1-2.68,2h0c-1.05.83-2.25,1.48-3.37,2.23-.75.5-1.5,1-2.25,1.53-.32.25-.68.5-1,.78l-.06.1-.21.37c3.64-.6,7.67-1,10.66,1.06C313.71,238.12,314.66,239.36,316,240.09Z"/><path class="cls-18" d="M320.57,228l2-.37a90.6,90.6,0,0,1,.91,17.58h-.67A89.27,89.27,0,0,0,320.57,228Z"/><path class="cls-20" d="M323,229a37.77,37.77,0,0,1-4.29.26,64.79,64.79,0,0,1-7.35,0,5.73,5.73,0,0,1-1.32,1.22A21.21,21.21,0,0,0,322.21,233a11.57,11.57,0,0,0,3.36-.85c-.29-1.13-.6-2.26-.8-3.41Z"/><path class="cls-21" d="M282.34,176.39c2.11-15.57,10-30.36,11.85-45.8a74.75,74.75,0,0,0,11.1.74,2,2,0,0,0,.34,0,53.84,53.84,0,0,0,11.4-.73c-.34-1.75-.72-3.34-1-4.39-5.65,1.74-8.55,1.63-14.49,1.7-8.16.11-11.12,1.81-19.2.66-3.36,17.38-11,31.28-12,49.23-.1,3.86.16,7.71.06,11.57.34,10.5,2.47,21.23,2.11,31.78.19,2.79.37,5.59-.88,8.13l1,.47a28.34,28.34,0,0,0,4.78,1.76C285.4,214.51,279.84,194.83,282.34,176.39Z"/><path class="cls-21" d="M298.28,154.58c.25,6.3.9,16.58,2.45,24.25.32,1.58.71,3.15,1.07,4.73,3.38,15,6.77,30,8.61,45.26l1.19.19a36.63,36.63,0,0,0,7,.35c-5.69-24.45-9.37-57.09-15.05-81.54C302.27,148.48,299.5,151.73,298.28,154.58Z"/><path class="cls-21" d="M283.88,232.56h.37a34.1,34.1,0,0,1-6.5-.9A29.4,29.4,0,0,0,283.88,232.56Z"/><path class="cls-22" d="M277.36,231.58l.39.09-.38-.1Z"/><path class="cls-23" d="M325.87,228.2c-2-7.39-4.74-29.87-5.58-34.74-1.46-8.42-7.8-39.69-4.42-47.55a24.68,24.68,0,0,0,1.84-6c.44-2-.18-6.88-.82-10.18-3.74.63-7.42,1.87-11.27,1.69a2,2,0,0,1-.34,0,74.75,74.75,0,0,1-11.1-.74c-1.85,15.44-9.74,30.22-11.85,45.8-2.5,18.44,3.06,38.13-5,55.19l.38.1a34.1,34.1,0,0,0,6.5.9c.93,0,1.87,0,2.8-.05.59-1.79,1.32-12,1.47-15.18.27-2.44,2.52-15.22,2.57-19.39,0-2.07-.28-6.73-.28-6.75,0-.38,0-.77-.06-1.15a52.92,52.92,0,0,1-.5-5.36c0-.25-.24-3.52-.34-5-.12-1.75.5-3.19,1.08-5,1.94-5.12,3.69-10.29,5.34-15.47l2-4.92c2.26-3.27,3.89-5.87,5.19-6.52,5.69,24.44,9.37,57.09,15.05,81.54a33.74,33.74,0,0,0,5.33-.69C324.59,228.53,325.23,228.38,325.87,228.2Z"/><path class="cls-24" d="M354.73,217.23a2.78,2.78,0,0,1-.22,1.14,1.56,1.56,0,0,1-.37.53l-.73.2c-.65-.08-2.45-.07-5.29,0,0,0-.33-.94-.36-.94s-1.33,1-1.38,1c-6.62.11-15.16.35-15.31-.08-.83-2.41-1.55-4.64,1.44-5.87,3.24-1.33,6.63-2,9.87-3.32a8.35,8.35,0,0,0,4.4-3.18,45,45,0,0,0,8,1.2c-.43,1.67,0,3.07,0,4.8C354.68,214.18,354.8,215.7,354.73,217.23Z"/><path class="cls-25" d="M348.75,205.79a6.33,6.33,0,0,1-2.15,2.53,73,73,0,0,0,9.08,2.36,12.93,12.93,0,0,1,.09-3.56A32,32,0,0,1,348.75,205.79Z"/><path class="cls-24" d="M373.63,226.19a2.85,2.85,0,0,1-.22,1.2,1.64,1.64,0,0,1-.39.56l-.78.22c-.6-.06-2.2,0-4.62,0-.12,0,0-1.21-.1-1.21s-1.36,1.25-1.54,1.26c-7.15.24-17.7.73-17.87.27-.95-2.52-1.77-4.85,1.43-6.2,3.47-1.46,7.13-2.24,10.6-3.69,1.78-.74,3.66-1.65,4.68-3.43a49.94,49.94,0,0,0,8.64,1.1c-.43,1.76.07,3.23.06,5C373.5,223,373.67,224.58,373.63,226.19Z"/><path class="cls-25" d="M366.44,214.41a6.54,6.54,0,0,1-2.34,2.74,47.28,47.28,0,0,0,9.38,2.62,16,16,0,0,1,0-4.2A31.81,31.81,0,0,1,366.44,214.41Z"/><path class="cls-22" d="M372,204c-.38-2.25-.81-4.5-1.15-6.76-.37-2.52-.63-5.06-.89-7.6-1.57-15.4-3.38-52.92-3.66-55.59-.33-3.17-.49-6.6-2.28-9.35a3,3,0,0,0-.71-.77c-.05-.59-.12-1.19-.19-1.78s-.16-1.25-.24-1.88a24.73,24.73,0,0,1-21,2.51c0,11.05,0,20.79.05,31.85,0,4.36,0,8.73.16,13.09.47,14,2.38,28,2.1,41.92l2,.24a43.45,43.45,0,0,0,8.64.32l.81-.08c.37-10.61.31-21.1.1-31.72.79,3,1.52,6,2.14,9.06,1.89,9.44,2.6,19.19,3.34,28.89.05.7.07,2.06.07,2.06a2.7,2.7,0,0,0,.73.29c.54.17,1.21.33,1.37.38a26,26,0,0,0,8.88.79c.59,0,1.19-.1,1.8-.17C373.51,214.42,372.92,209.14,372,204Z"/><g class="cls-26"><path class="cls-27" d="M352.07,165.59c-.11-.47-.4-2.07-.55-1.91-.46,5.83,0,11.7.11,17.55.15,9-.6,18-.57,27a11.1,11.1,0,0,0,.15,2.07,31.11,31.11,0,0,0,3.63-.08l.81-.08c.35-10.14.29-21.36.1-31.49-.28-1.3-.52-1.72-.81-3C354.06,171.83,352.94,169.41,352.07,165.59Z"/></g><path class="cls-28" d="M346.15,209.61c-.57,0-1.14,0-1.72-.07q-.88.43-1.77.8a23.16,23.16,0,0,0,8.71,1.6,25.6,25.6,0,0,0,4.35-.37c0-.59-.06-1.14-.09-1.7A23.16,23.16,0,0,1,346.15,209.61Z"/><path class="cls-28" d="M373.53,220.93c0-.35,0-.7,0-1a18.18,18.18,0,0,1-6.43-.14l-1.42-.33a12.72,12.72,0,0,1-3.69-1h0c-.67.34-1.35.64-2,.93a30.15,30.15,0,0,0,10.86,1.88c.94,0,1.87,0,2.77-.11C373.54,221,373.53,221,373.53,220.93Z"/><path class="cls-29" d="M330.47,217a17.69,17.69,0,0,0,.6,2c.14.4,8.77.2,15.31.08.43-.2,1-.75,1.38-1,.13.22.19.75.36.94,2.62,0,4.67-.05,5.29,0l.73-.2a1.56,1.56,0,0,0,.37-.53l.16-1.63C339.6,217.65,335.63,218.21,330.47,217Z"/><path class="cls-29" d="M373.63,225.94q-13,.72-26,1.32c.14.42.3.85.46,1.28s10.72,0,17.87-.27l.74-.47a2,2,0,0,0,.81-.79,11.79,11.79,0,0,0,.1,1.21c2.3-.07,4-.1,4.62,0L373,228a1.64,1.64,0,0,0,.39-.56,2.85,2.85,0,0,0,.22-1.2C373.63,226.11,373.63,226,373.63,225.94Z"/><path class="cls-30" d="M193.49,248.64c.26,1.55-.35,2.13-1.33,3.48-5.68,2.56-7,2.13-13.32,2.66a17.67,17.67,0,0,0-6.58,1.67,18.21,18.21,0,0,1-4.27.92c-2.25.41-6.28-.21-8.48-.72.61-5.55,2.11-10.85,2.13-16.42,7.73.92,9.78.53,16.07-.91l0,.07a5.5,5.5,0,0,0-.18,3.6l0,0c3.54,2.46,13.15,2.65,14.19,2.73C193.14,245.83,193.34,247.76,193.49,248.64Z"/><path class="cls-31" d="M332.82,37.51c-.31,0-.62.09-.92.15-4.37-7.53,10.34-21.28,20.87-15.77a30.55,30.55,0,0,0,4,1.19c3.57,1.27,5.79,5,6.34,8.76s-.25,7.55-1.06,11.25l-1.3,6a29.6,29.6,0,0,0-.8,5.11c-.12,3,1.63,8.43,2.62,11.24h0a25.78,25.78,0,0,0-4.15-2.71c-.45-.28-1.07-.28-1.39-.71l-.06-.08a2.57,2.57,0,0,1-.26-.68c-1.28-4.47.6-9.09-2.11-15a1,1,0,0,0,.35-.72c0-.41-.16-.82-.16-1.23,0-1.4,1.76-2.5,1.38-3.84a1.5,1.5,0,0,0-1.25-1,1.88,1.88,0,0,0-1.55.58,1.39,1.39,0,0,0-.38.75.77.77,0,0,0,0,.25c.06,1.79.24,3.6.35,5.4.05.92.09,1.83.08,2.74a104.8,104.8,0,0,1-3.24-11h0a37.88,37.88,0,0,1-8.21,0C338.91,37.84,335.83,37.14,332.82,37.51Z"/><path class="cls-32" d="M356.68,61.26c-1.28-4.47.6-9.09-2.11-15a.51.51,0,0,1-.39.11l-.86.05c.05.92.09,1.83.08,2.74a104.79,104.79,0,0,1-3.24-11h0a37.89,37.89,0,0,1-8.21,0c-3-.34-6.52-1-9.54-.62a17.09,17.09,0,0,0,.93,4.33c.48,1,1.24,2,1.12,3.05s-.94,1.83-1.09,2.84a1.35,1.35,0,0,0,0,.5c.25,1,2,1.13,2.22,2.18a3,3,0,0,1-.09,1,3.34,3.34,0,0,0,.15,1.39v0A1.84,1.84,0,0,0,335.9,54a1.52,1.52,0,0,0,.07.18,2.49,2.49,0,0,0,.44.76c0,.1.06.2.09.3l.12.13c.62.78,1.43,1.42,2.08,2.18A7.75,7.75,0,0,0,340.42,59a1.47,1.47,0,0,0,.28.18l.2.12.06,0a2,2,0,0,0,1.27-.1,13.39,13.39,0,0,0,1.93-.82l.92-.57.75,1.34a8.31,8.31,0,0,1,.91,2.2c.16.64-.52,2.22-.44,2.87,0,0,.36,4.31,1.11,4.33a8.48,8.48,0,0,0,4.6-1.7c2.09-1.33,4-2.59,5-4.88A2.57,2.57,0,0,1,356.68,61.26Z"/><path class="cls-32" d="M353,41v-.25a1.39,1.39,0,0,1,.38-.75,1.88,1.88,0,0,1,1.55-.58,1.5,1.5,0,0,1,1.25,1c.37,1.35-1.4,2.44-1.38,3.84,0,.41.17.82.16,1.23a1,1,0,0,1-.35.72.51.51,0,0,1-.39.11l-.86.05C353.22,44.63,353,42.82,353,41Z"/><path class="cls-33" d="M300.64,14.38h.05a16.14,16.14,0,0,1,4.29.13C303.4,21.95,299.51,43,298.57,45l-.14.3-.54.82-2.06,3.35a27.55,27.55,0,0,0-2.13,3.94c.05-.14.1-.29.15-.43a12.82,12.82,0,0,0,.52-2.24l-2,3.12q.07-1.82,0-3.65l-1.27,1.29c.26-1.54.52-10.51-7.78-10.74.1-.17.18-.35.26-.53a4.93,4.93,0,0,0-1.42-5.71,1,1,0,0,0-.36-.2.85.85,0,0,0-.55.09,2.27,2.27,0,0,0-1.22,1.64L280,36a8.1,8.1,0,0,0-.84,3,88.19,88.19,0,0,0-2.57-10.7,2,2,0,0,0-.49-.94,50.87,50.87,0,0,0-7.51,3.37,62.46,62.46,0,0,1-1.17-7.2l.1-.09a7.92,7.92,0,0,0-7.95-2.73A58.87,58.87,0,0,1,265.61,19,12.3,12.3,0,0,1,264,14.82,5.61,5.61,0,0,0,268.38,16,20.54,20.54,0,0,1,269.94,10,24.49,24.49,0,0,1,273,12.82a72,72,0,0,1,14-2.76c3.47-.39,7.21-.52,10.25,1.15l3.19-.86A24.28,24.28,0,0,1,300.64,14.38Z"/><path class="cls-34" d="M275.79,72.8h0c-1.49-.21-.17-.19-1.66,0a10.15,10.15,0,0,0-.59-1.39c-1.78-3.45-4.59-4.19-1.19-11.29l.29-.59a39.72,39.72,0,0,0,8.13-1.38,12.2,12.2,0,0,0,1.71-.56,3.42,3.42,0,0,1,.5.8,3.73,3.73,0,0,1,.23.94,12,12,0,0,1,.07,2.58V62a3.77,3.77,0,0,0,2.37-.54c.74-.41,1.4-1,2.11-1.42a10.39,10.39,0,0,1,2-1,5.37,5.37,0,0,1,2.4-.41,3,3,0,0,1,1.61.65h0a11.25,11.25,0,0,1,.17-2.06l0-.1h0c2.6,0,5.74,0,7.92,1.4s3.24,3.79,4.09,6.15c2.7,7.51,3.53,15.55,4.34,23.49l1,9.77a65.77,65.77,0,0,0,.91,6.69c1.43,7,4.77,17.88,5,25-.55.15-1.11.3-1.67.43a54.77,54.77,0,0,1-15.54,1.22,138.45,138.45,0,0,1-21.21-3.29l-1.28-.27c1.87-8.19,4.81-17.75,5.84-26.09l.19-.36c2.29-4.32,1.59-3.82,3.07-8.48l0,0c-3.81-3.28-7.37-4.64-12.36-5.73l-.41-.09,0-.12a9.32,9.32,0,0,0,.54-2.69Q275.1,78.42,275.79,72.8Z"/><path class="cls-35" d="M254.42,151.46a1.58,1.58,0,0,1-.13,1,1.25,1.25,0,0,1-1,.88,1.45,1.45,0,0,1-1.14-.63h0l0,0c-.6.36-1,1.18-1.72,1.08a1.47,1.47,0,0,1-.75-.46l-.09-.08c-1,.15-1.53-.55-3-2.42-.67-.87-1.24-1.8-1.82-2.74a3.42,3.42,0,0,1-.73-2.56,7.24,7.24,0,0,1,.43-1.27,7.46,7.46,0,0,0,.51-1.7c.2-.94.54-1.78.74-2.72a4.14,4.14,0,0,1,1.63-2.86l8.89-8.25c.48-1.68,1.85-3.31,2.49-4.93,1.59-4,3.23-8.23,4.68-12.29,1-2.89,1.51-6,3.18-8.6,1.1-1.69,2.68-3.09,3.4-5a17.66,17.66,0,0,0,.65-2.73,20.64,20.64,0,0,1,3.7-8.23l0-.12c5,1.08,8.55,2.45,12.36,5.73l0,0c-1.49,4.66-.78,4.16-3.07,8.48l-.19.36c-.78,1.44-1.63,2.85-2.34,4.32-.9,1.86-1.57,3.82-2.55,5.63-1.3,2.42-3.11,4.54-4.46,6.93A44.86,44.86,0,0,1,271.2,122a32.43,32.43,0,0,1-5.18,5.53,12.08,12.08,0,0,0-1.72,2.11,28.69,28.69,0,0,0-2,6.09c-.14.67-.25,1.36-.45,2a14.73,14.73,0,0,1-1.54,3.12,10,10,0,0,1-2.28,2.93,14.57,14.57,0,0,1-1.28.8,10.09,10.09,0,0,0-.5,1.84,2.22,2.22,0,0,0,.48,1.79c.37.4.94.6,1.22,1.06a1.71,1.71,0,0,1-.32,1.86c-.25.31-.67.59-1,.39a1.31,1.31,0,0,1-.36-.46c-.5-.8-1.51-1.13-2.13-1.84a4.84,4.84,0,0,1-.83-1.7c-.28-.85-.27-1.05-.52-1.91h0a11.08,11.08,0,0,1-.32,1.61,2.86,2.86,0,0,0,.08,1.81c.44.92,1.66,1.38,1.88,2.35Z"/><path class="cls-35" d="M242.19,64.43a12.73,12.73,0,0,1-5.45-.1c-.75-.23-1.45-.59-2.19-.88l-.16-.07a16.92,16.92,0,0,0-3.16-.73l-.24,0a6.22,6.22,0,0,0-2.71,0,4.09,4.09,0,0,0-.49.18c-.48.21-.93.49-1.42.69a7.59,7.59,0,0,1-2.31.45,2.79,2.79,0,0,1-1.67-.26,1.06,1.06,0,0,1-.39-1.47l0,0a5.54,5.54,0,0,1,2.32-1.51q.74-.31,1.5-.57a28.34,28.34,0,0,1,4-1.07,6.34,6.34,0,0,0-1.42-1.41,10.61,10.61,0,0,0-2.19-1.09L224,55.66l0,0a11,11,0,0,0-1.77-.6,5.16,5.16,0,0,1-1.36-.36,1.09,1.09,0,0,1-.63-1.14,1,1,0,0,1,.9-.69,3,3,0,0,1,1.18.17l4.54,1.27.21.06c3-.74,6.16.43,9.06,1.59l3.63,1.45a15.31,15.31,0,0,0,2.25.77,14.08,14.08,0,0,0,3.82.2v0c4.22-.24,8.45-.11,12.67,0,.86,0,1.72.06,2.57.15s2,.32,2.95.53l3.82.81a13.55,13.55,0,0,0,2.77.39,11.28,11.28,0,0,0,1.76-.17c-3.4,7.1-.59,7.84,1.19,11.29a47.09,47.09,0,0,0-5.07.19c-2.61.15-5.3.36-7.76-.54a41.69,41.69,0,0,1-3.84-1.9c-3-1.44-6.37-1.91-9.44-3.19C245.73,65.24,244,64.26,242.19,64.43Z"/><path class="cls-35" d="M280.94,36a2.29,2.29,0,0,1,1.27-1.64.92.92,0,0,1,.57-.09,1,1,0,0,1,.38.2,4.84,4.84,0,0,1,1.47,5.73c-.08.18-.18.36-.28.53,8.64.23,8.36,9.23,8.09,10.78l1.32-1.29q0,1.83,0,3.67l2.07-3.14a12.48,12.48,0,0,1-.54,2.25l-.18.49-.17.44.14-.33a22.27,22.27,0,0,0-1,3.49h0l0,.1a11.25,11.25,0,0,0-.17,2.06h0a3,3,0,0,0-1.61-.65,5.37,5.37,0,0,0-2.4.41,10.39,10.39,0,0,0-2,1c-.71.46-1.37,1-2.11,1.42a3.77,3.77,0,0,1-2.37.54V61.9a12,12,0,0,0-.07-2.58,3.73,3.73,0,0,0-.23-.94,3.42,3.42,0,0,0-.5-.8l-.3-.35a2.29,2.29,0,0,0-.51-.48l-.28-.22-.59.42a5.56,5.56,0,0,1-2.09,1A4.24,4.24,0,0,1,275,56.71a10.46,10.46,0,0,1-2.15-3.4,29.56,29.56,0,0,1-1.21-3.16c-.18-.58-.34-1.17-.47-1.76-.28-1.22-.52-2.57-1.5-3.35a2.2,2.2,0,0,1-.5-.44c-.4-.6.17-1.34.55-2a5.35,5.35,0,0,0,.56-3.8A15.59,15.59,0,0,0,269,35.2l.15-.07a16.15,16.15,0,0,0-.24-4.48,53.93,53.93,0,0,1,7.82-3.38,2,2,0,0,1,.51.94A85.9,85.9,0,0,1,279.92,39a7.91,7.91,0,0,1,.88-3Z"/><path class="cls-36" d="M234.55,63.46a1.05,1.05,0,0,1,0,.7,2.4,2.4,0,0,1-2.18,1.77.16.16,0,0,1-.09,0,.16.16,0,0,1-.05-.09,7.8,7.8,0,0,0-.72-1.6,1.61,1.61,0,0,0-.37-1.25l.05-.32a16.92,16.92,0,0,1,3.16.73Z"/><path class="cls-36" d="M231.17,63a1.61,1.61,0,0,1,.37,1.25h0a2,2,0,0,0-.75.24,1.91,1.91,0,0,1-.65.31,1,1,0,0,1-.75-.28,4.21,4.21,0,0,1-.52-.65,5.29,5.29,0,0,0-1.07-1.06h0a4.09,4.09,0,0,1,.49-.18,6.22,6.22,0,0,1,2.71,0l.24,0Z"/><path class="cls-36" d="M228.32,57.59A6.34,6.34,0,0,1,229.73,59a28.34,28.34,0,0,0-4,1.07l0-.07a2.66,2.66,0,0,0-.86-1.47,11.09,11.09,0,0,1-1.21-1.23.76.76,0,0,1-.12-.22.72.72,0,0,1,0-.34,2.82,2.82,0,0,1,.46-1l0,0,2.09.85A10.61,10.61,0,0,1,228.32,57.59Z"/><path class="cls-30" d="M156.17,229.57c.4,1.47.79,3.08.21,4.47a4.59,4.59,0,0,1-2.51,2.5,13.2,13.2,0,0,0-3.61,1.73,2.15,2.15,0,0,0-.44.2,1.9,1.9,0,0,0-.37.37,24.06,24.06,0,0,0-3,4.44,1.34,1.34,0,0,1-.33.47,1.16,1.16,0,0,1-.37.17,13.81,13.81,0,0,1-2.27.57,17.9,17.9,0,0,1-2.51.14,19,19,0,0,1-6.64-.75.65.65,0,0,1-.31-.2.68.68,0,0,1-.07-.45c.38-5.57.88-10.53,1.66-16.06a5.74,5.74,0,0,0,2.55.28c3.48-.19,6.06-.38,9-.63,0,.34.31.42.62.61a9.89,9.89,0,0,0,3.67,1.32c1.36.2,2.74.11,4.1.27a.69.69,0,0,1,.36.12A.77.77,0,0,1,156.17,229.57Z"/><path class="cls-37" d="M162.17,153.92c-1.79,6.43-2.39,12.18-4,18.68a88.31,88.31,0,0,1-6.88,18.74c-.23.91-.44,1.82-.61,2.74-.35,1.87-.55,3.76-.75,5.65q-1,9-2,18.1a40.46,40.46,0,0,0-.32,4.85c0,3-.14,2.09.58,5l-3.29.27c-2.46.2-4.62.36-7.53.52a4.87,4.87,0,0,1-2.13-.23c-.27-.12-.58.06-.78-.17.23-2.52.54-5.4.77-7.92.75-8.15,1.49-16.31,2.56-24.42.84-6.39,1.92-12.86,4.43-18.73l.09-.38q.59-9.94,1.17-19.88c.13-2.15.25-4.31.2-6.46,0-1.6-.18-3.19-.26-4.79s-.09-3.19-.11-4.79c0-1.34,0-2.52,0-3.7a3.62,3.62,0,0,0,0-.53c0-1,0-1.94,0-3v0c14.13,2,28.12,3.57,41.91-.14.18,5.93.31,11.74.46,17.49,0,.09,0,.19-.06.28a2.66,2.66,0,0,0,0,1,1.51,1.51,0,0,0,.1.29c.3,11,.68,21.9,1.63,33.24h0c-5.54,18.48-10.9,35.74-9.29,55.15h0l-2.81.76c-5.12,1.39-6.79,1.76-13.11.77l-.59-.1c-.32-20.9,3.67-36.68,7.24-56.83h0Z"/><path class="cls-38" d="M145.34,112c-.32.61-1,4.26-1.44,6.11-.14.54-.35,2.13-.49,2.67a13.82,13.82,0,0,0-.14,4.28c.13.65.46,1.41.63,2s.32.41.32.58h.06l-.12,1.16a37.33,37.33,0,0,0-.13,4.28l0-.24c-.53-.34-.39-.3-.82-.77a27.32,27.32,0,0,1-1.63-2.53.63.63,0,0,0-.17-.28.24.24,0,0,0-.26,0l0,0a8,8,0,0,0,1.06,4.17,34,34,0,0,1,2.18,2.88,4,4,0,0,1,.41,1.71l0,.49a1.4,1.4,0,0,1,0,.15h0s0,.08,0,.13a.42.42,0,0,1-.19.2,1.87,1.87,0,0,1-.51.11c-.42.07-.78.34-1.19.45s-1,0-1.05-.44a1.34,1.34,0,0,1-1.31.07,3.6,3.6,0,0,1-1.08-.83,25.86,25.86,0,0,1-5.22-7.66,1.09,1.09,0,0,1-.11-.32,1.15,1.15,0,0,1,.08-.49c.56-1.74,1.42-3.38,1.88-5.15a5.89,5.89,0,0,1,.42-1.27,7.06,7.06,0,0,0,.71-1.23h0a87.2,87.2,0,0,0,.27-10.64c-.11-2.32-.89-7.06-.08-9.19h0a96.05,96.05,0,0,1-.15-10.08v0a34.79,34.79,0,0,0,6.69,3.42H144v0c.59,4.33,1.14,8.67,1.3,13"/><path class="cls-39" d="M144,95.81h-.07a34.79,34.79,0,0,1-6.69-3.42l-.1-.07a5.29,5.29,0,0,0-1.4-.53,2.12,2.12,0,0,1,0-.78c.32-3.63,1-8.06,1.51-11.66a51.16,51.16,0,0,1,1.54-7.45,8.4,8.4,0,0,1,2.89-4.7c1.5-1,3.43-1.13,5.21-1.54a28.29,28.29,0,0,0,3.75-1.24l8.41-3.2.14.22.12-.09a21.6,21.6,0,0,0,7,2.61c3,.37,5.93-.51,8.79-1.51l.15,0C182,64.68,193,73.79,193.34,74.95a15,15,0,0,1,.83,4.26c.6,8.59,1,11.53.43,18.55h0a6.65,6.65,0,0,1-1.17.32c-1.63.32-4.54.45-9.46-.45q-.38,9.91.23,19.83h0q.59,9.67,2.12,19.25c-.41.12-.84.21-1.26.3-13.4,2.82-26.73.78-40.18-1.72l-1-.19c.08-.79.11-1.39.13-1.92a37.33,37.33,0,0,1,.13-4.28l.12-1.16c.35-3.42.69-6.85.88-10.28.17-2.86.23-5.72.13-8.59-.16-4.36-.71-8.7-1.3-13Z"/><path class="cls-40" d="M159.93,56.59a2.87,2.87,0,0,0,0,.64,5.14,5.14,0,0,1-1.47-2.72l-1.26,2a40,40,0,0,1-6.21-27.27l-2.23,1.27a19.58,19.58,0,0,1,6.56-13l-.05-.06a3.1,3.1,0,0,0-1.52.07,8.56,8.56,0,0,1,2.86-1.39,43.61,43.61,0,0,1,9.18-2,14.93,14.93,0,0,1,3.29,0,15.89,15.89,0,0,1,5.42,2A14.87,14.87,0,0,1,177.32,18a12.12,12.12,0,0,1,3.38,5.58A37.21,37.21,0,0,1,181.91,30h-.09l-.5.23a18.46,18.46,0,0,0-2.16,1.2,92,92,0,0,1,1.28,9.45,15.48,15.48,0,0,0-1.05-3.65h0a.66.66,0,0,0-.64-.56,1,1,0,0,0-.83.67,3.16,3.16,0,0,0-.17,1.14,22.11,22.11,0,0,0,0,2.68c0,.4.1.81.11,1.22h0A21.71,21.71,0,0,0,172.32,56a2.08,2.08,0,0,0-1.27-1l-1.25,3-1.62-3.49-4.65,3.18a16.27,16.27,0,0,0-2.63-2.8A2.91,2.91,0,0,0,159.93,56.59Z"/><path class="cls-38" d="M173.58,62.83c-2.57,1-5.23,1.88-7.91,1.51a18.27,18.27,0,0,1-6.31-2.61,3.28,3.28,0,0,0,.89-2.49c0-.92-.23-1.82-.32-2.73a3.1,3.1,0,0,1,1-1.81,16.77,16.77,0,0,1,2.63,2.94l4.65-3.33L169.81,58l1.25-3.12a2.09,2.09,0,0,1,1.27,1,23.41,23.41,0,0,1,5.54-14.29h0c0-.43-.08-.85-.11-1.28a24.36,24.36,0,0,1,0-2.82,3.47,3.47,0,0,1,.17-1.2,1,1,0,0,1,.83-.71.68.68,0,0,1,.64.59h0A16.87,16.87,0,0,1,180.43,40c-.26-3.33-.69-6.64-1.28-9.92a18.22,18.22,0,0,1,2.16-1.26l0,.05a77.29,77.29,0,0,1,1.18,11.54,17.14,17.14,0,0,1-.11,2.91,19,19,0,0,1-.66,2.68l-.84,2.79c-.33,1.09-.65,2.18-1.08,3.22-.32.8-.7,1.56-1.09,2.32a12.51,12.51,0,0,1-1.57,2.5,5.88,5.88,0,0,1-3.6,2v0a8,8,0,0,0,.1,3.92Z"/><path class="cls-41" d="M369.52,87.27l1.43,0c-.06-.63-.13-1.26-.24-1.88a5.36,5.36,0,0,1-.13-1.42,31.8,31.8,0,0,1-.19-6.4S370.3,75.86,370,74a15.9,15.9,0,0,0-3-4.09,15.13,15.13,0,0,1-2-2.08,6.51,6.51,0,0,1-1.41-1.51l0-.07-.59-.42c-.5-.37-.94-.82-1.45-1.18-1.19-.84-2.29-1.3-3.37-2.14a1.46,1.46,0,0,1-.3,0,1.6,1.6,0,0,1-.7-.37,2.33,2.33,0,0,1-.58-1,1.07,1.07,0,0,1-.06-.28,1.42,1.42,0,0,1-.1-.87,4.51,4.51,0,0,1-.15-.94c-1,1.92-2.77,3.08-4.67,4.29a8.48,8.48,0,0,1-4.6,1.7c-.75,0-1.11-.27-.2-4.07h0a5,5,0,0,1-.9,1.67,43.58,43.58,0,0,1-6,7.55,25.33,25.33,0,0,0-2.54,2.85,9.33,9.33,0,0,0-.77,6.22c.65,4,2.5,7.62,3.38,11.53a44,44,0,0,1,.84,6.28,60,60,0,0,1,.23,9,56.37,56.37,0,0,1-3.58,15.33,28.86,28.86,0,0,0,4.42,1.57,30.58,30.58,0,0,0,21-2c-1-5.81-2.56-11.6-2.18-17.47.11-1.74.4-3.46.38-5.2,0-3.26-1.14-5.82-.84-9.06A24.74,24.74,0,0,1,369.52,87.27Z"/><path class="cls-42" d="M369.11,124.4a92.05,92.05,0,0,1,3.18,9.15,1.12,1.12,0,0,1-.05,1.06c-.09.1-.21.17-.28.27-.26.36.11.9-.09,1.3a.9.9,0,0,1-.3.31,3.18,3.18,0,0,1-1.59.56c-.27,0-.6,0-.72.28a1.85,1.85,0,0,0-.07.38.85.85,0,0,1-.88.54c-.37,0-.73-.12-1.11-.12h-.13c-.75.07-1.43.63-2.19.55a1.39,1.39,0,0,1-1.06-.68,3.74,3.74,0,0,1-.31-1.5,5.18,5.18,0,0,0-.4-1.47,2.26,2.26,0,0,0-.26-.47,5.15,5.15,0,0,1-1.11,0,1.82,1.82,0,0,1-1.5-1.72,4.06,4.06,0,0,1,1.18-2.33,13.57,13.57,0,0,0,2.12-4h0a26.24,26.24,0,0,0-.36-4.09c-.07-.49-.16-1-.24-1.48-1-5.81-2.56-11.6-2.18-17.47.11-1.74.4-3.46.38-5.2,0-3.26-1.14-5.82-.84-9.06a24.74,24.74,0,0,1,9.23-2h0c.66,3.89-1,7-.65,11,.1,1.17.37,2.32.55,3.48a43,43,0,0,1,.35,5,46.73,46.73,0,0,1-.07,6.07c-.24,2.46-.88,4.88-1,7.35A21,21,0,0,0,369.11,124.4Z"/><path class="cls-32" d="M369.37,124.33a89.35,89.35,0,0,1,3.31,9.13,1.08,1.08,0,0,1-.05,1.06c-.09.1-.22.17-.3.27-.27.36.11.9-.09,1.3a.91.91,0,0,1-.31.31,3.4,3.4,0,0,1-1.66.56c-.28,0-.62,0-.74.28a1.78,1.78,0,0,0-.07.38.89.89,0,0,1-.91.54c-.39,0-.76-.12-1.15-.12h-.14c-.78.07-1.49.62-2.28.55a1.45,1.45,0,0,1-1.1-.68,3.6,3.6,0,0,1-.32-1.5,5,5,0,0,0-.42-1.47,2.23,2.23,0,0,0-.27-.47,5.59,5.59,0,0,1-1.16,0,1.84,1.84,0,0,1-1.57-1.71,4,4,0,0,1,1.22-2.32,13.36,13.36,0,0,0,2.21-4h0a25.14,25.14,0,0,0-.38-4.08c-.08-.49-.16-1-.25-1.48-1-5.8-2.66-11.57-2.26-17.43.12-1.73.41-3.46.4-5.19,0-3.25-1.19-5.81-.87-9a26.68,26.68,0,0,1,9.61-2h0c.69,3.88-1,7-.68,10.94.11,1.17.39,2.32.57,3.48a41.17,41.17,0,0,1,.36,5,44.72,44.72,0,0,1-.08,6.06c-.25,2.46-.91,4.87-1,7.33A20.12,20.12,0,0,0,369.37,124.33Z"/><g class="cls-43"><path class="cls-44" d="M300.69,14.49h-.05a23.76,23.76,0,0,0-.16-4l-3.19.85c-2.82-1.54-6.25-1.54-9.5-1.22.73.66,1.45,1.32,2.16,2,2.4,2.34,4.76,5.1,5.14,8.48a16.69,16.69,0,0,1-.6,5.45l-2.71,12.08a43.42,43.42,0,0,0-1.17,7.62,12.81,12.81,0,0,1,.57,5.32l0,.08,1.23-1.23q0,1.81,0,3.61l2-3.09a12.57,12.57,0,0,1-.52,2.22c0,.14-.1.29-.15.43a27.16,27.16,0,0,1,2.13-3.89l2.06-3.32.54-.81.14-.3c.95-1.95,4.83-22.81,6.42-30.17A16.32,16.32,0,0,0,300.69,14.49Z"/><path class="cls-44" d="M301,13.58c.6,0,.13-3.32.09-3.7s-.26-.31-.46-.25c-3.83,1-8.46-.71-12.53-.39-.64,0-1.38,1.29-.83,1.79,4.2,3.82,7.71,7.24,6.92,13.48-.48,3.78-1.68,7.58-2.51,11.29-1.12,5-2.7,10.95-1.16,16,.13.42.55.28.8,0q1.1.68.37,2.16c0,.94.9.16,1.12-.19l2-3.09-1.09,0a11.6,11.6,0,0,1-.6,2.41c-.36,1,.61,1.14,1,.26,1.46-3.11,3.89-5.79,5.13-9A46.59,46.59,0,0,0,301,37.16c1.6-7.58,3-15.2,4.61-22.77.06-.26,0-.65-.29-.69a23.47,23.47,0,0,0-4.29-.13c-.7,0-1.43,1.86-.69,1.82.39,0,2.92-.39,3.36.06.6.63.21.78.14,1.78a41.14,41.14,0,0,1-1,5.15c-.79,4-1.58,8-2.39,11.92-.6,2.93-1.06,6-1.93,8.84-1.07,3.52-3.68,6.37-5.24,9.71l1,.26a20,20,0,0,0,.74-2.88c.2-1.07-.75-.55-1.09,0l-2,3.09,1.12-.19q.07-1.81,0-3.61c0-.56-.48-.55-.81-.22-.78.78-.53-1.66-.6-2.49a28.16,28.16,0,0,1,.73-8.86c.93-4.33,2.07-8.63,2.9-13,1.34-7-2-11.09-7-15.68L287.45,11a25.75,25.75,0,0,1,9.36,1.18c.1,0,.21,0,.3,0q1.64-1.24,2.24.47a1.93,1.93,0,0,1,.63,2.22c0,.2.07.47.32.47h.05C301,15.4,301.8,13.58,301,13.58Z"/></g><g class="cls-45"><path class="cls-46" d="M311.22,97.87l-1-9.77c-.81-7.94-1.64-16-4.34-23.49-.85-2.36-2-4.78-4.09-6.15S296.59,57,294,57c.09,6,3.42,11.54,5.06,17.36,1.36,4.8,1.58,9.84,1.71,14.82q.18,6.43.19,12.87a36.76,36.76,0,0,1-.68,8.58c-.77,3.27-2.39,6.27-3.42,9.46a54.24,54.24,0,0,0-1.8,8.91,7.16,7.16,0,0,0-.1,1.72c1.64.19,3.29.33,4.94.42A54.77,54.77,0,0,0,315.47,130c.56-.13,1.12-.28,1.67-.43-.23-7.11-3.58-18-5-25A65.77,65.77,0,0,1,311.22,97.87Z"/><path class="cls-46" d="M311.87,97.24c-1-9.91-1.47-20.14-4.21-29.77-.86-3-1.85-6.74-4.22-9s-5.85-2.39-9.07-2.38c-.55,0-1,.87-1,1.35.36,5.71,2.85,10.61,4.59,16,2.18,6.71,2.16,13.83,2.29,20.81.13,7.28.51,14.23-2.11,21.16a52.81,52.81,0,0,0-3.81,15.78c0,.22.08.44.32.47A62.2,62.2,0,0,0,317,130.43a1.53,1.53,0,0,0,.85-1.32c-.59-10.84-4.82-21.09-5.93-31.86-.09-.86-1.36.61-1.3,1.26,1,9.24,4.09,18,5.46,27.15.59,4-1.88,3.9-5.34,4.33a56.83,56.83,0,0,1-7.82.39c-3.13,0-6.64.69-6.89-3.34-.2-3.14,1.56-7.21,2.64-10,3.57-9.32,3.12-18.33,2.83-28.22-.16-5.33-.41-10.67-2-15.8-1.67-5.51-4.44-10.53-4.8-16.38l-1,1.35c4.1,0,7.56.28,10,4,2.25,3.37,3.15,8.21,3.92,12.15,1.58,8,2.12,16.27,2.94,24.4C310.66,99.35,311.94,97.89,311.87,97.24Z"/></g><g class="cls-43"><path class="cls-35" d="M277.25,28.21a2,2,0,0,0-.51-.94,53.94,53.94,0,0,0-7.82,3.38q.05.32.1.63a9.29,9.29,0,0,1,3.65.2,8.65,8.65,0,0,1,3.7,2.51,3.87,3.87,0,0,0,2.08,1.48,1.93,1.93,0,0,0,.76-.05Q278.38,31.77,277.25,28.21Z"/></g><g class="cls-47"><path class="cls-48" d="M360.44,103.24c.12-1.76.41-3.52.39-5.29,0-3.1-1-5.59-.9-8.6a1.18,1.18,0,0,1-1.11-1.16,38.07,38.07,0,0,0-.09-4.35,22.91,22.91,0,0,0-1.3-4.18c-.47-1.12-1.22-2.33-2.43-2.48a97.73,97.73,0,0,1,1.42,24.88c-.52,7.28-1.85,14.47-3.06,21.67a30.75,30.75,0,0,0,9.3-2.76C361.64,115.08,360.05,109.2,360.44,103.24Z"/></g><g class="cls-49"><path class="cls-48" d="M371,87.25c-.06-.63-.13-1.26-.24-1.88a5.36,5.36,0,0,1-.13-1.42,31.79,31.79,0,0,1-.19-6.4S370.3,75.86,370,74a15.9,15.9,0,0,0-3-4.09,15.13,15.13,0,0,1-2-2.08,6.51,6.51,0,0,1-1.41-1.51l0-.07-.59-.42c-.5-.37-.94-.82-1.45-1.18-1.19-.84-2.29-1.3-3.37-2.14a1.46,1.46,0,0,1-.3,0,1.6,1.6,0,0,1-.7-.37,2.33,2.33,0,0,1-.58-1,1.07,1.07,0,0,1-.06-.28,1.42,1.42,0,0,1-.1-.87,4.51,4.51,0,0,1-.15-.94,10.34,10.34,0,0,1-3.75,3.69,6.84,6.84,0,0,0,1.58,2.09c1.36,1.24,3,2.09,4.37,3.37,2.63,2.55,3.46,6.39,4,10q.61,4.33.85,8.7c0,.4,0,.8.09,1.2a26.06,26.06,0,0,1,6.11-.88Z"/></g><path class="cls-50" d="M336.87,37.52c1.69.17,3.4.47,5.09.66a37.89,37.89,0,0,0,8.21,0h0a104.79,104.79,0,0,0,3.24,11c0-.91,0-1.83-.08-2.74-.11-1.8-.29-3.61-.35-5.4a.78.78,0,0,1,0-.25,1.39,1.39,0,0,1,.38-.75,1.88,1.88,0,0,1,1.55-.58,1.5,1.5,0,0,1,1.25,1c.37,1.35-1.4,2.44-1.38,3.84,0,.41.17.82.16,1.23a1,1,0,0,1-.35.72c2.71,5.9.83,10.52,2.11,15a2.57,2.57,0,0,0,.26.68L357,62c.32.42.94.42,1.39.71a25.78,25.78,0,0,1,4.15,2.71h0c-1-2.81-2.73-8.27-2.62-11.24a29.6,29.6,0,0,1,.8-5.11l1.3-6c.8-3.7,1.61-7.5,1.06-11.25s-2.77-7.49-6.34-8.76a34.15,34.15,0,0,1-3.93-1.16A33.32,33.32,0,0,0,336.87,37.52Z"/><path class="cls-51" d="M171.54,29.49a50.72,50.72,0,0,1,1.88-13.91A13.77,13.77,0,0,0,169,14.12a14.93,14.93,0,0,0-3.29,0,43.61,43.61,0,0,0-9.18,2,8.55,8.55,0,0,0-2.86,1.39,3.1,3.1,0,0,1,1.52-.07l.05.06a19.58,19.58,0,0,0-6.56,13l2.23-1.27a40,40,0,0,0,6.21,27.27l1.26-2a5.14,5.14,0,0,0,1.47,2.72,2.87,2.87,0,0,1,0-.64,2.91,2.91,0,0,1,1-1.72,16.27,16.27,0,0,1,2.63,2.8l4.65-3.18L169.81,58l1.25-3a2.08,2.08,0,0,1,1.27,1,22,22,0,0,1,2.33-8.93A48.73,48.73,0,0,1,171.54,29.49Z"/><g class="cls-52"><path class="cls-53" d="M193.34,74.95C193,73.79,182,64.68,175.22,62.51l-.15,0a33.86,33.86,0,0,1-4.28,1.25,15,15,0,0,0,2.93,1.91l15,8.13a7.34,7.34,0,0,1,3,2.36,7.35,7.35,0,0,1,.66,4.13l-.52,14.57a12.76,12.76,0,0,0,.2,3.46,12.43,12.43,0,0,0,1.45-.19,6.64,6.64,0,0,0,1.17-.32h0c.59-7,.18-10-.43-18.55A15,15,0,0,0,193.34,74.95Z"/></g><path class="cls-54" d="M298.24,251.79"/><path class="cls-55" d="M298.24,251.79"/><path class="cls-56" d="M350.16,38.21h0a37.89,37.89,0,0,1-8.21,0c-3-.34-6.52-1-9.54-.62.07.34.12.93.22,1.58a43.57,43.57,0,0,0,14.27,2.34q2.06,0,4-.18Q350.53,39.77,350.16,38.21Z"/><g class="cls-57"><path class="cls-58" d="M350.46,54.29c-1,.93-2.58,1.71-3.68,2.55-.52.4-1,.78-1.57,1.17l.61,1.1a8.31,8.31,0,0,1,.91,2.2c.16.64-.52,2.22-.44,2.87,0,0,0,.32.08.78a12.45,12.45,0,0,0,1.68-3.42,7.55,7.55,0,0,1,.58-1.34,10,10,0,0,1,1.19-1.44,10,10,0,0,0,2.53-5,7.07,7.07,0,0,0,.07-1.56A20.12,20.12,0,0,1,350.46,54.29Z"/></g><g class="cls-59"><path class="cls-60" d="M369.11,124.4a21,21,0,0,1-.36-4.29c.08-2.47.71-4.89,1-7.35a46.71,46.71,0,0,0,.07-6.07,43,43,0,0,0-.35-5c-.18-1.16-.45-2.31-.55-3.48-.35-3.93,1.31-7.08.65-11h0a26.38,26.38,0,0,0-5.69.76,11.14,11.14,0,0,0,.28,2.56c2.81,10.76,3,22.81,2.62,35.24-.11,3.83.27,7.67,0,11.49,0,.29,0,.59,0,.88a2.12,2.12,0,0,1,.33-.06h.13c.37,0,.74.12,1.11.12a.85.85,0,0,0,.88-.54,1.85,1.85,0,0,1,.07-.38c.11-.25.45-.27.72-.28a3.18,3.18,0,0,0,1.59-.56.9.9,0,0,0,.3-.31c.2-.4-.18-.94.09-1.3.08-.11.2-.17.28-.27a1.12,1.12,0,0,0,.05-1.06A92.06,92.06,0,0,0,369.11,124.4Z"/></g><g class="cls-61"><path class="cls-62" d="M179,243.71a4.12,4.12,0,0,1,1.34,1.89,5.1,5.1,0,0,1,.21,1.07,5.44,5.44,0,0,1-.86,3.81q2-.13,4-.38c1.46-1.28.08-5.29-1-5.33-.1,0-.17-.08-.27-.11l-3.1-.83"/></g><g class="cls-61"><path class="cls-62" d="M185.29,245.08a2.22,2.22,0,0,0-.63,0,5.44,5.44,0,0,1,1.62,3.44,1.45,1.45,0,0,1-.46,1.33l3.61-.38c.35-1.1-.54-3.71-1.28-3.86-.24,0-.44-.18-.68-.21l-2.66-.33"/></g><g class="cls-61"><path class="cls-62" d="M148,227.61a16.54,16.54,0,0,1,.94,2.2,19.1,19.1,0,0,1,.39,4.4c.73,0,1.91-.48,2.64-.52,0,0-.35-2.26-.35-2.32a3.52,3.52,0,0,0-1.11-2.78"/></g><g class="cls-61"><path class="cls-62" d="M151.82,228.79a3.31,3.31,0,0,1,.69,1.5c.12.46.5,2.68.52,3.15a16,16,0,0,0,2.12-.42c.05,0-.23-1.9-.23-2a3.39,3.39,0,0,0-1.17-2.28"/></g><path class="cls-63" d="M146,240.46a16.69,16.69,0,0,1-5.54.43c-2.09-.09-4.17-.23-6.25-.43-.07.92-.14,1.84-.21,2.78a.68.68,0,0,0,.07.45.65.65,0,0,0,.31.2,19,19,0,0,0,6.64.75,17.9,17.9,0,0,0,2.51-.14,13.81,13.81,0,0,0,2.27-.57,1.16,1.16,0,0,0,.37-.17,1.34,1.34,0,0,0,.33-.47,24.06,24.06,0,0,1,2.77-4.21A29.59,29.59,0,0,1,146,240.46Z"/><path class="cls-63" d="M170,255a36.27,36.27,0,0,1-8.77-.68,6.75,6.75,0,0,1-1.4-.34c-.14.9-.26,1.8-.36,2.7,2.2.51,6.23,1.13,8.48.72a18.21,18.21,0,0,0,4.27-.92,17.67,17.67,0,0,1,6.58-1.67l1.15-.09-.85-.14a19.82,19.82,0,0,0-2.93-.28"/><path class="cls-64" d="M145.56,227.82c-1.51.15-3,.3-4.53.4-1.84.12-3.69.12-5.54.16l-.08.62a11.9,11.9,0,0,0,12.5-1.39C147.12,227.73,146.29,227.75,145.56,227.82Z"/><path class="cls-64" d="M177.54,243a5.8,5.8,0,0,1-.22-1.65h-.14l-.23,0c-1.48.35-3,.73-4.46,1a24.22,24.22,0,0,1-3.3.28,24.12,24.12,0,0,1-6.07-.15,9.41,9.41,0,0,1-1.59-.13c0,.6-.08,1.19-.14,1.78a38.49,38.49,0,0,0,16.65-.84c-.16-.09-.32-.19-.46-.29Z"/><polygon class="cls-12" points="242.64 76.08 247.67 76.24 247.78 67.22 242.64 66.94 242.64 76.08"/><polygon class="cls-13" points="242.65 78.31 256.2 78.58 256.2 77.36 242.65 76.98 242.65 78.31"/><polygon class="cls-13" points="242.5 81.03 256.06 81.19 256.06 79.98 242.5 79.7 242.5 81.03"/><g class="cls-65"><path class="cls-46" d="M274.33,72.72l.07,0c.68-.09.49-.12.64-.08h0a.69.69,0,0,1,.7.07,2.78,2.78,0,0,1,.57-2,18,18,0,0,1,1.75-2.45,23.85,23.85,0,0,0,2-2.11,2.52,2.52,0,0,1,.61-.72c.16-.1.34-.16.5-.26a.53.53,0,0,0,.28-.45q-1.36.34-2.68.79c-1.37.46-2.71,1-4.09,1.42a5.35,5.35,0,0,1-1.56.28,6.05,6.05,0,0,1-1.08-.14,4.26,4.26,0,0,1-1-.3.41.41,0,0,0,.11.37l.15.48a28.86,28.86,0,0,1,2.19,3.52l.14.26.21.44.21.42A.91.91,0,0,0,274.33,72.72Z"/></g><path class="cls-66" d="M286.39,93.52l.3-1,0,0c-3.81-3.28-7.37-4.64-12.36-5.73l0,.12c-.31.41-.6.84-.87,1.27A60.82,60.82,0,0,1,286.39,93.52Z"/><g class="cls-47"><path class="cls-67" d="M158.2,172.6c1.56-6.41,2.17-12.1,3.91-18.44q-.76-4.16-1.75-8.27c-.14-.57-.43-1.27-1-1.27s-.81.63-.94,1.16c-.61,2.5-.38,5.14-.58,7.71a46.77,46.77,0,0,1-2.65,11l-5.4,16.42a15.36,15.36,0,0,1-2.06,4.54c-.66.88-1.5,1.59-2.13,2.49-1.87,2.68-1.51,6.31-1.47,9.62.12,10.28-3.68,20.56-2.6,30.65l3.44-.26,3.29-.27c-.72-2.87-.54-2-.58-5a40.45,40.45,0,0,1,.32-4.85q1-9.05,2-18.1c.2-1.89.41-3.78.75-5.65.17-.92.37-1.83.61-2.74A88.31,88.31,0,0,0,158.2,172.6Z"/></g><path class="cls-68" d="M144.88,135.29v0c0,1-.08,1.91-.11,2.8a3.23,3.23,0,0,1,0,.49c0,1.09-.09,2.18-.14,3.42,0,0,.31-4.33.31-4.31,13.68,4,20.66,2.64,40.09,2.42.06-2.63,0-.44.06-3.12C171.67,139.83,158.34,137.79,144.88,135.29Z"/><polygon class="cls-69" points="373.76 219.46 373.45 219.38 373.48 219.61 373.49 219.72 373.5 219.84 373.52 220.06 373.81 219.91 374.13 219.99 374.1 219.77 374.09 219.66 374.07 219.55 374.05 219.32 373.76 219.46"/><path class="cls-69" d="M356.24,179.69c-2.15-8.31-4.75-16.49-6.42-24.89a107.16,107.16,0,0,1-1.9-12.68c-.37-4.26-.41-8.54-.36-12.82h-.68c0,4.29,0,8.6.42,12.88a107.72,107.72,0,0,0,2,12.74c1.72,8.42,4.35,16.61,6.53,24.89,1.07,4.15,2,8.33,2.66,12.55s1.16,8.48,1.55,12.75l.53,6.4.24,3.21c.09,1.07.15,2.14.18,3.2,0,.16,0,.2,0,.51,0,.14.11.2.22.26l.17.09.1,0c.27.1.53.18.79.25l1.57.41a25.48,25.48,0,0,0,3.2.58,29.82,29.82,0,0,0,6.49,0l0-.22v-.23l0-.23a29.15,29.15,0,0,1-6.35,0,24.83,24.83,0,0,1-3.12-.55l-1.55-.4c-.25-.07-.51-.15-.74-.23l-.09,0h0v-.29c0-1.08-.1-2.16-.19-3.22l-.26-3.21-.56-6.41c-.41-4.27-.91-8.54-1.61-12.78S357.34,183.84,356.24,179.69Z"/><path class="cls-69" d="M349.94,210c-1.91-.15-3.82-.42-5.72-.7l0,.23v.23l0,.22c1.92.2,3.84.39,5.78.48a32.08,32.08,0,0,0,5.83,0l0-.22V210l0-.23A31.52,31.52,0,0,1,349.94,210Z"/><path class="cls-69" d="M356.14,194.33c0-5.28,0-10.56-.06-15.83h-.68c.14,5.27.25,10.55.28,15.82s-.16,10.55-.38,15.81H356C356.13,204.89,356.17,199.61,356.14,194.33Z"/><path class="cls-70" d="M285.22,38.83a5.18,5.18,0,0,0-1.21-4,4.63,4.63,0,0,0-.81-.73,1,1,0,0,0-.67-.19,1.56,1.56,0,0,0-.6.2,3.48,3.48,0,0,0-1.36,1.76l.22.07.1,0,.11,0,.21.07a2.91,2.91,0,0,1,1-1.44,1,1,0,0,1,.35-.13.39.39,0,0,1,.29.08,4.11,4.11,0,0,1,.71.61,4.68,4.68,0,0,1,1.18,3.55,4.34,4.34,0,0,1-.64,1.81,6.49,6.49,0,0,0-.9,1.91,5.74,5.74,0,0,0-.07,1.06,1.33,1.33,0,0,1-.18.78c-.26.36-.87.09-1.31-.33l-.15.16-.08.09-.07.08-.15.17a2.68,2.68,0,0,0,1,.58,1.16,1.16,0,0,0,1.25-.37,1.86,1.86,0,0,0,.29-1.16,5.35,5.35,0,0,1,0-1,6.08,6.08,0,0,1,.79-1.76A4.84,4.84,0,0,0,285.22,38.83Z"/><path class="cls-69" d="M221.05,54.52a1,1,0,0,1-.61-.79c0-.3.3-.56.65-.62a2.73,2.73,0,0,1,1.18.17l1.27.37,2.53.74a8.54,8.54,0,0,1,2.36.88l.13-.19.06-.09.07-.1.12-.18a9,9,0,0,0-2.57-.92l-2.55-.68-1.27-.34A3.17,3.17,0,0,0,221,52.6a1.2,1.2,0,0,0-1,1.13,1.43,1.43,0,0,0,.9,1.2,6.46,6.46,0,0,0,1.32.35,8.34,8.34,0,0,1,1.21.4l2.43,1a11.41,11.41,0,0,1,2.29,1.15,6.39,6.39,0,0,1,1.67,1.85l.19-.12.1-.06.09-.06.19-.12a7,7,0,0,0-1.88-2A11.92,11.92,0,0,0,226,56.17l-2.46-1a8.83,8.83,0,0,0-1.29-.4A6.26,6.26,0,0,1,221.05,54.52Z"/><path class="cls-71" d="M226.94,54.36"/><path class="cls-69" d="M275,72.43l-.26,0h-.62l0,.23v.23l0,.22.42-.11.21-.06.16-.06.15.06.21.07.42.12,0-.22,0-.12,0-.11,0-.23h-.62Z"/><path class="cls-69" d="M247.09,150.16a2.62,2.62,0,0,1-.37-1.58c.07-.53.29-1.12.42-1.71.29-1.18.47-2.35.8-3.48l-.22-.06-.11,0-.11,0-.21-.06c-.31,1.18-.46,2.38-.7,3.53-.11.58-.31,1.13-.37,1.79a3.11,3.11,0,0,0,.48,1.85,16.73,16.73,0,0,0,2.33,2.8,8.21,8.21,0,0,0,.65.66,1.24,1.24,0,0,0,1.08.32,2,2,0,0,0,.89-.55,4,4,0,0,1,.63-.53l-.11-.19-.06-.1-.06-.09-.12-.2c-.59.39-.93,1-1.32,1.05s-.78-.36-1.19-.77A16.46,16.46,0,0,1,247.09,150.16Z"/><path class="cls-69" d="M250.73,150.59a4.26,4.26,0,0,1-1.06-1.05,1.91,1.91,0,0,1,0-1.37l.84-3.07-.22-.06-.11,0-.11,0-.21-.05-.73,3.1a2.41,2.41,0,0,0,.09,1.74,4.51,4.51,0,0,0,1.21,1.15c.77.65,1.08,1.71,2,2.48a1.33,1.33,0,0,0,1,.26,1.39,1.39,0,0,0,.85-.52,2.5,2.5,0,0,0,.41-.81,1.82,1.82,0,0,0,.06-.94l-.22,0-.12,0-.11,0-.23,0a1.13,1.13,0,0,1,0,.63,1.89,1.89,0,0,1-.28.62.68.68,0,0,1-1,.18C252,152.42,251.61,151.31,250.73,150.59Z"/><path class="cls-69" d="M252.66,148.79c-.27-1,.39-2,.46-3.29h-.68c.05,1-.61,2.17-.22,3.43a3.33,3.33,0,0,0,1.06,1.47,2.25,2.25,0,0,1,.82,1.21l.22,0,.12,0,.11,0,.23,0a2.8,2.8,0,0,0-1.11-1.52A2.88,2.88,0,0,1,252.66,148.79Z"/><path class="cls-69" d="M224.4,57.79c-.28-.28-.62-.69-.59-.86a2.48,2.48,0,0,1,.48-1l-.19-.13-.09-.06-.1-.07-.18-.13a3,3,0,0,0-.5,1.37,1.09,1.09,0,0,0,.35.76,5.75,5.75,0,0,0,.49.47,3.6,3.6,0,0,1,1.32,1.94l.22,0,.12,0h.11l.23,0A4,4,0,0,0,224.4,57.79Z"/><path class="cls-69" d="M230,64.56c-.38-.05-.63-.45-.91-.88A5.5,5.5,0,0,0,228,62.51l-.14.18-.06.09-.07.1-.13.18a4.87,4.87,0,0,1,1,1c.28.35.64.94,1.33,1a1.54,1.54,0,0,0,.91-.29,1.79,1.79,0,0,1,.34-.14l.2,0,.39,0a3,3,0,0,0,0-.6,2,2,0,0,0-.06-.4,1.92,1.92,0,0,0-.36-.73l-.17.14-.09.08-.08.07-.17.15a1.27,1.27,0,0,1,.27.46,1.3,1.3,0,0,1,.06.27s0,0,0,.06h0l-.2.07a2.33,2.33,0,0,0-.42.21C230.36,64.44,230.18,64.57,230,64.56Z"/><path class="cls-69" d="M233.17,65.51a2,2,0,0,1-.63.15c-.1,0,0,0-.15-.3a8.12,8.12,0,0,0-.62-1.4l-.2.12-.09.06-.1.06-.19.12a7.51,7.51,0,0,1,.67,1.24L232,66c.08.22.35.17.54.17a2.31,2.31,0,0,0,.79-.25,2.71,2.71,0,0,0,1.22-1,2.51,2.51,0,0,0,.32-.77,1.18,1.18,0,0,0-.17-1l-.17.14-.09.07-.09.07-.18.14c.17.14.09.68-.11,1A2.2,2.2,0,0,1,233.17,65.51Z"/><path class="cls-69" d="M138.32,74.51c.52-2.13,1-4.36,2.38-6.05a5.2,5.2,0,0,1,2.61-1.73,30.92,30.92,0,0,1,3.23-.68,46.54,46.54,0,0,0,6.36-2.13l6.24-2.35-.08-.21,0-.1,0-.11-.08-.21-6.22,2.4a46.19,46.19,0,0,1-6.25,2.16,31.07,31.07,0,0,0-3.28.73,5.74,5.74,0,0,0-2.84,1.93,9.92,9.92,0,0,0-1.55,3,32.15,32.15,0,0,0-.87,3.24c-.66,2.87-1,5.78-1.4,8.68l-.58,4.35-.29,2.18-.15,1.09-.07.54a2.35,2.35,0,0,0,0,.32,2.32,2.32,0,0,0,.09.5,6.73,6.73,0,0,1,.72.19,4.65,4.65,0,0,1,.5.19c.28.13.61.39.94.58q1,.62,2,1.17a35.25,35.25,0,0,0,4.18,1.94l.08-.21,0-.11,0-.1.08-.21a34.63,34.63,0,0,1-4.12-1.87q-1-.53-2-1.13c-.33-.19-.6-.42-1-.61a5.22,5.22,0,0,0-.57-.21l-.39-.11a.07.07,0,0,1,0,0,1.81,1.81,0,0,1,0-.23l.06-.55.14-1.09.27-2.17.54-4.34C137.36,80.26,137.69,77.35,138.32,74.51Z"/><path class="cls-69" d="M143.16,87.75c-.27-2.7-.47-5.4-.5-8.1H142c.11,2.73.39,5.44.73,8.13s.62,5.4.94,8.09l.22,0,.12,0h.11l.23,0C143.92,93.11,143.5,90.43,143.16,87.75Z"/><path class="cls-69" d="M193.65,75.18a2.47,2.47,0,0,0-.11-.35,3.44,3.44,0,0,0-.22-.36c-.16-.18-.32-.38-.48-.55-.34-.34-.68-.68-1-1-.7-.64-1.42-1.26-2.15-1.86q-2.19-1.8-4.51-3.44t-4.78-3.08a27,27,0,0,0-5.19-2.41l-.07.22,0,.1,0,.11-.06.21a26.36,26.36,0,0,1,5.08,2.3q2.44,1.38,4.76,3c1.54,1.07,3.05,2.2,4.52,3.37.73.59,1.45,1.19,2.15,1.82.35.31.69.63,1,1,.16.16.3.34.46.51s.1.16.15.23a2.15,2.15,0,0,1,.11.32,16.5,16.5,0,0,1,.61,2.72c.1.92.14,1.87.21,2.81l.38,5.64a68.47,68.47,0,0,1-.15,11.26l.22,0h.23l.23,0a69.14,69.14,0,0,0,0-11.35l-.43-5.64c-.08-.94-.13-1.87-.24-2.83A17,17,0,0,0,193.65,75.18Z"/><path class="cls-69" d="M189.36,98.07A42.05,42.05,0,0,1,184,97.3l0,.23,0,.11,0,.12,0,.22a42.6,42.6,0,0,0,5.44.56,13.87,13.87,0,0,0,5.5-.49l-.09-.2,0-.11,0-.1-.09-.21A13.44,13.44,0,0,1,189.36,98.07Z"/><path class="cls-71" d="M144.31,135.32"/><path class="cls-72" d="M135.66,227.18c-.78,5.52-1.28,10.49-1.66,16.06a.69.69,0,0,0,.07.44.61.61,0,0,0,.31.2,19,19,0,0,0,6.64.75,17.87,17.87,0,0,0,2.51-.13,14,14,0,0,0,2.27-.57,1.19,1.19,0,0,0,.37-.17,1.35,1.35,0,0,0,.33-.47,27.33,27.33,0,0,1,3.23-4.74c1.2-1.06,3.41-1.56,4.14-2a5.69,5.69,0,0,0,2.51-2.49c.58-1.39.19-3-.21-4.47a.79.79,0,0,0-.21-.42.68.68,0,0,0-.36-.12c-1.36-.17-2.75-.08-4.11-.27a9.93,9.93,0,0,1-3.66-1.32c-.33-.2-.63-.27-.62-.67"/><path class="cls-38" d="M199.15,148.58a70.28,70.28,0,0,1-1.59-6.9l-.1-.48L197,130c-.12-2.82-.25-5.65-.64-8.45a69.7,69.7,0,0,0-2.29-9.92c-.2-4.5-.39-8.69-.6-13.52-1.63.32-4.54.45-9.46-.45q-.38,9.91.23,19.83h0c2.43,7.81,5,14.45,5.82,17.85l.19,2.13a13.05,13.05,0,0,1-.27,3.4,24.67,24.67,0,0,1-1.29,3.89c-.52,1.31-1.06,2.6-1.6,3.9a17.5,17.5,0,0,1-2,4,2.46,2.46,0,0,0-.29.45l0,.11c0,.5,0,1,0,1.49a1,1,0,0,0,.45.5,1.24,1.24,0,0,0,.66.09,1.45,1.45,0,0,0,1-.46h0l2.62-3c.54-.62.94-1.1,1-1.2s.76-.76,1.42-1.39h0a1.44,1.44,0,0,1,.76.49,2.88,2.88,0,0,1,.59,1.55,4.94,4.94,0,0,1,.18,1.42,3.57,3.57,0,0,1-1.44-.88,2,2,0,0,0-1.54-.56,1.77,1.77,0,0,0-.92.63c-.06.07,0,.22,0,.22a11.23,11.23,0,0,0,2.46,3.24c.17.15.34.3.52.45a2,2,0,0,0,.56.36c.42.16.82-.17,1.2-.4a3.25,3.25,0,0,0,1-.92,5.46,5.46,0,0,0,.51-1.25c.14-.44.3-.87.49-1.3l.06,0h0l0,0,.06,0c-.19.41-.35.84-.5,1.27a5.61,5.61,0,0,1-.55,1.28,3.41,3.41,0,0,1-1,1,5.58,5.58,0,0,1-.61.35.93.93,0,0,1-.72,0,2.13,2.13,0,0,1-.6-.37c-.18-.14-.36-.29-.53-.44a11.51,11.51,0,0,1-1-1c-.15-.18-.3-.36-.44-.54a4.77,4.77,0,0,0,.09,2.53c.28.73.59,1.81,1.47,1.67l0-.06.06,0h0l.17-.05c.46-.07.92-.15,1.38-.25.23-.05.45-.1.67-.17a2.19,2.19,0,0,0,.6-.31,7.17,7.17,0,0,0,1.79-2.09l.06,0,0,0,0,0,.06,0a7.34,7.34,0,0,1-1.86,2.12,2.36,2.36,0,0,1-.65.32c-.23.07-.46.12-.69.17q-.69.14-1.39.23h-.08a1.12,1.12,0,0,0-.18.88,2,2,0,0,0,.45.86,1,1,0,0,0,.4.23c.15.05.3.09.42,0l.88-.51a6.79,6.79,0,0,0,2.74-2.87l.07,0h.06l.06,0a5.37,5.37,0,0,1-1.22,1.67,9.8,9.8,0,0,1-1.64,1.23l-.79.48.36.71c.12.23.41.36.9.36,0,0,.75-.46,1.15-.66a3.74,3.74,0,0,0,1.68-1.55l.5-.94a8,8,0,0,1,.84-2.86,11.86,11.86,0,0,0,1-3.09A10,10,0,0,0,199.15,148.58Z"/></g><g id="V1"><path class="cls-73" d="M373.58,334.4c-.06.39-.08.6-.09.52l-.06-.35Zm-38.89-35.76,0,.19a5.14,5.14,0,0,0-.81-.49A3.52,3.52,0,0,0,334.69,298.64Zm-18.33-18.4c-.06.39-.08.6-.09.52l-.06-.35ZM.14,331.12l-.06.35c0,.07,0-.14-.08-.53Z"/><path class="cls-73" d="M393.3,105.53c-.06.39-.08.6-.09.52l-.06-.35ZM354.42,69.78l0,.19a5.14,5.14,0,0,0-.81-.49A3.52,3.52,0,0,0,354.42,69.78Zm-18.33-18.4c-.06.39-.08.6-.09.52l-.06-.35Z"/></g></g></g></svg>