<svg xmlns="http://www.w3.org/2000/svg" xmlns:xlink="http://www.w3.org/1999/xlink" viewBox="0 0 215.12 316.39"><defs><style>.cls-1{isolation:isolate;}.cls-2{fill:#5e472c;}.cls-2,.cls-20{opacity:0.13;}.cls-3{fill:#7a6758;}.cls-4{fill:#a38976;}.cls-5,.cls-6{fill:#c2a58e;}.cls-5{opacity:0.23;}.cls-20,.cls-32,.cls-40,.cls-5{mix-blend-mode:multiply;}.cls-7{fill:#ebb27f;}.cls-8{fill:#faf0df;}.cls-9{fill:#d9a475;}.cls-10{fill:#dcb79c;}.cls-11{fill:#6e5c4e;}.cls-12{fill:url(#Dégradé_sans_nom_47);}.cls-13{fill:#eedbb5;}.cls-14{fill:#836f5f;}.cls-15{fill:#c7b699;}.cls-16{fill:#cfa780;}.cls-17{fill:#fce6d0;}.cls-18{fill:#b49d8d;}.cls-19,.cls-24{fill:#54463e;}.cls-20{fill:#5e8aaf;}.cls-21{opacity:0.35;mix-blend-mode:overlay;}.cls-22,.cls-43{fill:none;}.cls-22{stroke:#fff9f8;stroke-width:0.25px;stroke-dasharray:5;}.cls-22,.cls-24,.cls-25,.cls-37,.cls-43{stroke-miterlimit:10;}.cls-23{fill:url(#Dégradé_sans_nom_130);}.cls-24{stroke:#54463e;}.cls-25{fill:#be4149;}.cls-25,.cls-37{stroke:#cd8080;}.cls-26{fill:#fff;}.cls-27{fill:#2b541a;}.cls-28,.cls-41{fill:#e1c39f;}.cls-29{fill:#ac915c;}.cls-30{fill:#e0d2c3;}.cls-31{fill:#b6a07c;}.cls-32{fill:#d5c7bc;opacity:0.29;}.cls-33{fill:url(#Dégradé_sans_nom_23);}.cls-34{fill:#ececec;}.cls-35{fill:#e7eeef;}.cls-36{fill:url(#Dégradé_sans_nom_23-2);}.cls-37{fill:#de8c8e;}.cls-38{fill:#fcbdaf;}.cls-39{fill:#f1b1a0;}.cls-40{opacity:0.61;}.cls-41{opacity:0.5;}.cls-42{fill:#bd8f66;}.cls-43{stroke:#c3b866;}</style><linearGradient id="Dégradé_sans_nom_47" x1="38.72" y1="110.96" x2="161.97" y2="110.96" gradientUnits="userSpaceOnUse"><stop offset="0.22" stop-color="#fff"/><stop offset="0.97" stop-color="#eff7ff"/></linearGradient><linearGradient id="Dégradé_sans_nom_130" x1="63.83" y1="84.74" x2="71.73" y2="148.54" gradientUnits="userSpaceOnUse"><stop offset="0" stop-color="#fff"/><stop offset="0.01" stop-color="#fdfefe"/><stop offset="0.08" stop-color="#f2f6fa"/><stop offset="0.18" stop-color="#ebf1f7"/><stop offset="0.45" stop-color="#e9f0f6"/></linearGradient><linearGradient id="Dégradé_sans_nom_23" x1="796.27" y1="-2933.4" x2="808.35" y2="-2933.4" gradientTransform="translate(67.63 3184.23) rotate(-13.43)" gradientUnits="userSpaceOnUse"><stop offset="0" stop-color="#fff"/><stop offset="1" stop-color="#f5f5f5"/></linearGradient><linearGradient id="Dégradé_sans_nom_23-2" x1="805.44" y1="-2931.71" x2="816.92" y2="-2931.71" xlink:href="#Dégradé_sans_nom_23"/></defs><title>calumet</title><g class="cls-1"><g id="Calque_2" data-name="Calque 2"><g id="Tente_2" data-name="Tente 2"><ellipse class="cls-2" cx="107.56" cy="294.42" rx="107.56" ry="21.97"/></g><g id="MENU"><path class="cls-3" d="M90.79,289.55a53.56,53.56,0,0,1,1.94,5.72,12.84,12.84,0,0,1,.25,3,12.29,12.29,0,0,1-.36,3,3.43,3.43,0,0,1-.67,1.26,3,3,0,0,1-1.17.81,8.7,8.7,0,0,1-2.94.45,48.31,48.31,0,0,1-6.06-.2A19.22,19.22,0,0,1,76,302a12.71,12.71,0,0,1-2.57-1.5,6.56,6.56,0,0,1-1.91-2.17,5.49,5.49,0,0,1-.51-2.8c0-1,.23-2,.36-3q.9-6,2.2-11.92.65-3,1.4-5.89c.25-1,.53-1.95.74-3,.06-.3.11-.61.16-.92,1.79.31,3.59.56,5.41.69a33.49,33.49,0,0,0,5.69,0A91.48,91.48,0,0,0,89,283.69C89.53,285.67,90.13,287.62,90.79,289.55Z" transform="translate(0 -0.19)"/><path class="cls-4" d="M93,301.3a3.85,3.85,0,0,1-.77,1.4,3.34,3.34,0,0,1-1.33.88,8.88,8.88,0,0,1-3.06.42,48.71,48.71,0,0,1-6.11-.11,19.75,19.75,0,0,1-6-1.41A13.42,13.42,0,0,1,73.05,301a7.16,7.16,0,0,1-2.1-2.34,6.08,6.08,0,0,1-.63-3.1c0-1,.2-2.05.32-3.06q.82-6,2-12c.41-2,.84-4,1.32-5.95a37.74,37.74,0,0,0,.82-3.84l1,.18c0,.31-.1.62-.16.92-.21,1-.49,2-.74,3q-.75,2.94-1.4,5.89-1.31,5.92-2.2,11.92c-.14,1-.32,2-.36,3a5.49,5.49,0,0,0,.51,2.8,6.56,6.56,0,0,0,1.91,2.17A12.71,12.71,0,0,0,76,302a19.22,19.22,0,0,0,5.82,1.46,48.31,48.31,0,0,0,6.06.2,8.7,8.7,0,0,0,2.94-.45,3,3,0,0,0,1.17-.81,3.43,3.43,0,0,0,.67-1.26,12.29,12.29,0,0,0,.36-3,12.84,12.84,0,0,0-.25-3,53.56,53.56,0,0,0-1.94-5.72c-.66-1.92-1.26-3.87-1.74-5.85a91.48,91.48,0,0,1-2.11-12.14l.88-.1a91.07,91.07,0,0,0,1.91,12.09c.45,2,1,3.9,1.64,5.82a54.44,54.44,0,0,1,1.87,5.81,13.21,13.21,0,0,1,.21,3.08A12.4,12.4,0,0,1,93,301.3Z" transform="translate(0 -0.19)"/><path class="cls-5" d="M81.39,268.29c1.86-.14,3.67-.35,5.45-.62q-.24-1.7-.43-3.4a33.49,33.49,0,0,1-5.69,0c-1.82-.14-3.63-.38-5.41-.69,0,.31-.1.62-.16.92-.21,1-.49,2-.74,3-.09.33-.16.67-.25,1C76.51,268.53,78.93,268.48,81.39,268.29Z" transform="translate(0 -0.19)"/><path class="cls-6" d="M81.7,280.21c-1.88-.89-5.65-1.47-7.57-.39-.79.44-1.78,1.6-1.17,2.56,1.39,2.21,5.68-.26,7.14-1,1.23-.61,6.58-2.73,6.35-.43-.17,1.74-2.24.53-3.46.08a7.87,7.87,0,0,0-2.4-.65c-.17,0-.37.44-.17.46,1.66.13,6,2.8,7.6,1,.68-.79.15-1.58-.62-2-2.32-1.18-5.65.32-7.67,1.35a13.55,13.55,0,0,1-2.82,1.26,3.38,3.38,0,0,1-2.57,0q-2.55-.3,1.1-2.53a11.16,11.16,0,0,1,6,.75c.17.08.4-.36.24-.44Z" transform="translate(0 -0.19)"/><path class="cls-3" d="M126.11,289.55a53.56,53.56,0,0,0-1.95,5.72,12.84,12.84,0,0,0-.26,3,12.29,12.29,0,0,0,.36,3,3.43,3.43,0,0,0,.67,1.26,3,3,0,0,0,1.17.81,8.7,8.7,0,0,0,2.94.45,48.31,48.31,0,0,0,6.06-.2,19.22,19.22,0,0,0,5.82-1.46,12.71,12.71,0,0,0,2.57-1.5,6.56,6.56,0,0,0,1.91-2.17,5.49,5.49,0,0,0,.52-2.8c0-1-.22-2-.36-3q-.89-6-2.19-11.92-.64-3-1.39-5.9c-.25-1-.53-1.95-.74-3-.06-.3-.11-.61-.16-.92-1.79.31-3.59.56-5.41.69a33.49,33.49,0,0,1-5.69,0,91.48,91.48,0,0,1-2.12,12.14C127.38,285.67,126.78,287.63,126.11,289.55Z" transform="translate(0 -0.19)"/><path class="cls-4" d="M123.87,301.3a3.85,3.85,0,0,0,.77,1.4,3.34,3.34,0,0,0,1.33.88A8.88,8.88,0,0,0,129,304a48.71,48.71,0,0,0,6.11-.1,19.75,19.75,0,0,0,6-1.4,13.42,13.42,0,0,0,2.71-1.52,7.16,7.16,0,0,0,2.1-2.33,6.08,6.08,0,0,0,.63-3.1c0-1-.2-2.05-.32-3.06q-.81-6-2-12c-.41-2-.84-4-1.31-5.95a37.74,37.74,0,0,1-.82-3.84l-1,.18c0,.31.1.62.16.92.21,1,.49,2,.74,3q.75,2.94,1.39,5.9,1.3,5.92,2.19,11.92c.14,1,.32,2,.36,3a5.49,5.49,0,0,1-.52,2.8,6.56,6.56,0,0,1-1.91,2.17,12.71,12.71,0,0,1-2.57,1.5,19.22,19.22,0,0,1-5.82,1.46,48.31,48.31,0,0,1-6.06.2,8.7,8.7,0,0,1-2.94-.45,3,3,0,0,1-1.17-.81,3.43,3.43,0,0,1-.67-1.26,12.29,12.29,0,0,1-.36-3,12.84,12.84,0,0,1,.26-3,53.56,53.56,0,0,1,1.95-5.72c.66-1.92,1.27-3.87,1.75-5.85A91.48,91.48,0,0,0,130,271.56l-.88-.1a91.07,91.07,0,0,1-1.92,12.09c-.45,2-1,3.9-1.64,5.81a54.44,54.44,0,0,0-1.87,5.81,13.21,13.21,0,0,0-.22,3.08A12.4,12.4,0,0,0,123.87,301.3Z" transform="translate(0 -0.19)"/><path class="cls-5" d="M134.16,268.3c-1.86-.14-3.67-.35-5.45-.62q.24-1.7.43-3.4a33.49,33.49,0,0,0,5.69,0c1.82-.13,3.63-.38,5.41-.69,0,.31.1.62.16.92.21,1,.49,2,.74,3,.08.33.16.67.24,1C139,268.55,136.63,268.49,134.16,268.3Z" transform="translate(0 -0.19)"/><path class="cls-6" d="M135.28,280.66a11.82,11.82,0,0,1,6-.74c1.83.23,2.15,2.16.17,2.74-.93.27-2.1-.47-3-.86-2.62-1.17-5.43-3.09-8.49-2-.82.28-1.58.77-1.33,1.73.59,2.33,6.67-.56,7.65-.63.17,0,.35-.47.17-.46-1.13.09-5.18,2.14-5.77,1.4-1.84-2.28,2.07-1.74,2.46-1.68a11.24,11.24,0,0,1,3.5,1.27c1.62.82,5.52,3.1,7.15,1a1.62,1.62,0,0,0-.3-2.15c-1.65-1.72-6.27-.9-8.14,0-.14.07-.29.53-.09.44Z" transform="translate(0 -0.19)"/><path d="M153.26,115.68a8.89,8.89,0,0,1,.48-1.33l-1.19-.13a9.52,9.52,0,0,0,.35,1.46,9.47,9.47,0,0,0-.26,1.48l1.18-.19A9,9,0,0,1,153.26,115.68Z" transform="translate(0 -0.19)"/><path class="cls-7" d="M126.72,63.42c-2.91-1.18-6.69-2-8.81-4.34l0-.12a0,0,0,0,0,0,0c-.4-1.19-.76-2.4-1.06-3.64-.23-.74-.45-1.49-.65-2.25-.11-.44-.22-.88-.32-1.32l0-.21c-.06-.25-.12-.51-.17-.78-.09-.43-.17-.86-.25-1.29,0-.07,0-.14,0-.22-2.46,4.72-5.68,10.23-8.16,12.16-2.19-1.91-5.41-8.43-6.57-10.87q-.06.32-.14.64a.2.2,0,0,1,0,.05q-.08.33-.17.66c-.06.23-.12.45-.19.67s-.13.42-.2.63l0,.07c-.07.2-.14.41-.22.61s-.16.42-.25.63-.15.37-.24.56l0,.06c-.09.2-.18.41-.28.61s-.21.51-.33.76A19.81,19.81,0,0,1,97,59.26l0,.07a11,11,0,0,1-3.23,1.61,34.43,34.43,0,0,0-5.3,2.24c-3.47,2-.59,7.61,3,5.5a30.08,30.08,0,0,1,4.79-2,3.58,3.58,0,0,0,.62.26,7.54,7.54,0,0,0,1.54.14l.21.2a2.92,2.92,0,0,0,.18.93A2.76,2.76,0,0,0,101.08,70c2.57.65,4.91,2.6,7.48,3.63,1.49.6,2.8-.61,3.17-2,.28-.21.57-.46.87-.72,1.06-.93,2.12-1.87,3.16-2.84.31-.29,1-1.18,1.63-1.85,2.31,1.19,4.89,2,7.36,3.05C128.58,70.91,130.48,64.95,126.72,63.42Z" transform="translate(0 -0.19)"/><path class="cls-8" d="M145.35,118.46a8.9,8.9,0,0,1-.87-3.19,3.46,3.46,0,0,1,.1-.49c0-.18.11-.37.15-.51a.73.73,0,0,1,.06-.16,17.36,17.36,0,0,0,.35,2.58l.34,2Z" transform="translate(0 -0.19)"/><path class="cls-7" d="M146.78,111.57a4.46,4.46,0,0,0-.59.05c.19-.24.38-.47.59-.7a11.8,11.8,0,0,1,2.31-1.91c0-.07-.07-.14-.11-.2a9.64,9.64,0,0,1,5-3.21,10.22,10.22,0,0,1,4-.12l.49.1.41-.27a10,10,0,0,1,3.15-1.14,16.66,16.66,0,0,1,2.26-.2,14.46,14.46,0,0,1,4.51.36c.4.1.79.23,1.18.37.22.07.44.16.66.25l.64-.13,4.52-.89,2.28-.45a4.42,4.42,0,0,1,2.2,0,1.88,1.88,0,0,1,.87.56,1.43,1.43,0,0,1,.3.92,2.67,2.67,0,0,1-.88,1.84,5.42,5.42,0,0,1-1.89,1.14,19,19,0,0,1-2.22.59,12.91,12.91,0,0,0-2.25.67,8.34,8.34,0,0,0-2,1.19,14.44,14.44,0,0,0-3,3.41c-.41.63-.8,1.27-1.18,1.91a10,10,0,0,0-1,2,5.84,5.84,0,0,0-.07,2.6l-.72.08a3.91,3.91,0,0,1-1.27-1.24,4.35,4.35,0,0,1-.6-1.65c-.21-1.17.11-2.39-.1-3.64a3.34,3.34,0,0,0-.81-1.73,2.51,2.51,0,0,0-1.84-.74,3.3,3.3,0,0,0-1.95.43,1.22,1.22,0,0,0-.49.87c0,.32,0,.62,0,.93a22.51,22.51,0,0,0,1.12,7.24,8.37,8.37,0,0,0,.77,1.7c.16.28.36.53.52.78l0,0-.5.27a21.09,21.09,0,0,1-2.36-3.24,7.83,7.83,0,0,1-.88-3.77,10.32,10.32,0,0,0-.74-3.94,1.47,1.47,0,0,0-.76-.8,2.4,2.4,0,0,0-1.1-.13,4.64,4.64,0,0,0-1.08.15,1.72,1.72,0,0,0-.93.59,1.81,1.81,0,0,0-.31,1c0,.35,0,.67,0,1v0c0-.09-.06-.18-.08-.27-.16-.54-.29-1.08-.4-1.62a5.47,5.47,0,0,0-.18-.85,1.45,1.45,0,0,0-.61-.72,1.56,1.56,0,0,0-1-.17,8.15,8.15,0,0,0-.9.11,2.34,2.34,0,0,0-1.43.8,5.88,5.88,0,0,0-.89-.18A6.16,6.16,0,0,0,146.78,111.57Z" transform="translate(0 -0.19)"/><path class="cls-8" d="M63.84,108.49a4,4,0,0,1,1.33-.11,3.37,3.37,0,0,1,.64.08c.13,0,.16.17.16.4a17.51,17.51,0,0,1-.7,5.17c-.46,1.69-1.34,3.25-1.92,4.94a9.62,9.62,0,0,0-.35,1.3c0,.21-.07.46-.11.65a.41.41,0,0,1-.31.37c-.37.11-.89,0-1.36.1a4.21,4.21,0,0,0-.7.16l-.6-1a16.54,16.54,0,0,0,1.92-5,17.05,17.05,0,0,0,.32-2.65,16.12,16.12,0,0,1,.13-2.6,2.45,2.45,0,0,1,.51-1.12A2.06,2.06,0,0,1,63.84,108.49Z" transform="translate(0 -0.19)"/><path class="cls-8" d="M60.15,106.87a2.67,2.67,0,0,1,1.31.28,1.39,1.39,0,0,1,.26.16.26.26,0,0,1,.07.2l0,.67-.07,2.73h.1c-.05.66,0,1.31,0,2a16.27,16.27,0,0,1-.32,2.59,16.08,16.08,0,0,1-1.89,4.88l.11.06.07,0,.05,0,.12.06.6,1a3.94,3.94,0,0,0-.66.28,8.38,8.38,0,0,0-1.15.78,1.59,1.59,0,0,1-1.23.22,6.09,6.09,0,0,0-1.87,0l-.13-1a40.92,40.92,0,0,0,2-8.37h0v-.24c0-.08,0-.18,0-.26.05-.35.11-.68.17-1s.09-.54.14-.8c.19-.9.12-1.84.38-2.68l0-.05a2.54,2.54,0,0,1,.56-1l.09-.09A1.92,1.92,0,0,1,60.15,106.87Z" transform="translate(0 -0.19)"/><path class="cls-9" d="M51.22,108.37l1,0a2,2,0,0,1,.82.27c0,.51-.11,1-.19,1.48a.94.94,0,0,0,0,.23,1.64,1.64,0,0,0,0,.19c0,.12,0,.25,0,.38s0,.25,0,.38,0,.26,0,.39c-.06.51-.17,1-.27,1.54a19.76,19.76,0,0,1-.73,3c-.08.25-.16.49-.25.74a2.28,2.28,0,0,1-.33.67,7.71,7.71,0,0,1-1.14,1.09l-.19.16a31.84,31.84,0,0,0,.94-5.13c.09-.83.16-1.65.22-2.47,0-.32,0-.64.07-1,0-.07,0-.14,0-.2Z" transform="translate(0 -0.19)"/><path class="cls-8" d="M52.1,124.15a2.14,2.14,0,0,1-1.29-.07,10.26,10.26,0,0,1-1.21-.63,3,3,0,0,0-1.38-.42c-.48,0-.95,0-1.41,0A3,3,0,0,1,44.5,122a4.58,4.58,0,0,1-1-2.34,10.3,10.3,0,0,1-.13-1.3l1.21-.05.11.06.06,0,.05,0,.12.07a7.7,7.7,0,0,0,.93-3.59c.07-.81.18-1.61.32-2.41.07-.39.13-.79.21-1.18a.08.08,0,0,1,0,0c.12-.58.26-1.15.43-1.73a9.87,9.87,0,0,1,.59-1.7,1.58,1.58,0,0,1,.11-.16,1.69,1.69,0,0,1,.27-.33,2.61,2.61,0,0,1,1-.59,2.17,2.17,0,0,1,1.74,0,.93.93,0,0,1,.44.66,4.28,4.28,0,0,1,0,.88l-.13,1.82,0,.24c0,.32,0,.65-.08,1-.07.8-.14,1.61-.23,2.41a30.13,30.13,0,0,1-1.15,5.61q-.11.34-.23.68l.58-.49.64-.54a8.25,8.25,0,0,0,1.18-1.16,2.73,2.73,0,0,0,.37-.75c.09-.25.17-.5.25-.76a20.15,20.15,0,0,0,.7-3.08c.09-.51.2-1,.25-1.56,0-.14,0-.27,0-.41s0-.26,0-.39,0-.27,0-.41a.63.63,0,0,1,0-.14.93.93,0,0,1,0-.22c.08-.5.17-1.05.21-1.55l0-.13,0,0h0a2.73,2.73,0,0,1,.64-1.13,2,2,0,0,1,1.39-.53,1.87,1.87,0,0,1,1.33.61,1.92,1.92,0,0,1,.47,1.36c0,.52,0,1,0,1.57v3.13h.07a41.19,41.19,0,0,1-2.12,8.24l.12,0,.07,0,.07,0,.13,0,.13,1a5.58,5.58,0,0,0-1,.23C53.73,123.39,53,123.94,52.1,124.15Z" transform="translate(0 -0.19)"/><path class="cls-9" d="M45.47,114.87a7.4,7.4,0,0,1-.9,3.42l-1.21.05c0-.44,0-.88,0-1.32,0-.91,0-1.82-.07-2.73,0-.44,0-.88,0-1.32s0-.81-.05-1.22a5.14,5.14,0,0,0-.3-1.33,4.63,4.63,0,0,0-.72-1.18,13.34,13.34,0,0,0-2.06-1.83l-.28-.21-.78-.6-1.11-.85-1.08-.83-.55-.42a2.84,2.84,0,0,1-.48-.42.38.38,0,0,1-.08-.45c.08-.17.21-.38.31-.57a9.1,9.1,0,0,1,.67-1.11,1.48,1.48,0,0,1,1.13-.32h.58c.28,0,.56,0,.84,0a4.76,4.76,0,0,1,2.54.75c.76.49,1.5,1,2.23,1.57a12.13,12.13,0,0,1,3.34,3.47c-.08.11-.16.21-.22.33a10.37,10.37,0,0,0-.63,1.75c-.17.59-.32,1.18-.46,1.78,0,.06,0,.12,0,.19-.09.41-.17.83-.24,1.24C45.64,113.41,45.53,114.14,45.47,114.87Z" transform="translate(0 -0.19)"/><path class="cls-10" d="M42.82,111.77c0,.46,0,.94.06,1.41l-.58.44L40,107.79a11.61,11.61,0,0,1,1.85,1.64,4.14,4.14,0,0,1,.68,1.1A4.54,4.54,0,0,1,42.82,111.77Z" transform="translate(0 -0.19)"/><path class="cls-11" d="M143.82,278.09c-.82.13-1.65.23-2.47.4h0c-.33.07-.64.16-.95.25l-.34.09c-.43.12-.86.21-1.29.3a29.18,29.18,0,0,1-5.24.52,31.9,31.9,0,0,1-8.59-1.07,223.55,223.55,0,0,0-.51-26.26q-.53-7.09-1.46-14.12-.23-1.76-.49-3.51l-.56-3.49-1.12-7-9.14-51.91c.28,0,.55.09.83.15a9.59,9.59,0,0,1,3.6,1.56l.1-.15.09-.13a10,10,0,0,0-3.67-1.83c-.35-.1-.7-.18-1.06-.25l-.4-.08a18.61,18.61,0,0,0-2.55-.28,18.34,18.34,0,0,0-4.37.61l-.51.14a18.4,18.4,0,0,0-2.94,1.13l.06.15.06.17a17.81,17.81,0,0,1,2.63-.87,15.55,15.55,0,0,0-.35,1.54l-.54,3.59-2.11,14.32-2.12,14.32-1.06,7.16c-.34,2.39-.66,4.79-.8,7.23-.09,1.2-.08,2.46-.1,3.63a5.13,5.13,0,0,1-.29,1.63c-.19.5-.53,1-.79,1.56a6.16,6.16,0,0,0-.48,1.86c-.08.62-.12,1.21-.18,1.82l-.34,3.61c-.45,4.81-.89,9.62-1.25,14.45A278.33,278.33,0,0,0,92.24,278a20.88,20.88,0,0,1-3.93.73l-.9.06a29.38,29.38,0,0,1-5.55-.24,52.32,52.32,0,0,1-5.34-1l-1-.25c-1.43-.36-2.85-.75-4.26-1.15,1.81-9.85,2.59-19.86,3.44-29.83.42-5,.87-10,1.47-15,.15-1.25.31-2.49.48-3.73s.35-2.48.56-3.72.43-2.47.57-3.75a13.75,13.75,0,0,0,.09-1.94,8.19,8.19,0,0,1,0-1.79c.2-1.1,1-2.14,1.21-3.56a9.73,9.73,0,0,0,0-2C79,210.21,79,209.6,79,209a64.94,64.94,0,0,1,.28-7.49l1.17-15.07,2.3-29.77h.09c.95.12,1.9.26,2.85.35l2.86.27c3.82.29,7.65.43,11.49.35s7.65-.34,11.47-.81,7.6-1.1,11.35-1.95,7.48-1.86,11.14-3.08l1.43-.49a123.77,123.77,0,0,1,4.53,28c.56,11-.06,22-.43,33s-.44,22.14,1.17,33.07c.76,5.46,1.74,10.88,2.11,16.36a76.85,76.85,0,0,1,.12,8.24l0,1a8.21,8.21,0,0,0,.09,1.07l.28,2.05Z" transform="translate(0 -0.19)"/><path class="cls-12" d="M144.77,113.72a7.18,7.18,0,0,0-.29.7,2.81,2.81,0,0,0-.13.36l0,.16h0c0,.05,0,.11,0,.16h0a4.22,4.22,0,0,0-.11.62v.12l0-.11-.08-.21-.17-.43-.58-1.41c-.44-1.1-.91-2.18-1.38-3.26q-1.41-3.25-3-6.45-1.23-2.52-2.54-5l-.7-1.34-.11-.21c-.06.21-.11.42-.17.63-.82,3.12,1,53.36,1.76,55.13l.28.66.06.15s0,0,0,.06l-.93.31-.29.1-1,.33-1.42.45c-3.64,1.12-7.34,2-11.06,2.83s-7.49,1.36-11.28,1.8-7.59.67-11.4.77-7.62,0-11.42-.27l-2.85-.23c-.95-.08-1.89-.21-2.84-.3l-1.42-.16-1.42-.2-1.41-.21-.55-.07c-.15,0-.06-.13-.07-.22.18-1.85.21-34.05.19-38.11s-1.47-30.21-1.7-32.64c0-.2,0-.4,0-.59l-.39.43c-3.5,3.81-7.19,7.47-11.07,10.94-1.21,1.09-2.44,2.15-3.68,3.2-.62.53-1.26,1-1.87,1.61a5,5,0,0,0-1.44,2.12,4.58,4.58,0,0,0,.14,2.52l0,.12a3.24,3.24,0,0,0-.18.45c0,.07,0,.15,0,.23H57.9l-.19,0a2.7,2.7,0,0,0-.11-.64,2,2,0,0,0-.44-.74,2.21,2.21,0,0,0-1.59-.7,2.28,2.28,0,0,0-1.62.63,3,3,0,0,0-.68,1.19,2.57,2.57,0,0,0-.88-.16l-1-.14a2.64,2.64,0,0,0,0-.57,1.18,1.18,0,0,0-.57-.83,2.44,2.44,0,0,0-2-.08,3.36,3.36,0,0,0-.89.46l-.13.12a12.86,12.86,0,0,0-3.38-3.45c-.74-.54-1.48-1.07-2.26-1.58a5.16,5.16,0,0,0-1.3-.59,6.47,6.47,0,0,0-1.42-.21h-.73a7,7,0,0,1,1.06-1.68c.6-.74,1.24-1.47,1.87-2.21,0,0,21.35-25,22.73-26.32a23.86,23.86,0,0,1,4.53-3.54,25.29,25.29,0,0,1,5.34-2.33c3.74-1.23,7.67-2,11.56-2.92a66,66,0,0,0,7-1.69A3.2,3.2,0,0,0,93,62a8.85,8.85,0,0,0,1.65,2.32,13.64,13.64,0,0,0,2.16,1.84,14.14,14.14,0,0,0,1.22.74l0,0,.81.48.22,0c.92.45,1.86.83,2.78,1.24,1.68.78,3.36,1.6,5.05,2.39a3.26,3.26,0,0,0,1.4.49,2.3,2.3,0,0,0,1.39-.61l2.19-1.7,4.37-3.39,2.19-1.7.55-.43.27-.21.29-.26a9.42,9.42,0,0,0,.93-1.1c.21-.29.23-.63.42-.93.22.08.62.18.84.25a23.93,23.93,0,0,0,3.12.52,47.35,47.35,0,0,1,6,1.23,39,39,0,0,1,11,4.88c1.67,1.09,8.69,16,10.22,19.77a31.63,31.63,0,0,0,2.79,5.28l3.16,5c1.05,1.67,2.13,3.34,3.15,5,.22.35.42.71.62,1.06,0,0,.1.21.16.34a9.51,9.51,0,0,0-2,.6,10,10,0,0,0-1.35.7,10.39,10.39,0,0,0-4.44.15,10,10,0,0,0-5.14,3l-.11.12a12.31,12.31,0,0,0-2.41,2A10.32,10.32,0,0,0,144.77,113.72Z" transform="translate(0 -0.19)"/><path class="cls-13" d="M162.71,103.8l0,.06a5.38,5.38,0,0,0-.9.18s0,0-.06-.11l.19,0Z" transform="translate(0 -0.19)"/><path class="cls-14" d="M153,115.68c0-.39,0-.78,0-1.17.1.31.2.61.3.92s0,.68,0,1c0,.1,0,.2,0,.31Q153.13,116.22,153,115.68Z" transform="translate(0 -0.19)"/><path class="cls-14" d="M148.82,108.41s0,0,0,0l-.12.08Z" transform="translate(0 -0.19)"/><path class="cls-14" d="M145.48,118.7l.29.57h-.05l-.14,0Z" transform="translate(0 -0.19)"/><path class="cls-15" d="M144.78,114a3.3,3.3,0,0,1,.25-1.35,2.56,2.56,0,0,1,.37-.61,1.39,1.39,0,0,1,.62-.45l.16,0c-.14.18-.27.36-.39.54a2.1,2.1,0,0,0-.48.65,2.6,2.6,0,0,0-.14.41l0,.06c-.11.21-.19.44-.28.65,0,.06,0,.12-.06.18A.26.26,0,0,1,144.78,114Z" transform="translate(0 -0.19)"/><path class="cls-14" d="M145.79,119.27h.07l.13,0-.52-2.6a17.73,17.73,0,0,1-.41-2.59,3.43,3.43,0,0,1,.11-.82l0,.06c-.11.21-.19.44-.28.65,0,.06,0,.12-.06.18a17.36,17.36,0,0,0,.35,2.58l.34,2,.29.57Z" transform="translate(0 -0.19)"/><path class="cls-13" d="M144.48,114.29a6,6,0,0,0,0,1c0,.26-.07.54-.11.79s-.05.4-.07.58a7.6,7.6,0,0,1-.23-2.21h0l0-.12v0h.37Z" transform="translate(0 -0.19)"/><path class="cls-16" d="M144.11,114.26v0l0,.12c0-.06,0-.11,0-.16Z" transform="translate(0 -0.19)"/><path class="cls-14" d="M124.48,25.52c-.13-.57-.29-1.14-.46-1.7a3.53,3.53,0,0,1,.29-.61A3.17,3.17,0,0,1,124.48,25.52Z" transform="translate(0 -0.19)"/><path class="cls-14" d="M123.73,24.77a9.66,9.66,0,0,1,.28-.95c.17.56.33,1.13.46,1.7a2,2,0,0,1-.38.7C124,25.74,123.87,25.25,123.73,24.77Z" transform="translate(0 -0.19)"/><path class="cls-14" d="M124,22.71a3.21,3.21,0,0,0-.22.33s0,0,0,0c0-.17,0-.33,0-.49A1.74,1.74,0,0,1,124,22.71Z" transform="translate(0 -0.19)"/><path class="cls-17" d="M123.73,24.77c.13.48.26,1,.36,1.45a1.52,1.52,0,0,1-.48.4c0-.54,0-1.07,0-1.61h0Z" transform="translate(0 -0.19)"/><path class="cls-14" d="M123.77,23c.09.26.17.52.25.78a9.66,9.66,0,0,0-.28.95c0-.09,0-.17-.07-.26,0-.48.05-1,.09-1.44Z" transform="translate(0 -0.19)"/><path class="cls-14" d="M123.75,23s0,0,0,0l0,0Z" transform="translate(0 -0.19)"/><path class="cls-14" d="M123.75,23c-.08-.24-.16-.47-.25-.7a2.19,2.19,0,0,1,.28.21C123.78,22.67,123.76,22.83,123.75,23Z" transform="translate(0 -0.19)"/><path class="cls-14" d="M123.43,23.77a4.43,4.43,0,0,1,.32-.69c0,.48-.06,1-.09,1.44C123.59,24.26,123.5,24,123.43,23.77Z" transform="translate(0 -0.19)"/><path class="cls-17" d="M123.65,25c0,.53,0,1.07,0,1.61a1.36,1.36,0,0,1-.4.15c0-.64,0-1.28,0-1.92Z" transform="translate(0 -0.19)"/><path class="cls-17" d="M123.93,32.89c0,.15,0,.29.05.44l-.09-.06-.19.32c-.13-.95-.23-1.9-.31-2.86,0-.2,0-.39,0-.59s0-.35,0-.52,0-.44,0-.67a.17.17,0,0,1,0-.07c0-.29,0-.59,0-.89a.4.4,0,0,1,0-.08c0-.38,0-.76,0-1.14a1.36,1.36,0,0,0,.4-.15A55.61,55.61,0,0,0,123.93,32.89Z" transform="translate(0 -0.19)"/><path class="cls-14" d="M123.36,21.93l.14.37-.16-.08C123.34,22.12,123.35,22,123.36,21.93Z" transform="translate(0 -0.19)"/><path class="cls-14" d="M123.5,22.29c.09.23.17.47.25.7v.08a4.43,4.43,0,0,0-.32.69l-.15-.48c0-.14,0-.29,0-.43a0,0,0,0,1,0,0c0-.21,0-.41,0-.62Z" transform="translate(0 -0.19)"/><path class="cls-17" d="M123.73,24.77l-.06.26h0l-.43-.16c0,.64,0,1.28,0,1.92h-.05c0-.68,0-1.36,0-2,0-.52,0-1,.05-1.56-.12-.34-.24-.68-.37-1q.22.55.42,1.12l.15.48c.07.25.17.49.23.75C123.69,24.6,123.71,24.69,123.73,24.77Z" transform="translate(0 -0.19)"/><path class="cls-14" d="M123.27,23.29q-.19-.57-.42-1.12l0,0,0-.07a1.46,1.46,0,0,1,.53.15c0,.21,0,.41,0,.62a0,0,0,0,0,0,0C123.29,23,123.29,23.15,123.27,23.29Z" transform="translate(0 -0.19)"/><path class="cls-8" d="M122.84,22.13l0,0A.05.05,0,0,1,122.84,22.13Z" transform="translate(0 -0.19)"/><path class="cls-8" d="M121.34,19.05c-.16-.28-.32-.54-.49-.8C121,18.51,121.19,18.78,121.34,19.05Z" transform="translate(0 -0.19)"/><path class="cls-8" d="M120.68,18c-.13-.21-.27-.41-.41-.61C120.41,17.58,120.55,17.78,120.68,18Z" transform="translate(0 -0.19)"/><path class="cls-14" d="M119.49,15.7l-.43.08h0Z" transform="translate(0 -0.19)"/><path class="cls-14" d="M119.06,15.78a21.94,21.94,0,0,1,3.07,4.73c-.25-.49-.5-1-.78-1.45-.15-.28-.32-.54-.49-.8l-.18-.26c-.13-.21-.27-.41-.41-.61-.39-.55-.81-1.09-1.24-1.59Z" transform="translate(0 -0.19)"/><path class="cls-14" d="M119,15.67l.08.1h0l-.09-.1Z" transform="translate(0 -0.19)"/><path class="cls-14" d="M119,15.78h0Z" transform="translate(0 -0.19)"/><path class="cls-8" d="M119,15.78c-1.61.28-3.23.5-4.84.67q2.43-.26,4.84-.67Z" transform="translate(0 -0.19)"/><path class="cls-14" d="M119.49,15.7l-.43.07-.08-.1h0l-.25-.28.74-.14.34.4Z" transform="translate(0 -0.19)"/><path class="cls-8" d="M119.19,58.86h0l-.1-.25A1.71,1.71,0,0,1,119.19,58.86Z" transform="translate(0 -0.19)"/><path class="cls-8" d="M116,48.89c0,.07,0,.14,0,.21S116,49,116,48.89Z" transform="translate(0 -0.19)"/><path class="cls-14" d="M115.94,48.37h0Z" transform="translate(0 -0.19)"/><path class="cls-8" d="M111.12,16.7l1.39-.09Z" transform="translate(0 -0.19)"/><path class="cls-14" d="M110,32.4" transform="translate(0 -0.19)"/><path class="cls-14" d="M98.84,49.24a27.55,27.55,0,0,0,6,2.18c.55.14,1.11.25,1.68.36l-.13,0c-.56-.1-1.12-.22-1.68-.36a26,26,0,0,1-5.84-2.2Z" transform="translate(0 -0.19)"/><path class="cls-9" d="M109.2,52.85a23.24,23.24,0,0,0,6.18-3l.26-.19v.05c-2.36,4.82-5.48,10.45-8,12.48-2.37-1.82-6-8.2-7.34-10.59,0-.21.07-.4.09-.61a23.17,23.17,0,0,0,5.48,2l.73.15.93.17.91-.24Z" transform="translate(0 -0.19)"/><path class="cls-8" d="M98.72,66.71l-.81-.48c.34.18.68.36,1,.51Z" transform="translate(0 -0.19)"/><path class="cls-14" d="M98.69,49.25l-.11,0s0,0,0,0Z" transform="translate(0 -0.19)"/><path class="cls-13" d="M98.4,49l.22,0,0,.08h0Z" transform="translate(0 -0.19)"/><path class="cls-14" d="M98.4,49l.19.1-.2-.1Z" transform="translate(0 -0.19)"/><path class="cls-13" d="M98.59,49.19,98.2,49l.17,0,.2.1h0S98.59,49.17,98.59,49.19Z" transform="translate(0 -0.19)"/><path class="cls-14" d="M96.64,54.76l0-.06Z" transform="translate(0 -0.19)"/><path class="cls-14" d="M93.45,59.94" transform="translate(0 -0.19)"/><path class="cls-14" d="M95.76,16.08l.13,0-.08.09-.12,0Z" transform="translate(0 -0.19)"/><path class="cls-14" d="M95.69,16.17l-.61-.07.32-.41.76.11-.27.3-.13,0Z" transform="translate(0 -0.19)"/><path class="cls-8" d="M95.35,16.79c-.12.15-.23.3-.34.45A5.17,5.17,0,0,1,95.35,16.79Z" transform="translate(0 -0.19)"/><path class="cls-8" d="M94.19,18.47c.21-.35.44-.7.68-1C94.64,17.78,94.41,18.12,94.19,18.47Z" transform="translate(0 -0.19)"/><polygon class="cls-14" points="92.33 266.9 92.25 267.02 92.24 266.9 92.33 266.9"/><path class="cls-14" d="M91.82,23.46a22.26,22.26,0,0,1,3.87-7.29l.12,0c-.16.2-.32.39-.46.6a5.17,5.17,0,0,0-.34.45l-.14.2c-.24.33-.46.68-.68,1a23.09,23.09,0,0,0-2.37,5.21C91.82,23.6,91.82,23.54,91.82,23.46Z" transform="translate(0 -0.19)"/><path class="cls-8" d="M91.87,26.82c0-.34,0-.68,0-1A3,3,0,0,1,91.87,26.82Z" transform="translate(0 -0.19)"/><path class="cls-8" d="M91.88,25.64v.16a2.18,2.18,0,0,0-.05-.27v-.07C91.84,25.52,91.86,25.59,91.88,25.64Z" transform="translate(0 -0.19)"/><path class="cls-8" d="M91.82,25.47c0-.26,0-.52,0-.78h.05l0,1C91.86,25.59,91.84,25.52,91.82,25.47Z" transform="translate(0 -0.19)"/><path class="cls-8" d="M91.82,26.95v-.09h0a.14.14,0,0,0,0,0V27Z" transform="translate(0 -0.19)"/><path class="cls-8" d="M91.81,24.69c0-.29,0-.59,0-.88l0-.13c0,.34,0,.67,0,1Z" transform="translate(0 -0.19)"/><path class="cls-14" d="M91.83,23.68l0,.13c0-.08,0-.17,0-.25l0-.1C91.82,23.54,91.82,23.6,91.83,23.68Z" transform="translate(0 -0.19)"/><path class="cls-14" d="M91.75,22.24c0,.4,0,.82.07,1.22l0,.1c0,.08,0,.17,0,.25-.09.3-.18.6-.26.91h-.05l0-.07c0-.43,0-.86-.06-1.29S91.61,22.62,91.75,22.24Z" transform="translate(0 -0.19)"/><path class="cls-14" d="M91.51,24.79l0-.06h.05Z" transform="translate(0 -0.19)"/><path class="cls-14" d="M91.51,24.79l-.06.24,0-.28h0Z" transform="translate(0 -0.19)"/><path class="cls-8" d="M91.29,25.66c0-.21.1-.42.15-.63,0,.6,0,1.2,0,1.8l-.15-.05a2.26,2.26,0,0,0,0-1.11Z" transform="translate(0 -0.19)"/><path class="cls-14" d="M91.47,24.74h0s0-.05,0-.08Z" transform="translate(0 -0.19)"/><path class="cls-14" d="M91.36,23.38c0,.43,0,.86.06,1.29a2.66,2.66,0,0,0-.19-.24l-.14-.13C91.18,24,91.26,23.69,91.36,23.38Z" transform="translate(0 -0.19)"/><path class="cls-14" d="M91.44,25c-.05.21-.11.41-.15.63a2.19,2.19,0,0,0-.36-.71,1.74,1.74,0,0,1,.49-.2Z" transform="translate(0 -0.19)"/><path class="cls-14" d="M91.24,24.43a2.66,2.66,0,0,1,.19.24s0,.05,0,.08a1.74,1.74,0,0,0-.49.2c.05-.21.1-.43.16-.64Z" transform="translate(0 -0.19)"/><path class="cls-8" d="M90.9,34c0,.09,0,.18,0,.27h0C90.88,34.19,90.89,34.1,90.9,34Z" transform="translate(0 -0.19)"/><path class="cls-8" d="M90.81,34.67c0-.13,0-.26.05-.39h0C90.85,34.41,90.83,34.54,90.81,34.67Z" transform="translate(0 -0.19)"/><path class="cls-14" d="M90.68,30.08l-.46,0v0l.46,0Z" transform="translate(0 -0.19)"/><path class="cls-14" d="M90.4,27.84l-.18-2.16a1.76,1.76,0,0,1,.71-.74A25.29,25.29,0,0,0,90.4,27.84Z" transform="translate(0 -0.19)"/><path class="cls-14" d="M90.23,25.69l-.11-1.28a1.31,1.31,0,0,1,.77.47l0,.07A1.76,1.76,0,0,0,90.23,25.69Z" transform="translate(0 -0.19)"/><path class="cls-14" d="M90.21,30.06v0h0Z" transform="translate(0 -0.19)"/><path class="cls-14" d="M90.08,29.43c0-.76,0-1.53-.11-2.3a2.5,2.5,0,0,1,.25-1.44l.18,2.16a25.11,25.11,0,0,0-.19,3.29l-.13-1.69Z" transform="translate(0 -0.19)"/><path class="cls-7" d="M125.31,30.21c0-1.37-.12-2.73-.17-4.1a3,3,0,0,0-.17-3.65,12.67,12.67,0,0,0-.12-8c-1-2.68-1.68-5.36-4.14-7-5.12-3.41-11.89-3.1-17.59-1.82S92.65,9.22,90.94,15.42a22.47,22.47,0,0,0-.63,8.12,2.68,2.68,0,0,0-.31.85,1.18,1.18,0,0,0-.29,0h0a1.51,1.51,0,0,0-.46.12,1.68,1.68,0,0,0-.73.63,2.42,2.42,0,0,0-.35,1,5.58,5.58,0,0,0,.32,2.3c.28.74.62,1.44.85,2.23a5.32,5.32,0,0,1,.21,1.25,6.46,6.46,0,0,1-.09,1.25c-.05.41-.11.8-.13,1.18a3.09,3.09,0,0,0,.12,1.08,1.13,1.13,0,0,0,.53.69.56.56,0,0,0,.66,0l.07.11s0,0,0,0c0-.21.07-.41.1-.63s0-.25.05-.37,0-.17,0-.25h0l.25.06h0c0,.13,0,.25,0,.38.09,2.1,1.13,4.41,1.71,6.32.07.25.15.5.25.75s.13.38.2.56a1.37,1.37,0,0,0,.08.18l.26.62c.11.24.24.48.36.71l.18.35.2.34.41.67c.31.43.59.88.93,1.28a18.67,18.67,0,0,0,4.28,4.56l.35.21.2,0,0,.08,0,0,.2,0,0,.07a22.62,22.62,0,0,0,5.3,2.22c.49.14,1,.26,1.49.37.46-.1.92-.21,1.37-.34a21.73,21.73,0,0,0,5.94-2.69l.4-.28h0a18.15,18.15,0,0,0,3.87-4.27c.34-.4.62-.85.93-1.28l.41-.67.2-.34.18-.35c.12-.24.25-.47.36-.71l.31-.72c.11-.24.19-.5.28-.75a7.65,7.65,0,0,0,.25-.76c.62-2,1.65-4.5,1.73-6.74v-.06c0-.29-.09-.59-.13-.87,0-.12,0-.25-.05-.37a.26.26,0,0,0,0-.06v0a2.21,2.21,0,0,0,.33-.14v0a.66.66,0,0,0,.57,0,1.37,1.37,0,0,0,.64-.55,2.23,2.23,0,0,0,.27-.94,4.73,4.73,0,0,0-.05-1.09C125.38,30.6,125.34,30.4,125.31,30.21Z" transform="translate(0 -0.19)"/><path class="cls-14" d="M87.63,26.52c0,.13,0,.26,0,.39h0C87.62,26.78,87.63,26.65,87.63,26.52Z" transform="translate(0 -0.19)"/><path class="cls-18" d="M92.25,267.2l.09-.12h-.09Z" transform="translate(0 -0.19)"/><path class="cls-14" d="M42.88,113.19c0,.45,0,.89,0,1.35l-.2.16-.43-1.07Z" transform="translate(0 -0.19)"/><path class="cls-14" d="M42.3,113.62l.43,1.07-.34.3-.44-1.09Z" transform="translate(0 -0.19)"/><path class="cls-14" d="M42.3,113.62l-.35.29-2.61-6.49-.09-.23.61.46.16.13Z" transform="translate(0 -0.19)"/><path class="cls-14" d="M108.43,45.3a7,7,0,0,1-4.6-1.68l-.49.34a7.78,7.78,0,0,0,5.1,1.49,7.62,7.62,0,0,0,4.93-1.79l-.52-.31A6.79,6.79,0,0,1,108.43,45.3Z" transform="translate(0 -0.19)"/><path class="cls-19" d="M96.43,26l1,.47A3.79,3.79,0,0,1,101,24v-.94A5,5,0,0,0,96.43,26Z" transform="translate(0 -0.19)"/><path class="cls-19" d="M117.05,26.06l.87-.67a5.13,5.13,0,0,0-5-2.11l0,.18,0,.78C114.62,24.15,116.24,24.61,117.05,26.06Z" transform="translate(0 -0.19)"/><path class="cls-20" d="M95.16,162.86A194.3,194.3,0,0,0,120,160.17c5.27-.91,10.49-2.05,15.68-3.34-.17-.6-.35-1.21-.53-1.81l-1.43.44c-3.67,1.12-7.39,2-11.14,2.81S115,159.61,111.23,160s-7.64.65-11.47.74-7.67-.06-11.49-.32l-2.86-.25c-1-.08-1.9-.21-2.85-.32h-.09l-.23,2.76C86.53,162.85,90.83,163,95.16,162.86Z" transform="translate(0 -0.19)"/><g class="cls-21"><path class="cls-22" d="M85.13,156.37a953.9,953.9,0,0,1-12,120.25" transform="translate(0 -0.19)"/></g><g class="cls-21"><path class="cls-22" d="M132.26,152.83a163.38,163.38,0,0,1,5.36,31c.39,5.25.54,10.53.42,15.8s-.51,10.53-.8,15.79a135.82,135.82,0,0,0-.18,15.8c.28,5.26,1,10.49,1.7,15.7s1.45,10.43,1.83,15.68a73.76,73.76,0,0,1-.41,15.77" transform="translate(0 -0.19)"/></g><path class="cls-23" d="M76.05,87.41l.39-.43c0,.17,0,.34,0,.52L77.34,80S71.27,83.82,59.9,91.91,53,107.2,53,107.2l.29.62a2.87,2.87,0,0,1,.48-.7,2.28,2.28,0,0,1,1.62-.63,2.21,2.21,0,0,1,1.59.7,2,2,0,0,1,.44.74,2.69,2.69,0,0,1,.11.64l.19,0h.23c0-.07,0-.15,0-.23a3.25,3.25,0,0,1,.18-.45l0-.12a4.58,4.58,0,0,1-.14-2.52,5,5,0,0,1,1.44-2.12c.62-.58,1.26-1.08,1.87-1.61,1.24-1,2.48-2.11,3.68-3.2C68.86,94.88,72.55,91.22,76.05,87.41Z" transform="translate(0 -0.19)"/><path class="cls-17" d="M86.63,18.14" transform="translate(0 -0.19)"/><path class="cls-24" d="M106.55,49.64a5.7,5.7,0,0,0,3.61,0l-1.82,7.49Z" transform="translate(0 -0.19)"/><path class="cls-25" d="M109.43,115.62c.11-.46.87-.75,1.28-1.2.56-.62.82-.6,1.2.14.72,1.4,1.15,1.33,2-.14a.84.84,0,0,0,0-1c-.48-.66-.84-1.46-1.88-1.44a3.89,3.89,0,0,0,1.36-1.33c.49-.83,1.16-.78,1.82-.19a1.32,1.32,0,0,0,1.83-.09c.55-.56.1-1.18-.22-1.67a2.32,2.32,0,0,0-.71-.67c-.47-.3-.44-.6,0-1a3.68,3.68,0,0,0,.44-.46c.54-.65,1-1.25,1.41,0,.14.49.63.52,1.07.46.58-.09.39-.64.41-.94a2.1,2.1,0,0,0-.5-1.78c-.78-.61-.26-1.22,0-1.82.18-.38.64-.48.82-.12.43.85,1.33,1.34,1.46,2.42a.59.59,0,0,0,.8.52c.58-.15.42-.56.41-.89a6.87,6.87,0,0,0-1.26-3.09,1.2,1.2,0,0,1,.83-1.87c.55-.16,1-.65.81-1.09s-.23-1.59-1.31-.84c-.34.24-.75.35-1.11.55a.83.83,0,0,1-1.07,0c-.84-.67-1.09-1.8-1.8-2.57-.12-.13,0-.27.16-.3.6-.13.64-.8,1-1.14a1.44,1.44,0,0,0,.47-1.44c-.14-.63-.79-.52-1.22-.63s-.86.42-1.13.81c-.38.54-.73.54-1,.11s-1.18-.71-.53-1.54A9.56,9.56,0,0,0,116,90.1c.32-.57.63-1.1,0-1.54a1.18,1.18,0,0,0-1.73.54c-.52,1-.77.47-1.13.07s-.45-.55-.68-.82-.56-.51.14-.86a2.75,2.75,0,0,0,1-1.43c.28-.65.44-1.33,0-1.7s-1,.24-1.54.51S111.73,86.06,111,86" transform="translate(0 -0.19)"/><path class="cls-25" d="M105.65,84.46a1.43,1.43,0,0,0-1.68-.05,1.07,1.07,0,0,0-.51,1.17c.18.48.25,1.17.75,1.38.73.3.39.82.2,1.23a5.36,5.36,0,0,1-.88,1.21c-.26.3-.49.32-.67-.1a1.28,1.28,0,0,0-2.05-.56c-.41.27-.43,1.41,0,2a5.79,5.79,0,0,0,.76.76c.19.17.4.26.23.66a2,2,0,0,1-2.87,1.19c-.45-.25-1.09-.65-1.53-.17a1.73,1.73,0,0,0-.05,1.78,1.65,1.65,0,0,0,.17.25c.46.73,1.25,1.43,0,2.33-.07.05-.06.23-.13.29-.35.29.18,1-.43,1.05s-.62-.53-1-.7c-.13-.06-.2-.25-.31-.37a1.25,1.25,0,0,0-1.83.15c-.36.61,0,.93.51,1.26,1.3.83,1.32,1.89.19,2.78a2.71,2.71,0,0,1-.76.28.88.88,0,0,0-.39,1.48,1.85,1.85,0,0,0,2.93-.13c.49-.52.82-.53,1.2,0,.24.31.52.59.74.92.11.16.34.44-.07.56-.8.24-.79,1.08-1.19,1.61-.54.73-.07,1,.44,1a1.37,1.37,0,0,0,1.44-.73l.21-.44c.56-.21.63.34.87.6s.86.75.9,1.19-.72.76-1.09,1.16a1.46,1.46,0,0,0-.4,1.73,1,1,0,0,0,1.69.11c.29-.26.92-.1.86-.86,0-.29.35-.27.5,0a7.59,7.59,0,0,0,.43.78c.52.61.56,1.06-.34,1.42a1.64,1.64,0,0,0-.94,1.76c0,.75.7,1.07,1.22,1.43.24.17.46-.05.66-.33,1.27-1.77,1.13-1.63,2.32-.07" transform="translate(0 -0.19)"/><path class="cls-25" d="M105.75,115.44c-1.19-1.56-1-1.7-2.32.07-.2.27-.42.49-.66.33-.52-.36-1.18-.69-1.22-1.43a1.64,1.64,0,0,1,.94-1.76c.9-.37.87-.82.34-1.42a7.59,7.59,0,0,1-.43-.78c-.16-.23-.52-.26-.5,0,.06.76-.57.59-.86.86a1,1,0,0,1-1.69-.11,1.46,1.46,0,0,1,.4-1.73c.37-.4,1.14-.59,1.09-1.16s-.56-.82-.9-1.19-.31-.81-.87-.6a1.66,1.66,0,0,1-.31-.37c-.13-.29-.16-.75-.59-.57s-.1.71-.17,1.07.52.3.86.31a1.37,1.37,0,0,1-1.44.73c-.51-.05-1-.31-.44-1,.4-.53.38-1.37,1.19-1.61.41-.12.18-.4.07-.56-.22-.33-.5-.61-.74-.92-.38-.49-.71-.48-1.2,0a1.85,1.85,0,0,1-2.93.13.88.88,0,0,1,.39-1.48,2.71,2.71,0,0,0,.76-.28c1.13-.89,1.1-1.95-.19-2.78-.51-.33-.87-.65-.51-1.26a1.25,1.25,0,0,1,1.83-.15c.11.12.18.31.31.37.39.17.55.77,1,.7s.08-.76.43-1.05c.07-.06.06-.23.13-.29,1.23-.9.44-1.6,0-2.33a1.65,1.65,0,0,1-.17-.25,1.73,1.73,0,0,1,.05-1.78c.44-.48,1.08-.08,1.53.17a2,2,0,0,0,2.87-1.19c.17-.4,0-.49-.23-.66a5.79,5.79,0,0,1-.76-.76c-.43-.58-.4-1.72,0-2a1.28,1.28,0,0,1,2.05.56c.18.42.41.4.67.1a5.36,5.36,0,0,0,.88-1.21c.19-.41.53-.93-.2-1.23-.5-.21-.57-.89-.75-1.38a1.07,1.07,0,0,1,.51-1.17,1.43,1.43,0,0,1,1.68.05M111,86c.71.08.64-.86,1.14-1.12s1.07-.88,1.54-.51.31,1,0,1.7a2.75,2.75,0,0,1-1,1.43c-.7.35-.39.55-.14.86s.44.56.68.82.61.89,1.13-.07a1.18,1.18,0,0,1,1.73-.54c.59.44.28,1,0,1.54a9.56,9.56,0,0,1-.71,1.29c-.65.83.24,1.09.53,1.54s.63.43,1-.11c.27-.38.61-.94,1.13-.81s1.08,0,1.22.63a1.44,1.44,0,0,1-.47,1.44c-.39.33-.43,1-1,1.14-.14,0-.28.17-.16.3.71.77,1,1.9,1.8,2.57a.83.83,0,0,0,1.07,0c.36-.2.77-.32,1.11-.55,1.08-.75,1.11.41,1.31.84s-.26.93-.81,1.09a1.2,1.2,0,0,0-.83,1.87,6.87,6.87,0,0,1,1.26,3.09c0,.33.17.74-.41.89a.59.59,0,0,1-.8-.52c-.13-1.08-1-1.58-1.46-2.42-.18-.36-.64-.26-.82.12-.27.59-.79,1.21,0,1.82a2.1,2.1,0,0,1,.5,1.78c0,.3.18.85-.41.94-.43.06-.93,0-1.07-.46-.37-1.28-.87-.68-1.41,0a3.68,3.68,0,0,1-.44.46c-.44.37-.46.66,0,1a2.32,2.32,0,0,1,.71.67c.31.49.77,1.12.22,1.67a1.32,1.32,0,0,1-1.83.09c-.67-.59-1.33-.64-1.82.19a3.89,3.89,0,0,1-1.36,1.33c1,0,1.4.78,1.88,1.44a.84.84,0,0,1,0,1c-.88,1.47-1.31,1.54-2,.14-.38-.74-.64-.76-1.2-.14-.4.44-1.16.74-1.28,1.2m8.46-15.56c.11-.14,0-.29-.06-.44a32.58,32.58,0,0,0-4-6.57c-.72-1-1.58-1.81-2.27-2.81a16.05,16.05,0,0,0-2.81-3.6c-.5-.41-.87-.56-1.2.29a6.94,6.94,0,0,1-.76,1.16c-.56.85-1.37,1.5-1.86,2.41-.72,1.31-1.68,2.45-2.41,3.78s-1.78,2.27-2.46,3.58a5.73,5.73,0,0,1-1.78,2.45c-.34.22-.38.49,0,.84a15.86,15.86,0,0,1,3.35,5.25c.51,1.28,1.84,1.67,2.25,3,.23.75,1.07,1.24,1.56,1.91.72,1,1.35,2.05,2.06,3,.16.22.5.82.81.26,1.4-2.52,3.61-4.35,5.18-6.73a55.17,55.17,0,0,0,3.15-5.23A9.52,9.52,0,0,0,117.9,100.05Zm-9.45,18.72c-.29-.56-.77-.51-1,.29m9-14.16a4.58,4.58,0,0,0,2.1-.14C117.74,104.38,117.11,104.71,116.4,104.9Z" transform="translate(0 -0.19)"/><path class="cls-25" d="M117.9,100.05a9.52,9.52,0,0,1-1.26,2.6,55.17,55.17,0,0,1-3.15,5.23c-1.57,2.38-3.78,4.21-5.18,6.73-.31.56-.65,0-.81-.26-.72-1-1.34-2.06-2.06-3-.49-.67-1.32-1.16-1.56-1.91-.41-1.33-1.74-1.72-2.25-3a15.86,15.86,0,0,0-3.35-5.25c-.34-.34-.3-.62,0-.84a5.73,5.73,0,0,0,1.78-2.45c.69-1.31,1.78-2.34,2.46-3.58s1.69-2.47,2.41-3.78c.5-.91,1.3-1.56,1.86-2.41a6.94,6.94,0,0,0,.76-1.16c.33-.85.7-.7,1.2-.29a16.05,16.05,0,0,1,2.81,3.6c.69,1,1.55,1.84,2.27,2.81a32.58,32.58,0,0,1,4,6.57C117.9,99.76,118,99.91,117.9,100.05Zm-10,11.27c.6-.31,1.48-.43,1.74-1.09.56-1.44,1.63-2.52,2.31-3.85.12-.24.45-.52.23-.76-.5-.53.07-.48.29-.58s.36.08.45-.12a15.3,15.3,0,0,1,2.14-2.91c.89-1.19,1-2.79.37-3.53-.86-1-1.57-2.13-2.42-3.14s-1.27-2.68-2.63-3.37c-.12-.06-.14-.3-.22-.44a2.09,2.09,0,0,0-3.65.09,5,5,0,0,0-.33,1A20,20,0,0,1,103.47,97a18.46,18.46,0,0,1-3.06,3.61c-.35.27-.26.45-.11.77a26,26,0,0,0,2.83,4.45c1.13,1.52,2.29,3,3.37,4.56C106.82,110.85,107.1,111.49,107.9,111.32Z" transform="translate(0 -0.19)"/><path class="cls-25" d="M107.43,119.06c.25-.8.73-.85,1-.29" transform="translate(0 -0.19)"/><path class="cls-25" d="M107.9,111.32c-.8.17-1.08-.48-1.4-.94-1.08-1.56-2.24-3-3.37-4.56a26,26,0,0,1-2.83-4.45c-.15-.32-.23-.5.11-.77A18.46,18.46,0,0,0,103.47,97a20,20,0,0,0,2.71-4.39,5,5,0,0,1,.33-1,2.09,2.09,0,0,1,3.65-.09c.08.15.1.38.22.44,1.36.7,1.71,2.28,2.63,3.37s1.56,2.13,2.42,3.14c.63.75.52,2.34-.37,3.53a15.3,15.3,0,0,0-2.14,2.91c-.09.2-.31.06-.45.12s-.8,0-.29.58c.22.23-.11.52-.23.76-.69,1.33-1.75,2.42-2.31,3.85C109.37,110.89,108.5,111,107.9,111.32Zm5.74-11.19c.09-.32-.15-.43-.25-.63-.8-1.51-2.07-2.61-3-4-.54-.87-1.05-1.76-1.6-2.63-.19-.3-.46-.55-.67.06-.64,1.85-2.17,3.1-3.1,4.78-.55,1-1.34,1.9-2,2.89a1.16,1.16,0,0,0,0,1.42c.66,1,1.77,1.68,2.13,2.93s1.5,1.6,1.69,2.81c.05.34,1.25.5,1.47.21a43,43,0,0,0,2.49-3.59,11.69,11.69,0,0,1,1.59-2.27A5,5,0,0,0,113.63,100.13Z" transform="translate(0 -0.19)"/><ellipse class="cls-26" cx="112.51" cy="28.1" rx="0.19" ry="0.27" transform="translate(-1.24 5.35) rotate(-2.8)"/><path class="cls-27" d="M112.31,28.1a.2.2,0,1,0,.39,0,.22.22,0,0,0-.21-.23A.21.21,0,0,0,112.31,28.1ZM113.6,27a1.66,1.66,0,0,1,1.5.94,2.47,2.47,0,0,1,.22.91s-.07.54-.06.55c-.29-.11-.35,0-.56.26s-.42.49-.11.85l.09.08a1.45,1.45,0,0,1-.91.4,1.68,1.68,0,0,1-1.53-1l0-.07a2.59,2.59,0,0,1-.17-.78A1.88,1.88,0,0,1,113.6,27Z" transform="translate(0 -0.19)"/><path class="cls-26" d="M115.25,29.3a1.83,1.83,0,0,1-.64,1.34l-.07-.08a1,1,0,0,1,0-1.12A.53.53,0,0,1,115.25,29.3Z" transform="translate(0 -0.19)"/><path class="cls-26" d="M113.39,27.51a.54.54,0,0,1,0,.8.63.63,0,0,1-.85,0,.54.54,0,0,1,0-.8A.63.63,0,0,1,113.39,27.51Z" transform="translate(0 -0.19)"/><ellipse class="cls-26" cx="99.34" cy="28.1" rx="0.19" ry="0.27" transform="translate(-1.26 4.7) rotate(-2.8)"/><path class="cls-27" d="M99.14,28.1a.2.2,0,1,0,.39,0,.22.22,0,0,0-.21-.23A.21.21,0,0,0,99.14,28.1ZM100.43,27a1.66,1.66,0,0,1,1.5.94,2.47,2.47,0,0,1,.22.91s-.07.54-.06.55c-.29-.11-.35,0-.56.26s-.42.49-.11.85l.09.08a1.45,1.45,0,0,1-.91.4,1.68,1.68,0,0,1-1.53-1l0-.07a2.59,2.59,0,0,1-.17-.78A1.88,1.88,0,0,1,100.43,27Z" transform="translate(0 -0.19)"/><path class="cls-26" d="M102.08,29.3a1.83,1.83,0,0,1-.64,1.34l-.07-.08a1,1,0,0,1,0-1.12A.53.53,0,0,1,102.08,29.3Z" transform="translate(0 -0.19)"/><path class="cls-26" d="M100.22,27.51a.54.54,0,0,1,0,.8.63.63,0,0,1-.85,0,.54.54,0,0,1,0-.8A.63.63,0,0,1,100.22,27.51Z" transform="translate(0 -0.19)"/><path class="cls-28" d="M39.72,116.3a.49.49,0,0,0,.43.32c7.52.56,167.68,6.6,169.87,7s9.29-1.76.6-6.81c-6.12-3.55-166.18-2.71-169.58-2.8h-.13A1.57,1.57,0,0,0,39.72,116.3Z" transform="translate(0 -0.19)"/><path class="cls-29" d="M210.74,116.76c-2.08-1.11-19.62-1.76-42.23-2.13-.69,1.25-1.21,3.47,0,7,23.33,1,41.14,1.8,41.89,1.93C212.65,124,219.61,121.51,210.74,116.76Z" transform="translate(0 -0.19)"/><path class="cls-30" d="M213.8,122.09c-.7,1.08-2.91,1-4.93-.16s-3.09-3-2.38-4.07,2.91-1,4.93.16S214.5,121,213.8,122.09Z" transform="translate(0 -0.19)"/><path class="cls-31" d="M182.35,114.63l1.05,2.72s3,1.1,7.62-.94l-.13-2.88Z" transform="translate(0 -0.19)"/><path class="cls-28" d="M190.9,88.43h0a1,1,0,0,0-.06-.26c-.65-1.61-5.24-1.92-10.27-.69S172,91,172.61,92.63l8.93,22.76a12.39,12.39,0,0,0,10.75-1.56Z" transform="translate(0 -0.19)"/><path class="cls-32" d="M190.9,88.43h0a1,1,0,0,0-.06-.26c-.65-1.61-5.24-1.92-10.27-.69S172,91,172.61,92.63l8.93,22.76a12.39,12.39,0,0,0,10.75-1.56Z" transform="translate(0 -0.19)"/><path class="cls-14" d="M189.16,88.58c.53,1.32-2.38,3.21-6.49,4.21s-7.88.75-8.41-.57S176.64,89,180.76,88,188.64,87.26,189.16,88.58Z" transform="translate(0 -0.19)"/><path class="cls-32" d="M206.84,121.64a11.61,11.61,0,0,1-1.62-2.62L39.59,115.27a2.46,2.46,0,0,0,.13.54.5.5,0,0,0,.43.32c7.13.53,150.62,5.33,168,6.85A12.2,12.2,0,0,1,206.84,121.64Z" transform="translate(0 -0.19)"/><path class="cls-33" d="M168.32,167.06c-.07-.09-1.86-2.21-4.7-10a25.92,25.92,0,0,1-1.42-9.94V147l2.35-3-2.27,1.59.07-.8c.17-1.86.43-3.59.68-5.27.1-.68.2-1.34.29-2l0-.17,1.76-1.14-1.61-.09,0-.39c.55-5.35,2.14-13.11,2.16-13.19l.19-.92.5.8a29.83,29.83,0,0,1,3.13,7.95l.15.6-.76-.19.49.48,0,.1c.27,1.12.55,2.31.84,3.58s.6,2.59.86,3.7c.65,2.74,1.16,4.9,1.5,7.19l.14,1-.32-.26.33.41v.11c.17,1.51.27,3,.3,4.81.12,6.57-4,14.74-4.12,15.09l-.25.5Z" transform="translate(0 -0.19)"/><path class="cls-34" d="M166.06,122.66a29.73,29.73,0,0,1,3.09,7.84c-1-.23-1.49-.38-1.49-.38L169,131.5c.27,1.11.55,2.31.84,3.57,1.1,4.82,1.89,7.68,2.35,10.86-1-.85-2.22-1.81-2.27-1.81v0c.13.15,1.34,1.65,2.42,3,.16,1.42.27,2.95.3,4.77.12,6.56-4.09,14.91-4.09,14.91s-1.79-2.07-4.63-9.84a25.63,25.63,0,0,1-1.4-9.8l3.79-4.87-3.65,2.54c.24-2.62.67-5.07,1-7.22l2.59-1.67-2.37-.13c.55-5.39,2.15-13.15,2.15-13.15m-.36-2-.38,1.84c0,.08-1.61,7.86-2.16,13.23l-.08.78.79,0h.07l-.65.42-.29.19,0,.34c-.09.63-.18,1.29-.29,2-.24,1.6-.51,3.42-.68,5.29l-.14,1.61.89-.62-.74.95-.15.19v.24a26.28,26.28,0,0,0,1.44,10.08c2.86,7.81,4.69,10,4.77,10.07l.73.85.5-1c.18-.35,4.29-8.6,4.17-15.26,0-1.53-.1-2.88-.23-4.19l0,0-.28-1.91c-.34-2.3-.85-4.48-1.5-7.23-.26-1.11-.55-2.32-.86-3.68s-.55-2.39-.81-3.47l.37.09-.3-1.2a30.24,30.24,0,0,0-3.18-8.06l-1-1.6Z" transform="translate(0 -0.19)"/><path class="cls-25" d="M167.89,147c-.64,4.57-2.91,6.73-4.56,7.77A21.85,21.85,0,0,0,164,157c2.85,7.77,4.63,9.84,4.63,9.84a44.25,44.25,0,0,0,4-12.48C171.52,153.9,170.74,152.56,167.89,147Z" transform="translate(0 -0.19)"/><polygon class="cls-35" points="165.55 119.34 168.96 161.59 166.27 122.19 165.55 119.34"/><path class="cls-36" d="M183.22,165.58c-.31-.25-7.53-6.17-10.24-12.22-.73-1.63-1.3-3.06-1.79-4.51l0-.1.15-.58-.21.42-.27-.9c-.68-2.22-1.14-4.4-1.72-7.16-.23-1.11-.49-2.33-.79-3.7s-.54-2.47-.77-3.59l0-.11.25-.66-.63.47-.12-.58a29.13,29.13,0,0,1-.54-8.47l.11-.94.56.77c.05.07,5.43,7.43,8.23,12.11l.32.53h0l.09.14c.37.57.83,1.27,1.34,2,1.17,1.77,2.51,3.78,3.44,5.39l.43.73-.62-.13.48.2.06.12a26.15,26.15,0,0,1,3,9.63c.16,1.73.26,3.36.3,4.83v.5l-2.61-.66,2.5,2.41.12.11v.16a15.88,15.88,0,0,1-.34,3.55l-.16.54Z" transform="translate(0 -0.19)"/><path class="cls-34" d="M166.84,123.94S172.22,131.3,175,136l-2.7.15,3.08.54c1.19,1.86,3.43,5.1,4.77,7.41-2.18-.47-4.37-1-4.37-1l4.71,2a25.92,25.92,0,0,1,2.93,9.5c.17,1.89.26,3.48.3,4.8l-3.51-.88s2.38,2.26,3.53,3.39a15.68,15.68,0,0,1-.33,3.46s-7.43-6-10.14-12.08c-.75-1.68-1.31-3.12-1.77-4.48.41-1.63.87-3.47.93-3.65,0,0,0,0,0,0s-.71,1.34-1.3,2.52c-.94-3.08-1.44-6-2.51-10.83-.28-1.27-.53-2.47-.77-3.59l.68-1.79s-.42.34-1.2.92a29,29,0,0,1-.54-8.35m-.52-2-.23,1.89a29.52,29.52,0,0,0,.55,8.59l.23,1.16.3-.22c.23,1.11.48,2.29.76,3.54s.56,2.59.79,3.7c.58,2.77,1,5,1.73,7.19l.55,1.8,0-.05c.45,1.27,1,2.54,1.6,4,2.75,6.14,10,12.11,10.35,12.36l.88.71.31-1.09a16,16,0,0,0,.35-3.65v-.33l-.23-.23-1.48-1.43.76.19,1,.24,0-1c0-1.47-.14-3.11-.3-4.85a26.18,26.18,0,0,0-2.77-9.3l.25.05-.85-1.46c-.94-1.61-2.27-3.62-3.44-5.39l-1.09-1.65h0l-.64-1.06c-2.81-4.7-8.19-12.07-8.24-12.14L166.32,122Z" transform="translate(0 -0.19)"/><path class="cls-25" d="M181.3,158.62a15.43,15.43,0,0,1,2.64,1.53c0-1.56-.24-3-.47-5.63a21.62,21.62,0,0,0-.33-2.22c-2-.33-5-1.44-7.51-5.37-.24,6.13-.38,7.66-1.15,8.45a47.15,47.15,0,0,0,9,9.91,17.66,17.66,0,0,0,.33-4.13C183.17,160.46,181.18,158.56,181.3,158.62Z" transform="translate(0 -0.19)"/><polygon class="cls-35" points="165.96 120.69 180.97 160.63 166.52 123.57 165.96 120.69"/><polygon class="cls-37" points="167.83 116.86 169.29 114.41 171.7 114.52 170.28 116.84 169.98 119.24 170.12 120.04 170.55 121.49 170.4 122.02 168.49 121.65 168.14 120.27 167.68 118.42 167.83 116.86"/><path class="cls-38" d="M44.67,116.64l-.11-.43a.44.44,0,0,1,0-.33l.33-.57.08-.1.55-.53.12-.09.69-.34a.52.52,0,0,1,.24-.05l9.52-.17-.89.88a.49.49,0,0,0-.14.11l-.38.41-.07.54-.09.62.07.52.45.17-10-.3A.49.49,0,0,1,44.67,116.64Z" transform="translate(0 -0.19)"/><path class="cls-39" d="M54.66,117.13l-.07-.52h0l-9.41-.53a.47.47,0,0,0-.51.57h0a.49.49,0,0,0,.44.35l10,.3Z" transform="translate(0 -0.19)"/><g class="cls-40"><path class="cls-41" d="M172.81,93.12c2.45,6,8.34,11.37,12.35,10.78s6.07-7.84,5.74-14.48c-.86,2.57-5.28,4.36-8.71,4.94C179.13,94.88,175.31,95.23,172.81,93.12Z" transform="translate(0 -0.19)"/></g><path class="cls-9" d="M52.1,124.15a2.14,2.14,0,0,1-1.29-.07,10.26,10.26,0,0,1-1.21-.63,3,3,0,0,0-1.38-.42c-.48,0-.95,0-1.41,0A3,3,0,0,1,44.5,122a4.58,4.58,0,0,1-1-2.34,10.3,10.3,0,0,1-.13-1.3l1.21-.05.11.06.06,0,.05,0,.12.07a7.7,7.7,0,0,0,.93-3.59c.07-.81.18-1.61.32-2.41.07-.39.13-.79.21-1.18a.08.08,0,0,1,0,0c.12-.58.26-1.15.43-1.73a9.87,9.87,0,0,1,.59-1.7,1.58,1.58,0,0,1,.11-.16,1.69,1.69,0,0,1,.27-.33,2.61,2.61,0,0,1,1-.59,2.17,2.17,0,0,1,1.74,0,.93.93,0,0,1,.44.66,4.28,4.28,0,0,1,0,.88l-.13,1.82,0,.24c0,.32,0,.65-.08,1-.07.8-.14,1.61-.23,2.41a30.13,30.13,0,0,1-1.15,5.61q-.11.34-.23.68l.58-.49.64-.54a8.25,8.25,0,0,0,1.18-1.16,2.73,2.73,0,0,0,.37-.75c.09-.25.17-.5.25-.76a20.15,20.15,0,0,0,.7-3.08c.09-.51.2-1,.25-1.56,0-.14,0-.27,0-.41s0-.26,0-.39,0-.27,0-.41a.63.63,0,0,1,0-.14.93.93,0,0,1,0-.22c.08-.5.17-1.05.21-1.55l0-.13,0,0h0a2.73,2.73,0,0,1,.64-1.13,2,2,0,0,1,1.39-.53,1.87,1.87,0,0,1,1.33.61,1.92,1.92,0,0,1,.47,1.36c0,.52,0,1,0,1.57v3.13h.07a41.19,41.19,0,0,1-2.12,8.24l.12,0,.07,0,.07,0,.13,0,.13,1a5.58,5.58,0,0,0-1,.23C53.73,123.39,53,123.94,52.1,124.15Z" transform="translate(0 -0.19)"/><path class="cls-9" d="M63.84,108.49a4,4,0,0,1,1.33-.11,3.37,3.37,0,0,1,.64.08c.13,0,.16.17.16.4a17.51,17.51,0,0,1-.7,5.17c-.46,1.69-1.34,3.25-1.92,4.94a9.62,9.62,0,0,0-.35,1.3c0,.21-.07.46-.11.65a.41.41,0,0,1-.31.37c-.37.11-.89,0-1.36.1a4.21,4.21,0,0,0-.7.16l-.6-1a16.54,16.54,0,0,0,1.92-5,17.05,17.05,0,0,0,.32-2.65,16.12,16.12,0,0,1,.13-2.6,2.45,2.45,0,0,1,.51-1.12A2.06,2.06,0,0,1,63.84,108.49Z" transform="translate(0 -0.19)"/><path class="cls-9" d="M60.15,106.87a2.67,2.67,0,0,1,1.31.28,1.39,1.39,0,0,1,.26.16.26.26,0,0,1,.07.2l0,.67-.07,2.73h.1c-.05.66,0,1.31,0,2a16.27,16.27,0,0,1-.32,2.59,16.08,16.08,0,0,1-1.89,4.88l.11.06.07,0,.05,0,.12.06.6,1a3.94,3.94,0,0,0-.66.28,8.38,8.38,0,0,0-1.15.78,1.59,1.59,0,0,1-1.23.22,6.09,6.09,0,0,0-1.87,0l-.13-1a40.92,40.92,0,0,0,2-8.37h0v-.24c0-.08,0-.18,0-.26.05-.35.11-.68.17-1s.09-.54.14-.8c.19-.9.12-1.84.38-2.68l0-.05a2.54,2.54,0,0,1,.56-1l.09-.09A1.92,1.92,0,0,1,60.15,106.87Z" transform="translate(0 -0.19)"/><path class="cls-7" d="M159.89,112a3,3,0,0,1,1.76-.36,2.18,2.18,0,0,1,1.61.65,3,3,0,0,1,.71,1.57c.19,1.16-.14,2.39.07,3.64a4.84,4.84,0,0,0,.64,1.78,4.24,4.24,0,0,0,1.38,1.37l.07-.1,0-.06,0-.05.08-.11.72-.08a7.83,7.83,0,0,1,.09,1.79,2.52,2.52,0,0,1-.9,1.84,5.6,5.6,0,0,1-2.06.83,10.57,10.57,0,0,1-1.1.18c-.22-.33-.43-.67-.64-1s-.32-.53-.49-.79-.37-.5-.52-.76a8.71,8.71,0,0,1-.76-1.63,22.19,22.19,0,0,1-1.16-7.13C159.48,113,159.39,112.34,159.89,112Z" transform="translate(0 -0.19)"/><path class="cls-7" d="M149.87,111.28a6.32,6.32,0,0,1,.87-.1,1.26,1.26,0,0,1,.77.13,1.14,1.14,0,0,1,.48.58,5.45,5.45,0,0,1,.16.8c.11.55.23,1.11.39,1.65s.28.91.43,1.36c0,.26,0,.52,0,.79a16.34,16.34,0,0,0,.31,2l.31,2a18.05,18.05,0,0,0,1,3.89c.14.35.3.68.47,1a13.12,13.12,0,0,0-2-.09,2,2,0,0,1-1-.28,2,2,0,0,1-.64-.8c-.17-.32-.31-.66-.53-1a1.8,1.8,0,0,0-.37-.42l-.93-4.18-.73-3.29-.37-1.64a2.63,2.63,0,0,1-.1-1.41c.1,0,.08-.24.22-.33A2.07,2.07,0,0,1,149.87,111.28Z" transform="translate(0 -0.19)"/><path class="cls-7" d="M145.85,119.26l.13,0-.52-2.6a17.73,17.73,0,0,1-.41-2.59,3.42,3.42,0,0,1,.11-.82,2.12,2.12,0,0,1,.62-1.06,1,1,0,0,1,.34-.21,4.32,4.32,0,0,1,1.32,0,5.43,5.43,0,0,1,.73.15,1.48,1.48,0,0,0-.08.72c0,.29.1.56.16.84l.35,1.65.7,3.3.81,3.85a.9.9,0,0,0-.17-.06,4.6,4.6,0,0,0-1.21,0,1.32,1.32,0,0,1-1-.27,5.59,5.59,0,0,1-.7-.83c-.22-.29-.43-.6-.64-.91s-.46-.72-.67-1.1h.08Z" transform="translate(0 -0.19)"/><path class="cls-42" d="M66.26,108.49a.54.54,0,0,0-.34-.34,3.35,3.35,0,0,0-.74-.11,4.37,4.37,0,0,0-1.45.12,2.49,2.49,0,0,0-1.24.77,2.46,2.46,0,0,0-.36.58l0-1.32v-.69a.6.6,0,0,0-.18-.43,1.58,1.58,0,0,0-.35-.21,3,3,0,0,0-1.49-.29,2.24,2.24,0,0,0-1.36.54l0,0a2.38,2.38,0,0,0-.56.79,3.25,3.25,0,0,0-.18.45c0,.07,0,.15,0,.23h-.23l-.19,0a2.69,2.69,0,0,0-.11-.64,2,2,0,0,0-.44-.74,2.21,2.21,0,0,0-1.59-.7,2.28,2.28,0,0,0-1.62.63,3,3,0,0,0-.68,1.19,2.57,2.57,0,0,0-.88-.16l-1-.14a2.64,2.64,0,0,0,0-.57,1.18,1.18,0,0,0-.57-.83,2.44,2.44,0,0,0-2-.08,3.36,3.36,0,0,0-.89.46l-.13.12a12.85,12.85,0,0,0-3.38-3.45c-.74-.54-1.48-1.07-2.26-1.58a5.16,5.16,0,0,0-1.3-.59,6.47,6.47,0,0,0-1.42-.21h-.73l-.6,0h-.08a4.15,4.15,0,0,0-.73.07,1.25,1.25,0,0,0-.7.38,3.13,3.13,0,0,0-.39.59l-.32.58c-.11.2-.22.37-.32.61a.67.67,0,0,0-.06.41.83.83,0,0,0,.18.37,3.73,3.73,0,0,0,.55.48l.54.41,1.09.83,1.57,1.2.61.46.16.13a11.61,11.61,0,0,1,1.85,1.64,4.14,4.14,0,0,1,.68,1.1,4.54,4.54,0,0,1,.28,1.24c0,.46,0,.94.06,1.41,0,.28,0,.57,0,.86a.72.72,0,0,1,.32,0c0-.36,0-.73,0-1.09s0-.81-.05-1.22a5.14,5.14,0,0,0-.3-1.33,4.63,4.63,0,0,0-.72-1.18,13.34,13.34,0,0,0-2.06-1.83l-.28-.21-.78-.6-1.11-.85-1.08-.83-.55-.42a2.84,2.84,0,0,1-.48-.42.38.38,0,0,1-.08-.45c.08-.17.21-.38.31-.57a9.11,9.11,0,0,1,.67-1.11,1.48,1.48,0,0,1,1.13-.32h.58c.28,0,.56,0,.84,0a4.76,4.76,0,0,1,2.54.75c.76.49,1.5,1,2.23,1.57a12.13,12.13,0,0,1,3.34,3.47c-.08.11-.16.21-.22.33a10.37,10.37,0,0,0-.63,1.75c-.17.59-.32,1.18-.46,1.78,0,.06,0,.12,0,.19-.09.41-.17.83-.24,1.24-.12.72-.23,1.45-.29,2.18a7.4,7.4,0,0,1-.9,3.42l.11.06.06,0,.05,0,.12.07a7.7,7.7,0,0,0,.93-3.59c.07-.81.18-1.61.32-2.41.07-.39.13-.79.21-1.18a.08.08,0,0,1,0,0c.12-.58.26-1.15.43-1.73a9.87,9.87,0,0,1,.59-1.7,1.59,1.59,0,0,1,.11-.16,1.69,1.69,0,0,1,.27-.33,2.61,2.61,0,0,1,1-.59,2.17,2.17,0,0,1,1.74,0,.93.93,0,0,1,.44.66,4.28,4.28,0,0,1,0,.88l-.13,1.82,0,.24c0,.32,0,.65-.08,1-.07.8-.14,1.61-.23,2.41a30.13,30.13,0,0,1-1.15,5.61q-.11.34-.23.68l.58-.49.64-.54a8.24,8.24,0,0,0,1.18-1.16,2.73,2.73,0,0,0,.37-.75c.09-.25.17-.5.25-.76a20.15,20.15,0,0,0,.7-3.08c.09-.51.2-1,.25-1.56,0-.14,0-.27,0-.41s0-.26,0-.39,0-.27,0-.41a.63.63,0,0,1,0-.14.92.92,0,0,1,0-.22c.08-.5.17-1.05.21-1.55l0-.13,0,0h0a2.73,2.73,0,0,1,.64-1.13,2,2,0,0,1,1.39-.53,1.87,1.87,0,0,1,1.33.61,1.92,1.92,0,0,1,.47,1.36c0,.52,0,1,0,1.57v3.13h.07a41.19,41.19,0,0,1-2.12,8.24l.12,0,.13,0,.13,0a40.92,40.92,0,0,0,2-8.37h0v-.24c0-.08,0-.18,0-.26.05-.35.11-.68.17-1s.09-.54.14-.8c.19-.9.12-1.84.38-2.68l0-.05a2.54,2.54,0,0,1,.56-1l.09-.09a1.92,1.92,0,0,1,1.2-.48,2.67,2.67,0,0,1,1.31.28,1.39,1.39,0,0,1,.26.16.26.26,0,0,1,.07.2l0,.67-.07,2.73h.1c-.05.66,0,1.31,0,2a16.28,16.28,0,0,1-.32,2.59,16.08,16.08,0,0,1-1.89,4.88l.11.06.07,0,.05,0,.12.06a16.54,16.54,0,0,0,1.92-5,17.06,17.06,0,0,0,.32-2.65,16.12,16.12,0,0,1,.13-2.6,2.45,2.45,0,0,1,.51-1.12,2.06,2.06,0,0,1,1.06-.66,4,4,0,0,1,1.33-.11,3.37,3.37,0,0,1,.64.08c.13,0,.16.17.16.4a17.51,17.51,0,0,1-.7,5.17c-.46,1.69-1.34,3.25-1.92,4.94a9.62,9.62,0,0,0-.35,1.3c0,.21-.07.46-.11.65a.41.41,0,0,1-.31.37c-.37.11-.89,0-1.36.1a4.21,4.21,0,0,0-.7.16,3.94,3.94,0,0,0-.66.28,8.39,8.39,0,0,0-1.15.78,1.59,1.59,0,0,1-1.23.22,6.09,6.09,0,0,0-1.87,0,5.59,5.59,0,0,0-1,.23c-.91.3-1.67.85-2.54,1.06a2.14,2.14,0,0,1-1.29-.07,10.25,10.25,0,0,1-1.21-.63,3,3,0,0,0-1.38-.42c-.48,0-.95,0-1.41,0A3,3,0,0,1,44.5,122a4.58,4.58,0,0,1-1-2.34,10.29,10.29,0,0,1-.13-1.3c0-.44,0-.88,0-1.32,0-.07,0-.13,0-.2a.6.6,0,0,1-.2,0l-.1,0c0,.06,0,.13,0,.19a19.82,19.82,0,0,0,.18,2.65,4.85,4.85,0,0,0,1.09,2.47,3.58,3.58,0,0,0,1.12.87,3.14,3.14,0,0,0,1.42.3c.47,0,.94-.05,1.39,0a2.72,2.72,0,0,1,1.26.38,10.35,10.35,0,0,0,1.24.65,2.43,2.43,0,0,0,1.46.08c.95-.23,1.71-.78,2.57-1.06a5.77,5.77,0,0,1,2.69-.22,3.21,3.21,0,0,0,.74,0,1.66,1.66,0,0,0,.7-.28,8.31,8.31,0,0,1,1.12-.76,4.33,4.33,0,0,1,1.27-.4,3.81,3.81,0,0,1,.67,0,2.46,2.46,0,0,0,.74-.07.74.74,0,0,0,.52-.6c0-.24.07-.44.11-.65a10.26,10.26,0,0,1,.34-1.26c.57-1.65,1.46-3.23,1.94-5a17.68,17.68,0,0,0,.73-5.26A1.09,1.09,0,0,0,66.26,108.49Zm-13.47,1.9a1.64,1.64,0,0,0,0,.19c0,.12,0,.25,0,.38s0,.25,0,.38,0,.26,0,.39c-.06.51-.17,1-.27,1.54a19.75,19.75,0,0,1-.73,3c-.08.25-.16.49-.25.74a2.28,2.28,0,0,1-.33.67,7.71,7.71,0,0,1-1.14,1.09l-.19.16a31.84,31.84,0,0,0,.94-5.13c.09-.83.16-1.65.22-2.47,0-.32,0-.64.07-1,0-.07,0-.14,0-.2l.11-1.82,1,0a2,2,0,0,1,.82.27c0,.51-.11,1-.19,1.48A.94.94,0,0,0,52.79,110.38Zm4.83.71c0,.15-.05.31-.08.46v-1.24c0-.48,0-.94,0-1.42l.16,0,.18.06C57.75,109.65,57.77,110.38,57.62,111.1Z" transform="translate(0 -0.19)"/><path class="cls-42" d="M153.24,114.47c0-.66-.12-1.36.25-1.87a2.29,2.29,0,0,1,1.8-.62,2.08,2.08,0,0,1,1,.11,1.18,1.18,0,0,1,.59.66,10,10,0,0,1,.69,3.84,14.12,14.12,0,0,0,.19,2,6.15,6.15,0,0,0,.7,1.92,21.59,21.59,0,0,0,2.38,3.32l.1-.08.05,0,.05,0,.1-.08a21.09,21.09,0,0,1-2.36-3.24,7.83,7.83,0,0,1-.88-3.77,10.32,10.32,0,0,0-.74-3.94,1.47,1.47,0,0,0-.76-.8,2.4,2.4,0,0,0-1.1-.13,4.64,4.64,0,0,0-1.08.15,1.72,1.72,0,0,0-.93.59,1.81,1.81,0,0,0-.31,1c0,.35,0,.67,0,1v0c.1.31.2.61.3.92C153.24,115.11,153.24,114.8,153.24,114.47Z" transform="translate(0 -0.19)"/><path class="cls-42" d="M175.91,103.91l1-.2-.14-.33-.93.18-5.25,1c.22.08.24.17.46.26Z" transform="translate(0 -0.19)"/><path class="cls-42" d="M167.12,121.73c0,.11,0,.23,0,.34a2.52,2.52,0,0,1-.9,1.84,5.6,5.6,0,0,1-2.06.83,10.6,10.6,0,0,1-1.1.18c-.22-.33-.43-.67-.64-1s-.32-.53-.49-.79-.37-.5-.52-.76a8.71,8.71,0,0,1-.76-1.64,22.19,22.19,0,0,1-1.16-7.13c0-.59-.07-1.26.43-1.58a3,3,0,0,1,1.76-.36,2.17,2.17,0,0,1,1.61.65,3,3,0,0,1,.71,1.57c.19,1.16-.14,2.39.07,3.64a4.84,4.84,0,0,0,.64,1.78,4.24,4.24,0,0,0,1.38,1.37l.07-.1,0-.06h0l0-.08a3.84,3.84,0,0,1-.34-.41,3.74,3.74,0,0,1-.8-.9,4.35,4.35,0,0,1-.6-1.65c-.21-1.17.11-2.39-.1-3.64a3.34,3.34,0,0,0-.81-1.73,2.51,2.51,0,0,0-1.84-.74,3.3,3.3,0,0,0-1.95.43,1.22,1.22,0,0,0-.49.87c0,.32,0,.62,0,.93a22.51,22.51,0,0,0,1.12,7.24,8.37,8.37,0,0,0,.77,1.7c.16.28.36.53.52.78l0,0c.16.24.31.5.46.76s.35.58.53.86l-.75,0a4.79,4.79,0,0,0-1.19.15,2.87,2.87,0,0,0-1.06.58,2.56,2.56,0,0,1-.92.55,2.13,2.13,0,0,1-1.06,0c-.67-.17-1.31-.51-2-.75h0a13.18,13.18,0,0,1-.64-1.3,17.75,17.75,0,0,1-1-3.81l-.32-2c-.11-.56-.23-1.1-.29-1.65q-.19-.53-.36-1.07c0,.26,0,.52,0,.79a16.34,16.34,0,0,0,.31,2l.31,2a18.06,18.06,0,0,0,1,3.89c.14.35.3.68.47,1a13.12,13.12,0,0,0-2-.09,2,2,0,0,1-1-.28,2,2,0,0,1-.64-.8c-.17-.32-.31-.66-.53-1a1.8,1.8,0,0,0-.37-.42l-.93-4.18-.73-3.29-.37-1.64a2.63,2.63,0,0,1-.1-1.41.61.61,0,0,1,.07-.14,1.54,1.54,0,0,1,.16-.19,2.07,2.07,0,0,1,1.21-.61,6.32,6.32,0,0,1,.87-.1,1.26,1.26,0,0,1,.77.13,1.14,1.14,0,0,1,.48.58,5.45,5.45,0,0,1,.16.8c.11.55.23,1.11.39,1.65s.28.91.43,1.36c0-.39,0-.78,0-1.17,0-.09-.06-.18-.08-.27-.16-.54-.29-1.08-.4-1.62a5.47,5.47,0,0,0-.18-.85,1.45,1.45,0,0,0-.61-.72,1.56,1.56,0,0,0-1-.17,8.16,8.16,0,0,0-.9.11,2.34,2.34,0,0,0-1.43.8,5.87,5.87,0,0,0-.89-.18,6.15,6.15,0,0,0-.72,0,4.45,4.45,0,0,0-.59.05c-.14.18-.27.36-.39.54a1,1,0,0,1,.34-.21,4.32,4.32,0,0,1,1.32,0,5.44,5.44,0,0,1,.73.15,1.48,1.48,0,0,0-.08.72c0,.29.1.56.16.84l.35,1.65.7,3.3.81,3.85a.9.9,0,0,0-.17-.06,4.6,4.6,0,0,0-1.21,0,1.32,1.32,0,0,1-1-.27,5.6,5.6,0,0,1-.7-.83c-.22-.29-.43-.6-.64-.91l-.2-.32a.56.56,0,0,1-.2.39l.07.12c.21.31.43.62.65.92a5.68,5.68,0,0,0,.76.88,1.69,1.69,0,0,0,1.21.36,4.52,4.52,0,0,1,1.11,0,1,1,0,0,1,.35.16,1.49,1.49,0,0,1,.42.43,2.27,2.27,0,0,1,.11.2c.14.24.26.5.4.76a2.06,2.06,0,0,0,2,1.26,8.73,8.73,0,0,1,2.2.15l.07,0,.47.17h0a16,16,0,0,0,1.7.63,2.48,2.48,0,0,0,1.24,0,2.81,2.81,0,0,0,1-.61,2.47,2.47,0,0,1,.94-.53,4.73,4.73,0,0,1,1.11-.14c.31,0,.61,0,.93,0l.43,0a8.33,8.33,0,0,0,1-.17,5.78,5.78,0,0,0,2.18-.89,2.81,2.81,0,0,0,1-2c0-.07,0-.14,0-.2Z" transform="translate(0 -0.19)"/><path class="cls-42" d="M178.61,107.93c-.61.19-1.5.42-2.14.57a12.9,12.9,0,0,0-2.25.67,12.57,12.57,0,0,0-2,1.19,8.68,8.68,0,0,0-3,3.41c-.13.24-.28.48-.43.71l.3,0,.38-.59a14.1,14.1,0,0,1,2.93-3.34,9.93,9.93,0,0,1,1.93-1.15,14.27,14.27,0,0,1,2.19-.64c.63-.15,1.55-.38,2.18-.57Z" transform="translate(0 -0.19)"/><path class="cls-7" d="M162.07,124.09c-.15-.25-.3-.51-.46-.76l-.5.27-.1.08-.05,0-.05,0-.1.08a21.59,21.59,0,0,1-2.38-3.32,6.15,6.15,0,0,1-.7-1.92,14.12,14.12,0,0,1-.19-2,10,10,0,0,0-.69-3.84,1.18,1.18,0,0,0-.59-.66,2.08,2.08,0,0,0-1-.11,2.29,2.29,0,0,0-1.8.62c-.37.5-.23,1.21-.25,1.87,0,.32,0,.64,0,1s0,.68,0,1c0,.1,0,.2,0,.31.06.55.18,1.09.29,1.65l.32,2a17.75,17.75,0,0,0,1,3.81,13.18,13.18,0,0,0,.64,1.3c.71.24,1.35.58,2,.75a2.13,2.13,0,0,0,1.06,0,2.56,2.56,0,0,0,.92-.55,2.87,2.87,0,0,1,1.06-.58,4.79,4.79,0,0,1,1.19-.15l.75,0C162.42,124.67,162.25,124.38,162.07,124.09Z" transform="translate(0 -0.19)"/><path class="cls-15" d="M153.26,115.35c.11-.32-.19-.7,0-.94l-.74-.09a3.93,3.93,0,0,0,.4,1.06c-.11.34.2,1.17.12,1.51l.34.19C153.17,116.78,153.43,115.65,153.26,115.35Z" transform="translate(0 -0.19)"/><path class="cls-42" d="M170.63,104.57a16.74,16.74,0,0,0-1.74-.55,15,15,0,0,0-4.61-.31c-.52,0-1,0-1.57.09l0,.06a5.38,5.38,0,0,0-.9.18s0,0-.06-.11a9.51,9.51,0,0,0-2,.6,10,10,0,0,0-1.35.7,10.39,10.39,0,0,0-4.44.15,10,10,0,0,0-5.14,3s0,0,0,0l-.12.08a12.31,12.31,0,0,0-2.41,2,10.32,10.32,0,0,0-1.72,2.51,7.18,7.18,0,0,0-.29.7,2.81,2.81,0,0,0-.13.36l0,.16h.37l.25,0a.72.72,0,0,1,.06-.16.26.26,0,0,1,0-.07,3.3,3.3,0,0,1,.25-1.35,2.57,2.57,0,0,1,.37-.61,1.39,1.39,0,0,1,.62-.45l.16,0c.19-.24.38-.47.59-.7a11.8,11.8,0,0,1,2.31-1.91c0-.07-.07-.14-.11-.2l-.2.25-.05,0,.05,0,.2-.25a9.64,9.64,0,0,1,5-3.21,10.22,10.22,0,0,1,4-.12l.49.1.41-.27a10,10,0,0,1,3.15-1.14,16.64,16.64,0,0,1,2.26-.2,14.46,14.46,0,0,1,4.51.36c.4.1.79.23,1.18.37h0c.22.07.44.16.66.25l.64-.13Zm-22.08,4.35-.11-.08.11.08.05,0Z" transform="translate(0 -0.19)"/><path class="cls-42" d="M145.48,118.7l0,.06a1,1,0,0,0,.07.25,3.69,3.69,0,0,0,.84,2l.24-.4c-.44-.38-.45-1.07-.73-1.68a3.45,3.45,0,0,0-.38-1.9l-.08-.4a17.73,17.73,0,0,1-.41-2.59,3.43,3.43,0,0,1,.11-.82l0,.06c-.11.21-.19.44-.28.65,0,.06,0,.12-.06.18a17.36,17.36,0,0,0,.35,2.58Z" transform="translate(0 -0.19)"/><path class="cls-14" d="M95.95,4.59" transform="translate(0 -0.19)"/><path class="cls-43" d="M95.95,4.59" transform="translate(0 -0.19)"/><path class="cls-14" d="M89.73,13.61" transform="translate(0 -0.19)"/><path class="cls-43" d="M89.73,13.61" transform="translate(0 -0.19)"/><path class="cls-14" d="M95.61,4.93a190.8,190.8,0,0,0,19.73-.84" transform="translate(0 -0.19)"/><path class="cls-14" d="M105.48,4.55q-4.93.15-9.87,0v.68q4.95,0,9.89-.27t9.88-.57l0-.22V4l0-.23Q110.41,4.28,105.48,4.55Z" transform="translate(0 -0.19)"/><path class="cls-19" d="M125.78,13.23a60.18,60.18,0,0,0-4-7.41l-.24,0s0-.08,0-.12c-.58-.15-1.17-.27-1.76-.39a2.16,2.16,0,0,0-.24-1,2.16,2.16,0,0,0-.87-.76c-1.8-1-3.87-2.85-5.89-3-4.95-.4-9.92,1.15-14.88,1.08a1.89,1.89,0,0,0-.83.12,2,2,0,0,0-.69.64C93.69,5.86,90.51,9.88,88.75,14c-.07.16.32,1.44.31,1.61s.51-.91.56-.73l.08.25a11.06,11.06,0,0,0-.1,1.8c0,4.23,1.46,16.31,2.17,20.47a10.38,10.38,0,0,0,1.4.51c0-1.89-1.43-10.56-.92-12.37.37-1.31,1-2.51,1.37-3.82a7.74,7.74,0,0,0,.3-1.65H94a35,35,0,0,0,8-6.19c-.5,1.94-1.17,4.11-2.88,4.92a25.49,25.49,0,0,0,5.6-1.71,9.32,9.32,0,0,0,4.36-4,8,8,0,0,1-1.57,4.46,13.34,13.34,0,0,0,8.37-3.34,12,12,0,0,0,2.22-2.74,8.31,8.31,0,0,1,.05,1.21,6.44,6.44,0,0,0,.1,2.53,4.07,4.07,0,0,1,1.79-1.07l.08,1.89a3.16,3.16,0,0,1,1.07,0,5.42,5.42,0,0,0-.07,4.33c.25.58.61,1.12.82,1.72a7.73,7.73,0,0,1,.27,2.6c0,2.19.11,10.22.09,12.41l1-1c.26-2.08,0-10.06.63-12.05.34-1.13.9-2.17,1.29-3.28a12,12,0,0,0,.68-4.11,3.09,3.09,0,0,0,.38-1A4.27,4.27,0,0,0,125.78,13.23Z" transform="translate(0 -0.19)"/><path class="cls-19" d="M96.14,18.47c-.37.25-.75.48-1.13.72l-.57.34-.29.17-.14.08a.62.62,0,0,1-.27.08c0,.41-.05.57-.09.79s-.08.42-.13.63a11.78,11.78,0,0,1-.39,1.23c-.3.82-.66,1.63-.94,2.48a4.34,4.34,0,0,0-.25,1.35c0,.45,0,.9,0,1.34,0,.89.12,1.77.21,2.65.17,1.76.39,3.51.59,5.25l.13,1.31,0,.57v.09s-.05,0-.08,0l-.47-.18-.3-.12s-.07,0-.07-.06l-.2-1.26c-.51-3.48-.91-7-1.28-10.47-.18-1.75-.34-3.5-.48-5.25-.06-.88-.12-1.75-.15-2.63a9.3,9.3,0,0,1,0-1.3l0-.64,0-.32v-.08c0-.1,0-.11,0-.17l-.06-.19a.89.89,0,0,0,0-.12.3.3,0,0,0-.38-.15.34.34,0,0,0-.13.08.77.77,0,0,0-.1.12l0,.05s0,.08,0,0l0-.21a5.13,5.13,0,0,1-.11-.58s0,0,0,0l.07-.15.13-.3c.09-.2.18-.39.28-.59.19-.39.4-.77.6-1.16A46.11,46.11,0,0,1,93,7.4c1-1.43,2.1-2.82,3.18-4.2.27-.33.54-.73.8-1s.56-.27,1-.26c.89,0,1.78,0,2.67-.1,3.54-.28,7-1,10.48-1,.43,0,.87,0,1.3,0a4.29,4.29,0,0,1,1.22.2,9.94,9.94,0,0,1,2.28,1.14c.74.46,1.46,1,2.22,1.44a3.94,3.94,0,0,1,1,.68,1.12,1.12,0,0,1,.24.45,2,2,0,0,1,.05.28l0,.23v.33l2,.45-.25-.31v.13l0,.35.36,0h0l0,.07.28.46.55.92q.54.93,1.06,1.88,1,1.89,1.91,3.86l.21-.09.1,0,.11,0,.2-.09q-.9-2-1.94-3.9-.52-1-1.07-1.89l-.56-.93-.29-.46L122,5.51c0-.05-.06-.05-.1,0l-.13,0-.25,0,.38.31V5.73l0-.26-.23-.05-1.53-.34V5A2.67,2.67,0,0,0,120,4.6a1.78,1.78,0,0,0-.37-.7,4.38,4.38,0,0,0-1.16-.81c-.74-.44-1.46-1-2.21-1.43a10.53,10.53,0,0,0-2.44-1.2,5,5,0,0,0-1.37-.23c-.45,0-.89,0-1.34,0-3.58,0-7.05.77-10.53,1.05-.87.07-1.74.11-2.61.1a3.48,3.48,0,0,0-.72,0,1.45,1.45,0,0,0-.72.38,12.84,12.84,0,0,0-.86,1.06c-1.08,1.39-2.16,2.79-3.18,4.23a46.67,46.67,0,0,0-2.86,4.48c-.21.39-.42.78-.61,1.18-.1.2-.2.4-.29.6l-.14.3-.07.15a.58.58,0,0,0-.06.27,4.16,4.16,0,0,0,.13.71l.12.49c0,.19.07.46.16.52s.1.09.19.11.16,0,.27-.17a5.53,5.53,0,0,0,.32-.5l.1-.14s-.11-.15-.14-.17a0,0,0,0,1,0,0,0,0,0,0,1,0,0c-.42.12-.11,0-.21.08V15l0,.12s0,0,0,0v.08l0,.34,0,.68a9.81,9.81,0,0,0,0,1.34c0,.89.09,1.77.16,2.65.14,1.76.3,3.51.49,5.27.38,3.51.79,7,1.31,10.5l.22,1.35,0,.14v.07l.07,0,.25.11.31.13c.23.09.33.14.76.28l.25,0,.12,0s.1,0,.08,0l0-.52a3.09,3.09,0,0,0,0-.41l0-.33-.14-1.32c-.2-1.75-.43-3.5-.6-5.25-.09-.87-.17-1.75-.21-2.62a6.48,6.48,0,0,1,.21-2.53c.27-.82.62-1.63.93-2.46a12.22,12.22,0,0,0,.4-1.28q.08-.33.13-.67c0-.21.06-.52.07-.51l.06,0,.15-.08.29-.17.58-.35q.58-.36,1.14-.73a35.46,35.46,0,0,0,3-2.25c.48-.4,1-.82,1.42-1.24s.56-.53.73-.7a1.39,1.39,0,0,1,0,.2l-.09.31a10.6,10.6,0,0,1-.53,1.34,4.11,4.11,0,0,1-1.83,2l-2,.93L99.21,19a25.32,25.32,0,0,0,5.73-1.76,9.55,9.55,0,0,0,4.4-4.09l-.49-.13a7.83,7.83,0,0,1-.43,2.27,7.68,7.68,0,0,1-.46,1.06c-.11.19-.16.29-.32.55l-.64.89c.43,0,1-.05,1.34-.09l.8-.1a14,14,0,0,0,1.58-.34,13.62,13.62,0,0,0,3-1.21,12.74,12.74,0,0,0,2.61-1.92,11.94,11.94,0,0,0,1.09-1.2l.38-.51.08-.12a4.56,4.56,0,0,1,0,1,8.49,8.49,0,0,0,0,1,3.32,3.32,0,0,0,.08.63,6.3,6.3,0,0,0,.25.76c.22-.22.46-.47.69-.64a3.82,3.82,0,0,1,.79-.48l.11,0h0s0,0,0,.06l0,.46.05,1.3a6.29,6.29,0,0,1,.66-.09h.22c.06,0,0,0,0,.06a5.71,5.71,0,0,0,.27,4.49,12.68,12.68,0,0,1,.62,1.3,4.88,4.88,0,0,1,.25,1.36c0,.95,0,1.95,0,2.93l0,5.9,0,2.95v2.45s0,.19,0,.09l.49-.5.79-.81.13-.14c.09-.09.19-.16.17-.29l0-.42,0-.75,0-1.48.05-2.95a50.57,50.57,0,0,1,.33-5.83,12.89,12.89,0,0,1,1-2.7,13.07,13.07,0,0,0,.92-2.87,12.37,12.37,0,0,0,.19-1.5c0-.25,0-.5,0-.76s0,0,0-.2.11-.24.16-.37a2.83,2.83,0,0,0,.12-1.64,7,7,0,0,0-.52-1.46l-.2.09-.11,0-.1,0-.21.09a3.25,3.25,0,0,1,.39,2.58q-.06.15-.14.31l-.12.23v.26c0,.24,0,.48,0,.72a11.71,11.71,0,0,1-.18,1.42,12.4,12.4,0,0,1-.87,2.74,13.34,13.34,0,0,0-1,2.84,50.73,50.73,0,0,0-.32,5.93l0,2.95,0,1.47,0,.73,0,.31a0,0,0,0,1,0,0l-.13.13-.24.25s0,0,0,0v-1l0-2.95-.05-5.9c0-1,0-2,0-3a5.46,5.46,0,0,0-.29-1.52,12.91,12.91,0,0,0-.65-1.36,5.13,5.13,0,0,1-.23-4.09c.09-.22.16-.41.23-.61,0,0,0-.06,0-.07h-.08l-.16,0-.32,0-.31,0h-.29l0-.68,0-.53c0-.15,0-.31,0-.45s0-.36-.17-.24l-.42.13a3.35,3.35,0,0,0-.35.14,4.33,4.33,0,0,0-.47.25,4.38,4.38,0,0,0-.43.3l-.07.06a4,4,0,0,1,0-1.31l0-.48a2.56,2.56,0,0,0,0-.27l0-.41-.08-1.64c-.26.42-.54.9-.8,1.3l-.2.3-.12.17-.24.31a11.4,11.4,0,0,1-1,1.15,12.21,12.21,0,0,1-2.49,1.84,13.09,13.09,0,0,1-2.88,1.17,13.43,13.43,0,0,1-1.52.33l-.77.1-.23,0,.08-.12c0-.07.2-.33.28-.48a8.19,8.19,0,0,0,.49-1.13,8.34,8.34,0,0,0,.46-2.42l0-1.16-.52,1a9,9,0,0,1-4.16,3.88,24.88,24.88,0,0,1-5.62,1.73l.15.45a4.58,4.58,0,0,0,2.05-2.26,11.07,11.07,0,0,0,.55-1.41l.15-.5.16-.59.29-1.15a40.06,40.06,0,0,1-3.36,3.17A35,35,0,0,1,96.14,18.47Z" transform="translate(0 -0.19)"/></g></g></g></svg>