<svg xmlns="http://www.w3.org/2000/svg" xmlns:xlink="http://www.w3.org/1999/xlink" viewBox="0 0 358.81 156.91"><defs><style>.cls-1,.cls-2{fill:#fff;}.cls-2{stroke:#e2e2e2;stroke-width:4px;}.cls-2,.cls-4,.cls-6,.cls-7{stroke-miterlimit:10;}.cls-3{fill:#ededed;}.cls-4,.cls-6,.cls-7{fill:none;}.cls-4{stroke:#fff;stroke-width:11px;}.cls-5{fill:url(#Dégradé_sans_nom_17);}.cls-6,.cls-7{stroke:#595959;}.cls-7{stroke-dasharray:5.01 5.01;}</style><linearGradient id="Dégradé_sans_nom_17" x1="176.14" y1="46.11" x2="177.85" y2="244.86" gradientUnits="userSpaceOnUse"><stop offset="0" stop-color="#fff"/><stop offset="0.66" stop-color="#e1edf7"/></linearGradient></defs><title>cloud-bottom</title><g id="Calque_2" data-name="Calque 2"><g id="Nuages_Titres" data-name="Nuages Titres"><path class="cls-1" d="M341.7,141.91a48,48,0,0,0,2.19-14.43c0-23-15.86-41.6-35.42-41.6a30.49,30.49,0,0,0-7.6,1c-6.77-14.3-19.77-24-34.69-24a34.17,34.17,0,0,0-9.67,1.4c-5.87-11.05-16.32-18.41-28.23-18.41a28.7,28.7,0,0,0-9.48,1.62C207.5,27.88,188.39,15,166.72,15c-24.89,0-46.39,17-56.58,41.62-1.16-.12-2.33-.19-3.52-.19-16.81,0-31.24,11.89-37.56,28.89-.38,0-.75,0-1.14,0a32.53,32.53,0,0,0-22,8.82A24.6,24.6,0,0,0,43.35,94c-15.76,0-28.54,15-28.54,33.52a38.29,38.29,0,0,0,2.78,14.43Z"/><path class="cls-2" d="M341.7,141.91a48,48,0,0,0,2.19-14.43c0-23-15.86-41.6-35.42-41.6a30.49,30.49,0,0,0-7.6,1c-6.77-14.3-19.77-24-34.69-24a34.17,34.17,0,0,0-9.67,1.4c-5.87-11.05-16.32-18.41-28.23-18.41a28.7,28.7,0,0,0-9.48,1.62C207.5,27.88,188.39,15,166.72,15c-24.89,0-46.39,17-56.58,41.62-1.16-.12-2.33-.19-3.52-.19-16.81,0-31.24,11.89-37.56,28.89-.38,0-.75,0-1.14,0a32.53,32.53,0,0,0-22,8.82A24.6,24.6,0,0,0,43.35,94c-15.76,0-28.54,15-28.54,33.52a38.29,38.29,0,0,0,2.78,14.43Z"/><path class="cls-3" d="M356.17,145.9c5.63-19.13,2.25-40.15-10-55.93a48,48,0,0,0-49.24-17.59l16.94,6.89C302.58,56.43,277.63,43,252.53,49.8l16.94,6.89C258.72,37.34,236.58,26.06,214.81,33l16.94,6.89C217.13,15.14,190.06-2.84,160.46.37,132,3.47,108.3,22.9,97.19,49.05l13-7.43C84,39.56,63.55,58.28,54.6,81.33l14.46-11c-12.76-.38-24.26,5-33.71,13.18L46,79.11C11.4,76.26-8,116.91,3.12,145.9c2.39,6.26,7.41,11,14.46,11H341.7c7.85,0,15.36-6.9,15-15s-6.59-15-15-15H17.58l14.46,11a52.57,52.57,0,0,1-1.89-6.12q-.51-2.76-.21-.93l-.11-1.69a45.17,45.17,0,0,1,.21-6.14c-.42,3,.36-1,.52-1.64s2.26-5.59.88-2.88c.61-1.2,1.33-2.32,1.95-3.51q1.49-2.12,0-.15.81-1,1.71-1.93t1.84-1.76q-1.87,1.33-.56.41a34.15,34.15,0,0,1,3.74-2.2c-3.35,1.73,1.31-.08,1.65-.33q1.66-.35-.92,0a24.65,24.65,0,0,1,2.53-.13c2.95,0,5.58,0,8.39-1.15a11.24,11.24,0,0,0,4.83-3.1q2.08-1.8.79-.69,1.33-.92,2.73-1.7,2.33-1.09,1.09-.64c2.71-1.21,4.11-1.47,7.89-1.36,7.11.21,12.09-4.91,14.46-11-.57,1.48-.12.16.23-.56.43-.88.87-1.77,1.34-2.63a51.68,51.68,0,0,1,3.09-4.92c-.89,1.27-.35.39.3-.32s1.25-1.4,1.91-2.07,1.35-1.28,2-1.93c1.9-1.86-.54.23.74-.66a41.67,41.67,0,0,1,4.65-2.82c.27-.14,2.78-1.2,1.29-.64s1.13-.3,1.39-.38q1.3-.39,2.63-.68c.33-.07,3.06-.4,1.38-.28s1.16,0,1.45,0c1.41,0,2.81.06,4.22.17,4.66.37,11.07-3,13-7.43a79.7,79.7,0,0,1,7.74-14.27c.08-.11,2.84-3.65,1.11-1.56.91-1.1,1.83-2.17,2.8-3.22a65.76,65.76,0,0,1,5-4.9c.17-.15,3.65-2.83,1.29-1.13,1.12-.81,2.24-1.59,3.41-2.33,1.93-1.23,4-2.24,6-3.32,3-1.62-1.55.4,1.42-.62,1.29-.44,2.57-.89,3.88-1.27,1.09-.32,2.2-.59,3.31-.84.47-.1,4.48-.74,2.74-.55-2,.22,1.78-.1,2.15-.12,1.42-.07,2.85-.09,4.28-.05,1.22,0,2.43.12,3.64.23s1,.09-.4-.08q1.07.17,2.12.39a69.7,69.7,0,0,1,7.57,2.12c2.93,1-1.31-.85,1.68.69,1.06.54,2.13,1.06,3.18,1.64,5.61,3.12,6.58,3.93,10.8,8.14q1.31,1.31,2.55,2.68s3,3.51,1.46,1.58a68.69,68.69,0,0,1,5,7.62c3.26,5.52,10.64,8.9,16.94,6.89a29.37,29.37,0,0,1,3.06-.89q2.55-.52,1.18-.23c-.9.07,2.77.08,3.38.12q1.67.13-.52-.07,1.36.27,2.69.67c2.82.56-1.18-1,1.53.56,1.22.69,2.4,1.37,3.56,2.16-2.28-1.55.85.82,1.3,1.26s3,3.24,1.44,1.31a35,35,0,0,1,3.16,5c3.22,5.81,10.63,8.59,16.94,6.89,1-.28,2.08-.57,3.14-.77-1.58.3.28,0,.88-.06,1,0,6.06.32,3.17-.13A47.12,47.12,0,0,1,273,79.07c1.21.34,1.57.61.18,0,1,.47,2,1,3,1.57.79.46,1.54,1,2.3,1.45,1.94,1.23-1.51-1.36.24.14a44.67,44.67,0,0,1,4,3.87c.17.19,1.92,2.29,1.09,1.21s.78,1.18.92,1.39a53.85,53.85,0,0,1,3.22,5.74c3,6.08,10.79,8.32,16.94,6.89q2.71-.51.52-.28a22.49,22.49,0,0,1,2.32-.14c.49,0,4.64.14,2.56,0s2.37.57,2.87.72c.81.24,4,1.76,1,.24,1.11.56,2.2,1.12,3.26,1.77.48.3,3.45,2.7,1,.58,1,.83,1.9,1.68,2.78,2.59q.89.92,1.73,1.9l-.35-.48a40.48,40.48,0,0,1,4.31,7.49c-1.05-2.42.2.83.43,1.56q.62,2,1.06,4.08c.07.33.55,4.66.32,1.71.11,1.48.2,3,.2,4.44a32.79,32.79,0,0,1-1.66,10.44c-2.21,7.53,2.67,16.67,10.48,18.45C345.76,158.21,353.8,154,356.17,145.9Z"/><path class="cls-4" d="M341.7,141.91a48,48,0,0,0,2.19-14.43c0-23-15.86-41.6-35.42-41.6a30.49,30.49,0,0,0-7.6,1c-6.77-14.3-19.77-24-34.69-24a34.17,34.17,0,0,0-9.67,1.4c-5.87-11.05-16.32-18.41-28.23-18.41a28.7,28.7,0,0,0-9.48,1.62C207.5,27.88,188.39,15,166.72,15c-24.89,0-46.39,17-56.58,41.62-1.16-.12-2.33-.19-3.52-.19-16.81,0-31.24,11.89-37.56,28.89-.38,0-.75,0-1.14,0a32.53,32.53,0,0,0-22,8.82A24.6,24.6,0,0,0,43.35,94c-15.76,0-28.54,15-28.54,33.52a38.29,38.29,0,0,0,2.78,14.43Z"/><path class="cls-5" d="M339.19,141.91a48,48,0,0,0,2.19-14.43c0-23-15.86-41.6-35.42-41.6a30.49,30.49,0,0,0-7.6,1c-6.77-14.3-19.77-24-34.69-24a34.17,34.17,0,0,0-9.67,1.4c-5.87-11.05-16.32-18.41-28.23-18.41a28.7,28.7,0,0,0-9.48,1.62C205,27.88,185.88,15,164.21,15c-24.89,0-46.39,17-56.58,41.62-1.16-.12-2.33-.19-3.52-.19-16.81,0-31.24,11.89-37.56,28.89-.38,0-.75,0-1.14,0a32.53,32.53,0,0,0-22,8.82A24.6,24.6,0,0,0,40.83,94c-15.76,0-28.54,15-28.54,33.52a38.29,38.29,0,0,0,2.78,14.43Z"/><line class="cls-6" x1="339.19" y1="141.91" x2="339.47" y2="141"/><path class="cls-7" d="M340,139.16a46.57,46.57,0,0,0,1.3-14.38,48,48,0,0,0-2.93-14.13c-3.34-9-9.82-17.09-18.5-21.45a30.9,30.9,0,0,0-14-3.32,30.46,30.46,0,0,0-7.17.89l-.22.05-.11,0-.05-.1-.21-.4-.41-.81c-.28-.53-.53-1.09-.84-1.6-.63-1-1.19-2.1-1.9-3.09a42.45,42.45,0,0,0-9.83-10.55A36.46,36.46,0,0,0,272.2,64a33.81,33.81,0,0,0-7.16-1,31.47,31.47,0,0,0-7.22.45,34,34,0,0,0-3.53.81c-.35.24-.43-.21-.59-.44l-.45-.79c-.29-.53-.61-1-.94-1.54a35.31,35.31,0,0,0-4.47-5.69A34.19,34.19,0,0,0,242.33,51a32,32,0,0,0-6.42-3.32,27.57,27.57,0,0,0-7-1.68,28,28,0,0,0-7.22.11,28.87,28.87,0,0,0-3.54.75c-.58.16-1.16.34-1.73.54,0,0-.08,0-.1,0l-.06-.1-.12-.19-.24-.39-.47-.77c-1.23-2.08-2.62-4.06-4-6a66.54,66.54,0,0,0-9.85-10.59A58.88,58.88,0,0,0,176,16.3a53.14,53.14,0,0,0-14.4-1.18,52.25,52.25,0,0,0-14.21,2.6,60,60,0,0,0-13.07,6.17A68.81,68.81,0,0,0,123.09,33a73.68,73.68,0,0,0-9,11.32l-1.9,3.09c-.61,1-1.14,2.13-1.72,3.19-.28.54-.57,1.06-.84,1.6l-.74,1.65-.74,1.65c-.29.48-.34,1.37-1.1,1.07a35.35,35.35,0,0,0-14.28,1.74,37.92,37.92,0,0,0-12.51,7.14,45.65,45.65,0,0,0-9.38,11c-.59,1.05-1.23,2.08-1.77,3.16s-1.1,2.15-1.54,3.28l-.69,1.68-.17.42-.09.21c0,.06,0,.17-.13.13l-.91,0a31.33,31.33,0,0,0-3.62.2,32,32,0,0,0-13.53,4.82,35.94,35.94,0,0,0-3,2.09c-.47.38-.95.75-1.39,1.16-.24.17-.44.45-.7.54l-.9-.05c-.6,0-1.21-.09-1.81-.08l-1.81.11-.9.05-.89.16-1.78.32a27.68,27.68,0,0,0-12.52,7,34.25,34.25,0,0,0-7.86,12,38.72,38.72,0,0,0,.19,28.31H337.28"/><line class="cls-6" x1="338.24" y1="141.91" x2="339.19" y2="141.91"/></g></g></svg>