<svg xmlns="http://www.w3.org/2000/svg" xmlns:xlink="http://www.w3.org/1999/xlink" viewBox="0 0 307.48 143.66"><defs><style>.cls-1{fill:#fff;}.cls-2{fill:#ededed;}.cls-3,.cls-5,.cls-6{fill:none;stroke-miterlimit:10;}.cls-3{stroke:#fff;stroke-width:11px;}.cls-4{fill:url(#Dégradé_sans_nom_71);}.cls-5,.cls-6{stroke:#595959;}.cls-6{stroke-dasharray:5.01 5.01;}</style><linearGradient id="Dégradé_sans_nom_71" x1="154.03" y1="65.43" x2="153.35" y2="231.61" gradientUnits="userSpaceOnUse"><stop offset="0" stop-color="#fff"/><stop offset="0.58" stop-color="#e1edf7"/></linearGradient></defs><title>cloud-left</title><g id="Calque_2" data-name="Calque 2"><g id="Nuages_Titres" data-name="Nuages Titres"><path class="cls-1" d="M18.58,128.66a35.17,35.17,0,0,1-3.79-16c0-17.61,12.65-31.93,28.2-31.93a25.2,25.2,0,0,1,6.56.88l1.24.34L51,80.53c3.3-18.33,17.7-31.64,34.25-31.64a31.22,31.22,0,0,1,8.52,1.19l1.21.34L95.31,49c4.27-20.13,20-34.2,38.35-34.2,13.61,0,26.08,7.8,33.36,20.85l.68,1.22,1.06-.81a25.8,25.8,0,0,1,15.85-5.52c13.28,0,24.89,10.67,27.6,25.37l.32,1.73,1.41-.74a30.39,30.39,0,0,1,14.29-3.57c18.71,0,33.93,17.24,33.93,38.43a43.67,43.67,0,0,1-.73,7.94l-.47,2.56,2.14-1a19.38,19.38,0,0,1,8-1.75c12,0,21.69,11,21.69,24.56a27.76,27.76,0,0,1-.37,4.52Z"/><path class="cls-2" d="M31.53,121.09a25.93,25.93,0,0,1-1.62-5.4,27.31,27.31,0,0,0-.12-3c0-.27.36-4.87-.08-1.75a32.46,32.46,0,0,1,1.76-6.69c-1.05,2.85.55-.9.76-1.27s2.09-3.31,1-1.75,1.27-1.41,1.31-1.45c.26-.27,2.81-2.65,1.31-1.37s1.2-.79,1.56-1c.74-.44,3.89-1.52.91-.64a15.71,15.71,0,0,0,3-.89c1.24-.7-2.27-.1.4-.09.21,0,4.19.24,2.23-.07a28.9,28.9,0,0,1,2.87.72c7.29,2,17-2.44,18.45-10.48.26-1.43.51-2.86.87-4.27s.79-2.74,1.25-4.1c.86-2.57-.34.48.41-.91.54-1,1.06-2,1.65-3,0,.06,2.18-3.21,1.12-1.81s1.14-1.28,1.38-1.54c.9-1,1.86-1.83,2.84-2.72-1.53,1.39-.5.3.58-.37.9-.57,1.86-1.06,2.75-1.64,2.31-1.48-1.06.22.49-.3,1-.34,2-.68,3-.95S85.86,64,82.7,64c1.15,0,2.3-.11,3.45-.09,2.6,0-2.54-.82,2,.2,1,.22,1.93.5,2.89.77,7.45,2.11,16.77-2.58,18.45-10.48.2-.95.39-1.9.62-2.84s.5-1.91.79-2.86c0,.1,1.31-3.74.73-2.3s.58-1.22.7-1.46q.63-1.26,1.33-2.47t1.47-2.36c.15-.23,1.8-2.43.85-1.24s.83-.87,1-1.07c.76-.82,1.54-1.61,2.36-2.37.65-.6,1.31-1.19,2-1.73-1.18.92-1,.64.15,0,1.53-.84,3-1.77,4.54-2.54-1.29.63-1.35.44,0,0l3.12-.91c.3-.09,3-.72,1.21-.35s.9-.07,1.28-.09c.9,0,1.8-.07,2.7,0,.29,0,3.17.13,1.48,0s1.1.22,1.42.29q1.35.3,2.67.7c1,.31,2.89,1.06.93.19.84.38,1.67.8,2.48,1.24s1.59,1,2.39,1.43,1.61,1.13.38.15a38,38,0,0,1,4.18,3.95c.23.25,2.46,3,1.64,1.91-.69-1,.83,1.36,1,1.58.65,1,1.26,2.12,1.86,3.2,3.59,6.43,14.17,10.28,20.52,5.38,1.2-.92,2.48-1.71,3.69-2.61l1.37-.77q-1.5.48,0,0a18.5,18.5,0,0,1,3.7-1c-2,.3.38.13,1.27.13,1.25,0,3,.91.56,0,1,.38,2.1.55,3.11.89,1.82.61-2.37-1.71.55.36.71.5,1.5.9,2.22,1.39-2.47-1.66.65.69,1,1.06.63.64,1.24,1.3,1.81,2-1.7-2.05.13.39.43.88a29,29,0,0,1,1.65,3.08c-1.05-2.34.11.62.26,1.12a51.29,51.29,0,0,1,1.18,5.31c1.84,10,14.16,13.11,22,9a15.11,15.11,0,0,1,5.59-2.09q2.77-.58.88-.13,1.15-.07,2.3,0,1,0,1.94.1-2.8-.44-.21,0c1.21.35,2.43.67,3.64,1q2.41.91-.11-.05,1.13.56,2.21,1.2c.63.37,3.6,2.58,1.11.56,1.17.95,2.18,2,3.28,3.06q.68.7,1.3,1.44-1.47-2,0,.08c.71,1.13,1.44,2.22,2.08,3.39q.64,1.18,1.21,2.4-.92-2.26,0,.21c.39,1.34.84,2.64,1.16,4,.18.76.68,4.26.41,1.62a42.45,42.45,0,0,1,.19,6c0,.07-.56,4.73-.16,2.36-.14.85-.32,1.71-.47,2.56-2.5,13.48,9.84,22.46,22,16.94,3.05-1.38.18,0,.12-.09-.18-.32,2.64-.57,3.77-.55-4.2-.1,3.14,1.58-.41-.16.51.25,3.94,2.62,2.64,1.51-1.89-1.6,2.91,3.79.47.38.42.58,2.69,5.18,1.55,2.22.24.62,1.45,5.92,1,2.7.08.6-.06,6.06.31,3.39l14.46-11H18.58c-7.85,0-15.36,6.9-15,15s6.59,15,15,15H292.46c5.86,0,13.58-4.61,14.46-11,2.09-15.22-1.54-30.38-14.08-40.26-12.07-9.51-25.94-9.16-39.46-3l22,16.94c3.62-19.5.3-39.72-14.38-54.13C245.67,37.08,223.75,34.84,205,44.74l22,9C224.46,40,216.21,26.77,203.49,20.34c-14-7.08-30.8-6-43.35,3.63l20.52,5.38C169,8.39,146.48-3.92,122.47,1.13,100.57,5.74,85,25.3,80.56,46.43L99,36C69.35,27.54,41.6,48.7,36.33,78L54.78,67.48C37.54,62.83,20.42,68.87,9.65,83c-11.83,15.53-12.32,36-4,53.22,3.51,7.3,13.93,9.24,20.52,5.38C33.61,137.25,35.06,128.41,31.53,121.09Z"/><path class="cls-3" d="M18.58,128.66a35.17,35.17,0,0,1-3.79-16c0-17.61,12.65-31.93,28.2-31.93a25.2,25.2,0,0,1,6.56.88l1.24.34L51,80.53c3.3-18.33,17.7-31.64,34.25-31.64a31.22,31.22,0,0,1,8.52,1.19l1.21.34L95.31,49c4.27-20.13,20-34.2,38.35-34.2,13.61,0,26.08,7.8,33.36,20.85l.68,1.22,1.06-.81a25.8,25.8,0,0,1,15.85-5.52c13.28,0,24.89,10.67,27.6,25.37l.32,1.73,1.41-.74a30.39,30.39,0,0,1,14.29-3.57c18.71,0,33.93,17.24,33.93,38.43a43.67,43.67,0,0,1-.73,7.94l-.47,2.56,2.14-1a19.38,19.38,0,0,1,8-1.75c12,0,21.69,11,21.69,24.56a27.76,27.76,0,0,1-.37,4.52Z"/><path class="cls-4" d="M18.58,128.66a35.17,35.17,0,0,1-3.79-16c0-17.61,12.65-31.93,28.2-31.93a25.2,25.2,0,0,1,6.56.88l1.24.34L51,80.53c3.3-18.33,17.7-31.64,34.25-31.64a31.22,31.22,0,0,1,8.52,1.19l1.21.34L95.31,49c4.27-20.13,20-34.2,38.35-34.2,13.61,0,26.08,7.8,33.36,20.85l.68,1.22,1.06-.81a25.8,25.8,0,0,1,15.85-5.52c13.28,0,24.89,10.67,27.6,25.37l.32,1.73,1.41-.74a30.39,30.39,0,0,1,14.29-3.57c18.71,0,33.93,17.24,33.93,38.43a43.67,43.67,0,0,1-.73,7.94l-.47,2.56,2.14-1a19.38,19.38,0,0,1,8-1.75c12,0,21.69,11,21.69,24.56a27.76,27.76,0,0,1-.37,4.52Z"/><line class="cls-5" x1="18.58" y1="128.66" x2="18.21" y2="127.9"/><path class="cls-6" d="M17.51,126.35a35.71,35.71,0,0,1-2.57-16.94,34.62,34.62,0,0,1,5.71-16.14,29.08,29.08,0,0,1,5.78-6.39,26.15,26.15,0,0,1,7.41-4.39,25.55,25.55,0,0,1,17-.55,43.81,43.81,0,0,1,5-14.57,38.87,38.87,0,0,1,10-11.67,33.23,33.23,0,0,1,14-6.28A28.41,28.41,0,0,1,83.57,49c.64,0,1.29-.08,1.93-.08s1.29,0,1.93.07A33.53,33.53,0,0,1,95,50.42,54.19,54.19,0,0,1,98.8,38.58a45.57,45.57,0,0,1,6.76-10.42,37.91,37.91,0,0,1,21-12.58c1-.22,2.05-.32,3.08-.48a11,11,0,0,1,1.55-.14l1.56-.07a34.15,34.15,0,0,1,6.21.36,36.78,36.78,0,0,1,11.75,4,40.59,40.59,0,0,1,9.82,7.59,47.58,47.58,0,0,1,7.19,10.13,29.72,29.72,0,0,1,6.41-4,25.63,25.63,0,0,1,7.28-2.08,22.43,22.43,0,0,1,3.79-.18l1.9.1L189,31a26.55,26.55,0,0,1,7.18,2.42,30.75,30.75,0,0,1,6.22,4.34,34.58,34.58,0,0,1,4.9,5.79,35.89,35.89,0,0,1,3.39,6.79,43.09,43.09,0,0,1,1.87,7.36A32.92,32.92,0,0,1,222.29,54a29.91,29.91,0,0,1,5.21-.58c.87,0,1.75.06,2.62.1a15.67,15.67,0,0,1,2.6.27,29.56,29.56,0,0,1,9.9,3.3l1.15.63a8,8,0,0,1,1.12.68L247,59.85a37.2,37.2,0,0,1,3.9,3.49,40.81,40.81,0,0,1,3.41,4,42.61,42.61,0,0,1,2.77,4.45,41,41,0,0,1,2.22,4.75c.33.81.56,1.66.84,2.48l.4,1.25c.12.42.2.85.3,1.27l.58,2.56.35,2.6c.05.43.13.87.17,1.3l.06,1.31.11,2.62a43.66,43.66,0,0,1-.33,5.23c-.2,1.74-.57,3.45-.88,5.17a36.41,36.41,0,0,1,4.67-1.92,19.29,19.29,0,0,1,5-.8c.84,0,1.68.08,2.53.11s1.67.26,2.49.42a20.55,20.55,0,0,1,4.71,1.81,22.73,22.73,0,0,1,7.54,6.61,26.06,26.06,0,0,1,4.17,9.14,19.67,19.67,0,0,1,.48,2.48,18.87,18.87,0,0,1,.25,2.51,24.87,24.87,0,0,1-.17,5l-.09.63,0,.31H20.28"/><line class="cls-5" x1="19.43" y1="128.66" x2="18.58" y2="128.66"/></g></g></svg>