<svg xmlns="http://www.w3.org/2000/svg" xmlns:xlink="http://www.w3.org/1999/xlink" viewBox="0 0 323.52 132.63"><defs><style>.cls-1,.cls-2{fill:#fff;}.cls-2{stroke:#e2e2e2;stroke-width:4px;}.cls-2,.cls-5,.cls-7,.cls-8{stroke-miterlimit:10;}.cls-3{fill:#798184;opacity:0.26;}.cls-4{fill:#ededed;}.cls-5,.cls-7,.cls-8{fill:none;}.cls-5{stroke:#fff;stroke-width:11px;}.cls-6{fill:url(#Dégradé_sans_nom_71);}.cls-7,.cls-8{stroke:#595959;}.cls-8{stroke-dasharray:5.01 5.01;}</style><linearGradient id="Dégradé_sans_nom_71" x1="162.55" y1="21.63" x2="163.4" y2="261.97" gradientUnits="userSpaceOnUse"><stop offset="0" stop-color="#fff"/><stop offset="0.58" stop-color="#e1edf7"/></linearGradient></defs><title>cloud-right</title><g id="Calque_2" data-name="Calque 2"><g id="Nuages_Titres" data-name="Nuages Titres"><path class="cls-1" d="M307.22,116.34a41.45,41.45,0,0,0,.26-4.56c0-20.19-14.53-36.55-32.46-36.55q-.85,0-1.69,0c-4.87-18-19.75-31.18-37.37-31.18a35.34,35.34,0,0,0-17,4.4c-6.46-16.5-21.1-28-38.15-28-11.35,0-21.64,5.12-29.15,13.41-9.33-11.26-22.61-18.3-37.36-18.3-23.33,0-43,17.62-49.12,41.68a36.63,36.63,0,0,0-8.68-1c-22.59,0-40.9,20.63-40.9,46.07a51.37,51.37,0,0,0,2,14.07Z"/><path class="cls-1" d="M35.13,63.47A37.64,37.64,0,0,1,51.27,57l1.07-.18,1.08-.06,2.15-.12a26.42,26.42,0,0,1,4.31.12,36.21,36.21,0,0,1,4.3.68l.7.16.36.08.18,0s0-.12.07-.17l.45-1.51.68-2.31A55.93,55.93,0,0,1,88.14,24.36a47.12,47.12,0,0,1,16-7c.71-.15,1.4-.37,2.11-.46l2.14-.3a32,32,0,0,1,4.29-.34,39.59,39.59,0,0,1,8.59.5,46,46,0,0,1,16.3,5.9,48.21,48.21,0,0,1,7.24,5.21c.58.48,1.13,1,1.68,1.51s1.11,1,1.62,1.59,1.06,1.08,1.56,1.66l2,2.26,1.64-1.71c.38-.41.79-.77,1.19-1.16.79-.77,1.64-1.48,2.49-2.17a38.89,38.89,0,0,1,5.38-3.66,37.35,37.35,0,0,1,11.91-4.34A36.82,36.82,0,0,1,198.67,26a43.88,43.88,0,0,1,17.85,19.2,15.84,15.84,0,0,1,.73,1.56l.88,2,.3.71.08.18s0,.07,0,.08l.08,0,.32-.17,1.26-.66c.56-.27,1-.49,1.48-.71a34.48,34.48,0,0,1,12.15-3,25.05,25.05,0,0,1,3.12,0,26.77,26.77,0,0,1,3.11.24,36.33,36.33,0,0,1,22.19,11.7,43.06,43.06,0,0,1,7.44,11.19,44.48,44.48,0,0,1,2.4,6.46l.5,1.62c0,.1.08.07.14.07h.56l.75,0,.84,0c.26,0,.52,0,.77,0,1,.09,2.07.06,3.09.24,8.22,1.07,15.92,6,21,13.39a37.11,37.11,0,0,1,5.49,12.35,41,41,0,0,1,.87,13.78l2.27.32a43.86,43.86,0,0,0-1-14.76,39.67,39.67,0,0,0-5.93-13.19C296,80.71,287.77,75.45,279,74.36c-1.09-.19-2.19-.16-3.29-.24-.27,0-.55,0-.82,0l-.76,0h-.09l0-.08a46.83,46.83,0,0,0-2.56-6.79,45.19,45.19,0,0,0-7.87-11.72,38.08,38.08,0,0,0-23.33-12.16,28.29,28.29,0,0,0-3.26-.23,26.52,26.52,0,0,0-3.27,0A36.09,36.09,0,0,0,221,46.39c-.49.21-1,.5-1.46.7-.11,0-.27.21-.3,0l-.52-1.19a16.94,16.94,0,0,0-.76-1.62A45.54,45.54,0,0,0,199.36,24.4,38.16,38.16,0,0,0,174,20.26a38.7,38.7,0,0,0-12.31,4.55,40.31,40.31,0,0,0-5.54,3.81c-.87.72-1.74,1.45-2.56,2.25-.41.4-.84.78-1.22,1.2l-.7.74-1.08-1.23c-.51-.59-1.07-1.13-1.61-1.7s-1.11-1.09-1.67-1.62-1.13-1.06-1.73-1.54a49.39,49.39,0,0,0-7.44-5.3,47.11,47.11,0,0,0-16.72-6,40.59,40.59,0,0,0-8.78-.47,32.92,32.92,0,0,0-4.39.38l-2.18.32c-.73.09-1.44.32-2.16.48A48.16,48.16,0,0,0,87.62,23.4,57,57,0,0,0,65.83,53.46l-.69,2.35-.23.81s0,.07,0,.08l-.08,0-.17,0-.36-.08a37.36,37.36,0,0,0-4.32-.66,27.07,27.07,0,0,0-4.39-.1l-2.19.13-1.1.07-1.09.19a38.36,38.36,0,0,0-16.4,6.63,45.48,45.48,0,0,0-4.43,3.5c-.69.66-1.34,1.36-2,2l-1,1-.92,1.13-1.82,2.26-1.63,2.44c-.26.41-.56.8-.8,1.23l-.71,1.3c-.46.88-1,1.72-1.39,2.62A52,52,0,0,0,15.69,110c.15,1,.32,2,.53,3l.33,1.48.18.74.24.89.14.51a1.44,1.44,0,0,0,.08.24H27.78l21.5.06,86,.22,172,.45V115l-172,.46-86,.23-21.5.06H17.87a.6.6,0,0,1,0-.1l-.06-.22-.33-1.28-.33-1.45c-.21-1-.38-1.95-.53-2.93a50.91,50.91,0,0,1,4.15-29c.41-.88.91-1.72,1.35-2.58l.69-1.28c.24-.42.52-.81.78-1.21l1.59-2.41,1.78-2.23L27.82,70l1-1c.66-.67,1.3-1.36,2-2A44.87,44.87,0,0,1,35.13,63.47Z"/><path class="cls-2" d="M307.22,116.34a41.45,41.45,0,0,0,.26-4.56c0-20.19-14.53-36.55-32.46-36.55q-.85,0-1.69,0c-4.87-18-19.75-31.18-37.37-31.18a35.34,35.34,0,0,0-17,4.4c-6.46-16.5-21.1-28-38.15-28-11.35,0-21.64,5.12-29.15,13.41-9.33-11.26-22.61-18.3-37.36-18.3-23.33,0-43,17.62-49.12,41.68a36.63,36.63,0,0,0-8.68-1c-22.59,0-40.9,20.63-40.9,46.07a51.37,51.37,0,0,0,2,14.07Z"/><path class="cls-3" d="M35.13,63.47A37.64,37.64,0,0,1,51.27,57l1.07-.18,1.08-.06,2.15-.12a26.42,26.42,0,0,1,4.31.12,36.21,36.21,0,0,1,4.3.68l.7.16.36.08.18,0s0-.12.07-.17l.45-1.51.68-2.31A55.93,55.93,0,0,1,88.14,24.36a47.12,47.12,0,0,1,16-7c.71-.15,1.4-.37,2.11-.46l2.14-.3a32,32,0,0,1,4.29-.34,39.59,39.59,0,0,1,8.59.5,46,46,0,0,1,16.3,5.9,48.21,48.21,0,0,1,7.24,5.21c.58.48,1.13,1,1.68,1.51s1.11,1,1.62,1.59,1.06,1.08,1.56,1.66l2,2.26,1.64-1.71c.38-.41.79-.77,1.19-1.16.79-.77,1.64-1.48,2.49-2.17a38.89,38.89,0,0,1,5.38-3.66,37.35,37.35,0,0,1,11.91-4.34A36.82,36.82,0,0,1,198.67,26a43.88,43.88,0,0,1,17.85,19.2,15.84,15.84,0,0,1,.73,1.56l.88,2,.3.71.08.18s0,.07,0,.08l.08,0,.32-.17,1.26-.66c.56-.27,1-.49,1.48-.71a34.48,34.48,0,0,1,12.15-3,25.05,25.05,0,0,1,3.12,0,26.77,26.77,0,0,1,3.11.24,36.33,36.33,0,0,1,22.19,11.7,43.06,43.06,0,0,1,7.44,11.19,44.48,44.48,0,0,1,2.4,6.46l.5,1.62c0,.1.08.07.14.07h.56l.75,0,.84,0c.26,0,.52,0,.77,0,1,.09,2.07.06,3.09.24,8.22,1.07,15.92,6,21,13.39a37.11,37.11,0,0,1,5.49,12.35,41,41,0,0,1,.87,13.78l2.27.32a43.86,43.86,0,0,0-1-14.76,39.67,39.67,0,0,0-5.93-13.19C296,80.71,287.77,75.45,279,74.36c-1.09-.19-2.19-.16-3.29-.24-.27,0-.55,0-.82,0l-.76,0h-.09l0-.08a46.83,46.83,0,0,0-2.56-6.79,45.19,45.19,0,0,0-7.87-11.72,38.08,38.08,0,0,0-23.33-12.16,28.29,28.29,0,0,0-3.26-.23,26.52,26.52,0,0,0-3.27,0A36.09,36.09,0,0,0,221,46.39c-.49.21-1,.5-1.46.7-.11,0-.27.21-.3,0l-.52-1.19a16.94,16.94,0,0,0-.76-1.62A45.54,45.54,0,0,0,199.36,24.4,38.16,38.16,0,0,0,174,20.26a38.7,38.7,0,0,0-12.31,4.55,40.31,40.31,0,0,0-5.54,3.81c-.87.72-1.74,1.45-2.56,2.25-.41.4-.84.78-1.22,1.2l-.7.74-1.08-1.23c-.51-.59-1.07-1.13-1.61-1.7s-1.11-1.09-1.67-1.62-1.13-1.06-1.73-1.54a49.39,49.39,0,0,0-7.44-5.3,47.11,47.11,0,0,0-16.72-6,40.59,40.59,0,0,0-8.78-.47,32.92,32.92,0,0,0-4.39.38l-2.18.32c-.73.09-1.44.32-2.16.48A48.16,48.16,0,0,0,87.62,23.4,57,57,0,0,0,65.83,53.46l-.69,2.35-.23.81s0,.07,0,.08l-.08,0-.17,0-.36-.08a37.36,37.36,0,0,0-4.32-.66,27.07,27.07,0,0,0-4.39-.1l-2.19.13-1.1.07-1.09.19a38.36,38.36,0,0,0-16.4,6.63,45.48,45.48,0,0,0-4.43,3.5c-.69.66-1.34,1.36-2,2l-1,1-.92,1.13-1.82,2.26-1.63,2.44c-.26.41-.56.8-.8,1.23l-.71,1.3c-.46.88-1,1.72-1.39,2.62A52,52,0,0,0,15.69,110c.15,1,.32,2,.53,3l.33,1.48.18.74.24.89.14.51a1.44,1.44,0,0,0,.08.24H27.78l21.5.06,86,.22,172,.45V115l-172,.46-86,.23-21.5.06H17.87a.6.6,0,0,1,0-.1l-.06-.22-.33-1.28-.33-1.45c-.21-1-.38-1.95-.53-2.93a50.91,50.91,0,0,1,4.15-29c.41-.88.91-1.72,1.35-2.58l.69-1.28c.24-.42.52-.81.78-1.21l1.59-2.41,1.78-2.23L27.82,70l1-1c.66-.67,1.3-1.36,2-2A44.87,44.87,0,0,1,35.13,63.47Z"/><path class="cls-4" d="M322.22,116.34c2.68-28.56-19-56.93-48.88-56.06l14.46,11c-4.23-14.78-13.69-28.46-27.43-35.86-15.58-8.39-33.41-8-49,.12l22,9c-7.15-17.5-20.16-32.23-39-37.25C175,2.1,154.61,8.8,141,23.26h21.21C146.13,4.36,119.07-4.68,95.18,3.67,72.76,11.49,56.76,30.53,50.7,53.26L69.15,42.78c-19.73-4.33-40.45,2-53.45,17.78C1.91,77.35-2.52,99.33,3.07,120.33a15.27,15.27,0,0,0,14.46,11H307.22c7.85,0,15.36-6.9,15-15s-6.59-15-15-15H17.53l14.46,11a31.12,31.12,0,0,1-1.41-10.08,48.91,48.91,0,0,1,.32-5.78c-.37,3.08.25-.93.39-1.58.41-1.8,1-3.53,1.5-5.31.9-3.28-.87,1.33.53-1.42.8-1.58,1.6-3.15,2.54-4.66.26-.42,2.86-4,1.83-2.74s1.9-2,2.23-2.34,3.67-3.28,2.29-2.18,2.21-1.46,2.61-1.7,4.39-2.3,2.66-1.52,2.45-.83,2.91-1,5-1.09,3-.76,2.63-.11,3.13-.11a14.66,14.66,0,0,1,4.69.51c7.87,1.72,16.27-2.3,18.45-10.48.56-2.1,1.23-4.15,1.93-6.21.78-2.29-.87,1.82.11-.37q.72-1.61,1.54-3.17c.86-1.64,1.8-3.25,2.81-4.8-.05.08,2.22-3.19,1.21-1.84s.78-.94,1-1.14a54.36,54.36,0,0,1,4.2-4.38c.65-.61,1.33-1.18,2-1.77,3.12-2.72-1.3.83.66-.48,1.65-1.1,3.31-2.17,5.07-3.1.78-.41,1.57-.79,2.36-1.17-1.93.92-.49.18.69-.21,1.68-.55,3.37-1,5.09-1.45,1.28-.33,2.81-.54.62-.26.89-.11,1.79-.18,2.69-.24a47.81,47.81,0,0,1,6.64.09c2.54.2-1.87-.41.6.09,1.25.25,2.49.52,3.72.86,1,.27,1.94.6,2.9.91l1.42.52q-1.53-.66-.11,0a52.24,52.24,0,0,1,5.3,3c.56.36,2.84,2,1.3.78.81.62,1.58,1.31,2.34,2A59.72,59.72,0,0,1,141,44.48c5.15,6,16,5.56,21.21,0,1-1.11,2.14-2.15,3.22-3.21q2.06-1.72.47-.48.91-.66,1.86-1.25a41.44,41.44,0,0,1,3.88-2.19q1.42-.67-.18,0,1-.4,2.11-.72a31.61,31.61,0,0,1,5.09-1.22c-2.6.36,1.63,0,2.09,0a31.92,31.92,0,0,1,4.21.24c-2.69-.36.56.25,1.43.49a39.28,39.28,0,0,1,3.9,1.27c-2.85-1.09,1.05.64,1.35.8,1.2.67,2.33,1.42,3.48,2.18-2.38-1.57.77.65,1.26,1.1q1.54,1.41,2.95,3c.4.44,2.57,3.42,1.17,1.37.95,1.38,1.84,2.79,2.66,4.25.27.49,2.28,4.78,1.29,2.36,3.75,9.18,12.65,13.84,22,9a27,27,0,0,1,5.36-1.94c3.55-1-1.3-.26,2.45-.37,1.25,0,2.48,0,3.73,0,1.76,0-2.06-.58.74.06,1.1.25,2.18.49,3.26.81s2.78,1,.8.11A34.16,34.16,0,0,1,246.39,62c1,.56,1.89,1.18,2.81,1.82,1.28.89-1.2-1.32.64.61.78.82,1.64,1.56,2.42,2.4s2,2.34.74.67a41.24,41.24,0,0,1,4,6.58c.23.47,1.34,3.35.5,1,.5,1.38.93,2.77,1.34,4.18,1.77,6.19,7.86,11.2,14.46,11a27.27,27.27,0,0,0,3.64,0c1.44-.27-2.07-.68.45.1a18.71,18.71,0,0,0,3,.86c1.62.19-2.28-1.44.47.21.72.43,1.48.8,2.19,1.24.05,0,3,2.24,1.57,1s1.09,1.11,1.35,1.37,2.6,2.86,1.39,1.4,1.12,1.67,1.12,1.68c.47.75.92,1.52,1.34,2.3,0,0,1.56,3.5.94,1.88s.51,1.75.61,2.09c.32,1.12.57,2.26.81,3.4.51,2.38-.09-3.41.13,1a52.23,52.23,0,0,1-.16,7.48c-.73,7.84,7.42,15.34,15,15C316,130.95,321.44,124.73,322.22,116.34Z"/><path class="cls-4" d="M42.7,76.42a26.94,26.94,0,0,1,8.32-4c1.56-.42,3.24-.51,4.77-1-.46.14-4.39.22-2,.37,2,.13,4.07-.2,6.12,0-2.9-.31.81.26,1.56.43,8.56,2,15.34-2.69,18.45-10.48.7-1.76,1.15-3.7,1.7-5.51a26.14,26.14,0,0,1,2.32-5.11,56,56,0,0,1,3.72-6c1.55-2.16-2.16,2.22,1-1.21.69-.75,1.36-1.52,2.07-2.25.88-.91,1.8-1.78,2.74-2.62.2-.17,2.31-1.91,1.39-1.21a27.09,27.09,0,0,0,2.38-1.56c1-.63,2-1.18,3.07-1.77a25.71,25.71,0,0,1,6.16-2.32c1.49-.4,3-.68,4.5-1,.87-.17,1.86.24,0,0-2.81-.37,1,0,1.75,0a28.37,28.37,0,0,1,13,2.13c-.95-.36,1.71.8,2,1,1.31.68,2.56,1.44,3.83,2.19a20.67,20.67,0,0,1,4,3.07,71,71,0,0,1,5.56,5.9c5.23,6,15.92,5.55,21.21,0,3.75-3.93,6.23-6.23,10.73-7.83a28.15,28.15,0,0,1,5.25-1.35c-1.75.25,2.9,0,3.52,0a19.51,19.51,0,0,1,8.32,1.94c-1.29-.59,2.34,1.42,2.36,1.43s3.75,2.66,1.94,1.22a37.15,37.15,0,0,1,3.94,3.75q.81.85,1.56,1.76-1.07-1.45.51.77c2.08,3.27,3.38,6.8,5.23,10.13,4.05,7.31,13.47,9.09,20.52,5.38,5.7-3,11.17-3.69,17.25-1.16a27.28,27.28,0,0,1,9.11,7c3.36,4.3,4,7.27,5.66,11.81,2.65,7.42,8.16,10.74,15.73,11.05.89,0,4.64.34,2.35-.05a28.8,28.8,0,0,1,3.54.92c1.35.41-1-.75,1.17.53,0,0,3.85,2.45,1.95,1a24,24,0,0,1,2.8,2.61c.43.45,2.16,2.7,1.09,1.18a31.66,31.66,0,0,1,2.56,4.34c-.72-1.47.58,1.53.71,1.95a33.14,33.14,0,0,1,1.07,4.17c-.28-1.6.18,2.89.18,2.9,0,1.74-.08,3.47-.21,5.2-.46,5.81,4.94,13.61,11,14.46l2.27.32c10.1,1.42,18.18-3.82,19-14.46,2.2-29.15-18.75-57.51-49.31-57.39l14.46,11c-4.9-15-14.3-28.95-28.82-36.17-15.13-7.53-32.84-7.77-47.87.28L230,36.58q2.78,4,1.71,1.74-.69-1.54-1.49-3a51.54,51.54,0,0,0-3.32-5.34,63.36,63.36,0,0,0-8.44-10c-7-6.5-15.61-11.63-25-13.8a55.1,55.1,0,0,0-52.45,16.05h21.21C146.21,3.89,120.38-4.65,96.81,2.55a65.84,65.84,0,0,0-32.05,21.9A73.92,73.92,0,0,0,54.38,41.6c-1.56,3.64-2.53,7.45-4,11.11L68.86,42.24c-44.57-10.32-79,37.68-66.14,78.62a15.39,15.39,0,0,0,14.46,11q58.3.17,116.6.3l119.26.31,54.18.14a15.22,15.22,0,0,0,15-15V115a15.21,15.21,0,0,0-15-15l-127.38.34L72,100.67q-27.07.07-54.14.14l14.46,11A33.71,33.71,0,0,1,34.7,86.42c.67-1.27,1.41-2.47,2.18-3.69,2.71-4.3-2.91,3.38.26-.54.58-.73,1.16-1.44,1.79-2.13s1.29-1.37,2-2c.46-.44,4.14-3.24,1.8-1.62,6.65-4.61,9.69-13.15,5.38-20.52-3.85-6.59-13.83-10-20.52-5.38C6.14,65.35-4.64,94.61,3.41,119.81c2,6.3,7.68,11,14.46,11q58-.25,115.91-.31L253,130.19l54.18-.14-15-15v2.58l15-15-127.38-.33L72,102l-54.82-.14,14.46,11c-.4-1.27-.64-2.58-1-3.86-.64-2.57-.11.26-.27-1.29-.14-1.27-.22-2.54-.26-3.81s0-2.33,0-3.5c0,0,.46-4.51.21-2.94a36.2,36.2,0,0,1,4.1-12.33c.56-1,1.17-2,1.79-2.92,2.49-3.92-2.1,2.37-.18,0a53,53,0,0,1,3.84-4.31,34,34,0,0,1,2.64-2.38q1.2-1-.23.21l1.37-.92c1.2-.65,2.33-1.41,3.56-2,2.31-1.16-2.72.65,1.65-.68,2.22-.67,4.6-.9,6.79-1.58,0,0-4.2.29-2.35.38.6,0,1.25-.09,1.85-.11s1.2-.08,1.81-.07c-.07,0,4,.29,2.39.08s.93.21,1.48.33c8.54,2,15.37-2.65,18.45-10.48.8-2,1.25-4.25,2-6.32.15-.42,1-2.26.37-.89.57-1.21,1.18-2.4,1.83-3.57a52.26,52.26,0,0,1,3.83-6c-.92,1.22.25-.3.58-.66.87-1,1.73-1.93,2.64-2.85q1.09-1.1,2.24-2.13c.5-.45,2.69-2.2,1.12-1a47.11,47.11,0,0,1,6.17-3.84,14.74,14.74,0,0,1,4.66-1.91,46.15,46.15,0,0,1,5.27-1.32c.47-.08,2.92-.23,1.65-.2-1.7,0,2.35,0,2.69,0,1.17,0,2.35,0,3.52.12-1.33-.11,1.78.28,2.12.36,1.16.24,2.3.53,3.44.87,6.61,1.94,12.57,6.42,17.58,12.14,5.23,6,15.93,5.61,21.21,0,.62-.66,1.26-1.31,1.92-1.94-.22.2,3.79-3,2.23-1.94a46.31,46.31,0,0,1,4.3-2.58c3.05-1.69-.82-.09,2.51-1,5.75-1.63,9.88-1.8,15.68.1,5,1.64,7.41,4,11.56,8.44,1.83,2-.1-.59,1.44,1.9.69,1.12,1.41,2.21,2,3.37,1.51,2.72,2.43,5.92,4.85,8.06,5.2,4.59,12,5.65,18.18,2.35.52-.28,2.41-1.07,1.39-.67-.56.22,2.77-.78,2.9-.82.49-.14,2.46-.61.85-.34a23.94,23.94,0,0,1,4.08-.19c.39,0,3.85.2,1.62-.08a25.37,25.37,0,0,1,3,.62,30.79,30.79,0,0,1,3.71,1.16c2.23.87-2.27-1.54,1.41.76.89.56,1.82,1.07,2.72,1.64,3.87,2.43-.54-.65,1.41,1.07A35.59,35.59,0,0,1,255,68.47c-1.16-1.53.66,1.17.83,1.45.7,1.12,1.36,2.27,2,3.46a30.59,30.59,0,0,1,1.77,4.72c2.05,6.29,7.66,11,14.46,11,.83,0,1.66,0,2.49.05,2.6.08-1.67-.44.65,0,1,.2,1.9.48,2.86.74,1.39.37-1-.74,1.24.45.89.48,1.74,1,2.62,1.49.54.31,1.87,1.33.65.36a28.14,28.14,0,0,1,2.81,2.66,23.6,23.6,0,0,1,4.63,7.69,33.55,33.55,0,0,1,1.37,13.92l19-14.46-2.27-.32,11,14.46c2.24-28.4-18.71-55.56-48.34-54.75l7.57,2-.14-.07,6.89,9c-5.2-16.84-15.5-31.27-32.13-38.27-14.58-6.14-30.12-4.57-44,2.7l20.52,5.38c-3.18-5.74-5.7-11.17-9.93-16.36A55.2,55.2,0,0,0,196.44,8.76C176.5,2.05,155.12,9.51,141,24.3h21.21c-15.78-18.18-40.08-27.39-63.77-21a64.38,64.38,0,0,0-33,21.82A72.15,72.15,0,0,0,55.3,41.71c-1.72,4-2.75,8.1-4.34,12.08L69.41,43.31a53,53,0,0,0-41.85,7.21C20.81,55,17.92,63.77,22.17,71,26.09,77.74,35.91,80.92,42.7,76.42Z"/><path class="cls-5" d="M307.22,116.34a41.45,41.45,0,0,0,.26-4.56c0-20.19-14.53-36.55-32.46-36.55q-.85,0-1.69,0c-4.87-18-19.75-31.18-37.37-31.18a35.34,35.34,0,0,0-17,4.4c-6.46-16.5-21.1-28-38.15-28-11.35,0-21.64,5.12-29.15,13.41-9.33-11.26-22.61-18.3-37.36-18.3-23.33,0-43,17.62-49.12,41.68a36.63,36.63,0,0,0-8.68-1c-22.59,0-40.9,20.63-40.9,46.07a51.37,51.37,0,0,0,2,14.07Z"/><path class="cls-5" d="M35.13,63.47A37.64,37.64,0,0,1,51.27,57l1.07-.18,1.08-.06,2.15-.12a26.42,26.42,0,0,1,4.31.12,36.21,36.21,0,0,1,4.3.68l.7.16.36.08.18,0s0-.12.07-.17l.45-1.51.68-2.31A55.93,55.93,0,0,1,88.14,24.36a47.12,47.12,0,0,1,16-7c.71-.15,1.4-.37,2.11-.46l2.14-.3a32,32,0,0,1,4.29-.34,39.59,39.59,0,0,1,8.59.5,46,46,0,0,1,16.3,5.9,48.21,48.21,0,0,1,7.24,5.21c.58.48,1.13,1,1.68,1.51s1.11,1,1.62,1.59,1.06,1.08,1.56,1.66l2,2.26,1.64-1.71c.38-.41.79-.77,1.19-1.16.79-.77,1.64-1.48,2.49-2.17a38.89,38.89,0,0,1,5.38-3.66,37.35,37.35,0,0,1,11.91-4.34A36.82,36.82,0,0,1,198.67,26a43.88,43.88,0,0,1,17.85,19.2,15.84,15.84,0,0,1,.73,1.56l.88,2,.3.71.08.18s0,.07,0,.08l.08,0,.32-.17,1.26-.66c.56-.27,1-.49,1.48-.71a34.48,34.48,0,0,1,12.15-3,25.05,25.05,0,0,1,3.12,0,26.77,26.77,0,0,1,3.11.24,36.33,36.33,0,0,1,22.19,11.7,43.06,43.06,0,0,1,7.44,11.19,44.48,44.48,0,0,1,2.4,6.46l.5,1.62c0,.1.08.07.14.07h.56l.75,0,.84,0c.26,0,.52,0,.77,0,1,.09,2.07.06,3.09.24,8.22,1.07,15.92,6,21,13.39a37.11,37.11,0,0,1,5.49,12.35,41,41,0,0,1,.87,13.78l2.27.32a43.86,43.86,0,0,0-1-14.76,39.67,39.67,0,0,0-5.93-13.19C296,80.71,287.77,75.45,279,74.36c-1.09-.19-2.19-.16-3.29-.24-.27,0-.55,0-.82,0l-.76,0h-.09l0-.08a46.83,46.83,0,0,0-2.56-6.79,45.19,45.19,0,0,0-7.87-11.72,38.08,38.08,0,0,0-23.33-12.16,28.29,28.29,0,0,0-3.26-.23,26.52,26.52,0,0,0-3.27,0A36.09,36.09,0,0,0,221,46.39c-.49.21-1,.5-1.46.7-.11,0-.27.21-.3,0l-.52-1.19a16.94,16.94,0,0,0-.76-1.62A45.54,45.54,0,0,0,199.36,24.4,38.16,38.16,0,0,0,174,20.26a38.7,38.7,0,0,0-12.31,4.55,40.31,40.31,0,0,0-5.54,3.81c-.87.72-1.74,1.45-2.56,2.25-.41.4-.84.78-1.22,1.2l-.7.74-1.08-1.23c-.51-.59-1.07-1.13-1.61-1.7s-1.11-1.09-1.67-1.62-1.13-1.06-1.73-1.54a49.39,49.39,0,0,0-7.44-5.3,47.11,47.11,0,0,0-16.72-6,40.59,40.59,0,0,0-8.78-.47,32.92,32.92,0,0,0-4.39.38l-2.18.32c-.73.09-1.44.32-2.16.48A48.16,48.16,0,0,0,87.62,23.4,57,57,0,0,0,65.83,53.46l-.69,2.35-.23.81s0,.07,0,.08l-.08,0-.17,0-.36-.08a37.36,37.36,0,0,0-4.32-.66,27.07,27.07,0,0,0-4.39-.1l-2.19.13-1.1.07-1.09.19a38.36,38.36,0,0,0-16.4,6.63,45.48,45.48,0,0,0-4.43,3.5c-.69.66-1.34,1.36-2,2l-1,1-.92,1.13-1.82,2.26-1.63,2.44c-.26.41-.56.8-.8,1.23l-.71,1.3c-.46.88-1,1.72-1.39,2.62A52,52,0,0,0,15.69,110c.15,1,.32,2,.53,3l.33,1.48.18.74.24.89.14.51a1.44,1.44,0,0,0,.08.24H27.78l21.5.06,86,.22,172,.45V115l-172,.46-86,.23-21.5.06H17.87a.6.6,0,0,1,0-.1l-.06-.22-.33-1.28-.33-1.45c-.21-1-.38-1.95-.53-2.93a50.91,50.91,0,0,1,4.15-29c.41-.88.91-1.72,1.35-2.58l.69-1.28c.24-.42.52-.81.78-1.21l1.59-2.41,1.78-2.23L27.82,70l1-1c.66-.67,1.3-1.36,2-2A44.87,44.87,0,0,1,35.13,63.47Z"/><path class="cls-6" d="M308.55,117.63a41.45,41.45,0,0,0,.26-4.56c0-20.19-14.53-36.55-32.46-36.55q-.85,0-1.69,0c-4.87-18-19.75-31.18-37.37-31.18a35.34,35.34,0,0,0-17,4.4c-6.46-16.5-21.1-28-38.15-28-11.35,0-21.64,5.12-29.15,13.41-9.33-11.26-22.61-18.3-37.36-18.3-23.33,0-43,17.62-49.12,41.68a36.63,36.63,0,0,0-8.68-1c-22.59,0-40.9,20.63-40.9,46.07a51.37,51.37,0,0,0,2,14.07Z"/><line class="cls-7" x1="308.55" y1="117.63" x2="308.6" y2="116.77"/><path class="cls-8" d="M308.69,115.07a39.05,39.05,0,0,0-7.08-24.93,34,34,0,0,0-9.52-9,29.73,29.73,0,0,0-12.35-4.39l-3.3-.2c-.55,0-1.1,0-1.65,0-.18.07-.15-.16-.21-.27l-.12-.39-.24-.79A30.31,30.31,0,0,0,273.15,72a31.93,31.93,0,0,0-1.29-3,44.05,44.05,0,0,0-7.25-11,37.39,37.39,0,0,0-22.77-12.26,24.62,24.62,0,0,0-3.29-.27,25.68,25.68,0,0,0-3.3,0,35,35,0,0,0-6.52,1,35.6,35.6,0,0,0-6.22,2.2c-.5.23-1,.47-1.48.72l-.73.39a3.11,3.11,0,0,1-.35-.7c-.46-1-.82-2-1.35-3A44.69,44.69,0,0,0,201,26.87a37.54,37.54,0,0,0-25.48-4.53A40.31,40.31,0,0,0,153,35.16a51.28,51.28,0,0,0-20.26-15,45.09,45.09,0,0,0-12.31-3.06c-1.06-.09-2.11-.21-3.17-.22l-1.59,0-1.59.07c-1.06.07-2.12.06-3.18.19l-3.15.45a48.11,48.11,0,0,0-12.08,3.88A52.37,52.37,0,0,0,85,28.37a56.94,56.94,0,0,0-8.66,9.29c-.67.82-1.2,1.75-1.8,2.62A28.65,28.65,0,0,0,72.84,43l-1.55,2.78-1.34,2.89a28.66,28.66,0,0,0-1.21,2.94c-.36,1-.78,2-1.09,3l-.9,3.05-.22.76c0,.19-.16.1-.29.08l-.39-.09c-.52-.12-1-.22-1.56-.32A36.3,36.3,0,0,0,58,57.49a41.06,41.06,0,0,0-6.33.58,39.07,39.07,0,0,0-6.16,1.56l-2.94,1.21a9.7,9.7,0,0,0-1.43.69l-1.4.76a39.77,39.77,0,0,0-10,7.82,23.51,23.51,0,0,0-2.08,2.4A27.11,27.11,0,0,0,25.72,75L24,77.7c-.52.92-1,1.86-1.52,2.8a47.45,47.45,0,0,0-4.28,11.94,51,51,0,0,0,.7,25.19h288"/><line class="cls-7" x1="307.69" y1="117.63" x2="308.55" y2="117.63"/></g></g></svg>