<svg xmlns="http://www.w3.org/2000/svg" xmlns:xlink="http://www.w3.org/1999/xlink" viewBox="0 0 483.95 347.47"><defs><style>.cls-1{isolation:isolate;}.cls-2{fill:#73a663;}.cls-3{fill:#676567;}.cls-4{fill:#bab4b8;}.cls-5{opacity:0.33;}.cls-14,.cls-15,.cls-36,.cls-37,.cls-45,.cls-49,.cls-5,.cls-50{mix-blend-mode:multiply;}.cls-6{fill:#7b777a;}.cls-7{fill:#836f5f;}.cls-10,.cls-8{fill:#edcaa9;}.cls-9{fill:#c55548;}.cls-10{stroke:#d6b699;}.cls-10,.cls-20,.cls-22{stroke-miterlimit:10;}.cls-11,.cls-14{fill:#fce6d0;}.cls-12{fill:#4b413b;}.cls-13{fill:#97806e;}.cls-14{opacity:0.51;}.cls-15,.cls-49,.cls-50{opacity:0.37;}.cls-16{fill:#675d56;}.cls-17{fill:#b3aba6;}.cls-18{fill:#575251;}.cls-19{fill:#545354;}.cls-20,.cls-22,.cls-54{fill:none;}.cls-20{stroke:#8a898c;}.cls-21{fill:#d7c3b3;}.cls-22{stroke:#fff;}.cls-23{fill:#857c7a;}.cls-24{fill:#63605c;}.cls-25{fill:#9b9599;}.cls-26{fill:#b7afb4;}.cls-27{fill:#403e3b;}.cls-28{fill:#746e6d;}.cls-29{fill:#6d6b69;}.cls-30{fill:#919191;}.cls-31{fill:#00e600;}.cls-32{fill:#c6c1bf;}.cls-33{fill:#a7a7a7;}.cls-34{fill:url(#Dégradé_sans_nom_12);}.cls-35{fill:#aa8765;}.cls-36{fill:#c2a88d;}.cls-36,.cls-37{opacity:0.2;}.cls-37{fill:#d3b799;}.cls-38{fill:url(#Dégradé_sans_nom_12-2);}.cls-39{fill:url(#Dégradé_sans_nom_11);}.cls-40{fill:#adadad;}.cls-41{fill:url(#Dégradé_sans_nom_11-2);}.cls-42{fill:#bababa;}.cls-43{fill:url(#Dégradé_sans_nom_11-3);}.cls-44{fill:url(#Dégradé_sans_nom_11-4);}.cls-45{fill:#de6c60;opacity:0.61;}.cls-46{fill:#ebd2b5;}.cls-47{fill:#56483f;}.cls-48{fill:#e3cfbb;}.cls-49{fill:url(#Dégradé_sans_nom_96);}.cls-50{fill:url(#Dégradé_sans_nom_96-2);}.cls-51{fill:#a8917f;}.cls-52{fill:#d9b99b;}.cls-53{fill:#f3d7b7;}.cls-55{opacity:0.55;}.cls-56{fill:#fff;}.cls-57{fill:#ccad8f;}</style><linearGradient id="Dégradé_sans_nom_12" x1="-4570.25" y1="3972.21" x2="-4567.1" y2="3972.21" gradientTransform="matrix(-0.77, 0, 0, -2.82, -3323.88, 11341.39)" gradientUnits="userSpaceOnUse"><stop offset="0" stop-color="#e2b892"/><stop offset="0.47" stop-color="#dfb690"/><stop offset="0.76" stop-color="#d7b08b"/><stop offset="1" stop-color="#c9a583"/></linearGradient><linearGradient id="Dégradé_sans_nom_12-2" x1="-4580.79" y1="3962.36" x2="-4577.64" y2="3962.36" gradientTransform="matrix(-0.77, 0, 0, -2.82, -3304.16, 11305.74)" xlink:href="#Dégradé_sans_nom_12"/><linearGradient id="Dégradé_sans_nom_11" x1="-854.48" y1="-1068.25" x2="-843.53" y2="-1068.25" gradientTransform="translate(1480.93 -419.79) rotate(-77.18)" gradientUnits="userSpaceOnUse"><stop offset="0" stop-color="#fff"/><stop offset="1" stop-color="#f2f2f2"/></linearGradient><linearGradient id="Dégradé_sans_nom_11-2" x1="252.06" y1="172.41" x2="276.52" y2="172.41" gradientTransform="matrix(1, 0, 0, 1, 0, 0)" xlink:href="#Dégradé_sans_nom_11"/><linearGradient id="Dégradé_sans_nom_11-3" x1="-770.92" y1="254.02" x2="-763.02" y2="254.02" gradientTransform="translate(-105.81 -555.78) rotate(-97.28)" xlink:href="#Dégradé_sans_nom_11"/><linearGradient id="Dégradé_sans_nom_11-4" x1="1562.94" y1="387.2" x2="1583.95" y2="387.2" gradientTransform="translate(-1352.21 347.47) rotate(-20.1)" xlink:href="#Dégradé_sans_nom_11"/><linearGradient id="Dégradé_sans_nom_96" x1="81.48" y1="144.85" x2="86.11" y2="162.27" gradientUnits="userSpaceOnUse"><stop offset="0" stop-color="#ecc29d"/><stop offset="0.81" stop-color="#cfa988"/></linearGradient><linearGradient id="Dégradé_sans_nom_96-2" x1="107.66" y1="164.27" x2="107.78" y2="165.39" xlink:href="#Dégradé_sans_nom_96"/></defs><title>innovations</title><g class="cls-1"><g id="Calque_2" data-name="Calque 2"><g id="Calque_1-2" data-name="Calque 1"><ellipse class="cls-2" cx="241.97" cy="285.7" rx="241.97" ry="61.77"/><path class="cls-3" d="M128.19,287.13a7.16,7.16,0,0,0-1.17-3.91c-1.29-1.67-3.74-2.2-6-2.19s-4.47.42-6.67.1a9.5,9.5,0,0,1-6.11-3.52,8.19,8.19,0,0,1-1.24-2.33c-1.62.09-3.29.15-5,.15a79.86,79.86,0,0,1-11.92-.86A29.23,29.23,0,0,0,87,288.81a5.21,5.21,0,0,0,.78,2.94A4.42,4.42,0,0,0,90,293.2a3.27,3.27,0,0,1,.5,0h.26l.29,0c5.58,0,11.15.1,16.73.28,5.24,0,10.48,0,15.72,0a6.08,6.08,0,0,0,3.5-1.41C128.31,290.85,128.34,288.88,128.19,287.13Z" transform="translate(0 -0.29)"/><path class="cls-4" d="M98.72,284.26a1.62,1.62,0,0,1-.84-.19.82.82,0,0,1-.43-.61,1.45,1.45,0,0,1,.27-.79,4.33,4.33,0,0,1,.56-.75,7.16,7.16,0,0,1,3.3-1.88,36,36,0,0,1,3.86-.82,12.32,12.32,0,0,1,3.87-.08l0-.23,0-.11,0-.12,0-.22a13,13,0,0,0-4.07.13,36.42,36.42,0,0,0-3.93.89,7.69,7.69,0,0,0-3.52,2.07,4.83,4.83,0,0,0-.62.85,1.88,1.88,0,0,0-.32,1.08,1.58,1.58,0,0,0,1.75,1.21,13.06,13.06,0,0,0,7.56-2.69,28.67,28.67,0,0,0,2.67-3c.42-.44,1-1,1.29-.76s.38.81.17,1.43l.21.06.11,0,.11,0,.22.06a3.27,3.27,0,0,0,.15-1.1,1.33,1.33,0,0,0-.67-1.08,1.2,1.2,0,0,0-1.26.2,6,6,0,0,0-.78.72,29.07,29.07,0,0,1-2.58,3A12.58,12.58,0,0,1,98.72,284.26Z" transform="translate(0 -0.29)"/><path class="cls-4" d="M111.74,281.22a14.76,14.76,0,0,0-3.49,4.33l.51.17a14.45,14.45,0,0,1,2-5.88l-.2-.12-.09-.06-.1-.06-.19-.11a15.07,15.07,0,0,0-1.93,6.17l-.11,1.23.62-1.06a14.32,14.32,0,0,1,3.29-4.26l.14-.1.07,0s.11-.07.12-.05l-.06.18,0,.14-.07.31a10.32,10.32,0,0,0-.15,3.76l.2,1.33.36-1.31a7.33,7.33,0,0,1,3.35-4.34l-.11-.19-.06-.1-.06-.09-.12-.2a8,8,0,0,0-3.55,4.78l.55,0a9.73,9.73,0,0,1-.1-2.38,10.43,10.43,0,0,1,.69-3A11.31,11.31,0,0,0,111.74,281.22Z" transform="translate(0 -0.29)"/><g class="cls-5"><path class="cls-6" d="M127.75,291.08c-13.5-.25-27-.85-40.5-.57a3.57,3.57,0,0,0,.56,1.23A4.42,4.42,0,0,0,90,293.2a3.27,3.27,0,0,1,.5,0h.26l.29,0c5.58,0,11.15.1,16.73.28,5.24,0,10.48,0,15.72,0a6.08,6.08,0,0,0,3.5-1.41A3.67,3.67,0,0,0,127.75,291.08Z" transform="translate(0 -0.29)"/><path class="cls-6" d="M87.85,291.39a3.21,3.21,0,0,1-.25-.52c0-.06-.08-.17,0-.14l1.14,0,2.6,0h5.2c3.46,0,6.93.09,10.39.17l20.79.55v-.68L107,290.3c-3.47-.06-6.93-.11-10.4-.11l-5.2,0-2.6,0-1.46,0c-.54-.12-.23.39-.15.7a3.61,3.61,0,0,0,.31.65,3.71,3.71,0,0,0,1.32,1.27,5.94,5.94,0,0,0,.81.4,1.76,1.76,0,0,0,.49.15l.4,0h0l19.06.32,9.53.05h4.17a2.22,2.22,0,0,0,.35,0l.3,0a7.48,7.48,0,0,0,2.37-.74,4.06,4.06,0,0,0,1.77-1.83l-.2-.1-.11-.05-.1,0-.21-.1a4.46,4.46,0,0,1-3.63,2.23l-.29,0a1.75,1.75,0,0,1-.25,0h-13.7L90.52,293h0l-.46,0a1.89,1.89,0,0,1-.33-.11,5.47,5.47,0,0,1-.75-.36A3.25,3.25,0,0,1,87.85,291.39Z" transform="translate(0 -0.29)"/></g><path class="cls-6" d="M95.16,292.08a8.41,8.41,0,0,0-1.37-4.59c-1.52-2-4.39-2.58-7-2.57s-5.25.5-7.83.11a11.15,11.15,0,0,1-7.18-4.14,9.61,9.61,0,0,1-1.45-2.74c-1.91.11-3.86.17-5.86.17a93.77,93.77,0,0,1-14-1,34.32,34.32,0,0,0-3.64,16.73,6.11,6.11,0,0,0,.92,3.45,5.19,5.19,0,0,0,2.58,1.71,3.84,3.84,0,0,1,.59,0h.3a2,2,0,0,1,.34,0c6.55,0,13.1.12,19.64.33,6.15,0,12.3,0,18.46.05a7.14,7.14,0,0,0,4.11-1.65C95.3,296.45,95.33,294.14,95.16,292.08Z" transform="translate(0 -0.29)"/><path class="cls-4" d="M60.55,288.76a1.94,1.94,0,0,1-1-.23,1,1,0,0,1-.53-.75,1.73,1.73,0,0,1,.32-1,5.13,5.13,0,0,1,.67-.89,8.45,8.45,0,0,1,3.9-2.22,42.25,42.25,0,0,1,4.54-1,14.52,14.52,0,0,1,4.56-.1l0-.23,0-.11,0-.12,0-.22a15.16,15.16,0,0,0-4.76.15,42.72,42.72,0,0,0-4.6,1,9,9,0,0,0-4.11,2.42,5.63,5.63,0,0,0-.72,1,2.17,2.17,0,0,0-.37,1.25,1.82,1.82,0,0,0,2,1.39,15.29,15.29,0,0,0,8.84-3.16,33.66,33.66,0,0,0,3.12-3.52c.5-.51,1.18-1.16,1.58-.91a.86.86,0,0,1,.39.7,3.19,3.19,0,0,1-.16,1l.21.06.11,0,.11,0,.22.06a3.78,3.78,0,0,0,.17-1.27,1.5,1.5,0,0,0-.76-1.22,1.35,1.35,0,0,0-1.42.22,7,7,0,0,0-.91.83,34.06,34.06,0,0,1-3,3.51A14.81,14.81,0,0,1,60.55,288.76Z" transform="translate(0 -0.29)"/><path class="cls-4" d="M75.86,285.17a17.29,17.29,0,0,0-4.08,5.08l.51.17a17,17,0,0,1,2.3-6.93l-.2-.12-.09-.06-.1-.06-.19-.11a17.64,17.64,0,0,0-2.26,7.22l-.11,1.23.63-1.06a16.85,16.85,0,0,1,3.88-5l.23-.17.1-.06a.51.51,0,0,1,.15-.08l-.07.21-.08.31-.09.38a12.1,12.1,0,0,0-.24,1.52c0,.26,0,.51,0,.77v.65l0,.33c0,.45.08.84.13,1.24s.12.92.16,1.1c.16-.52.38-1.33.56-1.81a5.75,5.75,0,0,1,.3-.78c.06-.13.11-.24.18-.36a8.75,8.75,0,0,1,.87-1.34,8.56,8.56,0,0,1,2.39-2.08l-.11-.19-.06-.1L80.5,285l-.12-.2a9.21,9.21,0,0,0-2.54,2.28,9.36,9.36,0,0,0-.91,1.45c-.07.12-.13.26-.18.38l0,.05,0,.14c0,.08,0,0,0,0l0-.13v-.52c0-.25,0-.49,0-.74a11.59,11.59,0,0,1,.2-1.46l.08-.36.11-.42.41-1.25c-.27.14-.61.34-.89.51l-.43.27Z" transform="translate(0 -0.29)"/><g class="cls-5"><path class="cls-6" d="M94.63,296.72c-15.86-.3-31.72-1-47.56-.67a4.2,4.2,0,0,0,.66,1.45,5.19,5.19,0,0,0,2.58,1.71,3.84,3.84,0,0,1,.59,0h.3a2,2,0,0,1,.34,0c6.55,0,13.1.12,19.64.33,6.15,0,12.3,0,18.46.05a7.14,7.14,0,0,0,4.11-1.65A4.3,4.3,0,0,0,94.63,296.72Z" transform="translate(0 -0.29)"/><path class="cls-6" d="M47.75,297.11a3.81,3.81,0,0,1-.31-.65c0-.12-.1-.21,0-.18l1.4,0,3.05,0H58c4.07,0,8.13.1,12.2.19l24.41.64v-.68l-24.41-.53c-4.07-.08-8.14-.13-12.21-.14l-6.11,0-3.05,0-1.66,0c-.65-.16-.27.48-.19.8a4.26,4.26,0,0,0,.35.73,4.32,4.32,0,0,0,1.53,1.48,6.93,6.93,0,0,0,.95.46l.24.09.12,0a.54.54,0,0,0,.19,0l.48,0h0l22.38.36,11.19.06h4.9a2.57,2.57,0,0,0,.4,0l.35-.05a8.72,8.72,0,0,0,2.76-.87,4.7,4.7,0,0,0,2.05-2.13l-.2-.1-.11-.05-.1,0-.21-.1a4,4,0,0,1-1.76,1.84,8.09,8.09,0,0,1-2.55.81l-.34.05a2.1,2.1,0,0,1-.3,0H73.3L50.92,299h0l-.54,0h-.06l-.12,0-.23-.09a6.46,6.46,0,0,1-.88-.43A3.86,3.86,0,0,1,47.75,297.11Z" transform="translate(0 -0.29)"/></g><path class="cls-7" d="M62.3,283a62.23,62.23,0,0,0,8.39-.43l.16.3a62.79,62.79,0,0,1-16.07-.15l-.21,0,.08-.29.17,0A62.19,62.19,0,0,0,62.3,283Z" transform="translate(0 -0.29)"/><path class="cls-8" d="M332.14,26.13c-.32.76-1.59,1-1.9,1.78a7.65,7.65,0,0,0-.38.91c0,.07,0,.13-.06.2q-.49,1-.91,2c-.11-1.11-.26-2.21-.45-3.31a58.32,58.32,0,0,0-7.35-1.42,26.29,26.29,0,0,1-.76-5.65,15,15,0,0,1-.91,5.45,79.35,79.35,0,0,0-18.33,1.09c-.32.06-1.59-3-1.59-3s-.11,3.36-.48,3.44c-.8.18-1.58.38-2.33.59v0l1.29,8.6a43.84,43.84,0,0,0,1.43,7,29.25,29.25,0,0,0,7.21,11.29,17.47,17.47,0,0,0,3.08,2.61c.2.13.41.25.62.37a9,9,0,0,0,1.21.54l0,.06a14.24,14.24,0,0,0,2.9,9.44,9.37,9.37,0,0,0,9,3.43,11.06,11.06,0,0,0,4.53-2.39,17.72,17.72,0,0,0,2.85-3l-.18-.81c2.46-2.31,3.31-4.85,3.74-8.16.17-1.34.47-4.16.06-4.66-.07-.08-3.46-1.13-4.86-1.53a2.69,2.69,0,0,0-.45-.09c0-2.9.09-5.8.15-8.7a2.52,2.52,0,0,0,.42.06,2.41,2.41,0,0,0,2.5-2.3c-.29-4,1.13-7.59,3.11-11a2.27,2.27,0,0,0,.3-1.39,3,3,0,0,0,.22-.53C336.44,23.72,333.31,23.3,332.14,26.13Z" transform="translate(0 -0.29)"/><path class="cls-9" d="M329.9,119.5a7.53,7.53,0,0,0-2.77,1.63,3.65,3.65,0,0,0-1.51,2.65,2.24,2.24,0,0,0,1.73,2.3,6.32,6.32,0,0,0-.55,2.09,2.14,2.14,0,0,0,.88,1.88c.29.18.65.27.85.55s.15.8.22,1.21a2.06,2.06,0,0,0,1.59,1.52,3.56,3.56,0,0,0,1.75-.1c0,.43,1.26,1.49,1.7,1.5,1.65,0,9.68-7.51,10.92-8.34l.2-.24a28.14,28.14,0,0,1,8.66-8.78c2.24-1.41,4.77-2.44,7-3.79.78,3.67,1.69,7.45,2.7,10.78,1.18,3.9.52,18.35,0,22.2s-1.61,11.17-2.23,11.2l-2.11.06a150.91,150.91,0,0,1-22.18-1.35c-6.55-.84-13.15-2-19.89-3.24l-2.45-.46c-.24-3.61.4-27,1.31-30.51a58.4,58.4,0,0,0,2.17-10.62,15.81,15.81,0,0,0-2.51-10.34c-1.6-2.2-3.93-3.78-6.06-5.51a60.48,60.48,0,0,1-2.3,7.26l-.54-.25h0a25,25,0,0,0-5-1.66,37.59,37.59,0,0,0-7.84-1l-1.15,0c.85-6.91,2.44-13.76,2.48-20.72a18.69,18.69,0,0,1,.79-6.61,15.61,15.61,0,0,1,2.63-4.17c3.8-4.68,6.33-7.43,11.27-10.88.2.13.41.25.62.37a9.06,9.06,0,0,0,1.21.54l0,.06a14.24,14.24,0,0,0,2.9,9.44,9.37,9.37,0,0,0,9,3.43,11.06,11.06,0,0,0,4.53-2.39,17.72,17.72,0,0,0,2.85-3c.52,2.32,1.08,4.64,1.46,7A25.05,25.05,0,0,1,332,83.94a23.64,23.64,0,0,0,2.1-6.3c.7-4.15-.84-9.53-1.72-13.95a19,19,0,0,0,2.12-11.22l10.24,3.4c3.38,1.12,6.85,2.29,9.51,4.65,2.88,2.56,6.18,5.52,7.25,9.22s1.79,7.78,3.11,11.39c1.21,3.31,2,5.27,3.61,9.07q-1.65.62-3.33,1.14A64.35,64.35,0,0,1,352.06,94h0c.72,2.3,1.29,4.53,1.78,6.88h0A26.61,26.61,0,0,0,350,106a35.07,35.07,0,0,1-4.79,6.7,12.78,12.78,0,0,1-1.7,1.42h0a13.33,13.33,0,0,1-5.55-1.13c-3.86-1.72-6.85-5.24-10.92-6.33l0,.08a1.77,1.77,0,0,0-1.87,1.41,2.77,2.77,0,0,0,.75,2.36A6.64,6.64,0,0,0,328,111.9a15,15,0,0,1,2.27,1.21,5.77,5.77,0,0,1,2.36,4.87c-.09,1.88,0,2.35-1.61,3.3" transform="translate(0 -0.29)"/><path class="cls-10" d="M339,230h-.1c-3.1-7.39-6.17-14.8-8.9-22.34A274.25,274.25,0,0,1,318.92,168L317,159.77c-.06-3-.1-4.93-.14-6.52,6.74,1.26,13.34,2.41,19.89,3.24.1,2.63.22,5.32.21,8.43v9.56C336.19,193,338.31,211.46,339,230Z" transform="translate(0 -0.29)"/><path class="cls-10" d="M351.22,234.61a100.36,100.36,0,0,0-3.76,17.33c0,.3-.06.6-.09.91v.4c.14.55.32,1.1.51,1.62a41.81,41.81,0,0,1,1.7,9.29c0,.79-2.48,3.19-4.79,4.9a24.24,24.24,0,0,1-24.95,2c-.81-.41-1.67-1-1.85-1.87a2.84,2.84,0,0,1,1.5-2.8,88.52,88.52,0,0,0,8.65-5.5A43.23,43.23,0,0,0,339,249.31c.13-2.87.19-5.73.2-8.59h0c0-3.59-.07-7.18-.21-10.77-.68-18.49-2.79-36.92-2-55.48v-9.56c0-3.11-.11-5.8-.21-8.43a150.91,150.91,0,0,0,22.18,1.35c-2.29,12.13-5.38,28-4.9,35,.43,6.32,1.68,12.59,1.59,18.92C355.51,219.73,353.33,227.14,351.22,234.61Z" transform="translate(0 -0.29)"/><path class="cls-8" d="M331,121.28c1.63-.94,1.52-1.42,1.61-3.3a5.77,5.77,0,0,0-2.36-4.87A15,15,0,0,0,328,111.9a6.64,6.64,0,0,1-2.12-1.43,2.77,2.77,0,0,1-.75-2.36A1.77,1.77,0,0,1,327,106.7l0-.08c4.07,1.09,7.06,4.62,10.92,6.33a13.33,13.33,0,0,0,5.55,1.13h0a12.78,12.78,0,0,0,1.7-1.42A35.07,35.07,0,0,0,350,106a26.61,26.61,0,0,1,3.85-5.1h0c-.49-2.36-1.06-4.59-1.78-6.88h0a64.35,64.35,0,0,0,12.79-2.62,36.61,36.61,0,0,1,2.23,8.9c.32,3.58-.38,7.39-2.65,10.16a14.45,14.45,0,0,1-3.85,3.17c-2.26,1.35-5.77,3-7,3.79-3.59,2-5.41,6-6.13,6.9a8.1,8.1,0,0,1-2.34,2s-9.65,8.48-11.3,8.45c-.43,0-1.74-1.07-1.7-1.5a3.56,3.56,0,0,1-1.75.1,2.06,2.06,0,0,1-1.59-1.52c-.07-.41,0-.87-.22-1.21s-.56-.37-.85-.55a2.14,2.14,0,0,1-.88-1.88,6.32,6.32,0,0,1,.55-2.09,2.24,2.24,0,0,1-1.73-2.3,3.65,3.65,0,0,1,1.51-2.65,7.53,7.53,0,0,1,2.77-1.63,7.76,7.76,0,0,1,2.53.44C332.77,120.25,331.37,121,331,121.28Z" transform="translate(0 -0.29)"/><path class="cls-11" d="M320.32,20.68v0Z" transform="translate(0 -0.29)"/><path class="cls-10" d="M339.19,240.72c0,2.86-.07,5.72-.2,8.59a43.23,43.23,0,0,1-10.84,11.6c-1-.11-2.31-.1-2.81-.94a4.64,4.64,0,0,1,1.86-5.33C333.23,251.13,336,245.41,339.19,240.72Z" transform="translate(0 -0.29)"/><path class="cls-10" d="M354.51,241.36c.76,1.61,1.52,3.52.7,5.1-.62,1.18-1.94,1.78-3.12,2.39a23.91,23.91,0,0,0-4.56,3.1h-.06a100.36,100.36,0,0,1,3.76-17.33C352.27,236.82,353.46,239.15,354.51,241.36Z" transform="translate(0 -0.29)"/><path class="cls-7" d="M328.44,27.75a58.34,58.34,0,0,0-7.35-1.42,26.27,26.27,0,0,1-.76-5.7,15,15,0,0,1-.9,5.5,79.36,79.36,0,0,0-18.33,1.09c-.32.06-1.59-3-1.59-3s-.11,3.36-.48,3.44c-.8.18-1.58.38-2.33.59l-1.09.32h0a21.67,21.67,0,0,1,.7-16.35c4.91-10.67,16.87-14.44,27.48-9.68a16,16,0,0,1,5.67,3.93A17.27,17.27,0,0,1,333,15.11c.5,3.05.59,6.15,1.1,9.2A2.64,2.64,0,0,0,333,25a6.09,6.09,0,0,0-2.11,3.83q-.09,2.22-.18,4.42c-.11,2.88-.2,5.76-.21,8.65V42c0,3.08.09,6.17.29,9.24.24,3.63.64,7.25,1.22,10.85.08.51,1.86,8.55,2.07,11.11-.23.44,1.08,3-1.79,9.7-.15.35.43-8.28.13-7.88-.38-1.68-2.46-12.21-2.73-13.91C328,50.11,330.35,38.74,328.44,27.75Z" transform="translate(0 -0.29)"/><path class="cls-7" d="M328.44,27.75a58.34,58.34,0,0,0-7.35-1.42,26.27,26.27,0,0,1-.76-5.7,15,15,0,0,1-.9,5.5,79.36,79.36,0,0,0-18.33,1.09c-.32.06-1.59-3-1.59-3s-.11,3.36-.48,3.44c-.8.18-1.58.38-2.33.59l-1.09.32h0a21.67,21.67,0,0,1,.7-16.35c4.91-10.67,16.87-14.44,27.48-9.68a16,16,0,0,1,5.67,3.93A17.27,17.27,0,0,1,333,15.11c.5,3.05.59,6.15,1.1,9.2A2.64,2.64,0,0,0,333,25a6.09,6.09,0,0,0-2.11,3.83q-.09,2.22-.18,4.42c-.11,2.88-.2,5.76-.21,8.65V42c0,3.08.09,6.17.29,9.24.24,3.63.64,7.25,1.22,10.85.08.51,1.86,8.55,2.07,11.11-.23.44,1.08,3-1.79,9.7-.15.35.43-8.28.13-7.88-.38-1.68-2.46-12.21-2.73-13.91C328,50.11,330.35,38.74,328.44,27.75Z" transform="translate(0 -0.29)"/><path class="cls-12" d="M361.47,69.74c-1.07-3.7-4.37-6.67-7.25-9.22-2.66-2.36-6.13-3.54-9.51-4.65l-10.24-3.4a19,19,0,0,1-2.12,11.22c.88,4.42,2.42,9.8,1.72,13.95a23.64,23.64,0,0,1-2.1,6.3,25.05,25.05,0,0,0,.25-10.77c-.38-2.35-.94-4.66-1.46-7a17.73,17.73,0,0,1-2.85,3,11.06,11.06,0,0,1-4.53,2.39,9.37,9.37,0,0,1-9-3.43,14.24,14.24,0,0,1-2.9-9.44l0-.06a9.08,9.08,0,0,1-1.21-.54c-.21-.11-.42-.24-.62-.37-4.95,3.45-7.47,6.2-11.27,10.88a15.61,15.61,0,0,0-2.63,4.17,18.69,18.69,0,0,0-.79,6.61c0,7-1.63,13.82-2.48,20.72l1.15,0a37.58,37.58,0,0,1,7.84,1,25,25,0,0,1,5,1.66h0l.54.25a60.48,60.48,0,0,0,2.3-7.26c2.13,1.73,4.46,3.31,6.06,5.51a15.81,15.81,0,0,1,2.51,10.34c0,.47-.08.95-.13,1.42q3.59.08,7.22.08,2.65,0,5.28,0a15.1,15.1,0,0,0-2.26-1.2,6.64,6.64,0,0,1-2.12-1.43,2.77,2.77,0,0,1-.75-2.36A1.77,1.77,0,0,1,327,106.7l0-.08c4,1.08,7,4.55,10.81,6.28q3.78-.15,7.51-.39A36.32,36.32,0,0,0,350,106a26.61,26.61,0,0,1,3.85-5.1h0c-.49-2.36-1.06-4.59-1.78-6.88h0a64.34,64.34,0,0,0,12.79-2.62q1.68-.52,3.33-1.14c-1.62-3.8-2.41-5.76-3.61-9.07C363.26,77.52,362.54,73.44,361.47,69.74Z" transform="translate(0 -0.29)"/><path class="cls-9" d="M336.86,112.4c.35.19.71.38,1.08.54a13.34,13.34,0,0,0,5.55,1.13h0a12.72,12.72,0,0,0,1.38-1.13Q340.87,112.72,336.86,112.4Z" transform="translate(0 -0.29)"/><path class="cls-9" d="M353.87,117.25a21.64,21.64,0,0,0-2.44,1.69c-1.53,1.29-2.28,3-3.5,4.56-2.4,3-5.66,5.16-8.63,7.57a165.22,165.22,0,0,0,8.92,26.51c3.56.22,7.13.32,10.71.25l2.11-.06c.62,0,1.72-7.5,2.23-11.43s1.17-18.67,0-22.66c-.93-3.13-1.77-6.63-2.5-10.08-.41.24-.84.46-1.27.67q-1.47.86-3,1.67" transform="translate(0 -0.29)"/><path class="cls-13" d="M332.42,12.62c-.07-.2-.14-.41-.21-.61l0-.07c-.57-1.11-1.18-2.23-1.67-3.39a12.46,12.46,0,0,1-1.6-2l-.08.23c-.22.61-.69,1.28-1.33,1.2-.09,1-1.32,1.4-2.31,1.57-.69.12-1.51.18-2-.35a7.49,7.49,0,0,1-4.08-.37c-1.47-.57-2.86-1.62-4.42-1.47-1.2.12-2.7.83-3.4-.15l-4.52,1c-.37.08-.89.08-1-.29a11.65,11.65,0,0,0-4.38.08,4.58,4.58,0,0,1-2.06.37,1,1,0,0,1-.22-.07c-.4.41-.84.79-1.28,1.17-.35,1.25-.72,2.55-1.12,3.8l.05,0c.35-.18.85-.34,1.07,0a2,2,0,0,1,.15.49c.27.77,1.44.43,2.08-.07s1.74-.95,2.12-.23a2.31,2.31,0,0,1,1.34-.55,5.23,5.23,0,0,0,4.6.34,1.41,1.41,0,0,0,.07,1,9.15,9.15,0,0,1,6.61-1.54,2.43,2.43,0,0,0,1.15,0c.46-.16.9-.63,1.35-.43s.42,1.12.93,1.33a3.13,3.13,0,0,1,1.8.17c.6.14,1.37.07,1.62-.49.25,1.11,1.55,1.59,2.67,1.73a13.26,13.26,0,0,0,4.47-.18l.47-.83a.84.84,0,0,0,1.49-.2,7.69,7.69,0,0,1,1.89,0Q332.55,13.2,332.42,12.62Z" transform="translate(0 -0.29)"/><path class="cls-14" d="M336.81,182.72c0-2.75,0-5.5.16-8.25v-9.56c0-3.11-.11-5.8-.21-8.43-6.38-.81-12.8-1.92-19.36-3.14C325.2,156.32,332.05,167.14,336.81,182.72Z" transform="translate(0 -0.29)"/><path class="cls-14" d="M337,174.47q-.08,1.79-.12,3.57c2.07-9,5.57-14.88,9.54-14.88,3.74,0,7.07,5.26,9.17,13.39,1-6.17,2.27-12.89,3.38-18.73a150.9,150.9,0,0,1-22.18-1.35c.1,2.63.22,5.32.21,8.43Z" transform="translate(0 -0.29)"/><g class="cls-15"><path class="cls-11" d="M330.75,66.19l-.18-.81c2.46-2.31,3.31-4.85,3.74-8.16.17-1.34.47-4.16.06-4.66-.07-.08-3.46-1.13-4.86-1.53a2.7,2.7,0,0,0-.45-.09c0-2.9.09-5.8.15-8.7a2.53,2.53,0,0,0,.42.06,2.41,2.41,0,0,0,2.5-2.3c-.29-4,1.13-7.59,3.11-11a2.27,2.27,0,0,0,.3-1.39,3,3,0,0,0,.22-.53c.68-3.37-2.44-3.8-3.61-1-.32.76-1.59,1-1.9,1.78a7.65,7.65,0,0,0-.38.91c0,.07,0,.13-.06.2q-.49,1-.91,2c-.11-1.11-.26-2.21-.45-3.31a58.31,58.31,0,0,0-7.35-1.42,26.29,26.29,0,0,1-.76-5.65,15,15,0,0,1-.91,5.45,79.35,79.35,0,0,0-18.33,1.09c-.32.06-1.59-3-1.59-3s-.11,3.35-.48,3.44c-.8.18-1.58.38-2.33.59v0l.82,5.46c5.3-1.17,10.61-2.31,16-2.32,2.79,0,5.73.35,8,2,3.9,2.74,4.69,8.1,5.14,12.84.6,6.25.89,13.4-3.54,17.84-2.14,2.14-5.06,3.27-7.75,4.65l-.3.16a9.23,9.23,0,0,0,8.28,2.69,11.06,11.06,0,0,0,4.53-2.39A17.71,17.71,0,0,0,330.75,66.19Z" transform="translate(0 -0.29)"/><path class="cls-11" d="M300.85,27.32a.45.45,0,0,0,.31.11A77.36,77.36,0,0,1,313,26.26c2,0,4,0,5.95.09l.53,0s.06,0,.08,0l0-.08.05-.15.09-.25c.09-.24.16-.48.23-.72a15.05,15.05,0,0,0,.34-1.48,15.24,15.24,0,0,0,.24-3l-.5,0a25,25,0,0,0,.23,2.88c.08.48.17.95.26,1.41l.3,1.58,1,.14.86.13,1.71.3q1.7.32,3.39.75l.32.08s0,0,0,0l0,.14.12.86.32,2.36.05.39,0,.19V32s0,0,0-.07l.32-.71.58-1.31.36-.81a7.11,7.11,0,0,1,.31-.81,1.42,1.42,0,0,1,.38-.64,4.86,4.86,0,0,1,.67-.48,3.41,3.41,0,0,0,.74-.59,1.67,1.67,0,0,0,.27-.44l.18-.37a2.74,2.74,0,0,1,1.09-1.1,1.24,1.24,0,0,1,1.34.06,1.8,1.8,0,0,1,.52,1.35,4,4,0,0,1-.07.81.83.83,0,0,1-.1.34l-.12.24c0,.06,0,.13,0,.19v.11a2.53,2.53,0,0,1-.51,1.47c-.29.51-.56,1-.83,1.55a19.27,19.27,0,0,0-2.06,6.73,15.05,15.05,0,0,0-.06,1.78c0,.28,0,.63,0,.85a1.56,1.56,0,0,1-.21.69,2.32,2.32,0,0,1-1.16,1,2,2,0,0,1-.74.14,1.63,1.63,0,0,1-.3,0l-.38-.05h-.14v.67l-.12,7,0,.87v.62c-.06.19.14.16.27.2l.33.06c.54.14,1.11.32,1.66.48l1.66.51.83.26.41.14.26.09a1.44,1.44,0,0,1,.06.25,3.92,3.92,0,0,1,0,.42c0,.29,0,.59,0,.89,0,.6-.08,1.21-.14,1.81a24.26,24.26,0,0,1-.6,3.57A11.2,11.2,0,0,1,332.11,63,10.36,10.36,0,0,1,331,64.43l-.31.33-.39.39c0,.06-.16.09-.11.18l0,.22.06.27.1.45.22-.05.11,0,.12,0,.21,0-.14-.63.26-.26.32-.34a11,11,0,0,0,1.15-1.5,11.87,11.87,0,0,0,1.47-3.46,24.89,24.89,0,0,0,.61-3.67c.06-.61.12-1.23.14-1.85,0-.31,0-.63,0-.95a4.55,4.55,0,0,0,0-.49,1.34,1.34,0,0,0-.22-.61,1,1,0,0,0-.32-.17l-.21-.07-.42-.14-.83-.26-1.67-.51c-.56-.16-1.1-.34-1.69-.49l-.1,0h0V49.56l.11-6.94s0,0,.21,0a2.62,2.62,0,0,0,1-.19,2.92,2.92,0,0,0,1.46-1.23,2.16,2.16,0,0,0,.29-1c0-.37,0-.59,0-.89a14.45,14.45,0,0,1,.06-1.7,18.69,18.69,0,0,1,2-6.53c.26-.51.52-1,.81-1.52a6.4,6.4,0,0,0,.42-.81,2.56,2.56,0,0,0,.16-1c.32-.86.63-2.49-.44-3.47a1.8,1.8,0,0,0-1.95-.13,3.3,3.3,0,0,0-1.33,1.34l-.2.42a1,1,0,0,1-.18.3,2.93,2.93,0,0,1-.62.49,5.28,5.28,0,0,0-.74.54,2,2,0,0,0-.51.83,7.32,7.32,0,0,0-.31.82l-.35.78-.12.28,0,.08s0,0,0-.06l-.15-1.09-.12-.87,0-.29,0-.19c0-.07-.11,0-.16-.07l-.53-.13q-1.7-.43-3.42-.75l-1.72-.3-1.54-.22-.24-1.22c-.09-.47-.19-.93-.26-1.39a24.59,24.59,0,0,1-.23-2.82l-.51,0a14.77,14.77,0,0,1-.23,2.92,14.55,14.55,0,0,1-.33,1.43c-.07.23-.14.47-.22.7s0,.13-.28.12c-2-.11-4-.12-6-.07A78,78,0,0,0,301.17,27a.05.05,0,0,1-.06,0,4,4,0,0,1-.37-.61c-.13-.24-.24-.48-.36-.73-.23-.49-.45-1-.66-1.5l-.41-1,0,1.05c0,.59-.06,1.18-.11,1.77,0,.29-.06.58-.1.87s-.12.64-.18.6l-2.48.63c.43,2.38.54,3.51.93,6l2.86-.62,2.61-.53c1.74-.34,3.5-.63,5.26-.84a45.75,45.75,0,0,1,5.3-.35,18.5,18.5,0,0,1,5.21.6A8.73,8.73,0,0,1,322.9,35a12,12,0,0,1,2.38,4.6,30,30,0,0,1,1,5.19c.19,1.76.35,3.54.43,5.3.14,3.51,0,7.15-1.44,10.35a11.51,11.51,0,0,1-3.1,4.12,22.48,22.48,0,0,1-4.51,2.7l-1.2.58-1.32.66c-.18.1-.39.2-.56.31l.43.41c.34.33.46.42.65.58a10.84,10.84,0,0,0,1.12.8,8.88,8.88,0,0,0,10.37-.41A17.74,17.74,0,0,0,331,66.39l-.18-.13-.09-.07-.09-.07-.18-.14a17.07,17.07,0,0,1-3.74,3.64,8.23,8.23,0,0,1-9.65.41,7.24,7.24,0,0,1-1.44-1.11l2.26-1.12A23.06,23.06,0,0,0,322.54,65a12.13,12.13,0,0,0,3.26-4.35c1.5-3.36,1.61-7.07,1.47-10.62-.08-1.79-.25-3.57-.45-5.34a30.49,30.49,0,0,0-1-5.29,12.58,12.58,0,0,0-2.5-4.8,9.27,9.27,0,0,0-4.6-2.86,19,19,0,0,0-5.36-.6,46.27,46.27,0,0,0-5.36.37c-1.78.22-3.54.52-5.29.86l-2.62.54-2.36.52-.76-5s.05,0,.08,0l.26-.07.57-.14,1.18-.3a.72.72,0,0,0,.37-.5c0-.16.07-.31.09-.46,0-.3.08-.6.11-.9.05-.6.09-1.19.11-1.79l-.44.08c.22.51.44,1,.67,1.52.12.25.24.5.37.75A2.81,2.81,0,0,0,300.85,27.32Z" transform="translate(0 -0.29)"/></g><path class="cls-16" d="M349.11,261.94c-.11-.12-.2.12-.22.19a10.63,10.63,0,0,1-3.08,4.67c-.36-2-.73-4.25-1.94-5.91-2.23-3.08-6.34-4.37-10.12-4.74a15.3,15.3,0,0,1-1.38,1.46,17.15,17.15,0,0,1,9.8,3.22c1.78,1.4,2.75,3.7,3.33,6.24a15.46,15.46,0,0,1-2.3,1.59c-.4-2-1-4.67-2.36-6.06-1.76-1.84-5.25-2.6-7.53-3.14a25.72,25.72,0,0,0-2.55-.46c-.6.48-1.21.94-1.81,1.39a27.3,27.3,0,0,1,8.36,1.92,9,9,0,0,1,3.36,1.79,11.42,11.42,0,0,1,1.83,4.21c.06.22.11.43.16.65a28.89,28.89,0,0,1-3.22,1.44l-.08,0a15,15,0,0,0-2-4.26c-1.57-2.31-4.19-2.77-6.64-3.34a37.45,37.45,0,0,0-4.18-.71c-.71.49-1.44,1-2.18,1.37a38.38,38.38,0,0,1,9,1.61,8.59,8.59,0,0,1,5.41,5.55,41.44,41.44,0,0,1-10.14,2.25,11.12,11.12,0,0,1-3.95-.66c-2.35-.54-5-1.06-6.47-3.35-.08-.13-.41,1.13-.18,1.5,1.8,2.83,4.92,3.43,9.09,3.86a30.87,30.87,0,0,0,10.56-1,18.08,18.08,0,0,0,4.74-1.8,19.71,19.71,0,0,0,4.46-2.86,4.74,4.74,0,0,0,1.47-1.76C349.15,265.55,350.28,263.31,349.11,261.94Z" transform="translate(0 -0.29)"/><path class="cls-16" d="M339.33,244.56a6.7,6.7,0,0,0-1.79-1.28v0l-.27.41c-.15.24-.3.48-.45.72a6.51,6.51,0,0,1,2.45,1.57c0-.42.06-.83.11-1.25Z" transform="translate(0 -0.29)"/><path class="cls-16" d="M335.55,246.27l0,.08-.31.44h0a4,4,0,0,1-.24.36l-.21.26a11.17,11.17,0,0,1,4,2.42c.1-.21.2-.42.31-.63l.12-.36,0-.09A11.48,11.48,0,0,0,335.55,246.27Z" transform="translate(0 -0.29)"/><path class="cls-16" d="M332.5,250.25l-.06.08q-.22.29-.47.57c-.16.19-.32.38-.49.57a22.33,22.33,0,0,1,4.85,1.56,6.29,6.29,0,0,1,.85-1.06A22.47,22.47,0,0,0,332.5,250.25Z" transform="translate(0 -0.29)"/><path class="cls-16" d="M328.41,260.85a2.36,2.36,0,0,1,.22-.2,7.71,7.71,0,0,1,1-.82c0-.3-.12-.54-.24-.47a3.12,3.12,0,0,1-2.2.09,3.42,3.42,0,0,1-1.06-.36,1.71,1.71,0,0,1-.37-.3q-.21-.55-.24-.25c.1-.36-.11-1.62-.35-.74a2.28,2.28,0,0,0,.89,2.72,4.46,4.46,0,0,0,2.1.53Z" transform="translate(0 -0.29)"/><path class="cls-16" d="M355,242.8c-.15-.35-.41.92-.28,1.23.63,1.45-2.48,3.47-3.5,4a14.84,14.84,0,0,0-3.71,2.49c-.28.29-.07,1.52.06,1.39C350,249.43,357.06,247.6,355,242.8Z" transform="translate(0 -0.29)"/><polygon class="cls-17" points="395.6 167.92 210.51 189.32 210.03 189.38 210.01 189.38 91.24 148.94 255.51 136.08 395.6 167.92"/><polygon class="cls-18" points="209.46 189.44 90.64 148.98 91.24 148.94 210.01 189.38 209.46 189.44"/><path class="cls-7" d="M324.86,26.71q-1.85-.42-3.73-.72l0,.23v.11l0,.12,0,.22q1.87.18,3.73.49t3.64.94l.06-.21,0-.11,0-.11.06-.22Q326.73,27,324.86,26.71Z" transform="translate(0 -0.29)"/><path class="cls-7" d="M305,26.39c-1.27.15-2.63.34-3.8.55-.05,0,0,0-.12-.12s-.14-.23-.21-.36-.26-.51-.38-.77c-.24-.53-.48-1.06-.7-1.6l-.49-1.18-.06,1.28c0,.59-.06,1.18-.12,1.76,0,.29-.06.58-.11.87a1.63,1.63,0,0,1-.14.54l-3.34.86.07.22,0,.1,0,.11.07.21,3.38-.93a.83.83,0,0,0,.41-.56c0-.16.07-.32.09-.47,0-.31.08-.61.1-.91,0-.6.08-1.2.1-1.8l-.55.1c.23.54.47,1.08.73,1.61.13.27.26.53.41.8s.15.26.24.4a.72.72,0,0,0,.54.35c1.37-.26,2.57-.45,3.87-.62a80.11,80.11,0,0,1,14.37-.38v-.68A80.66,80.66,0,0,0,305,26.39Z" transform="translate(0 -0.29)"/><path class="cls-7" d="M312.27.86a22,22,0,0,1,9.15,1,17.91,17.91,0,0,1,7.8,4.74,16.89,16.89,0,0,1,3.47,8.41c.51,3.06.56,6.2,1.09,9.32l.23,0,.11,0,.12,0,.22,0c-.54-3-.61-6.19-1.15-9.3a17.46,17.46,0,0,0-3.66-8.68,18.42,18.42,0,0,0-8.07-4.86,22.52,22.52,0,0,0-9.35-1,19.9,19.9,0,0,0-15.31,10,22,22,0,0,0-1.62,18.37l.21-.08.11,0,.1,0,.22-.08a21.37,21.37,0,0,1,1.47-17.85A19.39,19.39,0,0,1,312.27.86Z" transform="translate(0 -0.29)"/><path class="cls-7" d="M329.47,56.65c-.64-9.64.92-19.38-.72-29.07l-.23,0-.11,0-.12,0-.22,0c1.7,9.53.22,19.29.94,29a54.44,54.44,0,0,0,1,7.23c.48,2.38,1.07,4.74,1.53,7.1a37.76,37.76,0,0,1,.83,7.15,19.17,19.17,0,0,1-1.16,7l.21.08.11,0,.1,0,.21.08A19.82,19.82,0,0,0,333,78.16a38.34,38.34,0,0,0-.9-7.26c-.49-2.38-1.09-4.73-1.59-7.1A53.93,53.93,0,0,1,329.47,56.65Z" transform="translate(0 -0.29)"/><path class="cls-19" d="M334.05,58.2a19.08,19.08,0,0,1-2,5.33l.2.11.1.05.1.06.19.1a19.65,19.65,0,0,0,1.85-5.56,18.71,18.71,0,0,0,.31-5.86l-.22,0h-.23l-.23,0A18.14,18.14,0,0,1,334.05,58.2Z" transform="translate(0 -0.29)"/><path class="cls-19" d="M318.16,70.71a10.23,10.23,0,0,1-5-5,15.12,15.12,0,0,1-1.35-7h-.68A15.74,15.74,0,0,0,312.7,66,10.74,10.74,0,0,0,318,71.12a9.16,9.16,0,0,0,3.66.86,8.32,8.32,0,0,0,3.68-.81A16.29,16.29,0,0,0,331,66.39l-.18-.13-.09-.07-.09-.07-.18-.14a15.69,15.69,0,0,1-5.41,4.68A8,8,0,0,1,318.16,70.71Z" transform="translate(0 -0.29)"/><path class="cls-20" d="M328.73,50.8" transform="translate(0 -0.29)"/><path class="cls-20" d="M334.08,52.24" transform="translate(0 -0.29)"/><path class="cls-20" d="M328.71,50.82" transform="translate(0 -0.29)"/><path class="cls-19" d="M295.33,76.15a12.61,12.61,0,0,1,.56-2.9,10.7,10.7,0,0,1,1.34-2.62C298.36,69,299.7,67.48,301,66a47.7,47.7,0,0,1,4.18-4.29A48.85,48.85,0,0,1,309.91,58l-.13-.19-.06-.09-.07-.1-.13-.18a49.5,49.5,0,0,0-4.75,3.77,48.29,48.29,0,0,0-4.19,4.38c-1.29,1.55-2.61,3.06-3.77,4.75a11.19,11.19,0,0,0-1.37,2.75,13.07,13.07,0,0,0-.55,3c-.16,2-.05,4-.21,6s-.36,4-.64,6c-.56,4-1.31,7.93-1.82,11.93l.22,0h.23l.23,0c.47-4,1.19-7.94,1.71-11.94.26-2,.48-4,.59-6S295.19,78.13,295.33,76.15Z" transform="translate(0 -0.29)"/><path class="cls-19" d="M300,100.6a41.76,41.76,0,0,0-7.45-.84v.68a41.18,41.18,0,0,1,7.38.6,26.56,26.56,0,0,1,7,2.33l.1-.2.05-.11,0-.1.1-.21A27.13,27.13,0,0,0,300,100.6Z" transform="translate(0 -0.29)"/><path class="cls-19" d="M358.69,64.56a46.48,46.48,0,0,0-5-4.78,22.28,22.28,0,0,0-6.12-3.22c-4.33-1.53-8.67-2.94-13-4.41l-.07.22,0,.1,0,.11-.07.21c4.34,1.44,8.72,2.82,13,4.3a21.76,21.76,0,0,1,6,3.09,46.12,46.12,0,0,1,5,4.68,13.29,13.29,0,0,1,3.13,5.9c.59,2.2,1.07,4.44,1.65,6.66.29,1.11.61,2.22,1,3.31s.83,2.14,1.24,3.21l2.52,6.4.2-.09.11,0,.1,0,.21-.09-2.56-6.36c-.42-1.06-.88-2.12-1.26-3.18s-.7-2.16-1-3.26c-.6-2.2-1.1-4.43-1.71-6.65A13.79,13.79,0,0,0,358.69,64.56Z" transform="translate(0 -0.29)"/><polygon class="cls-21" points="332.73 51.37 330.94 50.65 330.87 50.87 330.84 50.98 330.8 51.09 330.73 51.3 332.58 51.8 334.37 52.5 334.44 52.29 334.47 52.18 334.51 52.08 334.58 51.86 332.73 51.37"/><path class="cls-19" d="M359.51,92.55a64.21,64.21,0,0,1-8.88,1.22l0,.23v.23l0,.22A64.77,64.77,0,0,0,359.61,93a65,65,0,0,0,8.7-2.46l-.08-.21,0-.11,0-.1-.08-.22A64.44,64.44,0,0,1,359.51,92.55Z" transform="translate(0 -0.29)"/><path class="cls-20" d="M350.35,94.13" transform="translate(0 -0.29)"/><path class="cls-20" d="M345.54,94.3" transform="translate(0 -0.29)"/><path class="cls-19" d="M349.4,87.21q-.84-3.41-1.89-6.76l-.22.07-.1,0-.11,0-.21.07Q348,84,349,87.33t1.46,6.83l.22,0,.12,0,.11,0,.23,0Q350.35,90.59,349.4,87.21Z" transform="translate(0 -0.29)"/><path class="cls-19" d="M353.26,97.34q-.39-1.74-.87-3.47l-.22.07-.1,0L352,94l-.21.07q.58,1.67,1.08,3.38t.69,3.48l.22,0,.12,0,.11,0,.23,0Q353.76,99.05,353.26,97.34Z" transform="translate(0 -0.29)"/><path class="cls-20" d="M359.76,113.15" transform="translate(0 -0.29)"/><path class="cls-20" d="M359.91,113.3" transform="translate(0 -0.29)"/><path class="cls-22" d="M352.95,175.5" transform="translate(0 -0.29)"/><path class="cls-7" d="M320.55,20.7v-.08l-.45,0a14.7,14.7,0,0,1-1,5.36l.21.08.1,0,.11,0,.21.08a15.24,15.24,0,0,0,.82-5.63l-.46,0v.08a24.66,24.66,0,0,0,.18,2.87l.48,2.81.22,0,.12,0,.11,0,.23,0-.59-2.77A24.19,24.19,0,0,1,320.55,20.7Z" transform="translate(0 -0.29)"/><path class="cls-19" d="M308.11,99.33q-.65,1.87-1.42,3.69l.21.08.1,0,.11,0,.21.08q.67-1.88,1.22-3.8t1.18-3.81l-.21-.05-.12,0-.11,0-.22-.05Q308.65,97.43,308.11,99.33Z" transform="translate(0 -0.29)"/><path class="cls-23" d="M211.07,190l-.55.07h0v.25l-.48-.16-.07,0-.53-.18-.53-.18L90.27,149.4v11.45L183.8,192.7l.53.18.53.18L210,201.62h0l.48-.06.72-.08.48-.06V332.25a15.65,15.65,0,0,0,11.46,0V200.1l.48-.06,24-2.78.48-.05,8-.92.48-.06,118.54-13.71.48-.06,8.81-1,.48-.06,11.52-1.33V168.59Z" transform="translate(0 -0.29)"/><polygon class="cls-24" points="90.64 148.98 209.46 189.44 208.91 189.5 90.27 149.11 90.27 149.01 90.64 148.98"/><polygon class="cls-24" points="90.27 160.56 183.8 192.41 183.25 192.47 90.27 160.82 90.27 160.56"/><polygon class="cls-24" points="90.27 160.82 183.25 192.47 182.7 192.54 90.27 161.07 90.27 160.82"/><path class="cls-7" d="M205.16,171.28l.13.29a2.07,2.07,0,0,1-.2.25q-.05-.14-.11-.27A2,2,0,0,0,205.16,171.28Z" transform="translate(0 -0.29)"/><path class="cls-7" d="M194.13,151l-.3.11c0-.1,0-.21,0-.31l.29-.11C194.12,150.76,194.12,150.86,194.13,151Z" transform="translate(0 -0.29)"/><path class="cls-25" d="M109,164.45h0l-2.16,52.77-1.35,31.65a122.49,122.49,0,0,0,0,15.84,44.18,44.18,0,0,0,2.25,11l-1.45.36-.42.1c-1.28.3-2.57.58-3.87.81a72.83,72.83,0,0,1-11.21,1h-.31q-3,0-6-.19c1.51-9.71,2.54-19.5,3.11-29.31q.15-2.58.26-5.16c2.9-5.91,5.84-11.81,8.38-17.9a139.5,139.5,0,0,0,10.5-61Z" transform="translate(0 -0.29)"/><path class="cls-26" d="M106.76,164.52a139.22,139.22,0,0,1-10.39,60.87C93.9,231.3,91,237,88.21,242.77l-.25.52c-2.25,4.56-4.48,9.13-6.48,13.81a103.25,103.25,0,0,0-5.66,16.58A67,67,0,0,0,74.35,282c-1.11.2-2.22.37-3.34.5l-.33,0a62.58,62.58,0,0,1-15.87-.14l-.17,0-.31,0L53,282.11l-1.85-.33-1.84-.4L47.58,281l.6-2.83.68-3,.73-2.94.78-2.92Q52,263.48,54,257.77a170.24,170.24,0,0,1,9.72-22.18c1.52-2.9,3.14-5.75,4.57-8.7a41.47,41.47,0,0,0,3.34-9.24,56.94,56.94,0,0,0,1.12-9.77c.13-3.28.21-6.55.32-9.82l.76-25.22v-.33l-.3-.24a25.78,25.78,0,0,1-5.75-6.65,26.16,26.16,0,0,1-3.54-13.49,77.57,77.57,0,0,0,34.06,12c1.22.1,2.44.22,3.66.29s2.45.1,3.67.11Z" transform="translate(0 -0.29)"/><path class="cls-27" d="M256.14,196.77V248.2a10.37,10.37,0,0,1-8,0V197.69Z" transform="translate(0 -0.29)"/><path class="cls-28" d="M384.45,181.93V300a12.38,12.38,0,0,1-8.81,0v-117Z" transform="translate(0 -0.29)"/><polygon class="cls-24" points="396.93 180.2 396.45 180.26 396.45 180.01 396.93 179.96 396.93 180.2"/><polygon class="cls-24" points="396.45 180.01 396.45 179.77 396.93 179.72 396.93 179.96 396.45 180.01"/><polygon class="cls-24" points="396.45 179.77 396.45 168.3 396.93 168.24 396.93 179.72 396.45 179.77"/><polygon class="cls-24" points="396.45 168.11 396.45 168.06 396.93 168 396.93 168.22 396.45 168.11"/><polygon class="cls-24" points="396.45 167.82 396.93 167.76 396.93 167.97 396.45 167.87 396.45 167.82"/><polygon class="cls-24" points="396.45 168.3 396.45 168.11 396.93 168.22 396.93 168.24 396.45 168.3"/><polygon class="cls-24" points="396.45 167.82 396.45 167.62 396.93 167.73 396.93 167.76 396.45 167.82"/><polygon class="cls-24" points="396.45 168.06 396.45 167.87 396.93 167.97 396.93 168 396.45 168.06"/><polygon class="cls-24" points="396.45 180.01 396.45 180.26 384.93 181.59 384.93 181.35 396.45 180.01"/><polygon class="cls-24" points="396.3 168.08 396.45 168.06 396.45 168.11 396.3 168.08"/><polygon class="cls-24" points="396.45 167.82 396.45 167.87 396.31 167.83 396.45 167.82"/><polygon class="cls-24" points="210.54 189.56 396.3 168.08 396.45 168.11 396.45 168.3 211.07 189.74 210.54 189.56"/><polygon class="cls-24" points="257.12 135.95 396.45 167.62 396.45 167.82 396.31 167.83 256.32 136.01 257.12 135.95"/><polygon class="cls-18" points="396.3 168.08 210.54 189.56 210.51 189.54 210.51 189.32 395.6 167.92 396.3 168.08"/><polygon class="cls-24" points="396.31 167.83 396.45 167.87 396.45 168.06 396.3 168.08 395.6 167.92 396.31 167.83"/><polygon class="cls-24" points="384.93 181.1 396.45 179.77 396.45 180.01 384.93 181.35 384.93 181.1"/><polygon class="cls-24" points="384.93 181.35 384.45 181.4 384.45 181.16 384.93 181.1 384.93 181.35"/><polygon class="cls-24" points="384.45 181.4 384.93 181.35 384.93 181.59 384.45 181.64 384.45 181.4"/><polygon class="cls-24" points="384.45 181.64 375.64 182.66 375.64 182.42 384.45 181.4 384.45 181.64"/><polygon class="cls-24" points="375.64 182.18 384.45 181.16 384.45 181.4 375.64 182.42 375.64 182.18"/><polygon class="cls-24" points="375.64 182.42 375.64 182.66 375.16 182.71 375.16 182.47 375.64 182.42"/><polygon class="cls-24" points="375.64 182.18 375.64 182.42 375.16 182.47 375.16 182.24 375.64 182.18"/><path class="cls-24" d="M380,301.28a13.13,13.13,0,0,1-4.73-.9l-.15-.06V183l.48-.05V300a12.38,12.38,0,0,0,8.81,0V181.93l.48-.06V300.32l-.15.06A13.15,13.15,0,0,1,380,301.28Z" transform="translate(0 -0.29)"/><polygon class="cls-24" points="255.53 135.84 256.34 135.78 257.12 135.95 256.32 136.01 255.53 135.84"/><polygon class="cls-24" points="375.16 182.24 375.16 182.47 256.62 196.18 256.62 195.94 375.16 182.24"/><polygon class="cls-24" points="375.16 182.47 375.16 182.71 256.62 196.43 256.62 196.18 375.16 182.47"/><polygon class="cls-24" points="256.14 196.24 256.62 196.18 256.62 196.43 256.14 196.48 256.14 196.24"/><polygon class="cls-24" points="256.14 196 256.62 195.94 256.62 196.18 256.14 196.24 256.14 196"/><polygon class="cls-24" points="256.34 135.78 255.53 135.84 254.75 135.66 255.55 135.6 256.34 135.78"/><polygon class="cls-24" points="256.32 136.01 396.31 167.83 395.6 167.92 255.51 136.08 256.32 136.01"/><polygon class="cls-24" points="256.14 196.24 256.14 196.48 248.16 197.4 248.16 197.16 256.14 196.24"/><polygon class="cls-24" points="254.73 135.9 253.94 135.72 254.75 135.66 255.53 135.84 254.73 135.9"/><polygon class="cls-24" points="255.51 136.08 91.24 148.94 90.67 148.74 254.73 135.9 255.51 136.08"/><polygon class="cls-24" points="255.53 135.84 256.32 136.01 255.51 136.08 254.73 135.9 255.53 135.84"/><polygon class="cls-24" points="90.67 148.74 90.27 148.61 90.27 148.53 253.94 135.72 254.73 135.9 90.67 148.74"/><polygon class="cls-24" points="256.14 196 256.14 196.24 248.16 197.16 248.16 196.92 256.14 196"/><polygon class="cls-24" points="248.16 197.16 248.16 197.4 247.68 197.46 247.68 197.22 248.16 197.16"/><polygon class="cls-24" points="248.16 197.16 247.68 197.22 247.68 196.97 248.16 196.92 248.16 197.16"/><path class="cls-24" d="M256.14,248.2V196.77l.48-.05v51.81l-.15.06a10.91,10.91,0,0,1-8.65,0l-.14-.06V197.75l.48-.06V248.2A10.37,10.37,0,0,0,256.14,248.2Z" transform="translate(0 -0.29)"/><polygon class="cls-24" points="223.64 199.75 247.68 196.97 247.68 197.22 223.64 200 223.64 199.75"/><polygon class="cls-24" points="247.68 197.46 223.64 200.24 223.64 200 247.68 197.22 247.68 197.46"/><polygon class="cls-24" points="223.17 200.29 223.17 200.05 223.64 200 223.64 200.24 223.17 200.29"/><polygon class="cls-24" points="223.64 200 223.17 200.05 223.17 199.81 223.64 199.75 223.64 200"/><polygon class="cls-24" points="211.23 201.19 211.71 201.14 211.71 201.38 211.23 201.43 211.23 201.19"/><polygon class="cls-24" points="211.71 201.62 211.71 201.91 211.23 201.74 211.23 201.67 211.71 201.62"/><polygon class="cls-24" points="211.23 201.67 211.23 201.43 211.71 201.38 211.71 201.62 211.23 201.67"/><polygon class="cls-24" points="211.23 202 211.71 202.16 211.71 202.41 211.23 202.25 211.23 202"/><path class="cls-24" d="M211.23,332.57v-130l.48.16V332.25a15.64,15.64,0,0,0,11.46,0V200.58l.48-.06v132l-.15.06a16.17,16.17,0,0,1-12.11,0Z" transform="translate(0 -0.29)"/><polygon class="cls-24" points="211.23 201.74 211.71 201.91 211.71 202.16 211.23 202 211.23 201.74"/><polygon class="cls-24" points="211.23 201.67 211.07 201.69 210.54 201.51 211.23 201.43 211.23 201.67"/><polygon class="cls-24" points="211.07 189.74 210.52 189.8 210.51 189.8 210.51 189.56 210.54 189.56 211.07 189.74"/><polygon class="cls-24" points="210.52 189.8 210.51 189.8 210.51 189.8 210.52 189.8"/><polygon class="cls-24" points="210.52 201.76 210.51 201.75 210.51 201.51 210.54 201.51 211.07 201.69 210.52 201.76"/><polygon class="cls-24" points="210.52 201.76 210.51 201.76 210.51 201.75 210.52 201.76"/><polygon class="cls-24" points="210.51 189.56 210.51 189.54 210.54 189.56 210.51 189.56"/><polygon class="cls-24" points="211.23 201.43 210.54 201.51 210.51 201.5 210.51 201.27 211.23 201.19 211.23 201.43"/><polygon class="cls-24" points="210.51 201.5 210.54 201.51 210.51 201.51 210.51 201.5"/><polygon class="cls-24" points="210.51 189.8 210.51 190.05 210.03 189.89 210.03 189.85 210.51 189.8"/><polygon class="cls-24" points="210.51 201.51 210.51 201.75 210.03 201.59 210.03 201.57 210.51 201.51"/><polygon class="cls-24" points="210.51 189.32 210.51 189.54 210.03 189.38 210.03 189.38 210.51 189.32"/><polygon class="cls-24" points="210.51 189.56 210.51 189.8 210.03 189.63 210.03 189.62 210.51 189.56"/><polygon class="cls-24" points="210.51 201.27 210.51 201.5 210.03 201.34 210.03 201.33 210.51 201.27"/><polygon class="cls-24" points="210.51 189.54 210.51 189.56 210.03 189.62 210.03 189.38 210.51 189.54"/><polygon class="cls-24" points="210.51 201.5 210.51 201.51 210.03 201.57 210.03 201.34 210.51 201.5"/><polygon class="cls-24" points="210.51 201.75 210.51 201.76 210.03 201.81 210.03 201.59 210.51 201.75"/><polygon class="cls-24" points="210.51 189.8 210.51 189.8 210.03 189.85 210.03 189.63 210.51 189.8"/><polygon class="cls-24" points="209.97 189.86 210.03 189.85 210.03 189.89 209.97 189.86"/><polygon class="cls-24" points="209.99 189.62 210.03 189.62 210.03 189.63 209.99 189.62"/><polygon class="cls-24" points="210.03 189.38 210.01 189.38 210.03 189.38 210.03 189.38"/><polygon class="cls-24" points="210.03 201.34 210.02 201.33 210.03 201.33 210.03 201.34"/><polygon class="cls-24" points="210.03 201.57 210.03 201.59 209.99 201.58 210.03 201.57"/><polygon class="cls-24" points="210.03 201.81 210.03 201.84 209.97 201.82 210.03 201.81"/><polygon class="cls-18" points="209.46 189.44 210.01 189.38 210.03 189.38 210.03 189.62 209.99 189.62 209.46 189.44"/><polygon class="cls-24" points="209.99 201.58 209.46 201.39 210.02 201.33 210.02 201.33 210.03 201.34 210.03 201.57 209.99 201.58"/><polygon class="cls-24" points="209.99 189.62 210.03 189.63 210.03 189.85 209.97 189.86 209.44 189.68 209.99 189.62"/><polygon class="cls-24" points="210.03 201.59 210.03 201.81 209.97 201.82 209.44 201.64 209.99 201.58 210.03 201.59"/><polygon class="cls-18" points="209.99 189.62 209.44 189.68 208.91 189.5 209.46 189.44 209.99 189.62"/><polygon class="cls-24" points="208.91 201.46 209.46 201.39 209.99 201.58 209.44 201.64 208.91 201.46"/><polygon class="cls-24" points="208.91 201.46 183.75 192.9 184.3 192.83 209.46 201.39 208.91 201.46"/><polygon class="cls-24" points="209.46 201.39 184.3 192.83 184.86 192.77 210.02 201.33 209.46 201.39"/><polygon class="cls-24" points="184.3 192.83 183.75 192.9 183.22 192.71 183.78 192.65 184.3 192.83"/><polygon class="cls-24" points="183.78 192.65 184.33 192.59 184.86 192.77 184.3 192.83 183.78 192.65"/><polygon class="cls-24" points="183.25 192.47 183.8 192.41 184.33 192.59 183.78 192.65 183.25 192.47"/><polygon class="cls-24" points="183.22 192.71 182.7 192.54 183.25 192.47 183.78 192.65 183.22 192.71"/><polygon class="cls-24" points="90.67 148.74 91.24 148.94 90.64 148.98 90.27 148.86 90.27 148.77 90.67 148.74"/><polygon class="cls-24" points="90.27 148.61 90.67 148.74 90.27 148.77 90.27 148.61"/><polygon class="cls-24" points="90.27 149.01 90.27 148.86 90.64 148.98 90.27 149.01"/><polygon class="cls-24" points="90.27 148.77 90.27 148.86 90.06 148.79 90.27 148.77"/><polygon class="cls-24" points="90.27 148.53 90.27 148.61 90.1 148.55 90.27 148.53"/><polygon class="cls-24" points="90.27 149.01 90.27 149.11 90.03 149.03 90.27 149.01"/><polygon class="cls-24" points="90.27 149.11 90.27 160.56 90.03 160.48 90.03 149.03 90.27 149.11"/><polygon class="cls-24" points="90.03 160.48 90.27 160.56 90.27 160.82 90.03 160.74 90.03 160.48"/><polygon class="cls-24" points="90.03 160.99 90.03 160.74 90.27 160.82 90.27 161.07 90.03 160.99"/><polygon class="cls-24" points="90.27 148.86 90.27 149.01 90.03 149.03 90.03 148.79 90.06 148.79 90.27 148.86"/><polygon class="cls-24" points="90.03 148.78 90.03 148.55 90.1 148.55 90.27 148.61 90.27 148.77 90.06 148.79 90.03 148.78"/><polygon class="cls-24" points="90.03 148.78 90.06 148.79 90.03 148.79 90.03 148.78"/><polygon class="cls-24" points="90.03 148.55 90.03 148.78 89.8 148.7 89.8 148.57 90.03 148.55"/><polygon class="cls-24" points="90.03 148.79 90.03 149.03 89.8 148.95 89.8 148.81 90.03 148.79"/><polygon class="cls-24" points="90.03 149.03 90.03 160.48 89.8 160.4 89.8 149.05 90.03 149.03"/><polygon class="cls-24" points="89.8 148.95 90.03 149.03 89.8 149.05 89.8 148.95"/><polygon class="cls-24" points="89.8 160.91 89.8 160.65 90.03 160.74 90.03 160.99 89.8 160.91"/><polygon class="cls-24" points="90.03 160.48 90.03 160.74 89.8 160.65 89.8 160.4 90.03 160.48"/><polygon class="cls-24" points="89.8 148.7 90.03 148.78 90.03 148.79 89.8 148.81 89.8 148.7"/><ellipse class="cls-29" cx="294.16" cy="163.71" rx="17.45" ry="2.51"/><ellipse class="cls-29" cx="308.1" cy="166.52" rx="11.72" ry="2.63"/><path class="cls-30" d="M308.09,153.71a4.37,4.37,0,0,1,.91,1.83l2.21,6.12a12.31,12.31,0,0,1-4.46,3.3,18.25,18.25,0,0,1-7.76,1c-4.1-.13-8.19-.45-12.28-.78-2.24-.18-4.6-.4-6.49-2l1.69-5a1.56,1.56,0,0,1,1.56,1.09.87.87,0,0,1,1.39-.67,2.09,2.09,0,0,1,.35,2.09c1,.56,2.15-1.07,3.1-.42a2.67,2.67,0,0,1,.68.92,8.23,8.23,0,0,0,4.53,3.89.66.66,0,0,0,.68-.06,1.76,1.76,0,0,0,.27-.45c.53-1,1.64-.87,2.54-.66a13.2,13.2,0,0,0-3-7c1-.34,2,.17,3,.42a2.26,2.26,0,0,0,2.79-1c.47-1,.24-2.58,1-3.22.55-.46,1.28-.11,1.93-.19s3.17.93,3.6.29C306.4,153.4,307.58,153.27,308.09,153.71Z" transform="translate(0 -0.29)"/><path class="cls-31" d="M311.38,162.12l-.16-.46.16-.18Z" transform="translate(0 -0.29)"/><path class="cls-32" d="M291.6,152.75a12.77,12.77,0,0,1-1.21,2.68,3,3,0,0,1-2.93,1.08c-.85-.14-4.61,1.82-5.41,1.41-.13-.23,3.12-5.39,3.91-6.59l2.58-3.93a3.14,3.14,0,0,1,.89-1,2.18,2.18,0,0,1,1.08-.23l6.08-.21a19.16,19.16,0,0,1,2-.22c-.66.45.1,1.83.19,2.62C299.22,152.12,292.71,150.16,291.6,152.75Z" transform="translate(0 -0.29)"/><path class="cls-33" d="M306.41,153.18c-.44.64-5-.56-5.54-.1l-1,4.31a6.47,6.47,0,0,1-2.87.47s-2.74-.83-3-.94a13.2,13.2,0,0,1,3,7c-.9-.21-2-.32-2.54.66a1.76,1.76,0,0,1-.27.45.66.66,0,0,1-.68.06,8.23,8.23,0,0,1-4.53-3.89,2.67,2.67,0,0,0-.68-.92c-1-.64-2.12,1-3.1.42a2.09,2.09,0,0,0-.35-2.09.87.87,0,0,0-1.39.67,1.56,1.56,0,0,0-1.56-1.09l.16-.49c.11-.34.26-.71.52-.82a1.1,1.1,0,0,1,.57,0,1.77,1.77,0,0,0,1.74-1.36l-.1-.18a8.64,8.64,0,0,0,2.46.95,3,3,0,0,0,2.93-1.08,12.77,12.77,0,0,0,1.21-2.68s6.56-6.35,7.22-6.79l3.16.89A18.6,18.6,0,0,0,306.41,153.18Z" transform="translate(0 -0.29)"/><path class="cls-30" d="M313.75,158.53a4.29,4.29,0,0,1,.54,1.52c.44,1.69,1.26,4.47,1.7,6.16-.09.6-4.42,2.1-5.41,2.64-.17.09-.71-.12-2.27-.19-2.45-.1-6.24-.07-8.67-.45a8.85,8.85,0,0,1-2.54-1.85l1-4.14c.38,0,.78.28.93.9,0-.63.54-.92.83-.56a2.28,2.28,0,0,1,.21,1.73c.59.46,1.28-.88,1.85-.35.17.16,1.78-1.88,1.9-1.59.66,1.6.21,1.84,1.28,2.3.14.06,1.48,2.14,2,2.31a13.37,13.37,0,0,0-1.78-5.77c.6-.28,1.21.14,1.82.35a1.21,1.21,0,0,0,1.67-.86c.28-.85.15-2.14.61-2.67s-.93-2.09-.54-2.15,3.59,2.77,3.85,2.24c-1.77-1.27-2.8-5.63-2.82-5.45C310.49,153.34,313.45,158.16,313.75,158.53Z" transform="translate(0 -0.29)"/><path class="cls-32" d="M303.9,157.73a12.89,12.89,0,0,1-.72,2.22,1.55,1.55,0,0,1-1.75.89c-.51-.12-2.75,1.51-3.23,1.17-.08-.19,1.86-4.47,2.34-5.46s7.13-4.68,7.57-4.64c-.39.37.06,1.52.11,2.17C308.45,157.21,304.56,155.58,303.9,157.73Z" transform="translate(0 -0.29)"/><path class="cls-33" d="M312.75,158.09c-.26.53-3.85-2.24-3.85-2.24l0,5.72s-3.35-.3-3.51-.39a13.37,13.37,0,0,1,1.78,5.77c-.54-.18-4.13-.66-4.79-2.26a2.3,2.3,0,0,0-.41-.76c-.57-.53-1.27.81-1.85.35a2.28,2.28,0,0,0-.21-1.73c-.29-.36-.78-.08-.83.56-.15-.62-.55-.92-.93-.9l.1-.4c.07-.28.15-.59.31-.68s.23,0,.34,0c.43.07.87-.4,1-1.12l-.06-.15a4.42,4.42,0,0,0,1.47.78,1.55,1.55,0,0,0,1.75-.89,12.89,12.89,0,0,0,.72-2.22s3.92-5.26,4.31-5.63l1.89.74A16.85,16.85,0,0,0,312.75,158.09Z" transform="translate(0 -0.29)"/><rect class="cls-34" x="203.09" y="81.7" width="2.43" height="133.42" transform="matrix(0.01, -1, 1, 0.01, 54.01, 351.05)"/><path class="cls-35" d="M138.1,147.07l132.42,1.25v1.43L138.09,148.5v-1.43m-1-1,0,3.43,134.42,1.27,0-3.43-134.42-1.27Z" transform="translate(0 -0.29)"/><path class="cls-36" d="M181.37,147.32c-1.19.08-2.47,0-3.69,0-2.71,0-5.41-.12-8.12-.12-1.47,0-2.91.11-4.35.18l-4.34.19c-1.41.06-2.74.13-4.16.11s-2.68,0-4,.05-2.66,0-4,.09-2.45.16-3.73.18-2.57,0-3.9,0-2.38,0-3.58-.06h-.13q0,.28,0,.56l.69.06c.79.05,1.62.14,2.37.25a40.43,40.43,0,0,0,4.6.32c1.71.05,3.26,0,5-.07,3.4-.09,6.84.14,10.22,0,1.74-.06,3.49-.09,5.24-.14s3.6-.14,5.45-.1c3.34.07,6.65.2,10,.19,1.65,0,3.25-.19,4.89-.24a28.67,28.67,0,0,1,4.18,0c1.47.2,3.08.21,4.6.33,1.77.14,3.48.2,5.27.26,1.57.05,3.12.18,4.71.22l5.18.11c5.45.12,10.9.32,16.36.36a30.11,30.11,0,0,1,3.2.12c1.45.14,3.13.14,4.62.2,2.79.11,5.6.26,8.4.28s5.57-.14,8.56-.26c1.36-.06,2.71-.14,4.06-.22.9-.05,2.35-.07,3.52-.09,2.56-.06,4.66,0,7,.12,1.5.09,2.94.12,4.46.11.5,0,1,0,1.42-.08a8.13,8.13,0,0,1,.13-1.6c0-.07,0-.15,0-.22-.72-.09-1.5-.14-2.38-.18-1.58-.07-3.2-.21-4.79-.32s-3.44-.09-5.09-.08-3.49,0-5.22,0-3.09.11-4.94.14l-2.55,0h-1.3l-1.7,0c-1.69.05-3.42,0-5.1-.09s-3.58-.13-5.36-.21l-2.43-.1c.63,0-.69-.06-.64-.06-.59,0-1.19-.07-1.78-.1-1.83-.08-3.77,0-5.61,0-3.51,0-7,0-10.51,0-3.28,0-6.63.14-9.91,0-1.54-.05-3.05-.07-4.6-.06-.76,0-1.61-.07-2.37-.11s-1.61-.05-2.4-.1c-1.19-.07-2.29-.24-3.5-.27s-2.69.07-3.88.12C184,147.15,182.71,147.23,181.37,147.32Z" transform="translate(0 -0.29)"/><path class="cls-37" d="M156.7,146.89c-3.22,0-6.35-.06-9.56-.11s-6.15.1-9.2.16l-2.61,0a12.13,12.13,0,0,1-.07,1.69h.39c4.77.15,9.52.13,14.28.37s9.47.21,14.15.21,9.57-.24,14.35-.27c2.32,0,4.63-.12,7-.17,2.55,0,5.12,0,7.67,0,9.73,0,19.26.94,29,.94,3.45,0,7-.06,10.34-.31,3.08-.23,6-.6,9.12-.78s6.14-.06,9.2,0c3.26,0,6.57.17,9.75.43,3,.25,6,.4,9,.63l1.46.13,0-2-42.19-.4-.79,0c-4.7.19-9.63.18-14.33-.05l-3.86-.17-39-.37q-2.55,0-5.11.05C162.68,146.91,159.69,146.87,156.7,146.89Z" transform="translate(0 -0.29)"/><path class="cls-37" d="M242.58,147.71c-2.23.16-4.42.32-6.59.55s-4.42.48-6.74.57c-4.65.19-9.53.18-14.17-.05-2.38-.12-4.77-.2-7.16-.3s-5-.28-7.58-.37c-4.73-.18-9.65-.2-14.38-.12-6.11.1-12.2.29-18.32.31-3,0-5.91,0-8.87,0-3.18,0-6.28-.06-9.45-.11s-6.09.1-9.1.16l-2.84,0c0,.35,0,.7,0,1l101.17,1c1.34-.13,2.69-.25,4.08-.33,3-.18,6.07-.06,9.1,0,3.22,0,6.5.17,9.64.43l2.34.18,8.08.08,0-2.26-1.65-.09c-4.39-.19-8.79-.4-13.16-.62-2.38-.12-4.7-.11-7.1-.11S244.93,147.54,242.58,147.71Z" transform="translate(0 -0.29)"/><rect class="cls-38" x="230.94" y="73.83" width="2.43" height="133.42" transform="matrix(0.01, -1, 1, 0.01, 89.47, 371.1)"/><path class="cls-35" d="M166,139.21l132.42,1.25v1.43l-132.42-1.25v-1.43m-1-1,0,3.43,134.42,1.27,0-3.43L165,138.2Z" transform="translate(0 -0.29)"/><path class="cls-36" d="M209.22,139.45c-1.19.08-2.47,0-3.69,0-2.71,0-5.41-.12-8.12-.12-1.47,0-2.91.11-4.35.18l-4.34.19c-1.41.06-2.74.13-4.16.11s-2.68,0-4,.05-2.66,0-4,.09-2.45.16-3.73.18-2.57,0-3.9,0-2.38,0-3.58-.06h-.13q0,.28,0,.56l.69.06c.79.05,1.62.14,2.37.25a40.43,40.43,0,0,0,4.6.32c1.71.05,3.26,0,5-.07,3.4-.09,6.84.14,10.22,0,1.74-.06,3.49-.09,5.24-.14s3.6-.14,5.45-.1c3.34.07,6.65.2,10,.19,1.65,0,3.25-.19,4.89-.24a28.67,28.67,0,0,1,4.18,0c1.47.2,3.08.21,4.6.33,1.77.14,3.48.2,5.27.26,1.57.05,3.12.18,4.71.22l5.18.11c5.45.12,10.9.32,16.36.36a30.11,30.11,0,0,1,3.2.12c1.45.14,3.13.14,4.62.2,2.79.11,5.6.26,8.4.28s5.57-.14,8.56-.26c1.36-.06,2.71-.14,4.06-.22.9-.05,2.35-.07,3.52-.09,2.56-.06,4.66,0,7,.12,1.5.09,2.94.12,4.46.11.5,0,1,0,1.42-.08a8.13,8.13,0,0,1,.13-1.6c0-.07,0-.15,0-.22-.72-.09-1.5-.14-2.38-.18-1.58-.07-3.2-.21-4.79-.32S288.67,140,287,140s-3.49,0-5.22,0-3.09.11-4.94.14l-2.55,0H273l-1.7,0c-1.69.05-3.42,0-5.1-.09s-3.58-.13-5.36-.21l-2.43-.1c.63,0-.69-.06-.64-.06-.59,0-1.19-.07-1.78-.1-1.83-.08-3.77,0-5.61,0-3.51,0-7,0-10.51,0-3.28,0-6.63.14-9.91,0-1.54-.05-3.05-.07-4.6-.06-.76,0-1.61-.07-2.37-.11s-1.61-.05-2.4-.1c-1.19-.07-2.29-.24-3.5-.27s-2.69.07-3.88.12C211.89,139.28,210.56,139.36,209.22,139.45Z" transform="translate(0 -0.29)"/><path class="cls-37" d="M184.55,139c-3.22,0-6.35-.06-9.56-.11s-6.15.1-9.2.16l-2.61,0a12.13,12.13,0,0,1-.07,1.69h.39c4.77.15,9.52.13,14.28.37s9.47.21,14.15.21,9.57-.24,14.35-.27c2.32,0,4.63-.12,7-.17,2.55,0,5.12,0,7.67,0,9.73,0,19.26.94,29,.94,3.45,0,7-.06,10.34-.31,3.08-.23,6-.6,9.12-.78s6.14-.06,9.2,0c3.26,0,6.57.17,9.75.43,3,.25,6,.4,9,.63l1.46.13,0-2-42.19-.4-.79,0c-4.7.19-9.63.18-14.33-.05l-3.86-.17-39-.37q-2.55,0-5.11.05C190.53,139,187.54,139,184.55,139Z" transform="translate(0 -0.29)"/><path class="cls-37" d="M270.43,139.85c-2.23.16-4.42.32-6.59.55s-4.42.48-6.74.57c-4.65.19-9.53.18-14.17-.05-2.38-.12-4.77-.2-7.16-.29s-5-.28-7.58-.37c-4.73-.18-9.65-.2-14.38-.12-6.11.1-12.2.29-18.32.31-3,0-5.91,0-8.87,0-3.18,0-6.28-.06-9.45-.11s-6.09.1-9.1.16l-2.84,0c0,.35,0,.7,0,1l101.17,1c1.34-.13,2.69-.25,4.08-.33,3-.18,6.07-.06,9.1,0,3.22,0,6.5.17,9.64.43l2.34.18,8.08.08,0-2.25-1.65-.09c-4.39-.19-8.79-.4-13.16-.62-2.38-.12-4.7-.11-7.1-.11S272.78,139.68,270.43,139.85Z" transform="translate(0 -0.29)"/><path class="cls-29" d="M267.6,175.74l2.28-2.4c-1.14-.58-2.53-1.24-4.21-2a26.17,26.17,0,0,0-9.33-2l-3.71,2.86s1.44-1.47,2.79-3c-2.54,0-6.26.29-8.36.39l-1.8,2.21,1-2.23c-5.24.07-13.82,1-13.82,1a29.71,29.71,0,0,0,7.32,3.42c-.15-.89-.26-1.38-.26-1.38l1.22,1.37,3.38,1c4.55,1.38,7.26,2.33,10.28,3-.79-1.08-1.69-2.33-1.56-2.19l2.69,2.43c1.36.26,2.82.48,4.57.65,6.3.63,14.66-2.52,14.66-2.52a16,16,0,0,0-2.79-1.86C270.55,174.88,267.6,175.74,267.6,175.74Z" transform="translate(0 -0.29)"/><path class="cls-29" d="M268.2,175a13.85,13.85,0,0,1,2.44-1.4c-1.33-.72-2.69-1.21-5-2.22-.67-.3-1.35-.54-2-.76-1.13,1.42-3.38,3.31-7.82,3.52,5.1,3,6.33,3.84,6.67,4.82a44.58,44.58,0,0,0,12.31-2.59,18.07,18.07,0,0,0-3.36-2.18C270.58,174.34,268.1,175.06,268.2,175Z" transform="translate(0 -0.29)"/><polygon class="cls-29" points="229.5 169.53 269.92 175.97 232.19 170.41 229.5 169.53"/><path class="cls-39" d="M259.94,176.9l-1.16,0c-2-.1-3.69-.24-5.37-.45h-.09l-.46-.32.29.31-1.08-.16c-2.55-.38-5-.92-8-1.6l-4.1-.9-4-.88-.09,0-.63-.54.19.75-.6-.14a38.36,38.36,0,0,1-8.76-3.06l-1-.56,1.18-.14c.1,0,10-1.21,16.05-1.49l.64,0-.13.25.2-.22h.15l2.7-.22c2.33-.19,5-.41,7-.49l.93,0-.49.5.52-.37h.12A36.19,36.19,0,0,1,265,168.67c1.83.6,3.51,1.19,5,1.76l.56.21-1.88,1.79,3.62-1,.13,0,.12.05a19.68,19.68,0,0,1,3.41,1.73l.57.42-.67.24C275.76,173.88,267.09,176.9,259.94,176.9Z" transform="translate(0 -0.29)"/><path class="cls-40" d="M252.86,167.31c-1.49,1.53-3.1,3-3.1,3l4.17-2.91A36,36,0,0,1,264.88,169c2,.65,3.62,1.23,5,1.75l-2.54,2.41s3.39-.94,5.06-1.39a19.51,19.51,0,0,1,3.33,1.69s-8.61,3-15.78,3l-1.14,0c-2-.1-3.76-.25-5.35-.45l-3.24-2.24h0s1,1.11,1.93,2.07c-3.54-.53-6.73-1.34-12.09-2.5l-4-.88-1.49-1.28s.14.47.36,1.33a38.38,38.38,0,0,1-8.67-3s9.94-1.21,16-1.48l-1.11,2.2,2-2.21c2.43-.17,6.74-.6,9.7-.7m1.84-.82-1.87.07c-2.06.07-4.7.29-7,.49l-2.27.18h0l-1.28.06c-6,.27-16,1.48-16.08,1.49l-2.36.29,2.09,1.12a38.81,38.81,0,0,0,8.85,3.1l1.2.28-.08-.33h0l4,.88,4.1.9c3.06.68,5.47,1.22,8,1.6l2.17.33,0,0c1.44.16,2.94.28,4.63.36l1.18,0c7.21,0,15.67-3,16-3.08l1.34-.47-1.14-.84a19.79,19.79,0,0,0-3.48-1.77l-.24-.1-.25.07-2.18.59.37-.35.86-.82-1.11-.42c-1.5-.57-3.19-1.17-5-1.76a36,36,0,0,0-10.58-1.64l.17-.18Z" transform="translate(0 -0.29)"/><path class="cls-41" d="M261.2,176.64c-.37-.8-1.91-1.57-7.79-4.22l-1.35-.61,1.48-.11c3.91-.29,6.83-1.5,8.68-3.59l.15-.17.22.05c.93.22,1.7.43,2.42.67l2.36.75c1.39.44,2.49.78,3.55,1.21l1,.39-.79.25.67-.15.11,0a22.28,22.28,0,0,1,4.09,2l.57.42-.67.24a61.17,61.17,0,0,1-14.29,3h-.25Z" transform="translate(0 -0.29)"/><path class="cls-40" d="M262.49,168.37c.8.19,1.59.4,2.39.66,2.71.89,4.31,1.32,5.89,2a16.83,16.83,0,0,0-2.78,1.45s0,0,0,0,2.78-.73,3.72-.92a22.09,22.09,0,0,1,4,2,60.28,60.28,0,0,1-14.19,3c-.43-.93-1.91-1.67-8-4.4,5.16-.38,7.68-2.3,8.93-3.71m-.26-.83-.3.34c-1.78,2-4.61,3.18-8.42,3.46l-3,.22,2.7,1.21c5.25,2.36,7.27,3.32,7.6,4l.21.46.51,0a60.31,60.31,0,0,0,14.4-3l1.34-.47-1.14-.84a19.77,19.77,0,0,0-3.42-1.75l.23-.07-1.92-.78c-1.08-.44-2.19-.79-3.58-1.22l-2.36-.75c-.73-.24-1.51-.45-2.45-.68l-.44-.1Z" transform="translate(0 -0.29)"/><polygon class="cls-42" points="222.77 168.66 270.05 173.32 225.93 169.4 222.77 168.66"/><path class="cls-29" d="M264.53,171.93l1.78-2.2c-1.12-.14-2.5-.28-4.21-.41a36.83,36.83,0,0,0-10,.79l-3.47,3.17s1.27-1.51,2.42-3c-2.86.68-7.13,1.93-9.65,2.61l-1.57,2.28.63-2.07c-6.7,1.66-18.42,5.31-18.42,5.31a68.69,68.69,0,0,0,11.54.21c-.51-.64-.82-1-.82-1l2.07.66,4.58-.31c5.77-.41,9-.54,12.43-1-1.07-.53-2.32-1.17-2.14-1.11l3.38.94c1.45-.21,3-.47,4.74-.83,6.06-1.25,13.05-5.35,13.05-5.35a13.22,13.22,0,0,0-2.6-.61C267.11,170.64,264.53,171.93,264.53,171.93Z" transform="translate(0 -0.29)"/><path class="cls-29" d="M265,171.27a15.9,15.9,0,0,1,2.05-1.54c-1.29-.19-2.62-.22-4.93-.4-.7-.05-1.4-.07-2.1-.07-.9,1.31-2.83,3.24-7.41,4.59,5.78.76,7.12,1,7.59,1.56A57.37,57.37,0,0,0,271,170.64a15.15,15.15,0,0,0-3.14-.7C267.08,170.26,264.91,171.34,265,171.27Z" transform="translate(0 -0.29)"/><polygon class="cls-29" points="217.24 178.58 266.71 171.44 221.76 178.34 217.24 178.58"/><path class="cls-43" d="M223.87,178.63c-2.6,0-4.24-.14-4.26-.14l-1.72-.15,1.63-.58c.12,0,11.66-4.11,18.23-6l.64-.18-.1.38.25-.4.13,0,2.75-.88c2.27-.73,4.85-1.56,6.8-2.1l1-.28-.17.25.12-.12.1,0a38.74,38.74,0,0,1,9-1.2l1,0c1.56.06,3,.15,4.24.26l.67.06-1.06,1.41,2.23-1.21.11-.06.12,0a13.41,13.41,0,0,1,2.71.53l.69.27-.62.4c-.07,0-7,4.41-13,5.88-1.71.42-3.21.74-4.73,1h0l-1.23.2c-2.41.39-4.74.63-8,1l-4.44.47-4.56.48h-.07l-.94-.26.48.56-.72.07C228.8,178.51,226.33,178.63,223.87,178.63Z" transform="translate(0 -0.29)"/><path class="cls-40" d="M258.25,167.55l1,0c1.71.07,3.09.16,4.22.26l-1.7,2.26s2.52-1.39,3.75-2a13.22,13.22,0,0,1,2.62.51s-6.84,4.36-12.84,5.84c-1.76.43-3.27.75-4.71,1l-3.41-.82h0c-.07,0,1.15.56,2.2,1-3.38.54-6.64.8-12.39,1.42l-4.56.48-2.09-.59s.32.34.85,1c-2.83.28-5.36.36-7.32.36-2.61,0-4.22-.14-4.22-.14s11.57-4.08,18.21-6l-.56,2.1,1.48-2.34c2.49-.77,6.71-2.19,9.54-3C247.23,170.48,246,172,246,172l3.34-3.3a38.58,38.58,0,0,1,8.89-1.19m0-.75h0a37.85,37.85,0,0,0-8.26,1l.14-.19-2,.56c-2,.54-4.54,1.37-6.82,2.11l-2.39.76v0l-1.27.37c-6.58,1.89-18.13,6-18.25,6l-3.27,1.15,3.45.3c.07,0,1.68.14,4.29.14s5-.12,7.4-.36l1.43-.14-.2-.24h0l4.57-.48,4.43-.46c3.24-.33,5.58-.57,8-1L252,176l-.07,0c1.15-.23,2.32-.49,3.61-.81,6.06-1.49,12.79-5.75,13.07-5.93l1.24-.79-1.37-.54a13.6,13.6,0,0,0-2.8-.56l-.24,0-.21.11-.71.38.43-.57-1.35-.12c-1.26-.11-2.69-.2-4.25-.26l-1.06,0Z" transform="translate(0 -0.29)"/><path class="cls-44" d="M257.31,174c-.42-.46-2.25-.67-7.4-1.16l-1.77-.17,1.68-.56c3.42-1.15,5.78-2.73,7-4.71l.11-.17h.2l1.25,0,.88,0,2,.07c1.2,0,2.07.06,2.94.15l1.13.12-.15.09a14.69,14.69,0,0,1,3.07.58l.69.27-.62.4a58.22,58.22,0,0,1-10.66,5.2l-.24.08Z" transform="translate(0 -0.29)"/><path class="cls-40" d="M258.41,167.56l.87,0c2.32.09,3.65.08,4.94.22a15.9,15.9,0,0,0-2,1.62h0c.06,0,2.07-1.09,2.77-1.43a15.15,15.15,0,0,1,3.17.58,57.37,57.37,0,0,1-10.58,5.16c-.49-.55-1.84-.74-7.64-1.28,4.52-1.51,6.38-3.52,7.23-4.86l1.23,0m0-.75h0l-1.26,0-.39,0-.21.33c-1.2,1.9-3.5,3.43-6.83,4.55l-3.36,1.13,3.53.33c4.22.39,6.82.66,7.15,1l.33.37.47-.16a57.46,57.46,0,0,0,10.74-5.24l1.24-.79-1.37-.54a11,11,0,0,0-2.08-.45l.2-.12L264.3,167c-.9-.1-1.77-.12-3-.16l-2-.07-.9,0Z" transform="translate(0 -0.29)"/><polygon class="cls-42" points="214.79 178.5 263.96 169.51 219.3 178.09 214.79 178.5"/><path class="cls-9" d="M115.19,136.83c-.11.68-.23,1.36-.33,2q-1,6.25-1.46,12.56l-.22,3.16-.16,3.16-.1,3.16,0,3-3.19.22-.31,0h0l-2.28,0h-.31l-1.07,0c-1.22,0-2.44-.08-3.66-.11s-2.43-.19-3.65-.29a77.38,77.38,0,0,1-34.09-12l-.29-.19c-2-1.3-3.9-2.69-5.75-4.17l-1.45-1.17,1.92-2.62L60.65,141l1.9-2.76,1.86-2.8q3.67-5.62,7-11.45a215.77,215.77,0,0,0,11.76-24.1c1.72-4.13,3.24-8.33,5.07-12.41A49.64,49.64,0,0,1,95,76a33.74,33.74,0,0,1,21.11-11.83l-.09.32,0,.11s.06,0,.09,0l.19.07.24.09L117,65a19.66,19.66,0,0,1,3.68,1.93,21,21,0,0,1,8.22,11c0,.12.08.24.11.36a18.2,18.2,0,0,1,.51,2.2h0c-.44,3.68-.8,7.38-1.32,11a77.86,77.86,0,0,1-1.51,7.78l-.18.67.1.64,1.42,9.28,1,6.8,0,.24.63,4.31.1.63.36.47a78.28,78.28,0,0,0,6.59,7.37l.08.11a1.89,1.89,0,0,0,.44.41h0A76.76,76.76,0,0,0,151,140.7c1.23.8,2.54,1.48,3.82,2.21.65.35,1.31.67,2,1s1.31.67,2,1l2,.91,2,.83,1,.41,1,.37,1.83.65-.65.47-.62.49-.21.17-.1.08-.7.61-.77.73a25.51,25.51,0,0,0-2.77,3.19c-.39.54-.77,1.1-1.11,1.66l-.16.26a25,25,0,0,0-1.86,3.76l-.45.22-.75-.46c-2.29-1.36-4.71-2.46-7.09-3.63l-14.31-7a112.64,112.64,0,0,1-14-7.57,64.27,64.27,0,0,1-5.61-4.36l-.27-.23" transform="translate(0 -0.29)"/><path class="cls-45" d="M102.74,89.9s8.58,38.72,7.95,42.59c2.14,2.09,4.55,4.12,4.55,4.12l-1.65,9.89-.68,17.25S95,165,88.32,161.75c9.49-20.06,16.09-55.18,14.42-71.85" transform="translate(0 -0.29)"/><path class="cls-11" d="M136.6,129.07a77.55,77.55,0,0,1-6.49-7.4l-.74-4.83,1-.18a29.63,29.63,0,0,0,3.21-.77l.25.89a1.89,1.89,0,0,0-.78.83,1.27,1.27,0,0,0,0,1.14,1.67,1.67,0,0,0,.87.73,2.63,2.63,0,0,0,1.11.15c.74-.05,1.44-.2,2.16-.28,1.43-.19,2.86-.35,4.3-.46,2.08-.17,4.16-.24,6.24-.25a1.43,1.43,0,0,1-.06-.31c-2.07,0-4.14.11-6.19.3-1.44.12-2.88.29-4.31.49-.72.09-1.44.24-2.14.29a2.45,2.45,0,0,1-1-.12,1.46,1.46,0,0,1-.76-.63,1,1,0,0,1,0-.94,1.66,1.66,0,0,1,.69-.73,8.72,8.72,0,0,1,2-.64q2.11-.49,4.25-.8a40.63,40.63,0,0,1,7.22-.25,1.19,1.19,0,0,1,.11-.32l.27-.94h.48a4.28,4.28,0,0,1,1.78.49,2.92,2.92,0,0,1,1.06,1,4.18,4.18,0,0,1,.52,1.36,18.42,18.42,0,0,1,.24,3,18.72,18.72,0,0,1-.11,3,9.18,9.18,0,0,1-2.61,5.29,9.87,9.87,0,0,1-5.43,2.77,10.75,10.75,0,0,1-3.13.06,10.4,10.4,0,0,1-1.54-.32,6.7,6.7,0,0,1-1.43-.56l-.14-.09h0l-.43-.42a.9.9,0,0,1-.19-.56,1.29,1.29,0,0,1,.8-1,3.19,3.19,0,0,1,1.48-.2c.52,0,1.06.08,1.58.12l6.35.53v-.33l-6.35-.5c-.53,0-1.05-.09-1.59-.12a3.45,3.45,0,0,0-1.64.24,1.57,1.57,0,0,0-1,1.29A.52.52,0,0,0,136.6,129.07Zm-2.48-3.54a1.48,1.48,0,0,0,1.21,1.38,11.08,11.08,0,0,0,1.84.19l3.65.22,6.36.38a1.29,1.29,0,0,1-.13-.33l-6.21-.32-3.65-.19a11.58,11.58,0,0,1-1.8-.16,1.55,1.55,0,0,1-.74-.41,1,1,0,0,1-.31-.74.85.85,0,0,1,.42-.66,2.45,2.45,0,0,1,.81-.31c.59-.12,1.2-.22,1.79-.3a32.79,32.79,0,0,1,10,.19,1.55,1.55,0,0,1,0-.33,33.06,33.06,0,0,0-10-.11c-.61.09-1.21.19-1.81.32a2.72,2.72,0,0,0-.88.34A1.1,1.1,0,0,0,134.12,125.53Zm6.09-2.95a30,30,0,0,1,8.22.61,1.55,1.55,0,0,1,0-.33,30.27,30.27,0,0,0-8.2-.55,30.59,30.59,0,0,0-4.75.71,4.2,4.2,0,0,1-2.29.15,1.51,1.51,0,0,1-.84-.69,1.13,1.13,0,0,1,0-1,2.69,2.69,0,0,1,1.93-1.12c.77-.17,1.56-.33,2.34-.45a37.71,37.71,0,0,1,4.75-.45,37.09,37.09,0,0,1,7,.44,1.48,1.48,0,0,1,.08-.26l0,0a37.49,37.49,0,0,0-7.14-.42,38,38,0,0,0-4.78.48c-.79.13-1.58.29-2.36.47a5.13,5.13,0,0,0-1.16.38,2,2,0,0,0-.91.85,1.35,1.35,0,0,0-.06,1.25,1.73,1.73,0,0,0,1,.8,4.34,4.34,0,0,0,2.42-.12A30.2,30.2,0,0,1,140.21,122.58Z" transform="translate(0 -0.29)"/><path class="cls-11" d="M161.69,156.6c.37-.37.73-.76,1.07-1.16a24.07,24.07,0,0,0,3.53-6l.28,0a24.68,24.68,0,0,1-3.64,6.07c-.33.4-.68.77-1,1.14Z" transform="translate(0 -0.29)"/><path class="cls-46" d="M166.29,149.47l-.85-.14-.09.07-.79.68-.76.72a25.66,25.66,0,0,0-2.72,3.17c-.39.53-.75,1.08-1.1,1.64l1.71,1c.37-.37.73-.76,1.07-1.16A24.07,24.07,0,0,0,166.29,149.47Z" transform="translate(0 -0.29)"/><path class="cls-11" d="M204.44,170.42a15,15,0,0,0-8.22-7c-1.75-.59-3.58-.9-5.38-1.32a26.46,26.46,0,0,1-7.75-3.1,14.34,14.34,0,0,1-2.28-1.64,6.71,6.71,0,0,1-.73-.78v.06c0,.07,0,.13,0,.2h0l-.16-.31a1.14,1.14,0,0,0-.11-.18s0-.06,0-.09a5,5,0,0,1-.64-1.2,4.64,4.64,0,0,1-.21-.79l.27-.37a4.17,4.17,0,0,0,.23,1.05,4.27,4.27,0,0,0,.42.85,1.93,1.93,0,0,1,.42-.82,2.38,2.38,0,0,1,1.59-.71,10.05,10.05,0,0,1,3.38.48,21.54,21.54,0,0,0,3.29.74,5.21,5.21,0,0,0,3.2-.56,4.11,4.11,0,0,0,2.06-3.86,12.32,12.32,0,0,1-5.57.67,12.5,12.5,0,0,1-2.32-.5c-.76-.24-1.49-.53-2.22-.81a20.5,20.5,0,0,0-2.22-.74,10.37,10.37,0,0,0-2.31-.31,46.89,46.89,0,0,0-4.68.34,35.46,35.46,0,0,1-4.72.08c-1.08,0-2.16-.16-3.22-.31a24.68,24.68,0,0,1-3.64,6.07c-.33.4-.68.77-1,1.14l3.69,2.14c2.83,1.65,5.69,3.27,8.46,5a56.21,56.21,0,0,1,5.83,4.17,62.8,62.8,0,0,1,14.59,2.3c1.78.48,3.52,1.08,5.25,1.7a8.21,8.21,0,0,0,2.64.57,3.49,3.49,0,0,0,2.43-.88,2.08,2.08,0,0,0,.2-.22C204.81,171.16,204.63,170.78,204.44,170.42Z" transform="translate(0 -0.29)"/><path class="cls-11" d="M147.18,113.76c.22.08.43.16.64.25l-.27.94a41.44,41.44,0,0,0-7.37.3q-2.15.33-4.27.84a8.42,8.42,0,0,0-2.09.67l-.25-.89.29-.08.35-.11a1.49,1.49,0,0,1-.21-.25,2.29,2.29,0,0,1-.29-1.66,4.72,4.72,0,0,1,.93-2.06c.46-.62,1-1.2,1.45-1.86a4.21,4.21,0,0,0,.82-2.25,9.82,9.82,0,0,0-.36-2.35,4.59,4.59,0,0,1,0-2.26,1.76,1.76,0,0,1,1.57-1.33,2.73,2.73,0,0,1,2,.83,3.73,3.73,0,0,1,.94,2,12.07,12.07,0,0,1,.1,2.32,15,15,0,0,0,.07,2.36,4.55,4.55,0,0,0,.86,2.23,4.46,4.46,0,0,0,2,1.37,20,20,0,0,0,2.27.67C146.61,113.57,146.89,113.66,147.18,113.76Z" transform="translate(0 -0.29)"/><path class="cls-8" d="M158.22,56.78s0,0,0,0l-.11,0a.58.58,0,0,0-.16,0h-.32l-.31.05a3.12,3.12,0,0,0-1.13.53,3.73,3.73,0,0,0-.84.91,2.8,2.8,0,0,0-.35,2.41l0,.07s0,0,0,0l-.2,0-.6.08-1.29.18,0,1.21v.27s0,0-.12.08a3.45,3.45,0,0,0-.51.26,6.2,6.2,0,0,0-1.78,1.87c-.48.71-.89,1.46-1.36,2.16a7.33,7.33,0,0,1-3.92,3,7.71,7.71,0,0,1-4.94,0A8.17,8.17,0,0,1,136.54,67l-.18-.23h0a20.09,20.09,0,0,1-2.31-4.5c-.47-1.22-.9-2.46-1.32-3.71l-.26.16c.41,1.23.84,2.45,1.31,3.65A20.47,20.47,0,0,0,136.14,67l0,0a29,29,0,0,0-5.38,6.92c-.15.27-.29.53-.43.8s-.5,5-.79,5.77c0-.11-.69-2.63-.73-2.74-.15-.44-.39-1-.66-1.64-.08-.18,0-.43-.14-.58-3.28-4.53-12-10.93-12-10.94l1.12-3.13,1.55-5.62.71,3,3.63-4,1.43,4.42.67-1.14c.18-.3.34-.6.51-.9.34-.6.66-1.21,1-1.83q.94-1.85,1.76-3.76c.49-1.17.94-2.35,1.36-3.54l.17-.46c.43-1.27.82-2.55,1.17-3.84.49-1.82.88-3.66,1.21-5.5a28.08,28.08,0,0,1,.79-3.63,8.37,8.37,0,0,0,.48,3,18.43,18.43,0,0,1,1.22,4.22,14.3,14.3,0,0,1-.14,2.19,2.93,2.93,0,0,0,.15,1.14,1.67,1.67,0,0,0,.75.9,2.29,2.29,0,0,0,2.26-.12,5.26,5.26,0,0,0,1.57-1.63l-.09-.06,0,0,0,0-.09-.06a5,5,0,0,1-1.45,1.55,2,2,0,0,1-2,.14,1.87,1.87,0,0,1-.79-1.8,14.71,14.71,0,0,0,.11-2.22,18.14,18.14,0,0,0-1.18-4.28,6.8,6.8,0,0,1-.17-4.26h0l.17-.33A5.81,5.81,0,0,1,138,29.71a3.56,3.56,0,0,1,2.56.66,4.51,4.51,0,0,1,1.19,1.33,6.69,6.69,0,0,1,.4.76l0,.08a7.93,7.93,0,0,1,.52,2.7q0,.7,0,1.39l0,.7,0,.55,0,.33v.2l0,0,.05-.06.69-.86c.15-.18.29-.37.43-.56.28-.38.55-.77.81-1.16a23,23,0,0,0,1.4-2.45,24.1,24.1,0,0,0,1.92-5.38,79.23,79.23,0,0,1,13,12.48c-.39.5-.78,1-1.19,1.5a16.64,16.64,0,0,0-1.4,2,9.39,9.39,0,0,0-.94,2.25,10.3,10.3,0,0,0-.38,2.41A14.7,14.7,0,0,0,157,51a32,32,0,0,0,.9,4.76Z" transform="translate(0 -0.29)"/><path class="cls-7" d="M180.1,156.16a6.44,6.44,0,0,0,.9,1,14,14,0,0,0,2.22,1.61c.79.47,1.6.91,2.43,1.31a26.1,26.1,0,0,0,5.22,1.8c1.8.43,3.63.74,5.4,1.35a15.28,15.28,0,0,1,8.39,7c.18.32.34.65.49,1a2,2,0,0,1-.18.26c-.16-.38-.34-.76-.54-1.12a15,15,0,0,0-8.22-7c-1.75-.59-3.58-.9-5.38-1.32a26.46,26.46,0,0,1-7.75-3.1,14.35,14.35,0,0,1-2.28-1.64,6.7,6.7,0,0,1-.73-.78A2.78,2.78,0,0,1,180.1,156.16Z" transform="translate(0 -0.29)"/><path class="cls-7" d="M205,171.95a3.72,3.72,0,0,1-2.63.94,8.58,8.58,0,0,1-2.72-.6c-1.73-.63-3.46-1.23-5.23-1.72a62.39,62.39,0,0,0-14.17-2.2l-.36-.3a62.8,62.8,0,0,1,14.59,2.3c1.78.48,3.52,1.08,5.25,1.7a8.22,8.22,0,0,0,2.64.57,3.49,3.49,0,0,0,2.43-.88,2.09,2.09,0,0,0,.2-.22q.06.14.11.27A1.12,1.12,0,0,1,205,171.95Z" transform="translate(0 -0.29)"/><path class="cls-7" d="M180.31,155a2.38,2.38,0,0,1,1.59-.71,10.05,10.05,0,0,1,3.38.48,21.55,21.55,0,0,0,3.29.74,5.21,5.21,0,0,0,3.2-.56,4.11,4.11,0,0,0,2.06-3.86l.3-.11a4.43,4.43,0,0,1-.13,1.51,4.5,4.5,0,0,1-2.09,2.7,5.41,5.41,0,0,1-3.36.57,21.45,21.45,0,0,1-3.32-.77,9.87,9.87,0,0,0-3.3-.44,2.12,2.12,0,0,0-1.43.64,1.82,1.82,0,0,0-.4,1,3.62,3.62,0,0,1-.21-.34A1.93,1.93,0,0,1,180.31,155Z" transform="translate(0 -0.29)"/><path class="cls-7" d="M179.82,156.27a2.91,2.91,0,0,1,.08-.45,3.62,3.62,0,0,0,.21.34,2.78,2.78,0,0,0,0,.44Q179.94,156.45,179.82,156.27Z" transform="translate(0 -0.29)"/><path class="cls-7" d="M180.22,168.37h-.42l-.37-.3h.43Z" transform="translate(0 -0.29)"/><path class="cls-7" d="M167.22,148l-.06,0,0-.06Z" transform="translate(0 -0.29)"/><path class="cls-7" d="M167.16,148l-.41.3.17-.45.26.09Z" transform="translate(0 -0.29)"/><path class="cls-7" d="M179.2,149.18a10.58,10.58,0,0,1,2.36.3,21.34,21.34,0,0,1,2.25.73c.74.28,1.47.56,2.21.79a11.91,11.91,0,0,0,7.79-.24c0,.11,0,.21,0,.31a12.32,12.32,0,0,1-5.57.67,12.5,12.5,0,0,1-2.32-.5c-.76-.24-1.49-.53-2.22-.81a20.52,20.52,0,0,0-2.22-.74,10.37,10.37,0,0,0-2.31-.31,46.9,46.9,0,0,0-4.68.34,35.42,35.42,0,0,1-4.72.08c-1.08,0-2.16-.16-3.22-.31l.12-.28c1,.15,2.07.26,3.12.32a34.84,34.84,0,0,0,4.69-.05A46.83,46.83,0,0,1,179.2,149.18Z" transform="translate(0 -0.29)"/><path class="cls-7" d="M166.77,149l-.08.2-.28,0,.11-.26.23-.61.41-.3C167,148.36,166.91,148.7,166.77,149Z" transform="translate(0 -0.29)"/><path class="cls-7" d="M166.56,149.51l-.28,0,.12-.28.28,0Z" transform="translate(0 -0.29)"/><path class="cls-7" d="M165.44,149.32l.31-.24.66.11-.12.28Z" transform="translate(0 -0.29)"/><path class="cls-7" d="M165.58,158.86c2.83,1.65,5.69,3.27,8.46,5a56.21,56.21,0,0,1,5.83,4.17h-.43a56.46,56.46,0,0,0-5.52-4c-2.77-1.75-5.64-3.34-8.48-5l-3.76-2.16.21-.22Z" transform="translate(0 -0.29)"/><path class="cls-7" d="M165.07,149.26l.1-.08.21-.17.36.07-.31.24Z" transform="translate(0 -0.29)"/><path class="cls-7" d="M164,35.53l.16-.4a4.63,4.63,0,0,1,2.23-.09,4.71,4.71,0,0,1,1.31.49l.3.19,0,0v-.39a37.83,37.83,0,0,0-.63-5.39A36.53,36.53,0,0,0,166,24.75a12.46,12.46,0,0,0-1.1-2.45,6,6,0,0,0-.68-.9c-.07-.22-.15-.44-.24-.66a5.7,5.7,0,0,1,1.18,1.41,13.07,13.07,0,0,1,1.11,2.52,40.83,40.83,0,0,1,2.09,10.7l0,1-.5-.36c-.1-.06-.18-.12-.28-.17a4.34,4.34,0,0,0-1.23-.45A4.3,4.3,0,0,0,164,35.53Z" transform="translate(0 -0.29)"/><path class="cls-7" d="M163.73,21c-.07-.18-.14-.36-.22-.55a4.43,4.43,0,0,1,.44.33c.09.22.17.44.24.66A5.06,5.06,0,0,0,163.73,21Z" transform="translate(0 -0.29)"/><path class="cls-7" d="M163.74,35.52l0,0h0l.09-.21.38-.13-.16.4-.24.09Z" transform="translate(0 -0.29)"/><path class="cls-7" d="M163.58,35.85c.05-.12.1-.25.14-.37l0,0,0,.1.24-.09q-.11.29-.24.59Z" transform="translate(0 -0.29)"/><path class="cls-7" d="M163.7,35.42l0-.1.15-.06-.09.21Z" transform="translate(0 -0.29)"/><path class="cls-7" d="M163.79,36.12l-.13.29-.21-.27.13-.29Z" transform="translate(0 -0.29)"/><path class="cls-7" d="M163.65,36.41c-.27.59-.56,1.17-.88,1.73a19.58,19.58,0,0,1-1.49,2.24l-.19-.23A19.11,19.11,0,0,0,162.51,38a20.3,20.3,0,0,0,.93-1.85Z" transform="translate(0 -0.29)"/><path class="cls-7" d="M161.89,156.72l-.21.22-.21-.12.22-.22Z" transform="translate(0 -0.29)"/><path class="cls-7" d="M161.28,40.37l-.19.24-.19-.22.19-.24Z" transform="translate(0 -0.29)"/><path class="cls-7" d="M165.35,149.4l-.79.68-.76.72a25.66,25.66,0,0,0-2.72,3.17c-.39.53-.75,1.08-1.1,1.64l-.26-.15c.35-.57.72-1.12,1.11-1.66a25.51,25.51,0,0,1,2.77-3.19l.77-.73.7-.61.36.06Z" transform="translate(0 -0.29)"/><path class="cls-7" d="M160,155.61l1.71,1-.22.22-1.65-.95Z" transform="translate(0 -0.29)"/><path class="cls-7" d="M159.82,155.87l-.26-.15.16-.26.26.15Z" transform="translate(0 -0.29)"/><path class="cls-7" d="M159.56,155.72l.26.15a25,25,0,0,0-1.68,3.38l-.44.23A25,25,0,0,1,159.56,155.72Z" transform="translate(0 -0.29)"/><path class="cls-7" d="M161.47,156.82l.21.12a15.84,15.84,0,0,1-1.48,1.29,15,15,0,0,1-2.21,1.4l.15-.38A14,14,0,0,0,160,158,15.66,15.66,0,0,0,161.47,156.82Z" transform="translate(0 -0.29)"/><path class="cls-7" d="M157.56,159.84l.42-.22-.16.44-.28-.18Z" transform="translate(0 -0.29)"/><path class="cls-7" d="M157.44,160.18l.11-.29.28.18-.11.29Z" transform="translate(0 -0.29)"/><path class="cls-7" d="M158,159.63l-.42.22.14-.36.44-.23Z" transform="translate(0 -0.29)"/><path class="cls-7" d="M157.25,159.7l.45-.22-.14.36-.05,0Z" transform="translate(0 -0.29)"/><path class="cls-7" d="M157.44,160.18l-.24-.16.32-.15,0,0Z" transform="translate(0 -0.29)"/><path class="cls-7" d="M156.92,159.85l.33-.15.26.17-.32.15Z" transform="translate(0 -0.29)"/><path class="cls-7" d="M148.53,114h-.25a6,6,0,0,0-.62-.29h.25A5.32,5.32,0,0,1,148.53,114Z" transform="translate(0 -0.29)"/><path class="cls-47" d="M160.9,40.39a79.23,79.23,0,0,0-13-12.48l.05-.26a79.8,79.8,0,0,1,13.13,12.5Z" transform="translate(0 -0.29)"/><path class="cls-47" d="M147.63,27.71l.05-.26.28.21-.05.26Z" transform="translate(0 -0.29)"/><path class="cls-7" d="M147.91,113.72h0Z" transform="translate(0 -0.29)"/><path class="cls-7" d="M147.86,113.72h0Z" transform="translate(0 -0.29)"/><path class="cls-7" d="M147.36,113.74h.3a6,6,0,0,1,.62.29h-.45c-.21-.1-.43-.18-.64-.25Z" transform="translate(0 -0.29)"/><path class="cls-47" d="M145.72,33.15a23.63,23.63,0,0,0,1.91-5.45l.28.21A24.1,24.1,0,0,1,146,33.29a23,23,0,0,1-1.4,2.45c-.26.4-.53.78-.81,1.16-.14.19-.28.38-.43.56l-.69.86-.05.06,0,0v-.2l0-.33,0-.55,0-.7q0-.7,0-1.39a7.93,7.93,0,0,0-.52-2.7l0-.08.05,0,0,0,0,0,.08-.07.08.17a8.28,8.28,0,0,1,.55,2.79c0,.48,0,.95,0,1.42l0,.7c0,.15,0,.18,0,.18l.2-.24c.15-.18.29-.37.42-.56.28-.37.55-.76.8-1.15A22.5,22.5,0,0,0,145.72,33.15Z" transform="translate(0 -0.29)"/><path class="cls-7" d="M142.24,32.37l0,0-.05,0a6.69,6.69,0,0,0-.4-.76c.21.17.41.36.6.55h0l-.08.07Z" transform="translate(0 -0.29)"/><path class="cls-7" d="M140.63,130.95a10.75,10.75,0,0,0,3.13-.06,9.87,9.87,0,0,0,5.43-2.77,9.18,9.18,0,0,0,2.61-5.29,18.72,18.72,0,0,0,.11-3,18.42,18.42,0,0,0-.24-3,4.18,4.18,0,0,0-.52-1.36,2.92,2.92,0,0,0-1.06-1,4.28,4.28,0,0,0-1.78-.49h.22a5.32,5.32,0,0,0-.62-.31,4.9,4.9,0,0,1,2.32.55,3.18,3.18,0,0,1,1.16,1.1,4.38,4.38,0,0,1,.55,1.45,25.36,25.36,0,0,1,.1,6,9.35,9.35,0,0,1-2.69,5.4,10.07,10.07,0,0,1-5.56,2.87,10.6,10.6,0,0,1-5.67-.55c-.21-.19-.41-.39-.61-.59l.14.09a6.7,6.7,0,0,0,1.43.56A10.4,10.4,0,0,0,140.63,130.95Z" transform="translate(0 -0.29)"/><path class="cls-7" d="M137.51,130a1.64,1.64,0,0,1-.43-.42Z" transform="translate(0 -0.29)"/><path class="cls-7" d="M137.32,130.17a1.89,1.89,0,0,1-.44-.41l-.08-.11Z" transform="translate(0 -0.29)"/><path class="cls-7" d="M147.11,128.4l-6.35-.53c-.53,0-1.06-.1-1.58-.12a3.19,3.19,0,0,0-1.48.2,1.29,1.29,0,0,0-.8,1,.9.9,0,0,0,.19.56l-.48-.48a.52.52,0,0,1,0-.09,1.57,1.57,0,0,1,1-1.29,3.45,3.45,0,0,1,1.64-.24c.54,0,1.06.08,1.59.12l6.35.5v.33Z" transform="translate(0 -0.29)"/><path class="cls-7" d="M136.6,129.07l.48.48a1.64,1.64,0,0,0,.43.42h0c.2.21.41.4.61.59-.22-.09-.42-.18-.63-.28l-.17-.11h0l-.53-.52A1.18,1.18,0,0,1,136.6,129.07Z" transform="translate(0 -0.29)"/><path class="cls-7" d="M135.33,126.91a1.48,1.48,0,0,1-1.21-1.38,1.1,1.1,0,0,1,.52-.83,2.72,2.72,0,0,1,.88-.34c.61-.12,1.21-.22,1.81-.32a33.06,33.06,0,0,1,10,.11,1.55,1.55,0,0,0,0,.33,32.79,32.79,0,0,0-10-.19c-.6.08-1.21.18-1.79.3a2.45,2.45,0,0,0-.81.31.85.85,0,0,0-.42.66,1,1,0,0,0,.31.74,1.55,1.55,0,0,0,.74.41,11.58,11.58,0,0,0,1.8.16l3.65.19,6.21.32a1.29,1.29,0,0,0,.13.33l-6.36-.38-3.65-.22A11.08,11.08,0,0,1,135.33,126.91Z" transform="translate(0 -0.29)"/><path class="cls-7" d="M133.87,115.8a2.37,2.37,0,0,1-.18-.25l.32-.11a1.49,1.49,0,0,0,.21.25Z" transform="translate(0 -0.29)"/><path class="cls-7" d="M141.48,109.19a4.31,4.31,0,0,0,.81,2.1,4.18,4.18,0,0,0,1.86,1.27,20.1,20.1,0,0,0,2.24.65,10.17,10.17,0,0,1,1.52.52h-.55l-.18,0c-.29-.1-.57-.19-.87-.27a20,20,0,0,1-2.27-.67,4.46,4.46,0,0,1-2-1.37,4.55,4.55,0,0,1-.86-2.23,15,15,0,0,1-.07-2.36,12.07,12.07,0,0,0-.1-2.32,3.73,3.73,0,0,0-.94-2,2.73,2.73,0,0,0-2-.83,1.76,1.76,0,0,0-1.57,1.33,4.59,4.59,0,0,0,0,2.26,9.82,9.82,0,0,1,.36,2.35,4.21,4.21,0,0,1-.82,2.25c-.45.66-1,1.24-1.45,1.86a4.72,4.72,0,0,0-.93,2.06,2.29,2.29,0,0,0,.29,1.66l-.32.11a2.28,2.28,0,0,1-.24-.59,3,3,0,0,1,0-1.23,5,5,0,0,1,1-2.18c.48-.63,1-1.21,1.45-1.84a4,4,0,0,0,.79-2.1,9.8,9.8,0,0,0-.34-2.29,4.73,4.73,0,0,1,0-2.38,2.17,2.17,0,0,1,.65-1,1.84,1.84,0,0,1,1.14-.46,3,3,0,0,1,2.2.9,3.94,3.94,0,0,1,1,2.15,12.3,12.3,0,0,1,.11,2.37A15,15,0,0,0,141.48,109.19Z" transform="translate(0 -0.29)"/><path class="cls-7" d="M133.6,33.23a10.47,10.47,0,0,0-.54,1.39,5.53,5.53,0,0,1,.15-1.11c0-.12.1-.23.16-.35h0l.06,0,0,0Z" transform="translate(0 -0.29)"/><path class="cls-7" d="M138,29.71a5.81,5.81,0,0,0-4.23,3.19l-.17.33-.08,0,0,0-.06,0h0c.06-.12.11-.25.18-.37A6,6,0,0,1,138,29.46a3.79,3.79,0,0,1,2.75.7,5.18,5.18,0,0,1,1.63,2.09c-.19-.19-.39-.38-.6-.55a4.51,4.51,0,0,0-1.19-1.33A3.56,3.56,0,0,0,138,29.71Z" transform="translate(0 -0.29)"/><path class="cls-7" d="M133.33,33.14l0,0c-.06.12-.11.23-.16.35C133.25,33.39,133.28,33.26,133.33,33.14Z" transform="translate(0 -0.29)"/><path class="cls-48" d="M134.87,44a1.87,1.87,0,0,0,.79,1.8,2,2,0,0,0,2-.14,5,5,0,0,0,1.45-1.55l.09.06,0,0,0,0,.09.06a5.26,5.26,0,0,1-1.57,1.63,2.29,2.29,0,0,1-2.26.12,1.67,1.67,0,0,1-.75-.9,2.93,2.93,0,0,1-.15-1.14,14.3,14.3,0,0,0,.14-2.19,18.43,18.43,0,0,0-1.22-4.22,8.37,8.37,0,0,1-.48-3,10.47,10.47,0,0,1,.54-1.39h0a6.8,6.8,0,0,0,.17,4.26A18.14,18.14,0,0,1,135,41.78,14.71,14.71,0,0,1,134.87,44Z" transform="translate(0 -0.29)"/><path class="cls-7" d="M137.22,119.33c-.72.09-1.42.23-2.16.28a2.63,2.63,0,0,1-1.11-.15,1.67,1.67,0,0,1-.87-.73,1.27,1.27,0,0,1,0-1.14,1.89,1.89,0,0,1,.78-.83,8.42,8.42,0,0,1,2.09-.67q2.12-.51,4.27-.84a41.44,41.44,0,0,1,7.37-.3,1.19,1.19,0,0,0-.11.32,40.63,40.63,0,0,0-7.22.25q-2.14.32-4.25.8a8.72,8.72,0,0,0-2,.64,1.66,1.66,0,0,0-.69.73,1,1,0,0,0,0,.94,1.46,1.46,0,0,0,.76.63,2.45,2.45,0,0,0,1,.12c.7-.05,1.42-.21,2.14-.29,1.43-.2,2.87-.37,4.31-.49,2.06-.18,4.12-.27,6.19-.3a1.43,1.43,0,0,0,.06.31c-2.08,0-4.16.09-6.24.25C140.08,119,138.65,119.14,137.22,119.33Z" transform="translate(0 -0.29)"/><path class="cls-7" d="M141.37,119.14a37.49,37.49,0,0,1,7.14.42l0,0a1.48,1.48,0,0,0-.08.26,37.09,37.09,0,0,0-7-.44,37.71,37.71,0,0,0-4.75.45c-.78.12-1.57.28-2.34.45a2.69,2.69,0,0,0-1.93,1.12,1.13,1.13,0,0,0,0,1,1.51,1.51,0,0,0,.84.69,4.2,4.2,0,0,0,2.29-.15,30.59,30.59,0,0,1,4.75-.71,30.27,30.27,0,0,1,8.2.55,1.55,1.55,0,0,0,0,.33,30.06,30.06,0,0,0-12.93.07,4.34,4.34,0,0,1-2.42.12,1.73,1.73,0,0,1-1-.8,1.35,1.35,0,0,1,.06-1.25,2,2,0,0,1,.91-.85,5.13,5.13,0,0,1,1.16-.38c.78-.18,1.57-.34,2.36-.47A38,38,0,0,1,141.37,119.14Z" transform="translate(0 -0.29)"/><path class="cls-7" d="M129.84,121.81l-.1-.63.36.48.1.62Z" transform="translate(0 -0.29)"/><path class="cls-7" d="M129.82,47.62h.09l-.17.46c0-.14-.05-.28-.08-.43l.11,0Z" transform="translate(0 -0.29)"/><path class="cls-7" d="M132.05,38.22a21.18,21.18,0,0,1,1.17-4.71,5.53,5.53,0,0,0-.15,1.11,28.08,28.08,0,0,0-.79,3.63c-.32,1.85-.71,3.69-1.21,5.5-.34,1.29-.74,2.57-1.17,3.84h-.14l-.11,0h0c.45-1.3.86-2.61,1.21-3.94C131.35,41.9,131.73,40.06,132.05,38.22Z" transform="translate(0 -0.29)"/><path class="cls-7" d="M129.11,116.88l.25,0,.74,4.83-.36-.48Z" transform="translate(0 -0.29)"/><path class="cls-7" d="M129.37,116.83l0-.23,1-.16a31.23,31.23,0,0,0,3.36-.88,2.37,2.37,0,0,0,.18.25l-.29.08a29.63,29.63,0,0,1-3.21.77Z" transform="translate(0 -0.29)"/><path class="cls-7" d="M129.33,116.59l0,.23-.25,0,0-.24Z" transform="translate(0 -0.29)"/><path class="cls-7" d="M126.8,6.21l.34-.12.26.23-.35.11Z" transform="translate(0 -0.29)"/><path class="cls-7" d="M127,6.43c-.44.16-.87.33-1.3.52l-.37-.13q.7-.33,1.42-.6Z" transform="translate(0 -0.29)"/><path class="cls-7" d="M125.38,6.81l.37.13-.35.17L125,7Z" transform="translate(0 -0.29)"/><path class="cls-7" d="M138.24,3.18A32.79,32.79,0,0,0,131.43,3a32.24,32.24,0,0,0-3.38.45c-.56.11-1.11.24-1.66.36L125,4.2l2.13,1.88-.34.12-2.43-2.15,1.1-.31.83-.22c.56-.12,1.12-.26,1.68-.36a32.83,32.83,0,0,1,17,1.36A31.35,31.35,0,0,1,148.06,6c.26.11.51.26.77.39l.59.32s.06,0,0,0l0-.06-.11-.29L149,5.45l-.2-.51,1.11.68.83.54c.55.36,1.09.74,1.62,1.13,1.06.77,2.15,1.5,3.13,2.37a40.32,40.32,0,0,1,5.34,5.79,29.94,29.94,0,0,1,2.2,3.28,15.36,15.36,0,0,1,1,2,4.43,4.43,0,0,0-.44-.33,15.3,15.3,0,0,0-.76-1.54,29.59,29.59,0,0,0-2.17-3.25,40.07,40.07,0,0,0-5.29-5.77c-1-.88-2.06-1.59-3.11-2.37-.52-.39-1.06-.77-1.6-1.13l-.82-.54-.55-.34,0,.1.28.69.21.52.13.33s0,.07,0,.07l-.08,0-.16-.09-.92-.48c-.25-.13-.5-.27-.76-.39a32.08,32.08,0,0,0-3.08-1.42A32.6,32.6,0,0,0,138.24,3.18Z" transform="translate(0 -0.29)"/><path class="cls-8" d="M128.38,51.61q-.82,1.91-1.76,3.76c-.32.62-.64,1.23-1,1.83-.17.3-.33.61-.51.9l-.67,1.14L123,54.83l-3.63,4-.71-3,.16-.58.7,3,3.6-3.91,1.39,4.32.38-.65c.18-.3.34-.6.51-.9.34-.6.66-1.21,1-1.82.63-1.23,1.21-2.48,1.76-3.74s1-2.57,1.49-3.87h0c0,.14.05.28.08.43C129.32,49.26,128.87,50.45,128.38,51.61Z" transform="translate(0 -0.29)"/><path class="cls-7" d="M117.88,13.67l0,0v0Z" transform="translate(0 -0.29)"/><path class="cls-47" d="M168.07,35.37a37.83,37.83,0,0,0-.63-5.39A36.54,36.54,0,0,0,166,24.74a12.46,12.46,0,0,0-1.1-2.45,6,6,0,0,0-.68-.9,5.07,5.07,0,0,0-.47-.44c-.07-.18-.14-.36-.22-.55a15.3,15.3,0,0,0-.76-1.54,29.59,29.59,0,0,0-2.17-3.25,40.07,40.07,0,0,0-5.29-5.77c-1-.88-2.06-1.59-3.11-2.37-.52-.39-1.06-.77-1.6-1.13l-.82-.54-.55-.34,0,.1.28.69.21.52.13.33s0,.07,0,.07l-.08,0-.16-.09-.92-.48c-.25-.13-.5-.27-.76-.39a32.05,32.05,0,0,0-3.08-1.42A32.46,32.46,0,0,0,128,3.46c-.56.11-1.11.24-1.66.36L125,4.2l2.13,1.88.26.23-.35.11c-.44.16-.87.33-1.3.52l-.35.17h0A20.63,20.63,0,0,0,120,10.77c-.83.79-10.23,11-10.23,11l-.3,1.51-.2,1.23q-.18,1.23-.29,2.48a38.55,38.55,0,0,0,1.68,14.8l.09.28,1.88,7.36,6.07,5.19.15.64.7,3,3.6-3.91,1.39,4.32.38-.65c.18-.3.34-.6.51-.9.34-.6.66-1.21,1-1.82.63-1.23,1.21-2.48,1.76-3.74s1-2.57,1.49-3.87.86-2.61,1.21-3.94c.49-1.81.88-3.64,1.19-5.49a21.18,21.18,0,0,1,1.17-4.71c0-.12.07-.25.11-.37l0,0c.06-.12.11-.25.18-.37A6,6,0,0,1,138,29.46a3.79,3.79,0,0,1,2.75.7,5.18,5.18,0,0,1,1.63,2.09h0l.08.17a8.28,8.28,0,0,1,.55,2.79c0,.48,0,.95,0,1.42l0,.7c0,.15,0,.18,0,.18l.2-.24c.15-.18.29-.37.42-.56.28-.37.55-.76.8-1.15a22.5,22.5,0,0,0,1.38-2.43,23.63,23.63,0,0,0,1.91-5.45l.05-.26a82.1,82.1,0,0,0-7.07-4.74,81.17,81.17,0,0,0-9.47-4.87,81.15,81.15,0,0,1,9.47,4.87,82.11,82.11,0,0,1,7.07,4.74l.28.21a79.79,79.79,0,0,1,13.13,12.5A19.11,19.11,0,0,0,162.51,38a20.33,20.33,0,0,0,.93-1.85l.13-.29c.05-.12.1-.25.14-.37h0l0,0,0-.1.15-.06.38-.13a4.63,4.63,0,0,1,2.23-.09,4.72,4.72,0,0,1,1.31.49l.3.19,0,0ZM136.78,12.3m12.33,8.6q-1-.81-1.94-1.6-2.95-2.34-6.1-4.4,3.15,2.06,6.1,4.4,1,.78,1.94,1.6,1.91,1.62,3.73,3.35Q151,22.53,149.1,20.9Z" transform="translate(0 -0.29)"/><line class="cls-7" x1="118.69" y1="54.32" x2="118.54" y2="54.9"/><polygon class="cls-7" points="109.35 164.18 109.36 163.91 109.67 163.89 109.66 164.16 109.35 164.18"/><path class="cls-7" d="M109.36,164.2v.27h0l-2.28,0v-.27l2.28,0Z" transform="translate(0 -0.29)"/><path class="cls-7" d="M107.07,164.51h-.31v-.27h.31Z" transform="translate(0 -0.29)"/><path class="cls-7" d="M91.14,278.3h-.31l0-.27h.31Z" transform="translate(0 -0.29)"/><path class="cls-7" d="M74.62,282.26l-.32.06,0-.33.32-.06Z" transform="translate(0 -0.29)"/><path class="cls-7" d="M84,161.23a77.24,77.24,0,0,1-19.68-9.12c0-.09,0-.17,0-.26a77.38,77.38,0,0,0,34.09,12c1.21.1,2.43.22,3.65.29s2.44.1,3.66.11l1.07,0v.27l-1.09,0c-1.22,0-2.45-.08-3.67-.11s-2.44-.2-3.66-.29A77.59,77.59,0,0,1,84,161.23Z" transform="translate(0 -0.29)"/><path class="cls-7" d="M74.3,282.32q-1.56.28-3.14.47l-.15-.3c1.11-.13,2.23-.31,3.34-.5Z" transform="translate(0 -0.29)"/><path class="cls-7" d="M70.84,282.83l-.16-.3.33,0,.15.3Z" transform="translate(0 -0.29)"/><path class="cls-7" d="M64.28,151.85c0,.09,0,.17,0,.26l-.29-.18c0-.09,0-.18,0-.27Z" transform="translate(0 -0.29)"/><path class="cls-49" d="M106.81,165.69c0-.39,0-.78-.06-1.17l-1.09,0c-1.22,0-2.45-.08-3.67-.11s-2.44-.2-3.66-.29a77.57,77.57,0,0,1-34.06-12,26.71,26.71,0,0,0,.42,5C75.5,162.35,94.91,170.18,106.81,165.69Z" transform="translate(0 -0.29)"/><path class="cls-50" d="M108.86,164.47l-2.28,0c0,.47,0,.94.07,1.41l2.17-.24,0-1.21Z" transform="translate(0 -0.29)"/><path class="cls-51" d="M158.16,159.19a28.08,28.08,0,0,1,1.66-3.32,13.54,13.54,0,0,1,1.65.95A15.3,15.3,0,0,1,158.16,159.19Z" transform="translate(0 -0.29)"/><path class="cls-51" d="M165.74,149.08s.86-.68,1-.74c-.14.38-.33.85-.33.85Z" transform="translate(0 -0.29)"/><path class="cls-52" d="M136.16,67l0,0a20.47,20.47,0,0,1-2.36-4.55c-.47-1.21-.9-2.42-1.31-3.65l.1-.06a11.76,11.76,0,0,1-1-4.62c-2,8.61-3.18,18.74-1.74,25.22.23-1.25.46-3.29.48-3.72,0,.06-.06-.11,0-.16,0-.23.07-.47.11-.71s.28-.53.43-.8A29,29,0,0,1,136.16,67Z" transform="translate(0 -0.29)"/><path class="cls-53" d="M135.25,65c-.32-.69-.69-1.49-1.07-2.35A25.76,25.76,0,0,0,135.25,65Z" transform="translate(0 -0.29)"/><path class="cls-11" d="M142.15,32.46a6.69,6.69,0,0,0-.4-.76,4.86,4.86,0,0,0-.81-1l0,2.37s.61.43,1.69,1.09a6.86,6.86,0,0,0-.41-1.61Z" transform="translate(0 -0.29)"/><path class="cls-54" d="M134,62.31c-.47-1.22-.9-2.46-1.32-3.71h0A32.28,32.28,0,0,0,135,64.46C134.64,63.76,134.33,63,134,62.31Z" transform="translate(0 -0.29)"/><path class="cls-54" d="M142.69,36.63l0,.7,0,.55,0,.33v.2l0,0,.05-.06.69-.86c.15-.18.29-.37.43-.56.28-.38.55-.77.81-1.16s.57-.91.83-1.37a23,23,0,0,0-2.8-.13c0,.33.08.67.09,1S142.71,36.17,142.69,36.63Z" transform="translate(0 -0.29)"/><path class="cls-47" d="M134.77,41.8a14.3,14.3,0,0,1-.14,2.19,2.93,2.93,0,0,0,.15,1.14,1.67,1.67,0,0,0,.75.9,2.29,2.29,0,0,0,2.26-.12,5.26,5.26,0,0,0,1.57-1.63l-.09-.06,0,0,0,0-.09-.06a5,5,0,0,1-1.45,1.55,2,2,0,0,1-2,.14,1.87,1.87,0,0,1-.79-1.8,14.71,14.71,0,0,0,.11-2.22,18.14,18.14,0,0,0-1.18-4.28c-.08-.27-.16-.54-.22-.81l-.25.15c.06.25.14.5.22.74A18.43,18.43,0,0,1,134.77,41.8Z" transform="translate(0 -0.29)"/><path class="cls-8" d="M142.19,32.54l0-.08a6.69,6.69,0,0,0-.4-.76,4.51,4.51,0,0,0-1.19-1.33,3.55,3.55,0,0,0-2.56-.66,5.81,5.81,0,0,0-4.23,3.19l-.17.33h0a6.17,6.17,0,0,0-.05,3.44,18.09,18.09,0,0,1,9-2.45A6.94,6.94,0,0,0,142.19,32.54Z" transform="translate(0 -0.29)"/><path class="cls-8" d="M133.06,34.63a22.81,22.81,0,0,0-.65,2.82c.28-.2.59-.4.91-.6A7.61,7.61,0,0,1,133.06,34.63Z" transform="translate(0 -0.29)"/><path class="cls-52" d="M147.91,27.91A24.1,24.1,0,0,1,146,33.29c-.18.37-.37.72-.57,1.08,4.14.44,9.14,2,15.07,5.53A79.33,79.33,0,0,0,147.91,27.91Z" transform="translate(0 -0.29)"/><path class="cls-11" d="M135.1,64.7l-.12-.24Z" transform="translate(0 -0.29)"/><g class="cls-55"><path class="cls-56" d="M84.75,155.65a76.82,76.82,0,0,1-25-13.32l-.14.18-.07.09-.07.09-.14.17A80,80,0,0,0,113,159.56l0-.22v-.23l0-.23A77.45,77.45,0,0,1,84.75,155.65Z" transform="translate(0 -0.29)"/></g><path class="cls-57" d="M304.79,52.73A25.92,25.92,0,0,1,299,41.19c-.45-2.13-.71-4.31-1-6.48L297,28.21l-.23,0-.11,0-.12,0-.22,0,1,6.5c.35,2.16.63,4.34,1.1,6.5a26.44,26.44,0,0,0,6,11.71,27.61,27.61,0,0,0,4.73,4.64,7.59,7.59,0,0,0,6.43,1.43,10.21,10.21,0,0,0,3-1.56q1.35-1,2.61-2a39.81,39.81,0,0,0,4.66-4.71l-.17-.14-.09-.08-.08-.07-.18-.15A39.16,39.16,0,0,1,320.8,55c-.82.71-1.67,1.39-2.55,2a9.65,9.65,0,0,1-2.8,1.5,7.06,7.06,0,0,1-6-1.3A27.2,27.2,0,0,1,304.79,52.73Z" transform="translate(0 -0.29)"/><path class="cls-8" d="M276,129.54a5.2,5.2,0,0,1,.09,3.82,10.84,10.84,0,0,1-2.2,2.48,7.26,7.26,0,0,0-1.87,3.82,2.09,2.09,0,0,1-.56,1.42,1.46,1.46,0,0,1-1.41,0,3.53,3.53,0,0,1-2-3.93,9,9,0,0,1,1.82-3,14.63,14.63,0,0,0,1.06-1.67,29.91,29.91,0,0,0-11.79,9.68,3.89,3.89,0,0,1-1.86,1.59,2.49,2.49,0,0,1-2.18-.63c-.6-.52-1-1.46-.54-2.09.24-.31.68-.53.65-.93,0-.22-.21-.39-.3-.6-.25-.55.22-1.14.63-1.58a36.2,36.2,0,0,0,2.61-3c1.35-1.75,2.5-3.66,3.91-5.36,2.67-3.21,4.2-5.08,8.19-6.32l14.47-12.15c2.53-2.12,5.15-4.3,8.24-5.41.3-1.92.52-3.55.76-5.48v-.06a37.59,37.59,0,0,1,7.84,1,25,25,0,0,1,5,1.66h0a61.38,61.38,0,0,1-2.87,6.78,17.21,17.21,0,0,1-3.56,5.07c-3.58,3.14-8,5.12-12.3,7.18S279.22,126.09,276,129.54Z" transform="translate(0 -0.29)"/></g></g></g></svg>