<svg xmlns="http://www.w3.org/2000/svg" xmlns:xlink="http://www.w3.org/1999/xlink" viewBox="0 0 1010.38 347.89"><defs><style>.cls-1{isolation:isolate;}.cls-2{fill:#579446;opacity:0.29;}.cls-3{fill:#6d422a;}.cls-4{fill:#644929;}.cls-5{fill:#fff;}.cls-6{fill:#219ad0;}.cls-7{fill:#f54d3d;}.cls-8{fill:#f9ec4f;}.cls-9{fill:#87827f;}.cls-10{fill:#c4ac96;}.cls-11{fill:#e1c6ae;}.cls-12,.cls-16,.cls-47,.cls-52,.cls-58{stroke-miterlimit:10;}.cls-12{fill:url(#Dégradé_sans_nom_33);stroke:url(#Dégradé_sans_nom_36);}.cls-13{fill:#dddcda;}.cls-14{fill:#f3776d;}.cls-15{fill:#d16053;}.cls-16{fill:url(#Dégradé_sans_nom_33-2);stroke:url(#Dégradé_sans_nom_36-2);}.cls-17{fill:#3e4b3f;}.cls-18,.cls-21,.cls-58{fill:#f4cdae;}.cls-18,.cls-58{stroke:#d1b98c;stroke-width:0.5px;}.cls-18{stroke-linecap:round;stroke-linejoin:round;}.cls-19{fill:#485648;}.cls-20{fill:#25706b;}.cls-22,.cls-23{fill:#bb8f6b;}.cls-22{opacity:0.41;}.cls-22,.cls-23,.cls-32,.cls-38{mix-blend-mode:multiply;}.cls-23{opacity:0.38;}.cls-24{opacity:0.95;}.cls-25{fill:#a5cfcb;}.cls-26{fill:#cbcac9;}.cls-27{fill:#164744;}.cls-28{fill:#e52b3e;}.cls-29{fill:#eee;}.cls-30{fill:#293229;}.cls-31{fill:#9d9189;}.cls-32{fill:#c2a58e;opacity:0.3;}.cls-33{fill:#ebd19f;}.cls-34{fill:#faf0df;}.cls-35{fill:#ebdec9;}.cls-36{fill:#51afbd;}.cls-37{fill:#836f5f;}.cls-38{fill:#fce6d0;opacity:0.43;}.cls-39{fill:#f1e1d4;}.cls-40{fill:#ebdbcd;}.cls-41{fill:#c5af90;}.cls-42{fill:#b6a17e;}.cls-43{fill:#ecdccf;}.cls-44{fill:#e8d7ca;}.cls-45{fill:#e5d4c7;}.cls-46{fill:#ecdbcf;}.cls-47{fill:none;stroke:#c5af90;}.cls-48{fill:#baa281;}.cls-49{fill:#b6b1af;}.cls-50{fill:#ddcec0;}.cls-51{fill:#eedecf;}.cls-52{fill:url(#Dégradé_sans_nom_2);stroke:url(#Dégradé_sans_nom_3);}.cls-53{fill:#ebeae9;}.cls-54{fill:#fbafa1;}.cls-55{fill:#b3a3a0;}.cls-56{fill:#90807f;}.cls-57{fill:#e99c8a;}</style><linearGradient id="Dégradé_sans_nom_33" x1="-3530.59" y1="-3990.04" x2="-3517.64" y2="-3990.04" gradientTransform="translate(1699.59 -5090.84) rotate(-130.05)" gradientUnits="userSpaceOnUse"><stop offset="0" stop-color="#fff"/><stop offset="0.99" stop-color="#e1e1e1"/></linearGradient><linearGradient id="Dégradé_sans_nom_36" x1="-3532.25" y1="-3989.95" x2="-3517.14" y2="-3989.95" gradientTransform="translate(1699.59 -5090.84) rotate(-130.05)" gradientUnits="userSpaceOnUse"><stop offset="0.01" stop-color="#e1e1e1"/><stop offset="1" stop-color="#fff"/></linearGradient><linearGradient id="Dégradé_sans_nom_33-2" x1="-2643.93" y1="-5691.4" x2="-2632.7" y2="-5691.4" gradientTransform="translate(-341.04 -5923.31) rotate(-166.63)" xlink:href="#Dégradé_sans_nom_33"/><linearGradient id="Dégradé_sans_nom_36-2" x1="-2645.61" y1="-5691.32" x2="-2632.2" y2="-5691.32" gradientTransform="translate(-341.04 -5923.31) rotate(-166.63)" xlink:href="#Dégradé_sans_nom_36"/><linearGradient id="Dégradé_sans_nom_2" x1="74.57" y1="-3288.62" x2="101.44" y2="-3288.62" gradientTransform="translate(1705.64 -2850.93) rotate(-156.02)" gradientUnits="userSpaceOnUse"><stop offset="0" stop-color="#fff"/><stop offset="0.99" stop-color="#ececec"/></linearGradient><linearGradient id="Dégradé_sans_nom_3" x1="72.94" y1="-3288.54" x2="101.94" y2="-3288.54" gradientTransform="translate(1705.64 -2850.93) rotate(-156.02)" gradientUnits="userSpaceOnUse"><stop offset="0.01" stop-color="#ececec"/><stop offset="1" stop-color="#fff"/></linearGradient></defs><title>lancement</title><g class="cls-1"><g id="Calque_2" data-name="Calque 2"><g id="plaine"><ellipse class="cls-2" cx="505.19" cy="289.49" rx="505.19" ry="43.77"/></g><g id="V4"><path class="cls-3" d="M132.6,76.13l.07.08.09.15a1,1,0,0,0,0-.2l-.06-.42c0-.19-.06-.37-.09-.55-.06-.37-.14-.74-.21-1.11a29.66,29.66,0,0,0-1.25-4.22c-.14-.33-.27-.66-.41-1l-.1-.24-.19-.4-.41-.85-.38-.84,0-.1s-.06-.08,0-.07h.52q-.43-1.05-.9-2.08A60.19,60.19,0,0,0,122,60.75c-5-.54-10-1.07-15-1.53-4.45,1.21-8.85,2.56-13.24,4-.28.25-.57.49-.84.76s-.47.48-.69.74H92c-1.12,1.14-2.29,2.23-3.45,3.34,0,.14.08.29.13.44a13.62,13.62,0,0,0-1,1.4,2.26,2.26,0,0,0-.2-.12,2.3,2.3,0,0,0-.58-.16l-.39.38c-.18.26-.35.51-.54.76.38.05.75.12,1.12.19l-.12.25a7,7,0,0,0-2.91,3.27,8.3,8.3,0,0,0-.59,2.21,12.47,12.47,0,0,0-1.31,5.21,4.44,4.44,0,0,0,0,.6l0,.07.41,3.33,0,0,.09-.06s0,0,0,0l0,.05-.08.34q.59,4.79,1.18,9.57l.76,2.47.62,0c1.45-.1,2.91-.16,4.36-.19a3.62,3.62,0,0,1,2.45.59l.6.42c.24.18.48.36.74.52l.59.39c.31.21.63.42,1,.61a17.35,17.35,0,0,0,2.3,1l2.79,1.08.42.17a14.72,14.72,0,0,1,.65-2.19,7.55,7.55,0,0,0,.54-2.41,3.08,3.08,0,0,1-.75-.64,7.73,7.73,0,0,1-1.09-2.47A4.89,4.89,0,0,0,99.18,94a5.92,5.92,0,0,0-.83-.93,6.92,6.92,0,0,1-1.77-2.1,3.2,3.2,0,0,1,.2-2.86A3.79,3.79,0,0,1,97.71,87a5.37,5.37,0,0,1,1.22-.74,5.71,5.71,0,0,1,2.79-.48,5.25,5.25,0,0,1,1.43.3l.06,0h0l.06,0,.09,0,.14.08a3.28,3.28,0,0,1,.32.21,3.39,3.39,0,0,1,.54.57l0,0a8,8,0,0,1,.71.86,6.3,6.3,0,0,1,.51.85l.06.21V89h0l0-.06,0-.16,0-.09.09-.41c.06-.29.14-.58.2-.87q.42-1.73,1-3.42a39.66,39.66,0,0,1,2.89-6.46,0,0,0,0,1,0,0l0,0q4.34,0,8.67.12l3,.08a27.22,27.22,0,0,1,3,.25c1,.14,2.09.3,3.12.5,0-.09.42.13.42,0l.14-.29h.07c0-.27.28-.12.26-.39.43.19.55,0,1,.17,1.5.7,3,1.42,4.42,2.23q-.16-.84-.33-1.68A21.36,21.36,0,0,0,132.6,76.13Z"/></g><g id="V2"><path class="cls-4" d="M962.63,277.15s0,.62-4.31.3-4.72-1.05-4.72-1.05l-27.54-95.6,6.42-1.76Z"/><path class="cls-4" d="M982.74,285.95s.1.62-4.27.7-4.81-.62-4.81-.62L937,193.12l6.23-2.34Z"/><path class="cls-4" d="M940.23,132.48v0l-.29,0h-.1l-11.14-1.79h-.11c-9.73-1.38-23.5,32.44-30.8,75.69-7.27,43.1-5.38,79.34,4.2,81.3h0l11.39,1.83c9.73,1.56,23.55-32.32,30.87-75.69C951.49,170.91,949.66,134.85,940.23,132.48Z"/><path class="cls-5" d="M933,211.95c-7.32,43.36-21.14,77.25-30.87,75.69s-11.69-38-4.38-81.34,21.14-77.25,30.87-75.69S940.36,168.59,933,211.95Z"/><path d="M928.55,211.23c-5.45,32.32-15.75,57.57-23,56.41s-8.71-28.31-3.26-60.62,15.75-57.57,23-56.41S934,178.91,928.55,211.23Z"/><path class="cls-6" d="M924.92,210.65c-3.95,23.39-11.4,41.66-16.65,40.82S902,231,905.91,207.6s11.4-41.66,16.65-40.82S928.87,187.26,924.92,210.65Z"/><path class="cls-7" d="M921,210c-2.33,13.8-6.73,24.58-9.82,24.08s-3.72-12.08-1.39-25.88,6.73-24.58,9.82-24.08S923.35,196.22,921,210Z"/><path class="cls-8" d="M917.13,209.4c-.71,4.22-2.06,7.51-3,7.36s-1.14-3.69-.43-7.91,2.06-7.51,3-7.36S917.84,205.18,917.13,209.4Z"/><polygon class="cls-9" points="868.16 151.21 868.11 151.22 868.06 151.37 868.16 151.21"/><path class="cls-9" d="M856.26,144.65l-6.75,1.18,4,1.29,2.36-.29-1.84,1,3.29,1,2.89-.94s-1.65,1.06-2.53,1.74l2.81.74,3.2-.83-3,1.51,2.46.47,5.31-.64.26-.85-2.56-4.19-1.26-.77.1,1.5-.44-1.48L857,141l1.38,2.95-1.86-2.77-4.48-3.11Z"/><path class="cls-10" d="M916.18,175a.49.49,0,0,1,.06.55.51.51,0,0,1-.69.21l-59.84-30.9a.49.49,0,0,1-.21-.67.51.51,0,0,1,.69-.21L916,174.85A.5.5,0,0,1,916.18,175Z"/><path class="cls-11" d="M855.5,144.16a.49.49,0,0,0,.21.67l59.84,30.9a.51.51,0,0,0,.69-.21L855.63,144A.5.5,0,0,0,855.5,144.16Z"/><path class="cls-11" d="M916.24,175.52a.48.48,0,0,0,0-.42Z"/><path class="cls-12" d="M919.34,177.1s-10.09-2-10.17-2.13-2.53-3.5-2.29-4.27,5.15-.64,5.15-.64Z"/><polygon class="cls-13" points="919.4 177.06 910.64 173.05 907.25 170.84 910.98 172.31 919.4 177.06"/><polygon class="cls-14" points="906.87 171.3 907.59 170.13 907.04 169.88 906.57 171.14 906.87 171.3"/><polygon class="cls-14" points="906.14 170.94 906.86 169.77 906.32 169.52 905.84 170.78 906.14 170.94"/><polygon class="cls-14" points="905.34 170.5 906.06 169.33 905.51 169.07 905.03 170.34 905.34 170.5"/><polygon class="cls-14" points="868.03 151.41 868.84 150.17 868.28 149.93 867.72 151.25 868.03 151.41"/><polygon class="cls-15" points="868.01 149.87 867.3 151.04 867.85 151.29 868.32 150.03 868.01 149.87"/><polygon class="cls-14" points="861.58 148.12 862.38 146.88 861.82 146.64 861.27 147.97 861.58 148.12"/><polygon class="cls-15" points="861.56 146.58 860.85 147.75 861.39 148.01 861.86 146.74 861.56 146.58"/><polygon class="cls-15" points="868.77 150.18 868.07 151.35 868.61 151.6 869.08 150.34 868.77 150.18"/><polygon class="cls-14" points="855.89 145.09 856.69 143.86 856.14 143.62 855.58 144.94 855.89 145.09"/><polygon class="cls-15" points="855.87 143.56 855.16 144.73 855.71 144.98 856.18 143.71 855.87 143.56"/><polygon class="cls-15" points="856.63 143.86 855.92 145.04 856.47 145.29 856.94 144.02 856.63 143.86"/><polygon class="cls-15" points="906.04 169.32 905.33 170.49 905.87 170.74 906.34 169.47 906.04 169.32"/><polygon class="cls-15" points="906.89 169.66 906.09 170.9 906.65 171.14 907.2 169.81 906.89 169.66"/><path class="cls-6" d="M921.68,175.61a2.72,2.72,0,0,0-2-.76,2.59,2.59,0,0,0-1.39.38,5.62,5.62,0,0,1-1.1,2.2,2.76,2.76,0,0,0,2.71,2.77,2.72,2.72,0,0,0,2,.76C925.42,181,925.12,175.71,921.68,175.61Z"/><polygon class="cls-9" points="867 230.28 866.97 230.31 867.02 230.44 867 230.28"/><path class="cls-9" d="M855.37,231.69l-4,4.18,3.44-1.11,1.47-1.37-.72,1.63,2.8-.94,1.5-2.08s-.58,1.55-.83,2.46l2.32-.89,1.77-2.16-1.29,2.55,1.94-.9,3.32-3.09-.27-.71-4-1.61-1.27.1.85,1-1.07-.8-7.33.89,2.5,1.34-2.73-1-4.71.09Z"/><path class="cls-10" d="M912.51,222.71a.42.42,0,0,1,0,.83l-57.39,8.54a.43.43,0,0,1-.5-.36.43.43,0,0,1,.36-.48l57.39-8.54A.45.45,0,0,1,912.51,222.71Z"/><path class="cls-11" d="M854.6,231.73a.43.43,0,0,0,.5.36l57.39-8.54a.43.43,0,0,0,.36-.48l-58.24,8.5A.41.41,0,0,0,854.6,231.73Z"/><path class="cls-11" d="M912.84,223.06a.42.42,0,0,0-.2-.3Z"/><path class="cls-16" d="M915.81,222.6s-8,3.62-8.12,3.6-3.58-1.14-3.81-1.8,3.21-3,3.21-3Z"/><polygon class="cls-13" points="915.82 222.54 907.69 224.15 904.2 224.31 907.54 223.47 915.82 222.54"/><polygon class="cls-14" points="904.18 224.82 904.06 223.66 903.55 223.75 903.89 224.86 904.18 224.82"/><polygon class="cls-14" points="903.49 224.94 903.37 223.77 902.86 223.87 903.2 224.98 903.49 224.94"/><polygon class="cls-14" points="902.7 225.03 902.59 223.87 902.08 223.96 902.41 225.07 902.7 225.03"/><polygon class="cls-14" points="867.02 230.48 866.92 229.22 866.41 229.34 866.73 230.53 867.02 230.48"/><polygon class="cls-15" points="866.2 229.43 866.33 230.59 866.83 230.49 866.49 229.38 866.2 229.43"/><polygon class="cls-14" points="860.85 231.43 860.76 230.18 860.25 230.29 860.56 231.48 860.85 231.43"/><polygon class="cls-15" points="860.03 230.38 860.16 231.54 860.67 231.44 860.33 230.34 860.03 230.38"/><polygon class="cls-15" points="866.88 229.26 867.01 230.42 867.52 230.32 867.18 229.22 866.88 229.26"/><polygon class="cls-14" points="855.35 232.18 855.26 230.93 854.75 231.04 855.06 232.23 855.35 232.18"/><polygon class="cls-15" points="854.53 231.13 854.66 232.29 855.16 232.19 854.83 231.09 854.53 231.13"/><polygon class="cls-15" points="855.22 230.96 855.34 232.12 855.85 232.03 855.51 230.92 855.22 230.96"/><polygon class="cls-15" points="902.57 223.87 902.69 225.03 903.2 224.93 902.86 223.83 902.57 223.87"/><polygon class="cls-15" points="903.33 223.68 903.43 224.93 903.94 224.81 903.62 223.63 903.33 223.68"/><path class="cls-7" d="M913.88,219.69a2.57,2.57,0,0,0-1.45.41,6.38,6.38,0,0,1,.43,4.63,2.85,2.85,0,0,0,1.33.32c1.5,0,3.07-1,3.23-2.07C917.64,221.47,915.91,219.69,913.88,219.69Z"/><path class="cls-17" d="M64.83,329.77a7.29,7.29,0,0,1,.16,2.54,3.7,3.7,0,0,1-1.11,2.17,6.17,6.17,0,0,1-2.18,1.24c-.81.29-1.66.51-2.5.75a12.8,12.8,0,0,0-2.5,1,6.78,6.78,0,0,0-2.07,1.76c-1.14,1.4-1.92,3-3.12,4.2a13.75,13.75,0,0,1-4.13,3,14.27,14.27,0,0,1-4.92,1.39,13,13,0,0,1-5.08-.4,7.09,7.09,0,0,1-2.26-1.07,4,4,0,0,1-1.43-1.93,5.19,5.19,0,0,1-.18-2.46,7.23,7.23,0,0,1,.83-2.38,26.42,26.42,0,0,1,3.13-4.14l13.26-15.64c.32.08.66.17,1,.23a26.67,26.67,0,0,0,4.45.51c1.92.08,3.84,0,5.73,0,.56,1.39,1,2.8,1.48,4.23q.39,1.26.76,2.52C64.38,328.09,64.64,328.93,64.83,329.77Z"/><path class="cls-17" d="M141.07,317.77l1,11.72a5.74,5.74,0,0,0,.62,2.54c.7,1.12,2,1.33,3.19,1.45l16.1,1.61,6.32.63a30.84,30.84,0,0,0,6.91.17,7.11,7.11,0,0,0,5.4-3,6.57,6.57,0,0,0-.72-7.55c-1.39-1.4-3.31-1.71-5.12-2l-10.44-1.45a14.87,14.87,0,0,1-4.83-1.24c-2.73-1.4-4.67-4.38-6.14-7.47"/><path class="cls-18" d="M238.39,118.32c-1.28.56-3.14.27-4.52.34a7.18,7.18,0,0,1-2.49,0,3.21,3.21,0,0,0-1.06-.35,2.85,2.85,0,0,0-.42-.07.24.24,0,0,0-.12,0c-.28,0-.56,0-.86,0a45.68,45.68,0,0,1-5-.26,3.34,3.34,0,0,0-2.41.33,1.18,1.18,0,0,0-.41.88s0,.06,0,.09v0c-.31.71.36,1.2.83,1.47l0,0a1.55,1.55,0,0,0-.32,1.62,1.76,1.76,0,0,0,.43.62h-.24a4.62,4.62,0,0,0-1.4,0,1.73,1.73,0,0,0-1.21.91,1.71,1.71,0,0,0,.34,1.77,4.16,4.16,0,0,0,1.39,1,10,10,0,0,0,1.38.55,11.58,11.58,0,0,1-8.78.18c-.58-.23-1.16-.51-1.73-.79a9.27,9.27,0,0,0-4.83-1.34,2.63,2.63,0,0,0-.69.16,62,62,0,0,0-1.35-8.4,5.64,5.64,0,0,0-.75-1.79,7.54,7.54,0,0,1,2.82-2.3,18.61,18.61,0,0,1,4.33-1.34c3.73-.79,8.1-1.45,12.24-.39.65.17,1.3.38,1.93.58s1.15.37,1.73.53a15.33,15.33,0,0,0,6.4.33c-.4,1.13-.76,2.31-2.06,2.84l-1.17.35a12.18,12.18,0,0,1-4.18-.05l-1.44-.25a24.93,24.93,0,0,0-3.6-.47c-2.05-.06-4.47-.7-6.71.22l.2.49c2.17-.89,4.53-.24,6.49-.18a24.52,24.52,0,0,1,3.52.46l1.45.25a11.45,11.45,0,0,0,5.14-.14l.4-.15a23.18,23.18,0,0,1,2.67-.59,9,9,0,0,1,3,0,2.26,2.26,0,0,1,1.7.84A1.49,1.49,0,0,1,238.39,118.32Z"/><path class="cls-19" d="M129.57,267.15a2.36,2.36,0,0,0-.19-1.12,3.84,3.84,0,0,0-.58-.88,16.4,16.4,0,0,0-1.35-1.3,8.77,8.77,0,0,1-1.18-1.25,8.35,8.35,0,0,1-.45-.73c-.15-.26-.28-.51-.41-.78a17.78,17.78,0,0,1-1.23-3.33c-.34-1.17-.69-2.34-1.1-3.5a29.37,29.37,0,0,0-1.45-3.41,35.89,35.89,0,0,1-1.5-3.26c-.44-1.11-.82-2.25-1.16-3.4-.17-.58-.32-1.15-.47-1.74L118,240.7l-1.94-7a15.44,15.44,0,0,0-1.24-4.17l-1.92-4.29a13.47,13.47,0,0,0-2.61-4,4.81,4.81,0,0,0-2.09-1.23,5.72,5.72,0,0,0-2.4,0,9.56,9.56,0,0,0-4.38,1.81,6.36,6.36,0,0,0-.89.83,7.35,7.35,0,0,0-.71,1,15.9,15.9,0,0,0-1.14,2.1c-.67,1.44-1.13,3-1.7,4.39a19.12,19.12,0,0,0-1.23,4c-2,5.44-3.95,10.9-6.22,16.21-1.13,2.66-2.36,5.29-3.7,7.85-.32.64-.69,1.28-1,1.92a7.41,7.41,0,0,0-.65,2.19,5.44,5.44,0,0,1-.62,1.91,2,2,0,0,1-.64.63.91.91,0,0,1-.36.14H82.4a.2.2,0,0,1-.12-.05l-.57-.45a3.65,3.65,0,0,0-.19.72l-.15.67-.21.93c-.14.62-.27,1.24-.42,1.85-.31,1.23-.59,2.47-.92,3.69s-.64,2.45-1,3.67-.7,2.44-1.06,3.65c-1.46,4.86-3.1,9.67-4.86,14.43s-3.63,9.48-5.58,14.17l-1.48,3.51-.75,1.76a9.8,9.8,0,0,0-.58,1.84c-.47,2.21-.45,4.45-.71,6.63-1,0-2,0-3.07.06-1.91.06-3.8.13-5.69.06a25.49,25.49,0,0,1-4.3-.47c-.35-.06-.7-.15-1-.24l-.26-.06-.31-.07a5,5,0,0,0-.61-.07c-.39,0-.77,0-1.12,0a2.71,2.71,0,0,1-.46,0l-.07,0h0a.36.36,0,0,1,0-.09.7.7,0,0,1,0-.18,2.33,2.33,0,0,1,.09-.43,9.14,9.14,0,0,1,.33-.94c.26-.64.55-1.28.77-2,.05-.18.1-.36.14-.56l.09-.53q.08-.53.14-1.05c.08-.71.14-1.4.19-2.11.11-1.39.2-2.78.43-4.13a36.22,36.22,0,0,1,.91-4c.74-2.67,1.71-5.29,2.55-8,.42-1.34.81-2.7,1.12-4.08s.54-2.76.76-4.14.41-2.77.65-4.13a32.42,32.42,0,0,1,1-4c.81-2.65,1.89-5.24,2.65-8a64.77,64.77,0,0,1,2.6-7.92,20.18,20.18,0,0,1,.91-1.85,9.4,9.4,0,0,0,.93-2c0-.18.09-.36.12-.54l0-.27a.89.89,0,0,0,0-.15.69.69,0,0,0,0-.21,2.8,2.8,0,0,0-.18-.56,1,1,0,0,1,0-.14.2.2,0,0,1,0-.1.18.18,0,0,1,.16-.1l.19,0a1.24,1.24,0,0,0,.37,0,.52.52,0,0,0,.24-.11l.08-.07a.13.13,0,0,1,.09,0h.13a.48.48,0,0,0,.3-.13,1,1,0,0,0,.24-.35.72.72,0,0,0,0-.37,1.94,1.94,0,0,0-.06-.27c0-.16-.09-.31-.14-.46l-.14-.43-.13-.45a5.42,5.42,0,0,1-.3-1.74,14.31,14.31,0,0,1,.63-3.58c.71-2.35,1.82-4.59,2.6-7,.39-1.21.67-2.4,1-3.59s.74-2.37,1.14-3.54c.81-2.35,1.69-4.67,2.6-7S74,225.26,75,223s2-4.55,3-6.85c.47-1.15.93-2.32,1.35-3.49s.75-2.38,1.1-3.57a22.87,22.87,0,0,1,2.82-6.81l-.14-.1-.15-.11h0l.69.26h0a43.74,43.74,0,0,0,9.28,2.15,107.25,107.25,0,0,0,13.09.61,108.39,108.39,0,0,0,13.11-.07,29.09,29.09,0,0,0,6.48-1.3,19.65,19.65,0,0,0,5-2.49l-.29.2a12.83,12.83,0,0,1,1.48,2.45c.57,1.06,1.13,2.14,1.62,3.24a63.78,63.78,0,0,1,2.48,6.82c.74,2.31,1.46,4.64,2.4,6.89.23.57.49,1.12.74,1.68l.8,1.63a23.42,23.42,0,0,1,1.3,3.37c1.41,4.62,1.63,9.53,2.91,14.25.63,2.35,1.39,4.66,1.93,7a25.82,25.82,0,0,1,.58,3.56,11.81,11.81,0,0,1-.15,3.55c-.26,1.16-.68,2.31-.89,3.54a5.75,5.75,0,0,0,0,1.9,8.8,8.8,0,0,0,.58,1.79,16,16,0,0,1,.63,1.67c.15.56.28,1.17.42,1.76l.82,3.54c1.1,4.73,2.18,9.46,3,14.23.43,2.38.83,4.78,1.11,7.17s.37,4.83.74,7.26a25.79,25.79,0,0,0,.81,3.59c.37,1.17.75,2.31,1.14,3.47.78,2.3,1.6,4.6,2.55,6.84a19.41,19.41,0,0,0,1.95,3.13,4.13,4.13,0,0,1,.2.36c0,.05,0,.11.06.16s0,0,0,.08a.11.11,0,0,1,0,.07l0,0-.06.06a2.18,2.18,0,0,1-.32.23,9.55,9.55,0,0,1-1.59.72c-1.12.41-2.29.7-3.46,1.16s-2.27.82-3.42,1.18-2.32.69-3.48,1a19.07,19.07,0,0,1-3.52.56,2.82,2.82,0,0,1-1.56-.24,1.29,1.29,0,0,1-.49-.5,3.87,3.87,0,0,1-.29-.76c-.28-1.12-.42-2.36-.77-3.56-.17-.59-.39-1.2-.61-1.76l-.67-1.69c-.43-1.13-.86-2.26-1.24-3.41s-.72-2.29-1-3.46-.47-2.36-.71-3.56c-1-4.78-2.24-9.47-3.44-14.17-.59-2.35-1.17-4.71-1.66-7.07s-.82-4.76-1.36-7.17a18.44,18.44,0,0,0-.6-1.77,10.52,10.52,0,0,1-.51-1.66,2.93,2.93,0,0,1,.17-1.55A7.27,7.27,0,0,0,129.57,267.15Z"/><path class="cls-20" d="M68.8,107.69l.82,1a15.11,15.11,0,0,0,3.86,3.4,9.94,9.94,0,0,0,2.41,1l.25.06.14,0s0,0,0,0l-.06,0-.12.08-.45.33-.51.38c-.34.26-.67.53-1,.81q-1,.82-1.89,1.72c-2.47,2.37-4.32,5.25-6.66,7.57-1.18,1.15-2.45,2.25-3.74,3.3l-.08.06c-.95.76-1.91,1.5-2.9,2.19a33.65,33.65,0,0,1,3.46-1.34c1.56-.51,3.15-.94,4.76-1.31s3-.63,4.54-.84,3-.31,4.6-.38,3.1-.14,4.66-.34,3.08-.51,4.6-.85c2.76-.63,5.48-1.36,8.26-1.74a7.79,7.79,0,0,0,.52,2.59c2,4.65,5.85,8.29,9.24,11.5l4.83,4.56a2.86,2.86,0,0,0,1.77.95,1.31,1.31,0,0,0,.44-.08,2.22,2.22,0,0,0,1.16-1.36c.4-.93.75-1.89,1.1-2.82.43-1.19.89-2.42,1.45-3.58.35-.72.75-1.46,1.14-2.17,1.38-2.53,2.81-5.14,2.38-7.88a18.79,18.79,0,0,1,4,.85,22,22,0,0,0,3.71.84,22.15,22.15,0,0,0,4-.08l33.77-2.85a48.18,48.18,0,0,0,7.12-1,48,48,0,0,0,5.58-1.81c1.31-.48,2.66-1,4-1.38a33.2,33.2,0,0,1,4.53-1h0c1.78-.22,2.08-.25,3.54-.33.56,0,1.11,0,1.67,0l1.42,0c3.32.09,6.75.19,9.17-2l.25-.24a2.42,2.42,0,0,1,1.26-.81,1.17,1.17,0,0,1,1,.45,2.77,2.77,0,0,1,.34.47,5.59,5.59,0,0,1,.54,1.44,62.55,62.55,0,0,1,1.36,8.65c0,.23,0,.47.06.7,0,.52.07,1,.1,1.57a28,28,0,0,0-8.16,1.11,29,29,0,0,0-5.46,2.77l-1.17.69c-14.62,8.56-32.09,10.91-47.32,12.45-4.85.49-9.6,1.48-11.49,5.41a13.39,13.39,0,0,0-.93,5.38c0,.28,0,.55,0,.82a80.54,80.54,0,0,1-1.28,10,65.77,65.77,0,0,0-1.32,12.23,66,66,0,0,0,.65,7.24c.41,3.25.75,5.45,1.07,7.58s.62,4.13,1,7.14l0,0a18.22,18.22,0,0,1-5.51,3.16,28,28,0,0,1-6.27,1.46,107.67,107.67,0,0,1-13,.45,106.3,106.3,0,0,1-13-1,42,42,0,0,1-9.67-2.65,8.87,8.87,0,0,1-.21-3.54c.34-1.15.83-2.28,1.25-3.47a33.37,33.37,0,0,0,1.44-7.38,89.78,89.78,0,0,0,.4-14.91,22.24,22.24,0,0,0-.46-3.75,18.09,18.09,0,0,0-1.26-3.57c-1.07-2.26-2.2-4.44-3.3-6.67l-3.31-6.64a33.45,33.45,0,0,0-1.8-3.31A9.9,9.9,0,0,0,75,147.53a2.86,2.86,0,0,0-1.11-.93l-.72,0q-3.29.17-6.57.39c-5.12.35-10.23.81-15.34,1.31l-3.83.39-1.91.2a6.67,6.67,0,0,1-1.82.06c-.54-.09-.89-.54-1.23-1.09s-.68-1.1-1-1.65a31.85,31.85,0,0,1-1.78-3.41,15.43,15.43,0,0,1-1.12-3.65,10.67,10.67,0,0,1,.06-3.78,24.73,24.73,0,0,1,3-7h0a171,171,0,0,1,11.93-12.49,23.41,23.41,0,0,1,3.41-2.82c1.22-.86,2.46-1.67,3.69-2.52s2.45-1.72,3.61-2.7a18.55,18.55,0,0,0,1.66-1.56c.28-.26.5-.58.75-.87a1.91,1.91,0,0,0,.21-.28l.14-.2s.6,1,1,1.71c.12.19.2.35.37.57Z"/><path class="cls-21" d="M130.84,98.66a2.61,2.61,0,0,0,0-1.78,12.45,12.45,0,0,0-.86-1.82,20.68,20.68,0,0,1-2.12-8.24,73.29,73.29,0,0,1,0-8.17c-1-.2-2.07-.36-3.12-.5a27.23,27.23,0,0,0-3-.25l-3-.08q-4.34-.09-8.67-.12l.14.07.15.08a38.68,38.68,0,0,0-2.63,6.5q-.51,1.68-.86,3.4c-.06.28-.12.57-.17.85l-.08.46c-.05.26-.08.52-.13.79l-.24,1.63-.12.83,0,.21,0,.14-.06.28-.45-1.7-.21-.78a2,2,0,0,0-.12-.32l-.11-.29a5.89,5.89,0,0,0-.4-.79,5.57,5.57,0,0,0-.32-.46,6.71,6.71,0,0,0-.73-.81h0l0,0a6.27,6.27,0,0,0-.86-.67h0a4.57,4.57,0,0,0-1-.23,4.75,4.75,0,0,0-2.35.32,4.54,4.54,0,0,0-1,.59,3,3,0,0,0-.76.86,2.46,2.46,0,0,0-.24,2.2,6.43,6.43,0,0,0,1.56,1.93,6.67,6.67,0,0,1,.88,1.06,5.26,5.26,0,0,1,.56,1.26,7.58,7.58,0,0,0,.93,2.36,2.44,2.44,0,0,0,.94.74,1.3,1.3,0,0,0,1.12,0l.08.15.09.16a1.56,1.56,0,0,1-.82.19,9,9,0,0,1-.89,2.37,14.21,14.21,0,0,0-.93,2.1,2.41,2.41,0,0,1,.54.39,3.87,3.87,0,0,1,.81,1.34,11.12,11.12,0,0,1,1,6.09l-.05,2.87a1.62,1.62,0,0,1-.08.52,1,1,0,0,1-1,.61h0a1.64,1.64,0,0,1-1-.42,4,4,0,0,1-1.23-2.36l0-.26-.27,0a2.2,2.2,0,0,1,0,.56c0,.11,0,.18-.08.31a.78.78,0,0,1-.09.17l-.07.08-.13.16-.13.16a.81.81,0,0,1-.29.24.72.72,0,0,1-.7-.14l-.13-.13a1.71,1.71,0,0,1-1,.64c.35,2.14.38,5-.64,6.46a10.74,10.74,0,0,1-1.71,1.71l-.23.19c-.53.47-.53.64-.53.71a8.4,8.4,0,0,0,.62,2.59c2,4.5,5.77,8.11,9.13,11.25l4.83,4.56c.48.45,1.65,1.06,2.21.87a4.76,4.76,0,0,0,1.61-1.62c.4-.91.59-2.4.93-3.31.44-1.19,1.23-2.89,1.8-4.06.35-.72.62-1.16,1-1.87,1.4-2.54,2.47-4.28,1.88-7a10.41,10.41,0,0,1-6.58-3.36,6,6,0,0,0-1.07,1.33c-.7,1.16-1.11,1-.38-.23a7.48,7.48,0,0,1,3.16-2.87,14.47,14.47,0,0,1,4.06-1.29c2.78-.48,5.61-.45,8.23-1.28,1.27-.43,2.66-.93,3.12-2.15a19.4,19.4,0,0,0,1.08-4c.11-.68.18-1.36.23-2,0-.34,0-.69,0-1s0-.69,0-1.08a2.62,2.62,0,0,1,.39-1.13,1.8,1.8,0,0,0,.32-.81,5,5,0,0,0-.56-1.83,3.07,3.07,0,0,1-.23-1.17,2.91,2.91,0,0,1,.3-1.16C130.21,99.79,130.64,99.23,130.84,98.66ZM94.56,122.51h0Z"/><path class="cls-21" d="M102.27,106.66a14.47,14.47,0,0,1,.34,4.25l-.05,2.87a1.11,1.11,0,0,1,0,.34.49.49,0,0,1-.5.28,1.16,1.16,0,0,1-.67-.3,3.54,3.54,0,0,1-1-2.06,7.12,7.12,0,0,1-.1-1.08,5,5,0,0,0-.29-1.78l-.28-.64a8,8,0,0,0-1.06-2,3.82,3.82,0,0,0-1.82-.94,2.34,2.34,0,0,1-1.1-.51l0,0a15.17,15.17,0,0,0-1.23-1.3,16.12,16.12,0,0,0-2.72-1.95l-.08.13-.08.14a15.36,15.36,0,0,1,2.6,2,14.27,14.27,0,0,1,1.16,1.29l0,0,.1.09a13,13,0,0,1,.8,1.14,30.55,30.55,0,0,1,1.55,2.9c.26.52.57,1,.8,1.45a2.09,2.09,0,0,1,.28,1.38c0,.06,0,.16,0,.19h0l-.06.07-.12.16-.13.16v0s0,0,0,0a.79.79,0,0,1-.2-.21c-.31-.45-.63-.89-1-1.32A31.25,31.25,0,0,0,95,108.94a30.15,30.15,0,0,0-5-4.17l-.09.14-.08.12a29.33,29.33,0,0,1,6.86,6.75c.28.38.53.76.79,1.15-1.08.94-2.53-.08-3.66-.64s-2.18-1.16-3.23-1.8c-1.66-1-2.81-1.38-4.58-.43a10.53,10.53,0,0,1-7.6,1c-1.93-.49-3.7-1.38-5.66-.52h0a17.57,17.57,0,0,1-2.57-2.44l-.82-.94-.4-.47-.31-.49-.42-.7A31.48,31.48,0,0,1,72.9,103c2.19-1,4.45-2,6.72-2.86.52-.2,1.06-.4,1.62-.58a12.6,12.6,0,0,1,1.45-.39,18.17,18.17,0,0,1,2.55-.3c1.44-.1,2.9-.16,4.33-.19a4.47,4.47,0,0,1,1.67.21c.16.08.3.18.45.27l.14.13,0,0,.45.32c.25.18.5.37.77.54l.59.38c.31.21.64.43,1,.62A17.6,17.6,0,0,0,97,102.16l2.79,1.08c.17.07.34.13.5.21a2.24,2.24,0,0,1,.65.41,3.43,3.43,0,0,1,.69,1.17A15.22,15.22,0,0,1,102.27,106.66Z"/><path class="cls-22" d="M191.66,131.6a29.08,29.08,0,0,1,5.46-2.74,28.25,28.25,0,0,1,8.16-1.1c0-.52-.06-1-.1-1.55,0-.23,0-.46-.06-.69,0-.39-.08-.77-.12-1.15a106,106,0,0,0-11.89,2.83c-3.91,1-15.32,5.86-22.81,8.42s-13.36,4-25.09,4.8-15,0-16.91,4.59c-1.22,2.93.53,10.64,2,15.89.22-1.61.4-3.22.47-4.83,0-.27,0-.53,0-.81a13.12,13.12,0,0,1,.93-5.32c1.89-3.88,6.63-4.87,11.49-5.35,15.23-1.52,32.7-3.85,47.32-12.31Z"/><path class="cls-22" d="M74.21,146.34a2.36,2.36,0,0,1,.75.71,9.81,9.81,0,0,1,1.16,1.46,33,33,0,0,1,1.8,3.27l3.31,6.57c1.1,2.2,2.22,4.35,3.3,6.59a17.76,17.76,0,0,1,1.26,3.53,21.76,21.76,0,0,1,.46,3.71,87.8,87.8,0,0,1-.4,14.75,32.67,32.67,0,0,1-1.44,7.3c-.42,1.18-.91,2.3-1.25,3.43a8.68,8.68,0,0,0,.21,3.51c.5.21,1,.4,1.51.58.5-2,1.61-4.1,2.58-7.15a91.18,91.18,0,0,0,3.22-19.39c.24-6.13-2.81-13.45-5.46-20.69C82.71,147.66,80.22,143.43,74.21,146.34Z"/><path class="cls-23" d="M68.7,120.55a2.67,2.67,0,0,1,.47-.57,5.21,5.21,0,0,1,1-1.39c.71-.7,1.39-1.36,2.09-2.08a4.52,4.52,0,0,1,.45-.39,7.8,7.8,0,0,1,.73-.67,30.28,30.28,0,0,1,2.82-2.28,2,2,0,0,1-.93-.28,9.22,9.22,0,0,1-2.14-1c-1.54,1.94-9.29,11.52-16.46,17.27-1.62,1.3-6.86,8.65-6.86,8.65s6.71-6.24,6.93-6.4,7.6-6.15,7.6-6.15l4.14-4.45A1.93,1.93,0,0,1,68.7,120.55Z"/><g class="cls-24"><path class="cls-25" d="M111.18,148.64c-.26.16-.47.36-.24.57s.3.56,1.08.59c1.21,0,2.43.06,3.64.07.1,0,.18,0,.21-.08l.61,0c0,.1.13.11.28.1l.17.09c0,.15.16.2.4.23l0,.08c-.05.1,0,.16.21.19t.07,0c0,.08.05.15.22.18l.34.27a.9.9,0,0,0,.52.4c0,.14.16.25.42.3h0s0,0,0,0a17.33,17.33,0,0,0,3,2.36c.17.11.43.25.29.36-.43.35-.45.76-.77,1.13s-.43.19-.72,0-.38-.36-.84-.37c0-.25-.52-.29-.74-.44s-.6-.45-1-.64c-.1-.25-.43-.34-.88-.34,0-.14,0-.28-.33-.34h0c0-.23-.38-.28-.66-.37a.92.92,0,0,0-.86-.39c-.1-.3-.61-.45-.92-.67a3.36,3.36,0,0,0-.83-.44c0-.09,0-.17-.25-.18,0-.1-.16-.14-.27-.21-.5-.29-.61-.29-1,.06s-.77.59-1.09.9-1.12.59-.92,1.06c-.42.08-.69.21-.66.47s-.63.11-.34.29a7.81,7.81,0,0,1,1,1c.72.61,1.38,1.24,2.09,1.86s1.42,1.12,2,1.71,1.64,1,.51,1.6h0a3.51,3.51,0,0,1-1.63-.28,3.43,3.43,0,0,0-2.4-.05,2,2,0,0,1-1.3,0,3.87,3.87,0,0,0-2.77,0,1.06,1.06,0,0,1-1,0,3.19,3.19,0,0,0-2.14,0,4.83,4.83,0,0,1-1.82.26l-.17-.08c-.36-.36-.19-.68.22-1,.05,0,.06-.09.09-.14s.05,0,.06,0a2.66,2.66,0,0,0,.72-.62l.21-.15a12.43,12.43,0,0,0,2.52-2.16h0c.2,0,.21-.09.25-.17h0a2.69,2.69,0,0,0,.73-.51,2.79,2.79,0,0,1,.88-.74c.69-.4.76-.52.22-1-.07-.2-.09-.41-.64-.4,0-.5-.61-.86-1.13-1.22-.18-.12-.27-.19-.22-.33.16-.38-.59-.39-.92-.55s-.56.1-.74.25a3.16,3.16,0,0,0-.26.26l-1,.42c-.11.08-.31.12-.34.23h0c-.28.07-.55.14-.59.33l0,.13c-.54,0-.63.17-.74.37-.64,0-.77.39-1.29.49a.81.81,0,0,0-.74.41.87.87,0,0,0-.6.31,1.12,1.12,0,0,0-.53.31c-.18.1-.51.1-.6.26l-.42,0c.08-.25.15-.43.64-.64a12.54,12.54,0,0,0,2.19-1.1,2.75,2.75,0,0,1,.87-.45,4,4,0,0,0,.89-.4,22.21,22.21,0,0,1,2.48-1.3c.25-.11.36-.26.24-.43a.69.69,0,0,0-.63-.3c-.7,0-1.39.11-2.1,0a.74.74,0,0,0-.56.2,5.2,5.2,0,0,1-1.2,1c-.71.47-1.39.95-2.06,1.43a12.76,12.76,0,0,1-1.47,1.09c-.44.24-.35.44-.21.67s.5.29.94.24l.05.25a2.69,2.69,0,0,1-.61.34c-.2.06-.38.32-.72.09.13-.16-.08-.27-.21-.39h0a.88.88,0,0,0-.45-.72l-.09-.22a9.92,9.92,0,0,0,3-2.12s0,0,.05,0a.45.45,0,0,0,.28-.15q.12,0,.09-.11h0l.09-.13a.85.85,0,0,0,.25,0c.53-.5,1.43-.86,1.91-1.38.17,0,.13-.12.15-.19.17,0,.13-.05.14-.1a3.36,3.36,0,0,1,.85,0,1.84,1.84,0,0,0,.73,0l2.28,0a3.83,3.83,0,0,0,2.45-.34c.28-.21.18-.38-.09-.52a.81.81,0,0,0-.82.07.62.62,0,0,1-.8.07l-.07-.14c-.11-.28-.07-.58-.38-.83v-.09a3.54,3.54,0,0,0,2.31-1h.7a16.21,16.21,0,0,0,1.9,0l.42,0c.27.19.52.38.83.55m-.51,11.78h0l0,0a2.12,2.12,0,0,0,.67-.21h.29a.5.5,0,0,0,.3,0l1.16.06c.24,0,.53.11.69,0s-.05-.22-.26-.3-.06-.09-.11-.13a12.86,12.86,0,0,0-1.56-1.34l-.06-.11a13,13,0,0,0-2.38-2,1.16,1.16,0,0,0-.47-.62.31.31,0,0,0-.43,0c-.29.29-.84.51-.93.86-.13,0-.3,0-.35.16a2.65,2.65,0,0,1-.73.75c-.27.24-.69.45-.75.75q-.05,0,0,0c-.14,0-.23.1-.2.19l-.09.1a1.52,1.52,0,0,0-.8.64h0c-.61.21-.74.58-1.12.87-.12.09-.4.18-.29.26s.4,0,.62,0A1.77,1.77,0,0,0,104,159h.67a.46.46,0,0,0,.31,0l.73.1a1,1,0,0,0,.71.25l.07.09,0,0v0l.19,0c.2-.06.48-.06.57-.2a5.85,5.85,0,0,1,1.46-.16.49.49,0,0,0,.3,0l1.23.22A.21.21,0,0,0,110.59,159.27Zm3.58-9.11c-.51,0-.87.1-.91.24s.19.28.49.35a.59.59,0,0,1,.29.14,22.41,22.41,0,0,0,3,1.9c.45.29,1,.52,1.47.8.7.45,1.53.84,2.19,1.3.11.08.48.29.75.06s.37-.38.28-.63-.46-.33-.64-.51a12.83,12.83,0,0,0-1.76-1.35c-.73-.5-1.38-1-2.08-1.55a2.32,2.32,0,0,0-1.66-.73A7.9,7.9,0,0,1,114.17,150.16Zm-8.34-1.72a5.17,5.17,0,0,1,1.91,0c.75.45.06.83-.29,1.25a17.54,17.54,0,0,0,2.63-.06c.29,0,.29-.17.22-.23-.57-.44.06-.7.52-1,.24-.15.45-.35.15-.53s-.83-.35-1-.64c0-.08-.23,0-.36,0-.46,0-1,.12-1.3.08a1.39,1.39,0,0,0-.86.11,5.66,5.66,0,0,0-.89.42A7.44,7.44,0,0,0,105.83,148.44Z"/><path class="cls-26" d="M102.07,158.8s0,.1-.09.14c-.41.31-.59.63-.22,1"/><path class="cls-27" d="M114.17,150.16a7.9,7.9,0,0,0,1.38,0,2.32,2.32,0,0,1,1.66.73c.71.51,1.35,1,2.08,1.55a12.83,12.83,0,0,1,1.76,1.35c.18.18.55.27.64.51s-.07.45-.28.63-.64,0-.75-.06c-.66-.47-1.49-.85-2.19-1.3-.43-.28-1-.51-1.47-.8a22.41,22.41,0,0,1-3-1.9.59.59,0,0,0-.29-.14c-.3-.07-.55-.15-.49-.35S113.67,150.17,114.17,150.16Z"/><path class="cls-27" d="M96.91,154.67c-.44.05-.8,0-.94-.24s-.23-.43.21-.67a12.76,12.76,0,0,0,1.47-1.09c.67-.48,1.35-1,2.06-1.43a5.2,5.2,0,0,0,1.2-1,.74.74,0,0,1,.56-.2c.71.08,1.4-.06,2.1,0a.69.69,0,0,1,.63.3c.12.17,0,.33-.24.43a22.21,22.21,0,0,0-2.48,1.3,4,4,0,0,1-.89.4,2.75,2.75,0,0,0-.87.45,12.54,12.54,0,0,1-2.19,1.1c-.49.21-.56.39-.64.64Z"/><path class="cls-27" d="M105.83,148.44a7.44,7.44,0,0,1,.74-.6,5.66,5.66,0,0,1,.89-.42,1.39,1.39,0,0,1,.86-.11c.32,0,.84-.09,1.3-.08.13,0,.32-.05.36,0,.14.3.64.43,1,.64s.09.38-.15.53c-.46.29-1.09.54-.52,1,.07.06.07.21-.22.23a17.54,17.54,0,0,1-2.63.06c.35-.41,1-.79.29-1.25A5.17,5.17,0,0,0,105.83,148.44Z"/><path class="cls-28" d="M108.09,157.16c0-.09,0-.17-.16-.23,0-.2-.58-.31-.27-.56s.18-.43.25-.64,0-.35-.41-.39c.08-.35.64-.57.93-.86a.31.31,0,0,1,.43,0,1.16,1.16,0,0,1,.47.62c-.37.52-.09,1,.17,1.52l-.26.14c-.46.12-.38.32-.25.52l-.15.1c-.09,0-.12,0-.11.06h0C108.27,157.49,108.3,157.26,108.09,157.16Z"/><path class="cls-28" d="M112.52,155.16c-.06-.25-.46-.37-.76-.52a14.69,14.69,0,0,0-2.06-1c0-.25.25-.39.67-.47l.31.08a27.7,27.7,0,0,1,3,1.63c.15.12,0,.18-.1.26a.57.57,0,0,1-.51.15Z"/><path class="cls-28" d="M106.39,153.32c.17,0,.24-.07.27-.15.21,0,.27-.09.38-.14.55,0,.57.2.64.4-.53.28-1.1.55-1.57.85s-1,.46-1.21.79l0,0-.42.08c-.82-.23-.83-.24-.23-.59s1.08-.6,1.63-.9C106,153.56,106.44,153.54,106.39,153.32Z"/><path class="cls-28" d="M104.67,152.06c.27.23.27.54.72.72.14.24-.25.37-.49.49a.47.47,0,0,1-.63-.15,5.29,5.29,0,0,0-1.18-1c0-.12-.15-.19-.31-.26l1-.42a3.29,3.29,0,0,0,.86.56A.11.11,0,0,0,104.67,152.06Z"/><path class="cls-28" d="M112.72,153.34c-.49-.18-1-.32-.34-.69A1.41,1.41,0,0,0,113,152h0c.33,0,.37-.2.55-.31l.31-.14a3.36,3.36,0,0,1,.83.44c-.41.34-1,.64-1.12,1.05h0C113.22,153.08,113.2,153.38,112.72,153.34Z"/><path class="cls-28" d="M101.24,153.18l-.16-.25c.11-.2.21-.4.74-.37a4.89,4.89,0,0,1,1.57,1.23c.24.21-.23.36-.52.47s-.35-.1-.51-.17-.24-.36-.58-.46C101.72,153.44,101.46,153.32,101.24,153.18Z"/><path class="cls-28" d="M100.12,154.88a2.14,2.14,0,0,0-.8-.72.62.62,0,0,0-.28-.33.81.81,0,0,1,.74-.41c.51.41,1,.82,1.51,1.25.16.14.32.31-.05.48-.63.3-.68-.11-1-.19Z"/><path class="cls-28" d="M115.93,153.56l-.07.07c-.32.11-.49.25-.46.46l-.09.08c-.17,0-.27,0-.24.13l0,.09-.11,0-.43-.08-.14,0c-.34-.14-.37-.33-.32-.53l.11-.07h0c.2,0,.28-.11.29-.21l.15-.15c.52-.16.67-.47,1-.69a.92.92,0,0,1,.86.39C116.38,153.23,115.94,153.33,115.93,153.56Z"/><path class="cls-28" d="M118.38,154.09l-1,.74c-.15.11-.33.22-.25.37s0,0,0,0a1.51,1.51,0,0,1-1,0c-.42-.41.33-.62.58-.91s.41-.26.48-.44c.19,0,.25-.11.37-.17C117.94,153.76,118.28,153.84,118.38,154.09Z"/><path class="cls-28" d="M99.54,155.8c-.22.28-.54.21-.87.07s-.28-.26-.57-.31-.24-.45-.67-.58c.1-.11-.06-.19-.12-.29s.42-.16.6-.26c.63.36.92.84,1.48,1.22,0,.06,0,.1.12.1S99.52,155.79,99.54,155.8Z"/><path class="cls-26" d="M102.13,158.76"/><path class="cls-26" d="M99,153.82a.62.62,0,0,1,.28.33c-.29-.06-.6.17-.88,0A.87.87,0,0,1,99,153.82Z"/><path class="cls-26" d="M97.31,154.7c.06.09.22.18.12.29a.85.85,0,0,1-.47-.07l-.05-.25h0Z"/><path class="cls-26" d="M102.45,152.1c.15.28-.2.31-.59.33C101.9,152.24,102.17,152.17,102.45,152.1Z"/><path class="cls-26" d="M105.7,159.05c.37,0,.6.06.71.25A1,1,0,0,1,105.7,159.05Z"/><path class="cls-26" d="M110.59,159.27c.06-.21.31-.25.67-.21A2.12,2.12,0,0,1,110.59,159.27Z"/><path class="cls-26" d="M102.8,151.86c.16.07.32.13.31.26l-.64,0C102.49,152,102.68,151.94,102.8,151.86Z"/><path class="cls-26" d="M118.72,151.32c.42,0,.5.12.42.3C118.88,151.57,118.76,151.46,118.72,151.32Z"/><path class="cls-26" d="M113.88,151.54l-.31.14c-.33-.12.13-.21.05-.32C113.84,151.37,113.87,151.45,113.88,151.54Z"/><path class="cls-26" d="M106.67,159.37c0-.22.3-.2.57-.2C107.15,159.31,106.87,159.31,106.67,159.37Z"/><path class="cls-26" d="M116.93,149.94c.25,0,.4.09.4.23C117.09,150.15,116.9,150.09,116.93,149.94Z"/><path class="cls-26" d="M98.16,151.7a.44.44,0,0,1-.28.15"/><path class="cls-26" d="M111.55,159a.21.21,0,0,1,.3,0A.5.5,0,0,1,111.55,159Z"/><path class="cls-26" d="M108.7,159a.21.21,0,0,1,.3,0A.49.49,0,0,1,108.7,159Z"/><path class="cls-26" d="M110.23,159.26h.36A.21.21,0,0,1,110.23,159.26Z"/><path class="cls-26" d="M104.66,159c.07-.11.18-.12.31,0A.46.46,0,0,1,104.66,159Z"/><path class="cls-26" d="M104.1,159c-.06,0-.13-.08-.06-.13a.41.41,0,0,1,.12,0l0,.14h-.08Z"/><path class="cls-26" d="M117.65,150.47c.2,0,.26.08.22.18S117.65,150.55,117.65,150.47Z"/><path class="cls-26" d="M116.48,149.76c.22-.06.26,0,.28.1C116.61,149.87,116.49,149.86,116.48,149.76Z"/><path class="cls-26" d="M105.59,155.83c-.05-.11,0-.18.25-.17C105.8,155.74,105.79,155.82,105.59,155.83Z"/><path class="cls-26" d="M105.62,157c.09.11,0,.17-.2.19C105.39,157.14,105.48,157.08,105.62,157Z"/><path class="cls-26" d="M117.37,150.25c.21,0,.24.09.21.19C117.37,150.41,117.31,150.34,117.37,150.25Z"/><path class="cls-26" d="M98.25,151.59h0l0,0,0,0Z"/><polygon class="cls-26" points="106.49 159.39 106.48 159.39 106.47 159.43 106.49 159.39"/><path class="cls-26" d="M115.07,154.29c0-.1.06-.14.24-.13C115.31,154.24,115.24,154.3,115.07,154.29Z"/><path class="cls-26" d="M113,152l-.06,0h0l0,0Z"/><path class="cls-26" d="M114.91,154.44l.11,0Z"/><path class="cls-26" d="M114.33,154.3l.14,0Z"/><path class="cls-26" d="M114.13,153.7l-.11.07Z"/><path class="cls-26" d="M101.24,153.18c.22.14.48.26.53.45"/><path class="cls-26" d="M99.52,155.76c-.14,0-.15,0-.12-.1Z"/><path class="cls-26" d="M100.12,154.88l.12.08C100.15,155,100.11,154.93,100.12,154.88Z"/><path class="cls-29" d="M111.53,147.26"/><path class="cls-29" d="M122.65,153.78l-.07,0,.05,0Z"/><path class="cls-26" d="M108.71,157.45s0-.07.11-.06Z"/></g><path class="cls-30" d="M51.49,343.4c1.2-1.23,2-2.8,3.12-4.2a6.78,6.78,0,0,1,2.07-1.76,12.8,12.8,0,0,1,2.5-1c.84-.25,1.69-.46,2.5-.75a6.17,6.17,0,0,0,2.18-1.24A3.7,3.7,0,0,0,65,332.31a7.29,7.29,0,0,0-.16-2.53,29.42,29.42,0,0,1-1.46,2.81c-.83,1.41-4.16,2.33-7.32,3.08s-6.49,6.74-7.56,7.65a14,14,0,0,1-10.66,2.16c-2.76-.67-3.64-3.12-3.89-5.1a6.59,6.59,0,0,0-.45,1.58,5.19,5.19,0,0,0,.18,2.46,4,4,0,0,0,1.43,1.93,7.09,7.09,0,0,0,2.26,1.07,13,13,0,0,0,5.08.4,14.27,14.27,0,0,0,4.92-1.39A13.76,13.76,0,0,0,51.49,343.4Z"/><path class="cls-31" d="M52.52,323.78l-1.87.7a5,5,0,0,0,1.81,2.15,9.27,9.27,0,0,0,2.23,1.26,3.83,3.83,0,0,0,2.93,0,1.81,1.81,0,0,0,1.09-1.67,2.71,2.71,0,0,0-.56-1.57,5.46,5.46,0,0,0-4.75-2.05,6.63,6.63,0,0,0-2.47.65c-.74.34-1.38.7-2,.93a14.48,14.48,0,0,1-2.13.56,11,11,0,0,1-2.14.3,1.38,1.38,0,0,1-1.38-.76,1.62,1.62,0,0,1,.26-1.64c.81-1,2.39-1.16,3.8-.83a8.43,8.43,0,0,1,3.89,2l.22-.23.24-.25A9.19,9.19,0,0,0,47.5,321a6.5,6.5,0,0,0-2.45-.19,3.66,3.66,0,0,0-2.31,1.2,2.67,2.67,0,0,0-.5,2.69,2.27,2.27,0,0,0,1,1.14,3,3,0,0,0,1.36.38A11.85,11.85,0,0,0,47,326a15.73,15.73,0,0,0,2.34-.53c.8-.25,1.51-.62,2.18-.9a5.13,5.13,0,0,1,2-.45,3.88,3.88,0,0,1,3.32,1.52,1.13,1.13,0,0,1,.21.56c0,.06,0,.09-.11.12a2.09,2.09,0,0,1-1.55-.12,7.51,7.51,0,0,1-1.72-1.07A3.16,3.16,0,0,1,52.52,323.78Z"/><path class="cls-31" d="M52.5,331.38l1.7-1.06a8.27,8.27,0,0,0-4.26-2.91,16.69,16.69,0,0,0-2.37-.58A4.69,4.69,0,0,0,45,327l.1.31.11.33a3.91,3.91,0,0,1,2.09.21,15.53,15.53,0,0,1,2.1.84A6.61,6.61,0,0,1,52.5,331.38Z"/><path class="cls-31" d="M50.1,334.18l1.89-.67a6,6,0,0,0-4-3.09,11.4,11.4,0,0,0-4.54-.81l0,.32,0,.35a10.61,10.61,0,0,1,4,1.38,7.15,7.15,0,0,1,1.68,1.1A3,3,0,0,1,50.1,334.18Z"/><path class="cls-31" d="M47.17,336.88l1.31-1.51c-.05,0-.2-.17-.38-.49a2.94,2.94,0,0,0-.93-1,6.9,6.9,0,0,0-1-.5l-.95-.4a9.77,9.77,0,0,0-4.1-.87v.67a8.82,8.82,0,0,1,3.52,1.4l.84.53a5.5,5.5,0,0,1,.72.51,1.22,1.22,0,0,1,.29.52A3.09,3.09,0,0,0,47.17,336.88Z"/><path class="cls-31" d="M44.89,337.37l1.54.42a1.78,1.78,0,0,0-.58-1.7,3.63,3.63,0,0,0-.94-.58l-.87-.41a5.69,5.69,0,0,0-.94-.3c-1.24-.26-2.37-.38-3.56-.58l-.08.31-.09.34c1.1.4,2.29.77,3.3,1.2a4.26,4.26,0,0,1,.69.37l.66.49a2,2,0,0,1,.5.44c.05,0,0,.08.05,0A.56.56,0,0,1,44.89,337.37Z"/><path class="cls-32" d="M157.39,320.2c-.36-.49-.7-1-1-1.51l-12.3,3.52.13,1.12c1.63-.24,3.35-.55,5.11-.93A73.28,73.28,0,0,0,157.39,320.2Z"/><path class="cls-33" d="M99.69,93.79a5.26,5.26,0,0,1,.56,1.26,7.57,7.57,0,0,0,.93,2.36,2.44,2.44,0,0,0,.94.74,1.3,1.3,0,0,0,1.12,0l.08.15.09.16a1.56,1.56,0,0,1-.82.19,9,9,0,0,1-.89,2.37,14.2,14.2,0,0,0-.93,2.1l-.37-.18a14.72,14.72,0,0,1,.65-2.19,7.55,7.55,0,0,0,.54-2.4,3.08,3.08,0,0,1-.75-.64,7.73,7.73,0,0,1-1.09-2.47,4.89,4.89,0,0,0-.54-1.12,5.94,5.94,0,0,0-.83-.93,6.92,6.92,0,0,1-1.77-2.1,3.2,3.2,0,0,1,.2-2.86,3.79,3.79,0,0,1,.93-1.13A5.37,5.37,0,0,1,99,86.35a5.71,5.71,0,0,1,2.79-.48,5.25,5.25,0,0,1,1.43.3l.06,0h0l.06,0,.09,0,.14.08a3.28,3.28,0,0,1,.32.21,3.39,3.39,0,0,1,.54.57l0,0a8,8,0,0,1,.71.86,6.3,6.3,0,0,1,.51.85l.06.21v.08h0l0-.06,0-.16,0-.09.09-.41c.06-.29.14-.58.2-.87q.42-1.73,1-3.42a39.66,39.66,0,0,1,2.89-6.46h0l.14.07.15.08a38.69,38.69,0,0,0-2.63,6.5q-.51,1.68-.86,3.4c-.06.28-.12.57-.17.85l-.08.46c-.05.26-.08.52-.13.79l-.24,1.63-.12.83,0,.21,0,.14-.06.28-.45-1.7-.21-.78a2,2,0,0,0-.12-.32l-.11-.29a5.88,5.88,0,0,0-.4-.79,5.56,5.56,0,0,0-.32-.46,6.71,6.71,0,0,0-.73-.81h0l0,0a6.26,6.26,0,0,0-.86-.67h0a4.57,4.57,0,0,0-1-.23,4.75,4.75,0,0,0-2.35.32,4.54,4.54,0,0,0-1,.59,3,3,0,0,0-.76.86,2.46,2.46,0,0,0-.24,2.2,6.42,6.42,0,0,0,1.56,1.93A6.67,6.67,0,0,1,99.69,93.79Z"/><path class="cls-34" d="M99.67,111c0,.32,0,.63.07.91l-.27,0a3.3,3.3,0,0,0-.41-1.25c-.28-.51-.6-1-.84-1.43a31.29,31.29,0,0,0-1.66-2.9L96.3,106l.28.09a3.4,3.4,0,0,1,1.59.79,8.08,8.08,0,0,1,1,1.84l.29.65A4.66,4.66,0,0,1,99.67,111Z"/><path class="cls-33" d="M101,114.5a4,4,0,0,1-1.23-2.36l0-.26c0-.28-.05-.59-.07-.91a4.66,4.66,0,0,0-.25-1.59l-.29-.65a8.08,8.08,0,0,0-1-1.84,3.4,3.4,0,0,0-1.59-.79L96.3,106l.25.36a31.29,31.29,0,0,1,1.66,2.9c.25.47.57.91.84,1.43a3.3,3.3,0,0,1,.41,1.25,2.2,2.2,0,0,1,0,.56c0,.11,0,.18-.08.31a.78.78,0,0,1-.09.17l-.07.08-.13.16-.13.16a.81.81,0,0,1-.29.24.72.72,0,0,1-.7-.14l-.13-.13a1.71,1.71,0,0,1-1,.64l0-.27-.51.09a1.71,1.71,0,0,1,0,.17A10.89,10.89,0,0,1,94,112.93a36,36,0,0,1-3.25-1.76c-1.47-.89-2.52-1.59-4.26-.78a12.44,12.44,0,0,1-6,1.51c-2.37-.09-4.95-1.82-7.26-1a5.41,5.41,0,0,1-.5-.35h0c2-.86,3.73,0,5.66.52a10.53,10.53,0,0,0,7.6-1c1.77-.95,2.92-.57,4.58.43,1.05.64,2.12,1.25,3.23,1.8s2.58,1.59,3.66.64c-.26-.39-.51-.78-.79-1.15A29.33,29.33,0,0,0,89.83,105l.08-.12.09-.14a30.15,30.15,0,0,1,5,4.17,31.25,31.25,0,0,1,2.15,2.48c.34.43.65.87,1,1.32a.79.79,0,0,0,.2.21c.05,0,0,0,0,0v0l.13-.16.12-.16.06-.07h0s0-.13,0-.19a2.09,2.09,0,0,0-.28-1.38c-.23-.47-.54-.93-.8-1.45a30.55,30.55,0,0,0-1.55-2.9,13,13,0,0,0-.8-1.14l-.1-.09,0,0a14.27,14.27,0,0,0-1.16-1.29,15.36,15.36,0,0,0-2.6-2l.08-.14.08-.13a16.12,16.12,0,0,1,2.72,1.95,15.17,15.17,0,0,1,1.23,1.3l0,0a2.34,2.34,0,0,0,1.1.51,3.82,3.82,0,0,1,1.82.94,8,8,0,0,1,1.06,2l.28.64a5,5,0,0,1,.29,1.78,7.12,7.12,0,0,0,.1,1.08,3.54,3.54,0,0,0,1,2.06,1.16,1.16,0,0,0,.67.3.49.49,0,0,0,.5-.28,1.11,1.11,0,0,0,0-.34l.05-2.87a14.47,14.47,0,0,0-.34-4.25,15.22,15.22,0,0,0-.62-1.62,3.43,3.43,0,0,0-.69-1.17,2.24,2.24,0,0,0-.65-.41l0-.07.17,0,.18,0c0-.11.06-.23.09-.34a2.41,2.41,0,0,1,.54.39,3.87,3.87,0,0,1,.81,1.34,11.12,11.12,0,0,1,1,6.09l-.05,2.87a1.62,1.62,0,0,1-.08.52,1,1,0,0,1-1,.61h0A1.64,1.64,0,0,1,101,114.5Z"/><path class="cls-34" d="M205.58,124.8q0,.22.08.44h0Z"/><path class="cls-34" d="M204.85,117.41c0,1.07.08,2.14.18,3.21-.21-1.26-.46-2.52-.75-3.76,0-.13-.07-.3-.14-.51h0C204.37,116.7,204.61,117.06,204.85,117.41Z"/><path class="cls-35" d="M128.81,78.84h0l0,.54C128.79,79.21,128.8,79,128.81,78.84Z"/><path class="cls-35" d="M128.81,78.84c0,.18,0,.36,0,.54s0,.15,0,.23l-.18,0-.17,0q0-.41,0-.82Z"/><path class="cls-36" d="M128.4,78.4h0l-.07,0Z"/><path class="cls-3" d="M87.55,72.68l-.17,0"/><path class="cls-33" d="M131.62,98.94a3.51,3.51,0,0,0,0-2.33,13.63,13.63,0,0,0-.9-2,19.79,19.79,0,0,1-1.94-7.9,67.49,67.49,0,0,1,0-7.35c0,.07,0,.15,0,.23l-.18,0-.17,0q0-.41,0-.82l-.64-.13a73.29,73.29,0,0,0,0,8.17,20.68,20.68,0,0,0,2.12,8.24,12.45,12.45,0,0,1,.86,1.82,2.61,2.61,0,0,1,0,1.78c-.2.58-.63,1.14-.95,1.82a2.91,2.91,0,0,0-.3,1.16,3.07,3.07,0,0,0,.23,1.17,5,5,0,0,1,.56,1.83,1.8,1.8,0,0,1-.32.81,2.62,2.62,0,0,0-.39,1.13c0,.39,0,.74,0,1.08s0,.69,0,1c0,.69-.12,1.37-.23,2a19.4,19.4,0,0,1-1.08,4c-.46,1.22-1.85,1.71-3.12,2.15-2.62.83-5.45.8-8.23,1.28a14.47,14.47,0,0,0-4.06,1.29,7.48,7.48,0,0,0-3.16,2.87,9.14,9.14,0,0,0-1.12,4.1,27.61,27.61,0,0,0,.17,4.22l.18,0,.17,0a26.91,26.91,0,0,1-.13-4.16,8.59,8.59,0,0,1,1.1-3.9,6,6,0,0,1,1.07-1.33,4,4,0,0,1,.39-.35,7.89,7.89,0,0,1,1.54-1,14,14,0,0,1,3.92-1.2c2.72-.45,5.57-.38,8.32-1.21a11.16,11.16,0,0,0,2-.82,4,4,0,0,0,.91-.69,3.47,3.47,0,0,0,.63-1,19.66,19.66,0,0,0,1.17-4.1c.12-.7.21-1.4.26-2.12,0-.35,0-.71,0-1.06s0-.71,0-1a1.86,1.86,0,0,1,.3-.83,2.53,2.53,0,0,0,.43-1.12,2.76,2.76,0,0,0-.19-1.18l-.38-1a2,2,0,0,1,.06-1.72A21.08,21.08,0,0,0,131.62,98.94Z"/><path class="cls-37" d="M110,77.68l0,0h0A0,0,0,0,1,110,77.68Z"/><path class="cls-35" d="M100.78,103.1c0,.11-.06.23-.09.34l-.18,0-.17,0a4.34,4.34,0,0,1,.07-.46Z"/><path class="cls-33" d="M100.41,102.93a4.34,4.34,0,0,0-.07.46l0,.07c-.16-.08-.34-.14-.5-.21L97,102.16a17.6,17.6,0,0,1-2.37-1.06c-.34-.19-.67-.41-1-.62l-.59-.38c-.27-.17-.52-.36-.77-.54l-.45-.32,0,0-.14-.13c-.14-.09-.29-.19-.45-.27a4.47,4.47,0,0,0-1.67-.21c-1.44,0-2.89.09-4.33.19a18.17,18.17,0,0,0-2.55.3,12.6,12.6,0,0,0-1.45.39l0,0,.08-.09.3-.37.15-.19c.28-.08.56-.14.83-.2s.63-.12.95-.16l.1.35,1-.3,0-.15.62,0c1.45-.1,2.91-.16,4.36-.19a3.62,3.62,0,0,1,2.45.59l.6.42c.24.18.48.36.74.52l.59.39c.31.21.63.42,1,.61a17.31,17.31,0,0,0,2.3,1l2.79,1.08Z"/><path class="cls-33" d="M96.85,114c.35,2.14.38,5-.64,6.46a24.31,24.31,0,0,1-2.47,2.61v-.25a12.69,12.69,0,0,0,2-2.67c1-1.41.82-4.45.53-6.16l.26,0A1.13,1.13,0,0,0,96.85,114Z"/><path class="cls-35" d="M96.81,113.73l0,.27a1.13,1.13,0,0,1-.27,0l-.26,0a1.71,1.71,0,0,0,0-.17Z"/><path class="cls-37" d="M87.59,77.88l-.14.1a2,2,0,0,1-.33,0Z"/><path class="cls-35" d="M84.59,98.36l0,.15-1,.3-.1-.35C83.89,98.42,84.24,98.38,84.59,98.36Z"/><path class="cls-35" d="M81.75,98.82,81.6,99l-.3.37-.08.09s0-.07,0-.09l0-.25a1.06,1.06,0,0,0,0-.14Z"/><path class="cls-33" d="M81.22,99.47l0,0c-.56.17-1.1.38-1.62.58-2.27.87-4.53,1.83-6.72,2.86a31.48,31.48,0,0,0-4.7,2.59l-.27-.45a32,32,0,0,1,4.75-2.62c2.2-1,4.47-2,6.75-2.87.56-.21,1.13-.43,1.72-.61a1.06,1.06,0,0,1,0,.14l0,.25S81.2,99.48,81.22,99.47Z"/><path class="cls-37" d="M125.77,85.48l0-1a33.37,33.37,0,0,0-8,1l0,.17,0,.18A32.67,32.67,0,0,1,125.77,85.48Z"/><path class="cls-5" d="M123.59,88.31a1,1,0,0,0,.32-1.28,1.24,1.24,0,0,0-.36-.47,2,2,0,0,0-.91,1.48A.84.84,0,0,0,123.59,88.31Z"/><path class="cls-37" d="M125.18,89.87l.1,0a3.28,3.28,0,0,0,.18-1.21c0-1.26-.72-2.25-1.51-2.23a1,1,0,0,0-.4.11,1.24,1.24,0,0,1,.36.47,1,1,0,0,1-.32,1.28.84.84,0,0,1-.94-.27,3.45,3.45,0,0,0-.06.73c0,1.26.72,2.25,1.51,2.23a1.08,1.08,0,0,0,.74-.37.54.54,0,0,1-.08-.25A.47.47,0,0,1,125.18,89.87Z"/><path class="cls-5" d="M125.28,89.89l-.1,0a.47.47,0,0,0-.41.52.54.54,0,0,0,.08.25A2.09,2.09,0,0,0,125.28,89.89Z"/><path class="cls-19" d="M131.81,203.86a12.83,12.83,0,0,0-1.48-2.45l.29-.2a19.65,19.65,0,0,1-5,2.49,29.09,29.09,0,0,1-6.48,1.3,108.39,108.39,0,0,1-13.11.07,107.25,107.25,0,0,1-13.09-.61,43.75,43.75,0,0,1-9.28-2.15h0l-.69-.26h0l.15.11.14.1a6.94,6.94,0,0,0-1.36,2.39c6.62,1,14,2.9,22.51,2.9,10.77,0,20-2.13,27.44-3.69C131.61,203.46,132,204.25,131.81,203.86Z"/><path class="cls-38" d="M127.77,78.64c-1-.2-2.07-.36-3.12-.5a27.23,27.23,0,0,0-3-.25l-3-.08q-4.34-.09-8.67-.12l.14.07.15.08q-.8,1.55-1.45,3.16c5.85-.53,13-1.06,18.91-1.16C127.74,79.45,127.75,79,127.77,78.64Z"/><path class="cls-30" d="M168.31,335.71a30.84,30.84,0,0,0,6.91.17,7.11,7.11,0,0,0,5.4-3,6.51,6.51,0,0,0,.76-4.47,5.74,5.74,0,0,1-1.48,3.11c-1,1.42-3.76,1.3-7.77,1.42s-11-.89-17.11-1.24c-4.62-.27-10.32-1.07-12.85-1.45a4.35,4.35,0,0,0,.54,1.77c.7,1.12,2,1.33,3.19,1.45l16.1,1.61Z"/><path class="cls-31" d="M154.12,320l0,2a31,31,0,0,0,4-.4l1-.18a6,6,0,0,0,1.12-.29,1.65,1.65,0,0,0,.77-.64,1.42,1.42,0,0,0,.13-1.19,2,2,0,0,0-1.2-1.11,2.65,2.65,0,0,0-.67-.16l-.55,0a6.48,6.48,0,0,0-3.16.76,9.86,9.86,0,0,0-3.06,2.77c-.8,1.05-1.47,2.14-2.42,2.39a1.43,1.43,0,0,1-1.3-.21.92.92,0,0,1-.15-1.13,3.17,3.17,0,0,1,1.34-.91,7,7,0,0,1,5.34-.09l.13-.3.14-.32a7.72,7.72,0,0,0-4-.62,7.88,7.88,0,0,0-2,.48,8.36,8.36,0,0,0-.94.44,2.54,2.54,0,0,0-.9.78,2,2,0,0,0,.24,2.45,2.52,2.52,0,0,0,2.33.58,3.88,3.88,0,0,0,1.92-1.18c.49-.51.88-1,1.27-1.51a8.49,8.49,0,0,1,2.7-2.27,4.87,4.87,0,0,1,1.59-.45,4.8,4.8,0,0,1,.83,0l.41,0a1,1,0,0,1,.26.08.8.8,0,0,1,.2.12l0,0a1,1,0,0,1,.12-.08l.12-.05s.1,0,.05,0l-.08,0h0l.06,0h0a.59.59,0,0,1-.14-.15l-.05-.08h0a6.2,6.2,0,0,1-.75.14l-.93.13A29.05,29.05,0,0,1,154.12,320Z"/><path class="cls-31" d="M155.08,325.35l1.86.73a6.52,6.52,0,0,1,4.88-4.48l0-.32,0-.35A7.86,7.86,0,0,0,155.08,325.35Z"/><path class="cls-31" d="M158.76,326l1.91.6a5.67,5.67,0,0,1,3.16-4.06l-.1-.31-.11-.33A7,7,0,0,0,158.76,326Z"/><path class="cls-31" d="M162.54,327.73l2,.14a5.84,5.84,0,0,1,2.72-5.09l-.14-.29-.15-.31A7.18,7.18,0,0,0,162.54,327.73Z"/><path class="cls-31" d="M166.65,328.07l2,.44a7.67,7.67,0,0,1,2.36-4.81l-.19-.26-.21-.28A9,9,0,0,0,166.65,328.07Z"/><path class="cls-39" d="M225.63,100.86c-.05-.71-.09-1.27-.09-1.52,0-16.86-3.72-33.23-10.53-46.09C202.52,29.66,197.74,1.38,197.69,1.1a1.31,1.31,0,0,0-2.58.43c0,.29,4.9,29,17.59,53C219.31,67,222.94,82.9,222.92,99.34c0,.35,0,.89.1,1.71.14,1.89.38,5.24.33,9.65a1.3,1.3,0,0,0-.14.59c0,2,0,3.9-.11,5.69s-.28,3.43-.5,5.26a1.3,1.3,0,0,0,.07.59c-.45,4.39-1.06,7.69-1.41,9.56-.15.81-.25,1.34-.29,1.69-1.81,16.34-7.2,31.76-15.16,43.44-15.29,22.41-23.31,50.38-23.38,50.66a1.31,1.31,0,1,0,2.52.71c.08-.28,8-27.83,23-49.9,8.2-12,13.74-27.88,15.6-44.63,0-.25.13-.8.26-1.5a110.31,110.31,0,0,0,1.88-15.73A110.1,110.1,0,0,0,225.63,100.86Z"/><path class="cls-40" d="M225.63,100.86c-.05-.71-.09-1.27-.09-1.52,0-16.86-3.72-33.23-10.53-46.09C202.52,29.66,197.74,1.38,197.69,1.1A1.31,1.31,0,0,0,196.18,0l-.18,0a6.26,6.26,0,0,1,.83,2.52c.63,3.74,3.11,13.32,3.16,13.41s2.59,8.91,2.59,8.91,5.23,15.84,6.42,18.15,6.82,13,8.06,16,5.24,14.49,6.08,21.4,2.94,24.5,2.26,29.41-3.49,34.17-5.42,40.71-4.83,16.62-8.39,21.36c-4.64,6.2-17.66,28.16-22.82,42.57-1.35,3.76-4.23,12.08-5.26,15.31l.12,0a1.31,1.31,0,0,0,1.31-1c.08-.28,8-27.83,23-49.9,8.2-12,13.74-27.88,15.6-44.63,0-.25.13-.8.26-1.5a110.31,110.31,0,0,0,1.88-15.73A110.1,110.1,0,0,0,225.63,100.86Z"/><path class="cls-41" d="M219.45,136.65a347.78,347.78,0,0,0,3.06-40.26s.27.18,1.57.06a22.37,22.37,0,0,0,2.64-.43c.08.83,1.79,23.49-2.6,41.85C223.85,139,219.37,137.17,219.45,136.65Z"/><path class="cls-42" d="M226.72,96s-.75.17-1.67.31c.54,4,1.94,16,.54,22.82-1.32,6.45-1.86,14.52-3,19,.77.16,1.4.14,1.5-.26C228.5,119.51,226.79,96.85,226.72,96Z"/><polygon class="cls-39" points="219.54 133.9 225.3 134.41 224.85 137 219.18 136.02 219.54 133.9"/><polygon class="cls-43" points="221.41 116.39 227.27 114.69 227.12 116.3 221.39 117.7 221.41 116.39"/><polygon class="cls-39" points="222.34 97.38 227.2 97.09 227.1 99.71 222.26 99.53 222.34 97.38"/><polygon class="cls-44" points="225.13 97.21 225.47 99.64 227.1 99.71 227.2 97.09 225.13 97.21"/><path class="cls-45" d="M226.12,115c0,.49,0,1-.07,1.54l1.07-.26.15-1.61Z"/><path class="cls-46" d="M223.38,134.24c-.12.81-.26,1.73-.4,2.43l1.87.32.44-2.58Z"/><polyline class="cls-47" points="195.8 2.91 99.67 110.97 183.29 226.02"/><polygon class="cls-41" points="195.09 2.41 197.94 1.19 198.98 6.74 196.13 8.03 195.09 2.41"/><polygon class="cls-48" points="197.84 7.26 198.98 6.74 197.94 1.19 196.65 1.75 197.84 7.26"/><polygon class="cls-41" points="184.03 222.69 187.11 223.09 185.19 228.39 182.08 228.06 184.03 222.69"/><polygon class="cls-48" points="183.94 228.26 185.19 228.39 187.11 223.09 185.71 222.91 183.94 228.26"/><polygon class="cls-49" points="132.44 112.57 132.35 112.63 132.4 112.96 132.44 112.57"/><path class="cls-49" d="M104.42,110.83,93,119.19l8.6-1.18,4.09-2.68L103.3,119l7-1,4.47-4.39s-2.06,3.51-3.07,5.6l5.86-1.13,5.15-4.47-4.2,5.62,5-1.33,9.21-6L132.4,110l-8.58-5.65-3-.33,1.56,2.77-2.17-2.41-17.67-1.08,5.27,4.35-6-3.59-11.14-1.88Z"/><path class="cls-50" d="M295.57,116.23a1,1,0,0,1-.46,2l-195-6.09a1,1,0,0,1,.07-2.09l195,6.09A1,1,0,0,1,295.57,116.23Z"/><path class="cls-51" d="M99.07,111.06a1,1,0,0,0,1,1.08l195,6.09a1,1,0,0,0,1.08-1l-197-6.57A1,1,0,0,0,99.07,111.06Z"/><path class="cls-51" d="M296.19,117.23a1,1,0,0,0-.34-.81Z"/><path class="cls-52" d="M303.38,117.42s-20.51,5.24-20.74,5.14-7.9-4.36-8.16-6,8.92-5.89,8.92-5.89Z"/><polygon class="cls-53" points="303.44 117.28 283.57 117.59 275.26 116.44 283.51 115.87 303.44 117.28"/><polygon class="cls-54" points="274.99 117.67 275.24 114.8 274 114.8 274.28 117.64 274.99 117.67"/><polygon class="cls-54" points="273.31 117.64 273.56 114.77 272.33 114.77 272.61 117.61 273.31 117.64"/><polygon class="cls-54" points="271.42 117.52 271.67 114.64 270.44 114.65 270.72 117.49 271.42 117.52"/><polygon class="cls-55" points="132.23 113.74 132.57 110.66 131.31 110.7 131.51 113.73 132.23 113.74"/><polygon class="cls-56" points="130.81 110.45 130.58 113.32 131.82 113.31 131.52 110.48 130.81 110.45"/><polygon class="cls-56" points="117.44 113.32 117.78 110.25 116.53 110.29 116.72 113.31 117.44 113.32"/><polygon class="cls-55" points="115.98 110.14 115.75 113.02 116.99 113 116.69 110.17 115.98 110.14"/><polygon class="cls-56" points="132.32 110.45 132.09 113.32 133.33 113.31 133.03 110.48 132.32 110.45"/><polygon class="cls-55" points="104.15 112.8 104.49 109.73 103.23 109.77 103.43 112.79 104.15 112.8"/><polygon class="cls-56" points="102.76 109.73 102.53 112.6 103.76 112.59 103.47 109.75 102.76 109.73"/><polygon class="cls-56" points="104.38 109.83 104.15 112.7 105.39 112.69 105.09 109.85 104.38 109.83"/><polygon class="cls-57" points="271.63 114.64 271.39 117.52 272.63 117.51 272.33 114.67 271.63 114.64"/><polygon class="cls-57" points="273.51 114.52 273.19 117.6 274.44 117.55 274.22 114.52 273.51 114.52"/><path class="cls-58" d="M216.34,113.72a34.68,34.68,0,0,1,5.31.33c1.21.1,2.43,1.29,3.6,1.5l.32.05a12.18,12.18,0,0,0,4.18.05l1.17-.35a4.74,4.74,0,0,0,2.72-2.66,18.63,18.63,0,0,1-7.05-.51c-.59-.16-1.17-.35-1.73-.53s-1.28-.42-1.93-.58a20.41,20.41,0,0,0-6.74-.22"/><path class="cls-18" d="M231.42,121a.71.71,0,0,1-.38.52,1,1,0,0,1-.51,0h0l-.51-.12a31.59,31.59,0,0,0-6.52-.9h-.08a6.29,6.29,0,0,1-1-.1,2.09,2.09,0,0,1-.57-.19l0,0c-.65-.36-.9-.63-.79-.89a.68.68,0,0,0,.07-.3.67.67,0,0,1,.22-.52c.22-.18.74-.36,2-.21a46.23,46.23,0,0,0,5,.26,8.87,8.87,0,0,1,1.26.07c.43.11.79.35,1.22.48A2,2,0,0,1,231.42,121Z"/><path class="cls-18" d="M229.37,124.62l-.05.06a.57.57,0,0,1-.19.18.65.65,0,0,1-.23,0l-.73-.08-.58-.09a16.21,16.21,0,0,1-4.4-1.4l-.7-.36-.25-.15a1.81,1.81,0,0,1-.8-.81,1,1,0,0,1,.21-1.06l.16-.14a4.8,4.8,0,0,0,1.57.24h.08a31.07,31.07,0,0,1,6.56.92A4.07,4.07,0,0,1,229.37,124.62Z"/><path class="cls-18" d="M225.31,127a2.24,2.24,0,0,1-1.67,0l-.47-.12a11.14,11.14,0,0,1-2.66-.88,3.73,3.73,0,0,1-1.22-.84,1.05,1.05,0,0,1,.59-1.83,4.1,4.1,0,0,1,1.24,0h1l.14.08a16.68,16.68,0,0,0,5,1.78A6.61,6.61,0,0,1,225.31,127Z"/></g></g></g></svg>