<svg xmlns="http://www.w3.org/2000/svg" xmlns:xlink="http://www.w3.org/1999/xlink" viewBox="0 0 416.96 248.22"><defs><style>.cls-1{isolation:isolate;}.cls-2{fill:#4f8740;}.cls-3{fill:#c8831f;}.cls-4,.cls-5,.cls-9{fill:#e9c598;}.cls-5,.cls-9{stroke:#f1cc9e;stroke-linecap:round;}.cls-5,.cls-62,.cls-64,.cls-9{stroke-miterlimit:10;}.cls-6{fill:#bc7e16;}.cls-7{fill:#c0801c;}.cls-8{fill:#b2946d;}.cls-9{stroke-width:2px;}.cls-10{fill:gold;}.cls-11{fill:#fd9300;}.cls-12{fill:#f46100;}.cls-13{fill:#ffe051;}.cls-14{fill:#fcb560;}.cls-15{fill:#331815;}.cls-16{fill:#f9d1aa;}.cls-17{opacity:0.31;}.cls-17,.cls-21,.cls-26,.cls-27,.cls-30,.cls-31,.cls-36,.cls-38,.cls-40,.cls-41,.cls-42,.cls-44,.cls-45,.cls-50,.cls-51,.cls-53{mix-blend-mode:multiply;}.cls-18,.cls-31{fill:#fbe1c5;}.cls-19{fill:#366a8c;}.cls-20{fill:#e9ddd5;}.cls-21{opacity:0.27;}.cls-22{fill:#f2d8bd;}.cls-23{fill:#f8e5c3;}.cls-24{fill:#939287;}.cls-25{fill:#865b4a;}.cls-26{opacity:0.23;}.cls-27{opacity:0.12;}.cls-28{fill:url(#Dégradé_sans_nom_6);}.cls-29{fill:#45444b;}.cls-30{opacity:0.38;}.cls-31,.cls-36{opacity:0.36;}.cls-32{fill:#5a5a5a;}.cls-33{fill:#f9d8b7;}.cls-34,.cls-44,.cls-51{fill:#b4957d;}.cls-35{fill:#dfd5c6;}.cls-37{fill:#fcdcb6;}.cls-38{opacity:0.17;}.cls-39{fill:url(#Dégradé_sans_nom_6-2);}.cls-40{opacity:0.34;}.cls-41{opacity:0.59;}.cls-42{opacity:0.21;}.cls-43{fill:url(#Dégradé_sans_nom_5);}.cls-44{opacity:0.51;}.cls-45{opacity:0.03;}.cls-46{fill:url(#Dégradé_sans_nom_5-2);}.cls-47{fill:#876650;}.cls-48{fill:url(#Dégradé_sans_nom_6-3);}.cls-49{fill:#4f4846;}.cls-50{opacity:0.26;fill:url(#Dégradé_sans_nom_5-3);}.cls-51{opacity:0.18;}.cls-52{fill:#705d4f;}.cls-53,.cls-56{opacity:0.55;}.cls-54{fill:#f3dabf;}.cls-55{fill:#d4c4b0;}.cls-57{fill:#5a4b37;}.cls-58{fill:#c3b8b3;}.cls-59{fill:#504e4d;}.cls-60{fill:#b1aca7;}.cls-61{fill:#5f5955;}.cls-62,.cls-64{fill:none;}.cls-62{stroke:#9b947c;}.cls-63{fill:#1d4054;}.cls-64{stroke:#5f5955;stroke-width:0.5px;}.cls-65{fill:#575657;}.cls-66{fill:#4e4d4e;}.cls-67{fill:#6c6b6c;}</style><linearGradient id="Dégradé_sans_nom_6" x1="270.43" y1="110.42" x2="319.22" y2="110.42" gradientUnits="userSpaceOnUse"><stop offset="0" stop-color="#be8b5e"/><stop offset="0.38" stop-color="#b8875c"/><stop offset="0.89" stop-color="#a87b55"/><stop offset="1" stop-color="#a37853"/></linearGradient><linearGradient id="Dégradé_sans_nom_6-2" x1="162.05" y1="75.54" x2="185.77" y2="106.56" xlink:href="#Dégradé_sans_nom_6"/><linearGradient id="Dégradé_sans_nom_5" x1="194.95" y1="123.85" x2="244.05" y2="123.85" gradientUnits="userSpaceOnUse"><stop offset="0" stop-color="#e6b48d"/><stop offset="0.81" stop-color="#c49a76"/></linearGradient><linearGradient id="Dégradé_sans_nom_5-2" x1="153.47" y1="123.87" x2="200.75" y2="123.87" xlink:href="#Dégradé_sans_nom_5"/><linearGradient id="Dégradé_sans_nom_6-3" x1="23.23" y1="135.87" x2="66.06" y2="135.87" xlink:href="#Dégradé_sans_nom_6"/><linearGradient id="Dégradé_sans_nom_5-3" x1="62.19" y1="176.54" x2="115.62" y2="176.54" xlink:href="#Dégradé_sans_nom_5"/></defs><title>seminaire</title><g class="cls-1"><g id="Calque_2" data-name="Calque 2"><g id="V5"><ellipse class="cls-2" cx="208.48" cy="188.3" rx="208.48" ry="59.92"/><path class="cls-3" d="M219.95,205.75l-28.69,4.81s7.87,4.08,3,7.14c20.55-4,25.7-4.45,25.7-4.45S226.06,212.87,219.95,205.75Z" transform="translate(0 -0.29)"/><path class="cls-4" d="M193.34,217.9c5.09-.56,4-6.69-.42-7.46C188.3,209.64,189.68,217,193.34,217.9Z" transform="translate(0 -0.29)"/><polyline class="cls-5" points="190.61 212.26 191.69 210.57 194.85 212.46 195.55 213.74 195.28 216.03 193.08 216.87 191.69 215.28 191.07 213.32 192.2 212.4 193.75 212.57 194.33 214 194.1 215.28 192.62 215.1 192.29 213.89 193.08 213.89 193.2 214.36"/><path class="cls-6" d="M210.84,205.58l24.89,4.1s-8.23,4.37-2.81,7.64c-23.12-4.21-23-4.31-23-4.31S208,208.74,210.84,205.58Z" transform="translate(0 -0.29)"/><path class="cls-7" d="M208.26,218.92c-.47-.64-1-8.62-1-8.62s7.16-4,10.34-.79l6.27,6.3s2.33,3.46-1.94,5.78S211.61,223.51,208.26,218.92Z" transform="translate(0 -0.29)"/><path class="cls-8" d="M224.2,218c0,2.6-3.36,4.71-7.51,4.71a9.89,9.89,0,0,1-5.61-1.58,3.93,3.93,0,0,1-1.89-3.13c0-1.54,1.18-2.91,3-3.77a10.7,10.7,0,0,1,4.51-.77,19.44,19.44,0,0,1,4.93.51c1.48.54,1.46,1.32,2.08,2.33A3.21,3.21,0,0,1,224.2,218Z" transform="translate(0 -0.29)"/><path class="cls-4" d="M233.1,217.33c-4.52-.9-3.47-6,.87-7.45C239.6,208,237.36,217.51,233.1,217.33Z" transform="translate(0 -0.29)"/><path class="cls-4" d="M209.92,219.88c-1.44-4.2,5.87-7.93,11.09-5.31C228.94,218.55,217.15,226.41,209.92,219.88Z" transform="translate(0 -0.29)"/><polyline class="cls-9" points="222.07 218.56 222.07 216.59 219.15 215.09 213.94 215.91 211.95 218.37 214.83 220.8 218.02 220.8 219.94 219.96 218.87 217.86 215.93 217.81"/><polygon class="cls-10" points="214.15 208.75 208.78 206.81 204.2 207.78 203.82 208.17 189.41 197.29 189.41 185.25 189.41 178.06 201.78 189.72 198.82 172.24 206.62 178.26 209.31 172.24 207.97 151.46 221.41 173.79 225.45 171.85 233.7 162.66 227.06 188.55 238.9 175.15 238.9 182.53 231.1 196.71 237.01 192.82 230.29 203.31 224.47 207.25 214.15 208.75"/><path class="cls-11" d="M207.31,211.45l-10-13.32-.15-4.44,8.36,1.77,1.32-9.54,5.92,4.47,1.18-9.52,2.65,5.24,12.71-11.93L222,193.81l6.32-1.09-4.3,7.19,4.3,1.75-7.05,9.2s-2.46-1.19-8.62-.86C207.88,210.24,207.31,211.45,207.31,211.45Z" transform="translate(0 -0.29)"/><path class="cls-12" d="M208.29,209.5c-.54-1.36-3-10.69-3-10.69l5.11,3.11,1.88-9.32,5.11,8.74,4.57-5.43L219.65,209s-2.19-.09-6.72,0S208.29,209.5,208.29,209.5Z" transform="translate(0 -0.29)"/><polygon class="cls-13" points="200.27 168.63 195.43 165.52 195.43 157.75 197.85 163.19 200.27 168.63"/><polygon class="cls-13" points="227.57 161.73 226.64 159.66 228.33 153.07 227.57 161.73"/><polygon class="cls-13" points="234.25 171.38 239.49 166.98 237.92 170.03 234.25 171.38"/><polygon class="cls-13" points="178.97 181.88 177.62 177.85 181 181.27 178.97 181.88"/><path class="cls-14" d="M213.81,177.71c.1-.85-2.94-12.09-2.94-12.09L215.49,176Z" transform="translate(0 -0.29)"/><path class="cls-5" d="M231.6,215.37s-.77-2.37.63-3.64,3.36-1.66,3.82-.91a4.19,4.19,0,0,1-1.23,5.1c-2.17,1.49-2-1.63-1.79-2.22s.67-1.71,1.68-1.52-.18,1.52-.18,1.52" transform="translate(0 -0.29)"/><path class="cls-15" d="M186.64,62.67a17.9,17.9,0,0,1-2-.48,3.38,3.38,0,0,1-1.73-.89,10.36,10.36,0,0,1-1.18-1.69l-1.11-1.78a18,18,0,0,1-1-1.8,5.69,5.69,0,0,1-.36-.94,4.15,4.15,0,0,0-.4-1.06,7.84,7.84,0,0,1-.55-.86c-.09-.31-.2-.59-.28-1l-.52-2-.22.06-.11,0-.11,0-.21.06.55,2a11.08,11.08,0,0,0,.34,1.06,7.72,7.72,0,0,0,.59.91,3.62,3.62,0,0,1,.35.91,6.32,6.32,0,0,0,.41,1,18.34,18.34,0,0,0,1.09,1.83l1.14,1.79a10.61,10.61,0,0,0,1.26,1.74,3.88,3.88,0,0,0,2,1,18.32,18.32,0,0,0,2.08.46,5.55,5.55,0,0,0,4.18-1,5.43,5.43,0,0,0,1.49-1.62,9.58,9.58,0,0,0,.85-2c1-2.72.94-5.62,1.17-8.39h-.68c-.19,2.81-.14,5.62-1,8.26a6,6,0,0,1-2.11,3.36A5.06,5.06,0,0,1,186.64,62.67Z" transform="translate(0 -0.29)"/><path class="cls-16" d="M74.28,73.24A8.28,8.28,0,0,0,73,71.42a11.36,11.36,0,0,1-2.27-9.08l0-4.75C65.6,58.53,63.19,56,58,56.37H54.72c-.36,0-1.28,9.82-1.44,10-.64.8-.5.87-.47,1.9q.09,3.91.19,7.83A4.65,4.65,0,0,0,52.35,75a11.34,11.34,0,0,0-1.13-2.47L51,72.32a3.66,3.66,0,0,0-3.62.61l-.11.11-.23.06a5.1,5.1,0,0,0-3.56,6.11Q44,81.12,44.56,83a5.3,5.3,0,0,0,2.26,3,5,5,0,0,0,1.24.51C47,88.72,45.55,91,45.57,93a41.3,41.3,0,0,1-5.71.55c1.66,2.27.82,5.59,1.18,8.42.12,1,4.42,5,6.42,5.84a28.34,28.34,0,0,1,10.39,7.67A84.36,84.36,0,0,1,65.49,126l-6.82-17.77a27.68,27.68,0,0,1-1.86-6.37,11.26,11.26,0,0,1-.07-2.17c.19-2.93,2.1-6.12,5-6.74h0a13.76,13.76,0,0,0,2.57.22,7,7,0,0,0,5.16-1.87,9.09,9.09,0,0,0,1.78-4.52,24.22,24.22,0,0,0,.66-8.17c-.12-.79-.28-1.71.26-2.3s1.35-.55,1.87-1A1.89,1.89,0,0,0,74.28,73.24Z" transform="translate(0 -0.29)"/><g class="cls-17"><path class="cls-18" d="M62.44,121.43c-1.09-3.27-3.92-5.94-6.35-8.55A54.61,54.61,0,0,1,44.37,93.15c-1.5.16-3,.31-4.5.42,1.66,2.27.82,5.59,1.18,8.42.12,1,4.42,5,6.42,5.84a28.34,28.34,0,0,1,10.39,7.67A59.32,59.32,0,0,1,62.44,121.43Z" transform="translate(0 -0.29)"/></g><path class="cls-19" d="M41,102c.12,1,4.42,5,6.42,5.84a28.34,28.34,0,0,1,10.39,7.67A84.36,84.36,0,0,1,65.49,126l-6.82-17.77a27.68,27.68,0,0,1-1.86-6.37h.11a6.68,6.68,0,0,1,3.17,1.84,16.1,16.1,0,0,1,2.62,3.8,49.41,49.41,0,0,1,6.08,17.34c1,7.87-.77,15.89.17,23.77,3.34-.09,6.82-.22,10.65-.39l-.08.69a68.12,68.12,0,0,0-.65,11.36c0,1.23.14,2.55.28,4l-8.71.84-38,3.65c-.38,0-.77.07-1.17.08a4.14,4.14,0,0,1-2.81-.74,7.47,7.47,0,0,1-2.08-3.34C22.29,153,22.73,144.19,24.6,132c.62-4.06-.33-8.77-.22-13.38C24.59,109.93,35.06,105.86,41,102Z" transform="translate(0 -0.29)"/><path class="cls-20" d="M62.22,117.48l-2-5.21-.79-2c-.24-.62-.49-1.24-.77-1.85-.2-.42-.43-.84-.59-1.28a9.59,9.59,0,0,1-.28-1l-.6-2.38a6.13,6.13,0,0,1-4.42,3.49,17.78,17.78,0,0,1-5.73.12.58.58,0,0,0-.14.18c1.91.39,3.46,1.66,5.07,2.79A28,28,0,0,1,55.21,113a9.34,9.34,0,0,1,2.46,2.46l.12.11a15.74,15.74,0,0,1,1.29,1.58A11.15,11.15,0,0,1,62,120.81l.06.08.49.78a1.87,1.87,0,0,1,.36.39c.75,1.08,1.51,2.14,2.24,3.23C64.24,122.65,63.23,120.06,62.22,117.48Z" transform="translate(0 -0.29)"/><g class="cls-21"><path class="cls-22" d="M352.44,183.45l0,0a13.48,13.48,0,0,1-1.68-2.5,5.52,5.52,0,0,1-.28-1.71c-.19-5.16,2.23-10,2.3-15.21.06-4.48-1.64-8.71-2.78-13-2.76-10.41-2.2-21.49-2.87-32.36a26.42,26.42,0,0,1-3.7.25h0c.32,3.87.52,6.31.84,10.19.15,1.78.3,3.56.52,5.33s.5,3.29.78,4.94c1.35,7.77,4,23.4,4,23.4a32.74,32.74,0,0,1-1.17,5.73,12.39,12.39,0,0,0-.67,2.93c-.08,1.69.65,3.29.93,5a17.73,17.73,0,0,1-.54,6.72,3,3,0,0,0,0,2,1.68,1.68,0,0,0,.61.62,2.36,2.36,0,0,0,3.17-.79A3.86,3.86,0,0,0,352.44,183.45Z" transform="translate(0 -0.29)"/></g><path class="cls-23" d="M367.61,184.91a49,49,0,0,0-2.83-7l-.47-.78a1.92,1.92,0,0,0-.31-.86c-.81-1.27-1.37-2.78-2.29-4-.44-.56-.9-1.1-1.37-1.64q-.32-.56-.65-1.11c-.65-1.36-1.24-2.76-1.79-4.18,0,0,.15-7,.27-10.4.22-6.21-.57-12.41-.78-18.62-.23-6.55.15-13.33-1.32-19.59a21.12,21.12,0,0,1-3.53.95,44.06,44.06,0,0,1-9.12,1.19h0c.33,4,.54,6.49.87,10.47.15,1.83.31,3.66.54,5.47s.52,3.39.81,5.07c1.17,6.68,3.29,19,3.95,22.88-.44,1.64-.69,3.39-1,5.09a8.93,8.93,0,0,0-.83,1.61,4.38,4.38,0,0,0,.11,3.15c0,.07,0,.15,0,.22-.08,1.74,1.08,3.36,1,5.1a55.71,55.71,0,0,1-.88,6.3c0,.15.26.9.24,1.05l.16.2a4,4,0,0,0,1.38.44h0a3.9,3.9,0,0,0,1.74-.66l.38-.33a6.16,6.16,0,0,0,.57-2.09c.09-1.3.14-2.61.29-3.9,0-.16.17-.1.4.09a2.57,2.57,0,0,0,.09.28l.06.16c0,.14.09.29.13.43.12.39.24.78.39,1.16a4.52,4.52,0,0,0,1.06,1.66l.06,0,.1.19.07.19c.14.31.3.62.45.93a9.91,9.91,0,0,0,.65,1.46v0a2,2,0,0,0,.26.47c.09.22.19.43.29.64a1.72,1.72,0,0,0,.09.15l.1.21a2.36,2.36,0,0,0,.14.4,38,38,0,0,0,2.15,4,2.08,2.08,0,0,0,1.86,1.06h.13a1.08,1.08,0,0,1,.9-.53s0,0,0-.06a.37.37,0,0,1,.72-.07l.06.11a2,2,0,0,0,1.65,1.07h.25a1.9,1.9,0,0,0,.57.07,1.3,1.3,0,0,1,1.1-.78,1,1,0,0,1,.27,0,1.93,1.93,0,0,0,.12-.19.65.65,0,0,0,.16.14.76.76,0,0,0,.4,0,.85.85,0,0,1,.11-.14c.13-.13.28-.24.42-.35a4.72,4.72,0,0,0,0-.63s0-.08,0-.13h0c0,.31,0,0,0,0l-.1-.16a1.25,1.25,0,0,1-.19-.53.4.4,0,0,1-.13-.43l-.17-.14a.38.38,0,0,1-.16-.49.37.37,0,0,1,.49-.16l.16.12a.33.33,0,0,1,.18-.05h0a2.2,2.2,0,0,0,.39-.48c0-.38.09-.76.1-1.15C368.28,186.83,367.82,185.7,367.61,184.91Z" transform="translate(0 -0.29)"/><path class="cls-23" d="M340,76.17c-1.78,2.64-4.87,4-7.29,6.11-.86.74-1.65,1.58-2.57,2.24a33.65,33.65,0,0,1-3.57,2,35.88,35.88,0,0,0-4.74,3.31c-1.4,1.09-2.87,2.28-3.47,4a25.94,25.94,0,0,0,.65-7.62c-.08-1.36-.28-2.71-.33-4.07a20.16,20.16,0,0,1,1.94-9.44,8.25,8.25,0,0,0,2.81,2.22,7.64,7.64,0,0,0,5.63,0,19,19,0,0,0,5-3c.89-.64,1.87-1.68,2.72-2.38a7.89,7.89,0,0,0,3.07,6.18.5.5,0,0,1,.21.19v0A.44.44,0,0,1,340,76.17Z" transform="translate(0 -0.29)"/><path class="cls-24" d="M345.2,80.54c5.29,3.85,10,9,11.64,15.32.91,3.48.87,7.13,1.27,10.7s1.3,7.13,3.66,9.73a8.21,8.21,0,0,1-3.6,2.24,25.8,25.8,0,0,1-3.89.92,54.77,54.77,0,0,1-10.06,1.15,23.32,23.32,0,0,1-2.48-.14.43.43,0,0,1-.5-.48c0-.92-.09-1.84-.14-2.76h0c-2.88,2.89-6.17,6.57-6.67,10.62a16.53,16.53,0,0,0,.2,4.58c.66,4.22,1.93,8.34,2.47,12.58s.29,8.76-1.88,12.44a26,26,0,0,1-3,3.9,17.88,17.88,0,0,1-7.63,5.75L317,170.67c-.42.19-.83.39-1.26.58v0a9.65,9.65,0,0,0-7.39-10.82c-4-.91-8.45.69-12.09-1.16-2.2-1.12-3.63-3.29-5.34-5.06q-.6-.61-1.23-1.16c-2.57-2.26-5.62-3.93-8.36-6-3.81-2.88-6.49-6.27-10.86-8.17a15.77,15.77,0,0,0,1.09-4.47,13.72,13.72,0,0,0-.13-2.16,81.65,81.65,0,0,1,10.44-8.51h0l1.69,0c3.5-.05,7.13-.08,10.35,1.3,2.75,1.18,5,3.32,7.87,4.26l.32.1c.64-1.44,1.47-2.72,2-4.19a17.29,17.29,0,0,0,.88-8,61.08,61.08,0,0,0-1.53-7.94,24.67,24.67,0,0,1-.72-4.28,17.69,17.69,0,0,1,.06-2.38l-.65-.26a16.66,16.66,0,0,1-1.81-.9c-3.7-2.14-6.29-5.68-8.6-9.32-.39-.61-.77-1.22-1.15-1.83a10.19,10.19,0,0,0,5-5.11,64.63,64.63,0,0,0,2.54-6.84,14.73,14.73,0,0,1,3.77-6.17,15,15,0,0,1,1.69-1.26c3.78-2.51,8.24-4.61,12.71-3.85h1.12a35.09,35.09,0,0,0,1.92,3.32,18.5,18.5,0,0,0,1.42,2.14,20.55,20.55,0,0,0-2,9.52c.06,1.36.25,2.71.33,4.07a25.94,25.94,0,0,1-.65,7.62c.6-1.67,2.06-2.86,3.47-4a35.88,35.88,0,0,1,4.74-3.31,33.65,33.65,0,0,0,3.57-2c.93-.66,1.71-1.5,2.57-2.24,2.42-2.08,5.51-3.47,7.29-6.11a.44.44,0,0,0,.11-.36v0h0a9.45,9.45,0,0,1,1.19,1.14c.47.53.89,1.12,1.38,1.63l.38.37,1.44,1.15Z" transform="translate(0 -0.29)"/><path class="cls-23" d="M251.25,144.81a1.63,1.63,0,0,1-.72-.1,3.88,3.88,0,0,1-1.57-1.32c-.18-.23-.36-.52-.25-.79l0-.06a2.49,2.49,0,0,1-2.17.56c-.72-.2-1.3-.5-1.33-1.25a1.17,1.17,0,0,1,.05-.37h-.05a1.14,1.14,0,0,1-.82-2c.29-.29.67-.54,1-.82s.83-.71,1.26-1l.39-.3a36.88,36.88,0,0,1,6-4.37,4.2,4.2,0,0,0,.73-.42,7.42,7.42,0,0,0,.73-.75,6.87,6.87,0,0,1,2.28-1.44c1.41-.62,2.87-1.12,4.33-1.63,1.78-.61,3.42-1.23,5.2-1.84l.84-1.44.77-1.32.91-1.56c4.35-7.38,9-14.72,15.26-20.57a25,25,0,0,0,4.66-5,54.64,54.64,0,0,0,3-4.85c2.31,3.64,4.9,7.18,8.6,9.32a16.66,16.66,0,0,0,1.81.9v0l-2.71,4.36c-.64,1-1.29,2.07-2,3.06-4.06,5.73-9.86,9.78-15.6,13.92h0a81.65,81.65,0,0,0-10.44,8.51,13.72,13.72,0,0,1,.13,2.16,15.77,15.77,0,0,1-1.09,4.47c-.22.64-.43,1.27-.61,1.92a3.93,3.93,0,0,0,.06,2.84c.27.5.74.92.83,1.48a.76.76,0,0,1-.14.64.87.87,0,0,1-.4.23,3.43,3.43,0,0,1-3.35-1,3.22,3.22,0,0,1-.54-.67c-.7-1.23-.1-2.78-.3-4.19q0-.15-.06-.3a3.71,3.71,0,0,1-2.6-1.51,1.79,1.79,0,0,0-.42-.51,1.3,1.3,0,0,0-1-.07,13.85,13.85,0,0,0-5.39,3q-1.84,1.47-3.55,3.09A3.11,3.11,0,0,1,251.25,144.81Z" transform="translate(0 -0.29)"/><path class="cls-23" d="M335.22,70.84c-.73.6-1.48,1.18-2.25,1.73A16.45,16.45,0,0,1,328.53,75a7,7,0,0,1-5-.1,7.07,7.07,0,0,1-2.41-1.9,16.63,16.63,0,0,1-1.34-1.81q-1-1.54-1.9-3.2a39,39,0,0,1-4-11.49h0c-.12-1.41-.29-2.81-.48-4.21a31.25,31.25,0,0,1,.28-6.21,10.07,10.07,0,0,1,3.38-4c1.48-1,3.2-1.61,4.7-2.58a10.91,10.91,0,0,0,3.9-4.58l.07.14a13.79,13.79,0,0,0,4,4.71,14.2,14.2,0,0,1,8.67,6.31,16.1,16.1,0,0,1,2,5.15h0c-.11,5.75,0,8.89,0,13.91A24.94,24.94,0,0,1,335.22,70.84Z" transform="translate(0 -0.29)"/><path class="cls-25" d="M326.12,28.37c-1.52,1.76-1.44,4.47-.44,6.58h0a10.91,10.91,0,0,1-3.9,4.58c-1.5,1-3.22,1.57-4.7,2.58a10.07,10.07,0,0,0-3.38,4,31.25,31.25,0,0,0-.28,6.21c-.46-3.34-1-6.67-1.25-10-.18-2.63-.34-5.36.67-7.8a11.13,11.13,0,0,1,8-7,13.33,13.33,0,0,1,3.22-.52,2.43,2.43,0,0,1,2.26,1.2h0Z" transform="translate(0 -0.29)"/><g class="cls-26"><path class="cls-18" d="M321.88,89.79a35.89,35.89,0,0,1,4.74-3.31c.74-.4,1.5-.76,2.24-1.15L327.71,85a2.89,2.89,0,0,1-1.24-.53,2.63,2.63,0,0,1-.63-1,20.72,20.72,0,0,1-1.31-8.3,6.4,6.4,0,0,1-1-.37,8.25,8.25,0,0,1-2.81-2.22,20.16,20.16,0,0,0-1.94,9.44c.06,1.36.25,2.71.33,4.07a25.94,25.94,0,0,1-.65,7.62C319,92.07,320.47,90.88,321.88,89.79Z" transform="translate(0 -0.29)"/></g><g class="cls-27"><path class="cls-28" d="M317.49,113.56c-.59-1.48-1.56-2.8-2-4.32a13.69,13.69,0,0,1-.34-4.2,57.77,57.77,0,0,1,1-11.11c.54-2.46,1.41-4.84,2-7.29a36.23,36.23,0,0,0,.66-3.71c0-.29,0-.58-.05-.87a20.09,20.09,0,0,1,.45-5.06c0-2.16.07-4.56,0-6.72l-.09.23a35.29,35.29,0,0,1-1.69-3.42h-1.12c-4.47-.76-8.93,1.34-12.71,3.85a15,15,0,0,0-1.69,1.26,14.73,14.73,0,0,0-3.77,6.17,64.63,64.63,0,0,1-2.54,6.84,10.19,10.19,0,0,1-5,5.11c.37.61.76,1.22,1.15,1.83,2.31,3.64,4.9,7.18,8.6,9.32a16.67,16.67,0,0,0,1.81.9l.65.26a17.69,17.69,0,0,0-.06,2.38,24.67,24.67,0,0,0,.72,4.28A61.08,61.08,0,0,1,305,117.2a17.29,17.29,0,0,1-.88,8c-.58,1.47-1.41,2.75-2,4.19l-.32-.1c-2.84-.95-5.12-3.09-7.87-4.26-3.22-1.38-6.85-1.36-10.35-1.3l-1.69,0h0a81.65,81.65,0,0,0-10.44,8.51,13.73,13.73,0,0,1,.13,2.16,15.77,15.77,0,0,1-1.09,4.47c4.37,1.9,7,5.29,10.86,8.17,2.74,2.06,5.79,3.74,8.36,6,.34.29.66.6,1,.92a8,8,0,0,1,0-4c1.1-3.21,5.33-4.21,7.09-7.11,1.26-2.07,1.06-4.82,2.43-6.81,1.07-1.56,2.9-2.38,4.6-3.19,3.84-1.81,7.64-4,10.3-7.32S319.08,117.51,317.49,113.56Z" transform="translate(0 -0.29)"/><path class="cls-29" d="M304.83,123.69a22.84,22.84,0,0,0-.17-10.21c-.34-1.67-.75-3.32-1.12-5a16.15,16.15,0,0,1-.52-5v-1.09l-.06,0-.43-.17a12.42,12.42,0,0,1-1.14-.53,12.88,12.88,0,0,1-2.17-1.25A20.31,20.31,0,0,1,295.58,97a39.5,39.5,0,0,1-3-4.08c-.47-.71-.91-1.43-1.36-2.15l-.23-.37s0,0,0-.05l.13-.06a8.52,8.52,0,0,0,1.13-.67,11.5,11.5,0,0,0,3.33-4,30.55,30.55,0,0,0,1.91-4.77,38.06,38.06,0,0,1,1.79-4.73,11.2,11.2,0,0,1,3-4,29.56,29.56,0,0,1,4.22-2.74,20.66,20.66,0,0,1,4.65-1.86,12.33,12.33,0,0,1,4.94-.29,4.45,4.45,0,0,0,.68,0h.46l.2.4.26.57a13.76,13.76,0,0,0,1.17,2.32l.32.47.21-.53.09-.23-.58-.1,0,5.51v1a.78.78,0,0,1,0,.28q-.14.69-.24,1.38a20.32,20.32,0,0,0-.2,2.8c0,.47,0,.94.05,1.4V83l-.06.34-.12.67-.49,2.69c-.43,1.77-1,3.52-1.49,5.31a44,44,0,0,0-1.42,11,30.54,30.54,0,0,0,.11,5.59c.34,1.94,1.54,3.48,2.2,5.12l.21-.09.1,0,.11,0,.2-.08c-.72-1.76-1.87-3.24-2.17-5a30.24,30.24,0,0,1-.11-5.44,43.38,43.38,0,0,1,1.37-10.86c.48-1.77,1.06-3.52,1.49-5.33l.49-2.74.12-.69.06-.34,0-.11v-.3c0-.45-.06-.91-.05-1.36a19.7,19.7,0,0,1,.19-2.71q.09-.67.23-1.34l0-.19a2.08,2.08,0,0,0,0-.21V68.68l-.58,1.48-.09.23.53-.06a13.21,13.21,0,0,1-1.12-2.23l-.27-.59-.14-.29-.23-.45h-.82a4.21,4.21,0,0,1-.59,0,12.91,12.91,0,0,0-5.17.31A21.23,21.23,0,0,0,306.23,69a30,30,0,0,0-4.31,2.82,11.76,11.76,0,0,0-3.09,4.14,38.53,38.53,0,0,0-1.81,4.8,30.05,30.05,0,0,1-1.86,4.69A11,11,0,0,1,292,89.22a8,8,0,0,1-1.06.63l-.45.2-.24.11c-.07,0,0,.06,0,.1l.08.12.44.71c.45.72.9,1.44,1.37,2.15a40,40,0,0,0,3,4.12,20.8,20.8,0,0,0,3.77,3.5,13.36,13.36,0,0,0,2.24,1.29,12.92,12.92,0,0,0,1.17.55l.16.06s0,0,0,.1v.65a16.64,16.64,0,0,0,.54,5.11c.38,1.66.79,3.31,1.13,5a22.39,22.39,0,0,1,.19,10,14.29,14.29,0,0,1-1.26,3.17l-.81,1.54L302,129c0,.13-.14,0-.45-.09-2.14-.79-4-2.24-6-3.39a15.94,15.94,0,0,0-6.71-2c-2.33-.21-4.66-.11-7-.1h-.08l-.07,0a95.21,95.21,0,0,0-9,7.07l-1,1-.25.25-.14.14-.11.11a.1.1,0,0,0-.05.13l.08.8a8.83,8.83,0,0,1-.13,2.76,21.4,21.4,0,0,1-.8,2.69c0,.15-.19.42-.15.56l.53.25c.21.1.43.19.63.31.42.21.82.45,1.22.69,3.2,2,5.73,4.88,8.82,7.15,1.54,1.14,3.14,2.16,4.7,3.23.78.54,1.55,1.08,2.29,1.66.37.29.73.59,1.09.9l1.66,1.55-.26-1.56-.06-.52,0-.4a6.61,6.61,0,0,1,.07-1.57,5.06,5.06,0,0,1,1.48-2.68c1.5-1.5,3.58-2.44,5.1-4.17a7.26,7.26,0,0,0,1.54-3c.3-1.08.48-2.16.83-3.16a5.52,5.52,0,0,1,1.71-2.57,12.45,12.45,0,0,1,2.74-1.65c4-1.83,8-4,10.9-7.42a14.71,14.71,0,0,0,3.07-5.92,10.89,10.89,0,0,0-.33-6.67l-.2.08-.11,0-.1,0-.21.09a10.22,10.22,0,0,1,.31,6.26,14.05,14.05,0,0,1-2.93,5.66c-2.8,3.32-6.72,5.44-10.67,7.27a13,13,0,0,0-2.87,1.74,6.16,6.16,0,0,0-1.89,2.84c-.71,2.12-.77,4.42-2.24,6s-3.45,2.55-5.06,4.15a5.66,5.66,0,0,0-1.63,3,7.2,7.2,0,0,0-.07,1.71l0,.42,0,.3,0,.12-.43-.39c-.36-.31-.73-.62-1.11-.91-.76-.59-1.53-1.14-2.32-1.68-1.57-1.08-3.18-2.09-4.69-3.21-3-2.22-5.58-5.13-8.87-7.16-.41-.25-.83-.49-1.26-.71-.21-.12-.43-.21-.65-.31s-.12,0-.1-.14a21.89,21.89,0,0,0,.81-2.76,9.37,9.37,0,0,0,.13-2.91l-.07-.62s0,0,0,0l.11-.11.25-.25,1-1a94.71,94.71,0,0,1,8.9-7l-.15,0h0c2.32,0,4.63-.12,6.92.08a15.44,15.44,0,0,1,6.52,1.91c2,1.11,3.85,2.58,6.09,3.41.17.06.22.09.48.16l.33.1c.08,0,.11-.2.16-.3l.21-.45.19-.39.8-1.54A14.76,14.76,0,0,0,304.83,123.69Z" transform="translate(0 -0.29)"/></g><path class="cls-25" d="M342.87,51.83c-.25,2.72-.43,5.31-.57,7.92-.12,2.2-.2,4.41-.29,6.72q-.24,6.48-.47,13-.16,4.35-.31,8.69a72.77,72.77,0,0,1-.88-9.68c-.11-3.53,0-7.07,0-10.59,0-1,0-1.83,0-2.66,0-5-.08-8.16,0-13.91h0a16.1,16.1,0,0,0-2-5.15,14.2,14.2,0,0,0-8.67-6.31,13.79,13.79,0,0,1-4-4.71l-.07-.14h0c-1-2.11-1.08-4.82.44-6.58l.23-.25a7.13,7.13,0,0,1,5.38-1.69A13.58,13.58,0,0,1,344.6,38.15a27.24,27.24,0,0,1-.79,9l-.26,1.31Z" transform="translate(0 -0.29)"/><path class="cls-23" d="M314.61,165.15a9.81,9.81,0,0,1,1.09,6.08v0a16.71,16.71,0,0,1-2.88,1q-.44.12-.87.21h0c-4.71,1-9.65-.56-13.54-3.44a14.3,14.3,0,0,1-3.56-3.58,15.83,15.83,0,0,1-1.07-2l-.35-.77c-1.41-3.13-2.82-6.27-3.92-9.52l.13-.15q.64.55,1.23,1.16c1.72,1.77,3.14,3.94,5.34,5.06,3.64,1.85,8.11.25,12.09,1.16A9.79,9.79,0,0,1,314.61,165.15Z" transform="translate(0 -0.29)"/><path class="cls-23" d="M250.53,144.71a1.63,1.63,0,0,0,.72.1,3.11,3.11,0,0,0,1.71-1q1.71-1.62,3.55-3.09a13.85,13.85,0,0,1,5.39-3,1.3,1.3,0,0,1,1,.07,1.79,1.79,0,0,1,.42.51,3.71,3.71,0,0,0,2.6,1.51q0,.15.06.3c.21,1.4-.4,3,.3,4.19a3.22,3.22,0,0,0,.54.67,3.43,3.43,0,0,0,3.35,1,.87.87,0,0,0,.4-.23.76.76,0,0,0,.14-.64c-.1-.56-.56-1-.83-1.48a3.93,3.93,0,0,1-.06-2.84c.17-.65.39-1.28.61-1.92,4.37,1.9,7,5.29,10.86,8.17,2.74,2.06,5.79,3.74,8.36,6l-.13.15c1.11,3.25,2.52,6.39,3.92,9.52l.35.77a11,11,0,0,0-3.75,3.88,36.56,36.56,0,0,0-6-5.07,29.83,29.83,0,0,0-3.49-2.24,37.19,37.19,0,0,0-6.09-2.28,138.07,138.07,0,0,1-16.27-6.32,22.77,22.77,0,0,1-4.67-2.67A7.81,7.81,0,0,1,250.53,144.71Z" transform="translate(0 -0.29)"/><g class="cls-30"><path class="cls-18" d="M294.43,96c-1-1.24-1.85-2.56-2.69-3.89a54.64,54.64,0,0,1-3,4.85,25,25,0,0,1-4.66,5c-6.27,5.84-10.91,13.19-15.26,20.57l-.91,1.56-.77,1.32-.84,1.44c-1.78.61-3.42,1.23-5.2,1.84-1.45.5-2.92,1-4.33,1.63a6.87,6.87,0,0,0-2.28,1.44,7.42,7.42,0,0,1-.73.75l-.15.1a59.65,59.65,0,0,0,11.25-2.34,13.07,13.07,0,0,0,2.88-1.07c3.69-2.07,4.54-6.91,6.93-10.39a25.59,25.59,0,0,1,2.06-2.51l10.14-11.37a21.41,21.41,0,0,1,2.28-2.31,31.15,31.15,0,0,0,2.45-2,12.71,12.71,0,0,0,2.14-3.33Z" transform="translate(0 -0.29)"/></g><path class="cls-31" d="M315.72,171.25v0s0-.05,0-.08a25.27,25.27,0,0,1-20-12.17c-1.94-1.17-3.28-3.15-4.87-4.79q-.6-.61-1.23-1.16l-.13.15c1.11,3.25,2.52,6.39,3.92,9.52l.35.77a15.83,15.83,0,0,0,1.07,2,14.3,14.3,0,0,0,3.56,3.58c3.89,2.88,8.83,4.41,13.54,3.44h0q.44-.09.87-.21" transform="translate(0 -0.29)"/><path class="cls-18" d="M289.52,153.17l.13-.15c-2.57-2.26-5.62-3.93-8.36-6-3.81-2.88-6.49-6.27-10.86-8.17-.22.64-.43,1.27-.61,1.92a3.93,3.93,0,0,0,.06,2.84c.27.5.74.92.83,1.48a1,1,0,0,1,0,.25,57,57,0,0,1,21.52,17.55L293,164a8,8,0,0,1,.75-.51l-.35-.77C292,159.56,290.63,156.42,289.52,153.17Z" transform="translate(0 -0.29)"/><path class="cls-18" d="M267.94,124.09l-.77,1.32-.84,1.44c-1.78.61-3.42,1.23-5.2,1.84-1.45.5-2.92,1-4.33,1.63a6.87,6.87,0,0,0-2.28,1.44,7.42,7.42,0,0,1-.73.75,4.2,4.2,0,0,1-.73.42,36.88,36.88,0,0,0-6,4.37l-.39.3a13.63,13.63,0,0,1,.22-2,11.57,11.57,0,0,1,5.3-7.17,24.57,24.57,0,0,1,8.57-3.09C263.13,124.9,265.55,124.58,267.94,124.09Z" transform="translate(0 -0.29)"/><path class="cls-32" d="M304.35,172a19.41,19.41,0,0,1-5.92-3,14.3,14.3,0,0,1-3.56-3.58,15.83,15.83,0,0,1-1.07-2,11,11,0,0,0-3.75,3.88l.42.48.23.28.89,1.19a5,5,0,0,1,1.3,3.75c.71,3.16,1.56,6.28,2.18,9.46a21.85,21.85,0,0,0,1.64,2.64c1.16,1.52,2.93,2.8,4.83,2.61a5,5,0,0,0,3.07-1.65,12,12,0,0,0,1.91-3c.33-.66.62-1.34.91-2A60.54,60.54,0,0,1,304.35,172Z" transform="translate(0 -0.29)"/><path class="cls-33" d="M197.52,18.71a11.6,11.6,0,0,1,1.49,4c.28,1.41.42,2.85.66,4.26a29.5,29.5,0,0,0,.94,3.89h0c0,.39.07.78.1,1.17a22.79,22.79,0,0,1-2.82,12.24c-.56,1-1.2,2-1.84,2.93a17.48,17.48,0,0,1-1.64,2.2c-.21.22-.43.44-.66.64A22.56,22.56,0,0,1,192,51.51a6.92,6.92,0,0,1-2,1.16,6.2,6.2,0,0,1-2.28.14,13.6,13.6,0,0,1-5.89-1.57,17.13,17.13,0,0,1-2.42-1.82c-.59-.5-1.19-1-1.77-1.55h0c-2.62-2.38-5-5.05-6-8.42a18.82,18.82,0,0,1-.55-3.45.51.51,0,0,0,0-.11h0a61.47,61.47,0,0,1,.69-11.11,8.46,8.46,0,0,1,.65-2.44,6.25,6.25,0,0,1,2.82-2.09h0a32.34,32.34,0,0,0,4,.08c5.09-.14,9.94-8.47,15-9.14,1.08-.15,2.27,7.66,3.22,7.47Z" transform="translate(0 -0.29)"/><path class="cls-34" d="M178.45,128.52c.77-.58.82-1.13,1.56-1.54a7.2,7.2,0,0,1,3.32-.61l9.62-.22a31.53,31.53,0,0,0,2.83,10.15c-3.38,1.4-7.72,3.53-10.75,5.18a39.34,39.34,0,0,0-5.55,4.07,17.42,17.42,0,0,1-5.93,3.42,7.26,7.26,0,0,1-6.55-1,11.11,11.11,0,0,1-2.81-4.57,10,10,0,0,1-1-4.48,3.81,3.81,0,0,1,.49-1.57c.84-1.44,2.56-2.07,4.11-2.68A40.84,40.84,0,0,0,178.45,128.52Z" transform="translate(0 -0.29)"/><path class="cls-15" d="M192.94,126.16l-9.62.22A7.2,7.2,0,0,0,180,127c-.75.4-.79,1-1.56,1.54a40.84,40.84,0,0,1-10.66,6.12c-1.55.61-3.27,1.24-4.11,2.68a3.81,3.81,0,0,0-.49,1.57h0c-6.29.7-12.71,1.44-19,1.81-1.69.1-3.54.13-4.89-.9s-1.8-2.91-2.13-4.62c-.53-2.67-1-5.53,0-8,.9-2.19,2.84-3.77,4.78-5.14a65.54,65.54,0,0,1,23.87-10.53c1.7,1.49,3.36,3,4.93,4.65a24.23,24.23,0,0,0,4.43,4l.11-.18c.34-.55.68-1.12,1-1.69a4.22,4.22,0,0,0,.34.38,8.06,8.06,0,0,0,.72.61l1.93,1.48a3.84,3.84,0,0,0,.91.58,3,3,0,0,0,1.08.18,37,37,0,0,1,4.17-.16c1.19.16,2.33.73,3.53.65a1.5,1.5,0,0,0,.68-.18l0,0a9.68,9.68,0,0,0,3.68-1.22l-.28.2a18.56,18.56,0,0,0,7.72,1.8c-2.62.91-5.26,1.75-7.89,2.51Q192.89,125.65,192.94,126.16Z" transform="translate(0 -0.29)"/><path class="cls-35" d="M179.35,109h0a17.46,17.46,0,0,0-1.29,1.4c-1.72,1.91-2,3.46-2.48,6,0,.23-.08.46-.12.68a20.24,20.24,0,0,0-.24,2.87l-.11.18a24.23,24.23,0,0,1-4.43-4c-1.57-1.63-3.23-3.16-4.93-4.65-3-2.63-6.17-5.13-9.16-7.79-4.07-3.61-7.93-7.63-10.52-12.39q.15-2.23.31-4.45c.12-1.73.25-3.45.53-5.16a53.13,53.13,0,0,1,1.3-5.37l3.53-12.7A17.68,17.68,0,0,1,155.09,58a5.41,5.41,0,0,1,2.26-1.94,43.49,43.49,0,0,1,8.22-2.77l11.83-3.12v0c.66,2.07.93,3.25,1.73,5.29a20.64,20.64,0,0,0,2.3,4.53,8.12,8.12,0,0,0,1.48,1.59,6.14,6.14,0,0,0,8.34-.64c1.65-1.79,2.09-4.37,2.31-6.8.12-1.32.19-2.65.22-4A74.48,74.48,0,0,1,203,50.1a14.16,14.16,0,0,1,4.63.79,10.59,10.59,0,0,1,4.86,4.41,35.27,35.27,0,0,1,2.73,6.08A206.94,206.94,0,0,0,225,83.18a11.46,11.46,0,0,1,1.11,2.64,9.61,9.61,0,0,1,.19,2.25c0,5.47-1.41,11.19.61,16.27l0,.06a8.85,8.85,0,0,0-3.45-.84,9.74,9.74,0,0,0-5.77,1.44,16.66,16.66,0,0,0-2.19,1.71c-.08-.49-.17-1-.26-1.48q-.85-4.92-1.77-9.83a35.14,35.14,0,0,0-2.44-8.71,34.67,34.67,0,0,0-5.8-7.94A142.39,142.39,0,0,0,202.56,110l-.06.1a45.4,45.4,0,0,1-2.28,4.36,29.66,29.66,0,0,1-6.91,6.18,9.68,9.68,0,0,1-3.68,1.22l0,0,.08-.06a1.67,1.67,0,0,0,.51-.93,1.41,1.41,0,0,0,0-.9,1.28,1.28,0,0,0-.89-.65h0c.51.15.72.11,1-.16a1.71,1.71,0,0,0,.41-1.06,1.34,1.34,0,0,0-.23-1.05,1.47,1.47,0,0,0,1.13-1.58,3.45,3.45,0,0,0-1-1.94,5.24,5.24,0,0,0-.46-.49,1.6,1.6,0,0,0,.62.08.93.93,0,0,0,.63-.33.54.54,0,0,0,.1-.17h0a3,3,0,0,0,3.31-.71,1.48,1.48,0,0,0,.4-.73,1.3,1.3,0,0,0-.54-1.18,3.46,3.46,0,0,0-1.22-.52c-1.83-.5-3.71-.81-5.51-1.41a27.45,27.45,0,0,0-2.67-.86,4.62,4.62,0,0,0-2.75.12,6.3,6.3,0,0,0-.63.31Z" transform="translate(0 -0.29)"/><path class="cls-15" d="M240.65,110.25c3.85,2.94,5.33,14.4-.43,17.82a334.18,334.18,0,0,0-43.34,10.38c-.4-.7-.77-1.41-1.11-2.14a31.53,31.53,0,0,1-2.83-10.15q0-.51-.09-1c2.63-.76,5.27-1.6,7.89-2.51h0c4.84-1.67,9.63-3.59,14.24-5.71h.14a1.75,1.75,0,0,0,.51,1.31,1.3,1.3,0,0,0,2-.31l.1,0c-.1.54-.22,1.12-.35,1.73a38.49,38.49,0,0,0-1.14,5.66,2.15,2.15,0,0,0,.17,1.18,1.24,1.24,0,0,0,2,.15,2.41,2.41,0,0,0,.37-.92l2.2-9.13c.52,0,.6.56.6,1.08a26.34,26.34,0,0,1-.62,3.55c-.24,1.57-.66,3-1,4.6-.09.43-.17.86-.26,1.28a2.3,2.3,0,0,0-.06,1,1.21,1.21,0,0,0,1.09.91,1.54,1.54,0,0,0,1.17-.54,3.38,3.38,0,0,0,.65-1.15,22.42,22.42,0,0,0,1-5.41,15.16,15.16,0,0,1,1.39-5.54c-.63,3.72-1.08,7.47-1.53,11.22a1.27,1.27,0,0,0,.12.9,1.16,1.16,0,0,0,.86.36,1.44,1.44,0,0,0,.91-.21,2.32,2.32,0,0,0,1-1.78c.12-.65.34-2.4.47-3.53a10,10,0,0,0,0,1.19,2.21,2.21,0,0,0,.48,1.45.92.92,0,0,0,1.36,0,1.33,1.33,0,0,0,.18-.53q.67-3.43,1.34-6.85c.12-.6.24-1.2.3-1.8a21.86,21.86,0,0,0-.25-5.08A12.36,12.36,0,0,0,229,107.2a12,12,0,0,0-.79-1.18l-.42-.57,0,0a44.49,44.49,0,0,1,7.76,1.93A19.09,19.09,0,0,1,240.65,110.25Z" transform="translate(0 -0.29)"/><g class="cls-36"><path class="cls-37" d="M175.15,20.08h0a6.25,6.25,0,0,0-2.82,2.09,8.46,8.46,0,0,0-.65,2.44A61.47,61.47,0,0,0,171,35.73h0a.51.51,0,0,1,0,.11,18.82,18.82,0,0,0,.55,3.45c.93,3.36,3.34,6,6,8.42h0c.58.53,1.18,1,1.77,1.55a17.14,17.14,0,0,0,2.42,1.82,13.6,13.6,0,0,0,5.89,1.57,6.4,6.4,0,0,0,2.2-.12,4.4,4.4,0,0,0-.15-2.85,10.49,10.49,0,0,0-3-3.31,18.57,18.57,0,0,1-5.86-15.5c.33-3,1.38-5.83,1.58-8.81a14.51,14.51,0,0,0,0-2c-1.06.05-2.11.1-3.17.12A32.34,32.34,0,0,1,175.15,20.08Z" transform="translate(0 -0.29)"/></g><path class="cls-18" d="M186.5,62.74a6,6,0,0,1-3.66-1.5,11,11,0,0,1-2.34-3.32,36.11,36.11,0,0,1-1.56-3.85c-.45-1.31-.79-2.66-1.22-4l-.22.07-.1,0-.11,0-.21.07c.44,1.32.8,2.67,1.28,4A36.66,36.66,0,0,0,180,58.17a11.54,11.54,0,0,0,2.51,3.45,6.5,6.5,0,0,0,8.06.33,7.22,7.22,0,0,0,2.48-3.5c1-2.74.86-5.59,1.08-8.38h-.68c-.17,2.76-.06,5.61-.94,8.21a6.68,6.68,0,0,1-2.25,3.28A5.92,5.92,0,0,1,186.5,62.74Z" transform="translate(0 -0.29)"/><path class="cls-37" d="M169.57,26.9a86.41,86.41,0,0,1,1.52,9h0a.51.51,0,0,1,0,.11,1.2,1.2,0,0,1-1.31.65,2.27,2.27,0,0,1-1.39-1.07,4.6,4.6,0,0,1-.49-1,14.37,14.37,0,0,1-.47-2.16,13.9,13.9,0,0,0-.77-2.57,9.24,9.24,0,0,1-1.12-3.72,1.59,1.59,0,0,1,.18-.74,1.48,1.48,0,0,1,.55-.5,2.67,2.67,0,0,1,1.36-.37v.06a1.63,1.63,0,0,1,1.38.76A4.45,4.45,0,0,1,169.57,26.9Z" transform="translate(0 -0.29)"/><path class="cls-33" d="M193.78,50.22c0,1.33-.1,2.65-.22,4-.22,2.43-.65,5-2.31,6.8a6.14,6.14,0,0,1-8.34.64A8.12,8.12,0,0,1,181.44,60a20.64,20.64,0,0,1-2.3-4.53c-.8-2-1.07-3.22-1.73-5.29h0a5.21,5.21,0,0,0,.15-2.34c.58.53,1.18,1,1.77,1.55a17.13,17.13,0,0,0,2.42,1.82,13.6,13.6,0,0,0,5.89,1.57,6.2,6.2,0,0,0,2.28-.14,6.92,6.92,0,0,0,2-1.16,22.56,22.56,0,0,0,1.83-1.44C193.79,50.12,193.78,50.17,193.78,50.22Z" transform="translate(0 -0.29)"/><path class="cls-15" d="M217.73,105a11.39,11.39,0,0,0-2,3.78,9.43,9.43,0,0,0,.08,4.29,3.94,3.94,0,0,1,.08,1.92c-.12.37-.35.69-.51,1a2.31,2.31,0,0,0-.2.9H215c-4.6,2.12-9.39,4-14.24,5.71h0a18.56,18.56,0,0,1-7.72-1.8l.28-.2a29.66,29.66,0,0,0,6.91-6.18,45.4,45.4,0,0,0,2.28-4.36l.06-.1v.06c2.11-2.24,5.21-3.35,8.23-4a44.39,44.39,0,0,1,4.49-.8c.09.49.17,1,.26,1.48A16.66,16.66,0,0,1,217.73,105Z" transform="translate(0 -0.29)"/><path class="cls-18" d="M189.34,119.28a1.28,1.28,0,0,1,.89.65,1.41,1.41,0,0,1,0,.9,1.67,1.67,0,0,1-.51.93l-.08.06a1.5,1.5,0,0,1-.68.18c-1.2.08-2.34-.49-3.53-.65a37,37,0,0,0-4.17.16,3,3,0,0,1-1.08-.18,3.84,3.84,0,0,1-.91-.58l-1.93-1.48a8.06,8.06,0,0,1-.72-.61,4.22,4.22,0,0,1-.34-.38,9,9,0,0,1-.76-1.18c0-.23.07-.46.12-.68.49-2.52.76-4.07,2.48-6a17.46,17.46,0,0,1,1.29-1.4h0l2.63-1.42a6.3,6.3,0,0,1,.63-.31,4.62,4.62,0,0,1,2.75-.12A27.45,27.45,0,0,1,188,108c1.8.6,3.68.91,5.51,1.41a3.46,3.46,0,0,1,1.22.52,1.3,1.3,0,0,1,.54,1.18,1.48,1.48,0,0,1-.4.73,3,3,0,0,1-3.31.71h0a.54.54,0,0,1-.1.17.93.93,0,0,1-.63.33,1.6,1.6,0,0,1-.62-.08,5.24,5.24,0,0,1,.46.49,3.45,3.45,0,0,1,1,1.94,1.47,1.47,0,0,1-1.13,1.58,1.34,1.34,0,0,1,.23,1.05,1.71,1.71,0,0,1-.41,1.06c-.28.27-.49.31-1,.16Z" transform="translate(0 -0.29)"/><path class="cls-18" d="M226.93,104.33l.83,1.11.42.57a12,12,0,0,1,.79,1.18,12.36,12.36,0,0,1,1.19,4.58,21.86,21.86,0,0,1,.25,5.08c-.07.61-.18,1.2-.3,1.8q-.67,3.43-1.34,6.85a1.33,1.33,0,0,1-.18.53.92.92,0,0,1-1.36,0,2.21,2.21,0,0,1-.48-1.45,10,10,0,0,1,0-1.19c0-.28.06-.52.07-.69,0,.23-.06.46-.07.69-.13,1.12-.35,2.88-.47,3.53a2.32,2.32,0,0,1-1,1.78,1.44,1.44,0,0,1-.91.21,1.16,1.16,0,0,1-.86-.36,1.27,1.27,0,0,1-.12-.9c.45-3.75.9-7.5,1.53-11.22a15.16,15.16,0,0,0-1.39,5.54,22.42,22.42,0,0,1-1,5.41,3.38,3.38,0,0,1-.65,1.15,1.54,1.54,0,0,1-1.17.54,1.21,1.21,0,0,1-1.09-.91,2.3,2.3,0,0,1,.06-1c.08-.43.17-.86.26-1.28.33-1.56.75-3,1-4.6a26.34,26.34,0,0,0,.62-3.55c0-.52-.08-1.07-.6-1.08l-2.2,9.13a2.41,2.41,0,0,1-.37.92,1.24,1.24,0,0,1-2-.15,2.15,2.15,0,0,1-.17-1.18,38.49,38.49,0,0,1,1.14-5.66c.14-.62.25-1.19.35-1.73l-.1,0a1.3,1.3,0,0,1-2,.31,1.75,1.75,0,0,1-.51-1.31,2.31,2.31,0,0,1,.2-.9c.15-.36.39-.68.51-1a3.94,3.94,0,0,0-.08-1.92,9.43,9.43,0,0,1-.08-4.29,11.39,11.39,0,0,1,2-3.78,9.74,9.74,0,0,1,5.77-1.44,8.85,8.85,0,0,1,3.45.84Z" transform="translate(0 -0.29)"/><path class="cls-15" d="M200.76,122.64c4.84-1.67,9.63-3.59,14.24-5.71h.14a2.31,2.31,0,0,1,.2-.9c.15-.36.39-.68.51-1a3.94,3.94,0,0,0-.08-1.92,13.47,13.47,0,0,1-.29-2.41,42.43,42.43,0,0,0-7.3,3.22,98.1,98.1,0,0,1-13,5.42c-.61.46-1.22.9-1.84,1.34l-.28.2a18.56,18.56,0,0,0,7.72,1.8Z" transform="translate(0 -0.29)"/><g class="cls-38"><path class="cls-39" d="M167.08,68.69c-.43,2.8-2.29,7.66-3.1,10.38-1.27,4.3-1.91,6.65-2.38,7.84a74.33,74.33,0,0,0,5.53,8.69c2.33,2.79,4.39,5.72,7.19,8,.53.43,1.13,1.4,1.67,1.83-.28-.5-.56-1.8-.85-2.27A60.85,60.85,0,0,1,166.76,76C166.58,73.09,167.22,71.6,167.08,68.69Z" transform="translate(0 -0.29)"/></g><g class="cls-40"><path class="cls-18" d="M229,107.2a12,12,0,0,0-.79-1.18l-.42-.57-.83-1.11,0,.06a8.85,8.85,0,0,0-3.45-.84,9.74,9.74,0,0,0-5.77,1.44l-.06.09c3.26,1.72,6,2.5,8.21,4.4,1.61,1.36,2,3.85,2.54,5.89.44,1.73,0,3.54,0,5.32a6.29,6.29,0,0,0,.71,3.2l1-5.21c.12-.6.24-1.2.3-1.8a21.85,21.85,0,0,0-.25-5.08A12.36,12.36,0,0,0,229,107.2Z" transform="translate(0 -0.29)"/></g><g class="cls-41"><path class="cls-18" d="M182.61,107.3a6.3,6.3,0,0,0-.63.31L179.35,109h0a17.45,17.45,0,0,0-1.29,1.4c-1.72,1.91-2,3.46-2.48,6,0,.23-.08.46-.12.68a9,9,0,0,0,.76,1.18,4.22,4.22,0,0,0,.34.38,8.06,8.06,0,0,0,.72.61l1,.77a30.63,30.63,0,0,1,4.46-12.8Z" transform="translate(0 -0.29)"/></g><g class="cls-42"><path class="cls-43" d="M240.65,110.25c-.46-.35-.93-.69-1.41-1,.4.77.77,1.56,1.1,2.37.74,1.78,1.33,3.81.62,5.6s-2.48,2.84-4.16,3.74q-3.87,2.07-7.89,3.84l-.14.73a1.33,1.33,0,0,1-.18.53.92.92,0,0,1-1.36,0,1.41,1.41,0,0,1-.26-.4l-.49.21c-.06.45-.12.84-.16,1.08a2.32,2.32,0,0,1-1,1.78,1.44,1.44,0,0,1-.91.21,1.16,1.16,0,0,1-.86-.36,1.27,1.27,0,0,1-.12-.9l.07-.6-1,.36a3.35,3.35,0,0,1-.64,1.13,1.54,1.54,0,0,1-1.17.54,1.21,1.21,0,0,1-1-.66,118.1,118.1,0,0,1-20.44,5.08,26.72,26.72,0,0,0-4.32.91c.25.65.52,1.29.82,1.92s.71,1.44,1.11,2.14a334.17,334.17,0,0,1,43.34-10.38C246,124.65,244.5,113.19,240.65,110.25Z" transform="translate(0 -0.29)"/><path class="cls-29" d="M195.84,135.9l-.58-1.36s.08,0,.12-.05l.4-.11.82-.2c1.1-.24,2.22-.39,3.34-.57q3.37-.53,6.71-1.27c2.22-.48,4.43-1,6.63-1.65,1.1-.31,2.19-.63,3.27-1l1.63-.52,1.41-.47a1.4,1.4,0,0,0,.38.37,1.42,1.42,0,0,0,.73.24,1.8,1.8,0,0,0,1.32-.57,3.35,3.35,0,0,0,.69-1.13s0,0,.08,0l.25-.09s.09-.06.08,0l0,.26a1.61,1.61,0,0,0,.07.75,1,1,0,0,0,.61.57,2.35,2.35,0,0,0,.7.13,1.56,1.56,0,0,0,.73-.16,2,2,0,0,0,.61-.38,2.62,2.62,0,0,0,.66-1.22,11.4,11.4,0,0,0,.23-1.26c0-.24,0-.08.12-.18s0,0,0,0v0l.09.14a1.28,1.28,0,0,0,1.47.37,1,1,0,0,0,.55-.65c.07-.25.09-.44.14-.64l0-.25s0,0,.05,0l.56-.27,1.13-.55,2.26-1.09c1.5-.75,3-1.42,4.5-2.23a6.1,6.1,0,0,0,3.22-8.72c-.15-.4-.32-.79-.5-1.17l-.31-.68h0l.11.08.25.18.14-.18.07-.09.07-.09.13-.18-1.68-1.19-.51-.36-.25-.18s.07.17.1.24l.53,1.13.74,1.59a12.31,12.31,0,0,1,.49,1.13,6.77,6.77,0,0,1,.42,4.65,6.84,6.84,0,0,1-3.33,3.29c-1.45.8-3,1.48-4.46,2.22l-2.24,1.09-1.12.55-.56.27c-.09.07-.41.12-.37.35l-.07.37c0,.2-.08.43-.12.58a.41.41,0,0,1-.22.28.7.7,0,0,1-.79-.22l-.24-.36c-.07-.27-.3,0-.47,0l-.48.2a3.14,3.14,0,0,0-.09.47,11.08,11.08,0,0,1-.21,1.2,2.07,2.07,0,0,1-.5,1,1.42,1.42,0,0,1-.45.27,1,1,0,0,1-.48.11c-.38,0-.74-.11-.81-.34a1.09,1.09,0,0,1,0-.49l.12-1,0-.14v-.07l-.07,0-.27.1-.54.2-.33.12-.23.09c-.12,0-.09.16-.14.22a2.82,2.82,0,0,1-.59,1,1.26,1.26,0,0,1-.9.41.87.87,0,0,1-.45-.15c-.14-.1-.21-.14-.44-.57l-1.82.61-1.62.52c-1.08.34-2.17.67-3.26,1-2.18.62-4.38,1.18-6.59,1.67s-4.44.92-6.68,1.29c-1.12.18-2.25.34-3.37.59l-.84.21-.42.12-.34.11-.17.05c-.06,0-.13,0-.07.1l.76,1.78c.17.43.41.83.61,1.24l.72,1.4,4-1.22,3.87-1.12c2.59-.73,5.18-1.44,7.78-2.1q7.81-2,15.71-3.64,3.95-.82,7.91-1.53l4-.7.12,0s.16,0,.21-.06l.23-.17.43-.31c.14-.11.29-.2.42-.32l.36-.38a8,8,0,0,0,1.23-1.69,14,14,0,0,0,1.18-8.06,16.43,16.43,0,0,0-1-4,8.16,8.16,0,0,0-2.36-3.44l-.13.18-.07.09-.07.09-.14.18a7.54,7.54,0,0,1,2.15,3.15,15.78,15.78,0,0,1,1,3.81,13.4,13.4,0,0,1-1.08,7.68,7.32,7.32,0,0,1-1.13,1.56l-.33.35c-.12.11-.25.19-.38.29l-.39.29-.18.13h0l-.12,0-4,.71q-4,.73-7.92,1.56-7.9,1.65-15.72,3.7c-2.61.68-5.2,1.4-7.79,2.13l-3.87,1.14L197,138.18l-.55-1.05C196.25,136.72,196,136.33,195.84,135.9Z" transform="translate(0 -0.29)"/></g><path class="cls-44" d="M188.22,126.27a32,32,0,0,0,3.41,11.89c1.44-.68,2.86-1.32,4.15-1.85a31.53,31.53,0,0,1-2.83-10.15Z" transform="translate(0 -0.29)"/><g class="cls-45"><path class="cls-46" d="M193,120.84l.28-.2a9.68,9.68,0,0,1-3.68,1.22l0,0a1.5,1.5,0,0,1-.68.18,7.63,7.63,0,0,1-2.46-.42c-1.13,0-2.26,0-3.38,0a118.12,118.12,0,0,0-29.6,3.92l26.37,1.57L180,127a7.2,7.2,0,0,1,3.32-.61l9.62-.22q0-.51-.09-1c2.63-.76,5.27-1.6,7.89-2.51A18.56,18.56,0,0,1,193,120.84Z" transform="translate(0 -0.29)"/><path class="cls-29" d="M161.51,125.78l-8-.5,0,.48a118.3,118.3,0,0,1,17.93-3.24c3-.31,6.06-.49,9.09-.57,1.52,0,3,0,4.57,0h1.34l.27.08.56.15a6.36,6.36,0,0,0,1.19.19,2.32,2.32,0,0,0,1.3-.23l-.42-.06,0,0,.11.13.17,0a10.06,10.06,0,0,0,3.81-1.25l-.36-.57-.28.2.13.19.06.09.07.1.13.18.28-.2-.36-.57a9.38,9.38,0,0,1-3.55,1.18l.28.11,0,0-.19-.21-.23.14a1.74,1.74,0,0,1-.92.14,5.72,5.72,0,0,1-1.06-.17l-.54-.14-.28-.07a.61.61,0,0,0-.23,0H185.1c-1.52,0-3,0-4.57.07-3.05.09-6.1.29-9.14.62a118.85,118.85,0,0,0-18,3.33l-1.49.4,1.54.09,8,.46,15.77,1,2,.12.5,0c.07,0,.15,0,.22,0l.16-.1.2-.11a4.16,4.16,0,0,1,.88-.3,24.62,24.62,0,0,1,3.88-.23l8.22-.17a6.25,6.25,0,0,1-.08-1.1l1-.31,2.22-.7,4.44-1.4,1.95-.61h-2a18.38,18.38,0,0,1-7.59-1.78l-.09.2,0,.11,0,.1-.09.21a19.06,19.06,0,0,0,7.86,1.81l-.1-.62-4.42,1.42-2.21.71-1.22.39-.26.08,0,.27,0,.4,0,.26-7.58.19a24.7,24.7,0,0,0-4,.26,4.69,4.69,0,0,0-1,.34,2.67,2.67,0,0,0-.24.13c-.07,0,0,0-.08,0l-.49,0-2-.11Z" transform="translate(0 -0.29)"/></g><path class="cls-47" d="M77.85,60.13A36.63,36.63,0,0,0,70.46,57l-.11-.14c1-.1,1.94-.18,2.91-.22q-1.62-.82-3.3-1.55c.94-.34,1.89-.65,2.86-.92-.63-.34-1.26-.68-1.9-1A25.55,25.55,0,0,0,63.55,51a23.33,23.33,0,0,0-10.95-2.4c-1.36,0-2.79-.1-4.24-.19l.05-.05c-2.51-.21-5.23.53-7.71.89.08-.77.16-1.54.26-2.31l-1.52,2.19a7.25,7.25,0,0,0-3.13-3,34.14,34.14,0,0,1,.86,3.49,20.46,20.46,0,0,0-8-.19,9.55,9.55,0,0,1,3.62,0,7.41,7.41,0,0,1,2.08,1c.27.17.53.36.79.54l-.1.07A13.08,13.08,0,0,0,25.5,57.06c.55-.2,1.1-.38,1.66-.55a7,7,0,0,0-.73,1.24,16.1,16.1,0,0,0-1.09,4.6,5.15,5.15,0,0,1,1.1-1c-.27.67.42,5.53.35,6.25.12.45,2.38,9.06,2.46,9.85,3,5.35,6.62,10.57,6.91,11.1,1.12,2,2.24,4.1,3.32,6.17l1.12-.07a46.14,46.14,0,0,0,5.84-.55c0-3.34,4-7.25,3.28-10.51l.08,0c-.36-.51-.64-1.09-1-1.61-.7-1.1-1.69-2.07-2-3.33A3.32,3.32,0,0,1,48,75.38a3.72,3.72,0,0,1,3.55-.57l.19.16a12.6,12.6,0,0,1,1.82,6.42q-.14-5.18-.26-10.35c0-1-.16-1,.46-1.77.16-.19,1.67-1.94,2-2h0a10.17,10.17,0,0,0,.48-4.17c6.19,1.71,12.64,3.34,16.46-1.28h0a4,4,0,0,0-.4-1.82C74.17,60,76,60,77.85,60.13Z" transform="translate(0 -0.29)"/><g class="cls-42"><path class="cls-48" d="M39.32,163.32a6.11,6.11,0,0,1-3.84-1.38,6.14,6.14,0,0,1-1.25-3.78l-1.86-19a48.26,48.26,0,0,1-.24-10.77,16.21,16.21,0,0,1,4.37-9.65c2-2,4.66-3.17,6.78-5,1.89-1.65,3.35-4.21,2.89-6.58a24.83,24.83,0,0,1-4.5-4.08,9.38,9.38,0,0,0-2-.2c-6.08,3.64-15.13,7.72-15.32,15.81-.11,4.6.84,9.32.22,13.38-1.87,12.18-2.31,21,1.83,32.84a7.47,7.47,0,0,0,2.08,3.34,4.14,4.14,0,0,0,2.81.74c.39,0,.79,0,1.17-.08l33.57-3.23Q52.66,164.84,39.32,163.32Z" transform="translate(0 -0.29)"/></g><path class="cls-49" d="M81.54,184.57a29.62,29.62,0,0,1,3,1.94,28.93,28.93,0,0,1,2.28,1.89l.42.4c1-.57,1.58-1.63,2.48-2.4l.58.24A19.91,19.91,0,0,1,99.18,194a19.44,19.44,0,0,1,1.87,3.63c.12.31.24.62.35.94a65.83,65.83,0,0,1-3.06,8.21c-1,2.18-2.37,4.53-4.69,5.09-1.84.45-3.72-.37-5.47-1.08l-.37-.14h0c-6.07-2.42-12.48-3.8-18.91-5.1-6.89-1.4-13.82-2.73-20.39-5.19-4-1.5-8-3.53-10.64-6.91a18.86,18.86,0,0,1-3.42-8h0a49.33,49.33,0,0,1,27.75-9.33q5.75,2.28,11.45,4.69L74,181A68.18,68.18,0,0,1,81.54,184.57Z" transform="translate(0 -0.29)"/><path class="cls-19" d="M73,175.75a8.69,8.69,0,0,1-2.65.53,32.8,32.8,0,0,1-4.84-.08q-1.65-.08-3.31,0a49.33,49.33,0,0,0-27.75,9.33h0q-1.45,1.05-2.82,2.21c-1.27-6.38-1.77-11.36-.3-18.76h0c.39,0,.79,0,1.17-.08l38-3.65,3.84,9.7h0A4.49,4.49,0,0,1,73,175.75Z" transform="translate(0 -0.29)"/><path class="cls-49" d="M128.45,156c-.26-2-.63-4.26-2.2-5.57a7.66,7.66,0,0,0-3.35-1.37,46.84,46.84,0,0,0-13.55-1.22,28.52,28.52,0,0,1,3.64,1,4.52,4.52,0,0,1,1.4.71,1.79,1.79,0,0,1,.66,1.36c0,1-1,1.2-1.52,1.18a1.38,1.38,0,0,1,.26.14,1.44,1.44,0,0,1,.11,2,2.49,2.49,0,0,1-2.09.72,8.52,8.52,0,0,1-1.87-.45,2.85,2.85,0,0,1,.65,1.07,1.75,1.75,0,0,1-.37,1.76,2.78,2.78,0,0,1-1.83.54c-3.33.17-6.81.37-10.14.54h0c-2.9,1.38-5.73,3.11-8.89,3.4a23.08,23.08,0,0,1-7.17-1,26.54,26.54,0,0,0-3.18-.58h-.13c0,1.23.14,2.55.28,4l-8.71.84,3.84,9.7h0a4.5,4.5,0,0,1-1.3.85,8.69,8.69,0,0,1-2.65.53,32.8,32.8,0,0,1-4.84-.08q-1.65-.08-3.31,0c3.83,1.52,6.37,2.55,10.17,4.15,0-.22,1.23.09,1.21-.13h.07c3,.13,7.25-.48,12.55-.87q-2.41,2.56-4.65,5.29a29.62,29.62,0,0,1,3,1.94,28.94,28.94,0,0,1,2.28,1.89l.42.4c1-.57,1.58-1.63,2.48-2.4l.58.24h0c.91-1.15,2.58-3.21,4-3.85,2.23-1,4.46-.3,6.74-.59.81-.11,2.68-.43,2.68-.43a81.5,81.5,0,0,1,13.71-9.09c1.7-.9,3.74-1.74,5.5-1.26a12.1,12.1,0,0,0,5.72-8.22A24,24,0,0,0,128.45,156Z" transform="translate(0 -0.29)"/><path class="cls-50" d="M92.43,172.79c-6.39,0-12.63.32-18.65.8l.52,1.31h0a4.5,4.5,0,0,1-1.3.85,8.69,8.69,0,0,1-2.65.53,32.8,32.8,0,0,1-4.84-.08q-1.65-.08-3.31,0c3.83,1.52,6.37,2.55,10.17,4.15,0-.22,1.23.09,1.21-.13h.07c2.91.13,7.08-.46,12.23-.85A53.74,53.74,0,0,1,92.43,172.79Z" transform="translate(0 -0.29)"/><path class="cls-34" d="M101,197.63A19.44,19.44,0,0,0,99.18,194a19.91,19.91,0,0,0-8.91-7.38h0c.91-1.15,2.58-3.21,4-3.85,2.23-1,4.46-.3,6.74-.59.81-.11,2.68-.43,2.68-.43a81.5,81.5,0,0,1,13.71-9.09c1.7-.9,3.74-1.74,5.5-1.26a3.58,3.58,0,0,1,.84.35c1.8,1,2.28,3.38,2.57,5.44.48,3.36.86,7.13-1.21,9.82-1.55,2-4.11,2.9-6.51,3.69a73.24,73.24,0,0,1-11.89,3.18,11.61,11.61,0,0,0-3.74.93,3.36,3.36,0,0,0-1.91,2.8Z" transform="translate(0 -0.29)"/><path class="cls-34" d="M87.8,210.64h0a15.17,15.17,0,0,1-1.16,2c-1.11,1.63-2.78,3.16-4.76,3.09s-3.38-1.54-4.71-2.88a85.17,85.17,0,0,0-8.29-7.27v-.05C75.32,206.84,81.73,208.21,87.8,210.64Z" transform="translate(0 -0.29)"/><path class="cls-51" d="M101,197.63h0a3.07,3.07,0,0,1,1.15-2.27c-2.46-4.95-6.29-8.64-10.79-10.14-.45.52-.86,1-1.17,1.42h0A19.91,19.91,0,0,1,99.18,194,19.44,19.44,0,0,1,101,197.63Z" transform="translate(0 -0.29)"/><path class="cls-16" d="M96.23,146.48v0a91.09,91.09,0,0,1,13.12,1.36,28.53,28.53,0,0,1,3.64,1,4.52,4.52,0,0,1,1.4.71,1.79,1.79,0,0,1,.66,1.36c0,1-1,1.2-1.52,1.18a1.38,1.38,0,0,1,.26.14,1.44,1.44,0,0,1,.11,2,2.49,2.49,0,0,1-2.09.72,8.52,8.52,0,0,1-1.87-.45,2.85,2.85,0,0,1,.65,1.07,1.75,1.75,0,0,1-.37,1.76,2.78,2.78,0,0,1-1.83.54c-3.33.17-6.81.37-10.14.54h0c-2.9,1.38-5.73,3.11-8.89,3.4a23.08,23.08,0,0,1-7.17-1,26.54,26.54,0,0,0-3.18-.58h-.13A68.12,68.12,0,0,1,79.53,149a142.75,142.75,0,0,0,14.68-6.09h0a111.64,111.64,0,0,1,19.4-1.13c.24,1.05.41,2.32-.37,3.06a3,3,0,0,1-2,.62C106.23,145.7,101,144.83,96.23,146.48Z" transform="translate(0 -0.29)"/><path class="cls-52" d="M199.67,27c-.24-1.42-.38-2.85-.66-4.26a11.6,11.6,0,0,0-1.49-4v-.07a14.08,14.08,0,0,0,2.07-.58h0q.2,2.84.4,5.68.18,2.54.36,5.08h0c.14.68.24,1.36.31,2h0A29.5,29.5,0,0,1,199.67,27Z" transform="translate(0 -0.29)"/><path class="cls-18" d="M201.61,30.17a2.35,2.35,0,0,1-.15,1.59.76.76,0,0,1-.31.33.37.37,0,0,1-.4,0c0-.39-.05-.78-.1-1.17-.07-.69-.18-1.37-.31-2h0q-.18-2.54-.36-5.08a1.3,1.3,0,0,1,1.12-1.12,1.84,1.84,0,0,1,.55,0c.38.15.42.67.35,1.07-.26,1.62-1,3.21-.77,4.83C201.31,29.12,201.51,29.64,201.61,30.17Z" transform="translate(0 -0.29)"/><g class="cls-53"><path class="cls-54" d="M322.09,68.46c-1.37-4.85-3-9.66-3.92-14.61a39.78,39.78,0,0,1-.71-12l-.37.23a10.07,10.07,0,0,0-3.38,4,31.25,31.25,0,0,0-.28,6.21c.19,1.4.36,2.8.48,4.21h0a39,39,0,0,0,4,11.49q.88,1.66,1.9,3.2A16.63,16.63,0,0,0,321.14,73a9.31,9.31,0,0,0,.71.74l.07-.08C323,72.24,322.58,70.2,322.09,68.46Z" transform="translate(0 -0.29)"/></g><path class="cls-18" d="M342.3,59.75c.14-2.61.31-5.2.57-7.92l.67-3.34h0a1.29,1.29,0,0,1,1.41-.78,1.8,1.8,0,0,1,1.3,1.06,3.06,3.06,0,0,1,.18,1.72,13.43,13.43,0,0,1-1.18,3.24,16.94,16.94,0,0,0-1,3.2,6.4,6.4,0,0,1-.51,1.8,1.76,1.76,0,0,1-1.46,1Z" transform="translate(0 -0.29)"/><path class="cls-32" d="M291.49,158.6a6,6,0,0,1-.72-1.51l-.13.23c-.16.27-.33.57-.49.81s-.32.49-.48.72l-.24.33-.13.17-.27.34q-.27.34-.56.66l-.29.31a14.32,14.32,0,0,0,1.27-5.13q0-.39,0-.79c0-.13,0-.26,0-.4s0-.42-.08-.62a6.82,6.82,0,0,0-.29-1.11l-.62-.44-.33.62a10.81,10.81,0,0,1-.62,1,11.16,11.16,0,0,1-.79,1,13,13,0,0,1-1.89,1.73c-.43.33-.88.63-1.35.91a19.23,19.23,0,0,0,1.2-1.77,9.88,9.88,0,0,0,1.15-2.75,6.84,6.84,0,0,0,.18-1.53,3.73,3.73,0,0,0-.07-.83,2.31,2.31,0,0,0-.22-.61l-.33-.18-1.11-.68a9.5,9.5,0,0,1,.51,2.3,5.63,5.63,0,0,1-.13,1.26,8.71,8.71,0,0,1-1,2.44,18.93,18.93,0,0,1-1.53,2.25,12.61,12.61,0,0,1-2.44,2.26l1,.47,0,0h0a25.8,25.8,0,0,0,4.6-2.74,13.9,13.9,0,0,0,2-1.89,12.1,12.1,0,0,0,.84-1.1,3.45,3.45,0,0,0,.2-.35l0-.05s0,0,0,0l0,.1a1.7,1.7,0,0,1,.05.22l0,.12c0,.11,0,.23,0,.35s0,.48,0,.72a13.16,13.16,0,0,1-2.83,7.26l-.4.49a6.19,6.19,0,0,1,.65.48l.39-.26a15.8,15.8,0,0,0,2.79-2.4q.31-.34.61-.69l.29-.36.17-.21.14-.18h0v.15l0,.16q-.07,1.19-.19,2.37-.24,2.36-.69,4.69l.42.08.2,0,.21,0,.4.07q.42-2.39.63-4.81.1-1.21.16-2.42l0-.54,0-.56v-.06Z" transform="translate(0 -0.29)"/><path class="cls-32" d="M293.67,164.06A14.38,14.38,0,0,0,290,167c-.24.26-.19-.57-.29-.23a24.89,24.89,0,0,0,.66,2.61c2.27,5.41,2.92,11.53,5,17a4.07,4.07,0,0,0,1.13,1.84,4,4,0,0,0,1.35.6,10.19,10.19,0,0,0,2.43.49,7,7,0,0,0,6-3.43,10.88,10.88,0,0,0,1.31-7,25.46,25.46,0,0,0-2.11-6.93" transform="translate(0 -0.29)"/><path class="cls-32" d="M296,187.24A62.6,62.6,0,0,1,293,177c-.42-1.75-.87-3.49-1.43-5.21-.27-.86-.59-1.71-.93-2.55a22.44,22.44,0,0,1-.63-2.55v.16s0,0,0,0a.66.66,0,0,1-.18-.08l-.06,0h0l-.1.29h0l-.13,0s0,0,0,0V167l0,.09a.47.47,0,0,0,.17.22.36.36,0,0,0,.26,0c.09,0,.18-.1.26-.15.31-.33.36-.37.51-.52l.4-.38q.41-.37.85-.71a14,14,0,0,1,1.84-1.21l-.11-.2-.05-.1-.06-.1-.11-.19a14.71,14.71,0,0,0-1.92,1.28q-.45.36-.88.75l-.42.4-.28.29s0,0,0,0h0l-.11-.1s-.19-.06-.29,0-.08.08-.11.1l0,.09,0,.08,0,.07,0,.08a22.15,22.15,0,0,0,.69,2.66c.34.82.66,1.65.93,2.5.57,1.69,1,3.42,1.46,5.16a62.33,62.33,0,0,0,3.14,10.35,2.75,2.75,0,0,0,1.29,1.24,11.51,11.51,0,0,0,1.63.54,6.68,6.68,0,0,0,3.44.13,7.71,7.71,0,0,0,5.11-4.37,11.93,11.93,0,0,0,.77-6.75,27.2,27.2,0,0,0-2-6.47l-.2.09-.11,0-.1,0-.21.09a26.59,26.59,0,0,1,2,6.3,11.35,11.35,0,0,1-.67,6.42,7.18,7.18,0,0,1-4.71,4.11,6.18,6.18,0,0,1-3.2-.1,11.23,11.23,0,0,1-1.56-.49A2.28,2.28,0,0,1,296,187.24Z" transform="translate(0 -0.29)"/><path class="cls-55" d="M161.43,107.93l-.51-.22c-.06.11.45,3.22.58,4.69a21.37,21.37,0,0,1,4.19-.94A10.66,10.66,0,0,0,161.43,107.93Z" transform="translate(0 -0.29)"/><g class="cls-40"><path class="cls-23" d="M360.45,189.62c-2-5.48-6.11-10.13-7.27-15.84a2.11,2.11,0,0,1-2,1,21.85,21.85,0,0,0,.65-2.83,21.46,21.46,0,0,0,.08-3.72q-.9-23.63-3.72-47.14c-.1-.84-.2-1.68-.32-2.52a28.87,28.87,0,0,1-4.46.34h0c.33,4,.54,6.49.87,10.47.15,1.83.31,3.66.54,5.47s.52,3.39.81,5.07c1.17,6.68,3.29,19,3.95,22.88-.44,1.64-.69,3.39-1,5.09a8.93,8.93,0,0,0-.83,1.61,4.38,4.38,0,0,0,.11,3.15c0,.07,0,.15,0,.22-.08,1.74,1.08,3.36,1,5.1a55.71,55.71,0,0,1-.88,6.3c0,.15.26.9.24,1.05l.16.2a4,4,0,0,0,1.38.44h0a3.9,3.9,0,0,0,1.74-.66l.38-.33a6.16,6.16,0,0,0,.57-2.09c.09-1.3.14-2.61.29-3.9,0-.16.17-.1.4.09a2.57,2.57,0,0,0,.09.28l.06.16c0,.14.09.29.13.43.12.39.24.78.39,1.16a4.52,4.52,0,0,0,1.06,1.66l.06,0,.1.19.07.19c.14.31.3.62.45.93a9.91,9.91,0,0,0,.65,1.46v0a2,2,0,0,0,.26.47c.09.22.19.43.29.64a1.72,1.72,0,0,0,.09.15l.1.21a2.36,2.36,0,0,0,.14.4,38,38,0,0,0,2.15,4,2.08,2.08,0,0,0,1.86,1.06h.1A18.79,18.79,0,0,0,360.45,189.62Z" transform="translate(0 -0.29)"/><path class="cls-23" d="M344.33,127.23l-.35-4.32-.18-2.16-.09-1.08c0-.44-.11-.56.06-.51.66,0,1.44,0,2.15-.1l1.08-.11.54-.07c.1,0,.14,0,.14,0l.26,2,.25,2.15q1,8.6,1.72,17.23t1.21,17.27q.24,4.32.41,8.65c0,1.44.15,2.89.11,4.31a12.31,12.31,0,0,1-.23,2.1c-.07.35-.15.69-.24,1l-.39,1.43a4,4,0,0,0,1,0,2.47,2.47,0,0,0,1.17-.57l0,0s0,0,0,0l.08.35.32,1.07c.24.7.51,1.4.8,2.08.59,1.36,1.29,2.66,2,3.94a54.82,54.82,0,0,1,3.91,7.79l.22-.08.1,0,.11,0,.21-.07a55.31,55.31,0,0,0-4-7.88c-.71-1.27-1.4-2.56-2-3.88-.29-.66-.55-1.34-.78-2l-.31-1-.41-1.72a5.82,5.82,0,0,1-.75,1.07,1.84,1.84,0,0,1-.87.43h-.08l.17-.66c.09-.35.17-.71.24-1.07a12.93,12.93,0,0,0,.23-2.2c0-1.47-.07-2.9-.12-4.35q-.19-4.33-.44-8.65-.5-8.65-1.26-17.28T348.68,123l-.26-2.15-.3-2.28,0-.23c0-.06,0,0-.08,0l-.12,0-.43.06-.53.07-1.07.11c-.73.06-1.39.1-2.18.11h-.44c-.11,0-.06.09-.07.15s0,.14,0,.22l.05.64.09,1.08.18,2.16.36,4.31c.18,2.41.44,4.82.67,7.23s.73,4.79,1.14,7.18l2.45,14.3.61,3.57.31,1.79.15.89.08.45a1.32,1.32,0,0,1,0,.15l0,.18c-.3,1.19-.51,2.39-.71,3.58l-.15.9,0,.22,0,.11v0l-.23.38a6.15,6.15,0,0,0-.74,1.74,4.56,4.56,0,0,0,0,1.92,4.73,4.73,0,0,0,.12.47l.08.23.06.16v.41a4.75,4.75,0,0,0,0,.48c.16,1.28.72,2.38.89,3.52a6.49,6.49,0,0,1,0,1.73l-.21,1.79c-.16,1.2-.33,2.37-.59,3.57a1,1,0,0,0,0,.39l.08.27.07.25,0,.12v0a.75.75,0,0,1,0,.11l0,.13.11.13a.36.36,0,0,0,.17.15l.26.13a4.09,4.09,0,0,0,.51.19,4.34,4.34,0,0,0,.53.12.88.88,0,0,0,.34,0l.28,0a3.93,3.93,0,0,0,1-.38l.47-.27.47-.4c.09-.17.1-.22.14-.31l.1-.24c.06-.16.12-.33.17-.5a5.47,5.47,0,0,0,.22-1.06l.16-2,.1-1.31s0,0,0,0l.29.89a5.61,5.61,0,0,0,.94,1.91,4,4,0,0,0,.37.41s0,0,.08.12.06.15.09.22l.45.93,0,0,.67,1.51,0,0c.09.2.2.39.31.58l0-.07c.14.31.31.68.46,1l0,.06,0,.14.1.28.22.48c.3.64.63,1.25,1,1.86s.68,1.19,1.07,1.82a2.4,2.4,0,0,0,2,1.07h.08l.43,0-.08-.44a19.12,19.12,0,0,0-.81-3l-.21.07-.11,0-.1,0-.22.08a18.47,18.47,0,0,1,.79,2.89l.35-.4h-.14a1.73,1.73,0,0,1-1.48-.78c-.34-.55-.7-1.18-1-1.76s-.66-1.2-1-1.82l-.21-.46-.07-.21,0-.11a1,1,0,0,0-.07-.18c-.19-.33-.3-.59-.45-.91l0-.07c-.07-.14-.16-.28-.23-.42h0v0l-.63-1.41,0,0-.44-.91c0-.09,0-.09-.11-.25s-.1-.24-.21-.29a3.39,3.39,0,0,1-.31-.34,5,5,0,0,1-.85-1.72l-.16-.47-.18-.57-.17-.46-.2-.2a.52.52,0,0,0-.59-.11.58.58,0,0,0-.22.55l-.06.76-.08,1-.15,2a4.84,4.84,0,0,1-.19.94c0,.15-.1.31-.16.46l-.16.39-.31.27-.41.24a3.32,3.32,0,0,1-.87.32,1,1,0,0,1-.39,0,3.74,3.74,0,0,1-.46-.1,3.49,3.49,0,0,1-.44-.16l-.19-.09h0l-.05-.07h0c0-.28-.23-.81-.23-.91.25-1.17.43-2.39.59-3.59l.21-1.81.08-.91a4.78,4.78,0,0,0,0-1c-.2-1.26-.76-2.36-.9-3.5a4.14,4.14,0,0,1,0-.42v-.21l0-.28-.1-.27-.07-.2a4.2,4.2,0,0,1-.1-.41,4,4,0,0,1,0-1.68,5.6,5.6,0,0,1,.68-1.58l.23-.39a.33.33,0,0,0,.07-.19l0-.12,0-.22.14-.9c.19-1.19.39-2.38.69-3.54l.07-.26a1.31,1.31,0,0,0,0-.3l-.08-.45-.16-.89-.31-1.79-.62-3.57-2.48-14.29c-.42-2.38-.81-4.76-1.15-7.15S344.51,129.64,344.33,127.23Z" transform="translate(0 -0.29)"/></g><path class="cls-15" d="M174.92,139.51a31.18,31.18,0,0,1-1.58-4.75l-.22.06-.11,0-.11,0-.21.06a43.52,43.52,0,0,0,4.19,9.28l.18-.12.1-.07.09-.06.19-.13A31.19,31.19,0,0,1,174.92,139.51Z" transform="translate(0 -0.29)"/><path class="cls-15" d="M177.64,137.79a25.89,25.89,0,0,1-1.08-4.43l-.23,0-.11,0-.12,0-.22,0a36.21,36.21,0,0,0,3.2,8.73l.19-.11.1-.06.09-.05.2-.12A25.89,25.89,0,0,1,177.64,137.79Z" transform="translate(0 -0.29)"/><path class="cls-15" d="M180.88,136.91l-1.51-4.86-.22.07-.1,0-.11,0-.21.07,1.72,4.78a9.79,9.79,0,0,0,2.4,4.59l.14-.17.08-.09.07-.08.15-.17A9.3,9.3,0,0,1,180.88,136.91Z" transform="translate(0 -0.29)"/><polygon class="cls-15" points="184.44 134.83 182.93 130.26 182.71 130.34 182.61 130.38 182.5 130.42 182.29 130.5 184.01 134.98 185.52 139.53 185.73 139.47 185.84 139.43 185.95 139.4 186.16 139.32 184.44 134.83"/><g class="cls-56"><path class="cls-57" d="M186.55,62a4.54,4.54,0,0,1-3.24-1.17,9.37,9.37,0,0,1-2-3.18c-1.06-2.47-1.79-5.19-2.64-7.88l-.87.29-.41.14-.45.15-.84.28c1,2.63,1.85,5.32,3.16,8A11.36,11.36,0,0,0,182,62.38a6.12,6.12,0,0,0,2.2,1.19,7.59,7.59,0,0,0,2.38.26,8.4,8.4,0,0,0,4.59-1.1A5.86,5.86,0,0,0,193,60.94a10.56,10.56,0,0,0,1-2.12A18.91,18.91,0,0,0,195,54.46c.18-1.47.24-2.92.29-4.33h-2.71a23.85,23.85,0,0,1-.77,8A5.25,5.25,0,0,1,190,61,6.52,6.52,0,0,1,186.55,62Z" transform="translate(0 -0.29)"/></g><g class="cls-56"><path class="cls-57" d="M186.66,65a18.14,18.14,0,0,1-5.16-.55,3.13,3.13,0,0,1-1.74-1.12,16,16,0,0,1-1.24-2.2,22.48,22.48,0,0,1-1.69-4.94c-.19-.86-.3-1.68-.42-2.62a9.58,9.58,0,0,0-.84-3.06l-.81.43-.39.2-.42.22-.78.41a7.07,7.07,0,0,1,.67,2.2c.15.87.33,1.87.57,2.79a24.86,24.86,0,0,0,2.09,5.38,17.36,17.36,0,0,0,1.58,2.52,4.73,4.73,0,0,0,1.34,1.13,6.35,6.35,0,0,0,1.53.6,19.89,19.89,0,0,0,5.77.4,18,18,0,0,0,2.9-.22,10.11,10.11,0,0,0,2.86-1c.44-.22.85-.46,1.26-.69a11.49,11.49,0,0,0,1.29-.81,4.06,4.06,0,0,0,1.15-1.45,12.86,12.86,0,0,0,.56-1.41,30.27,30.27,0,0,0,1.45-5.54,16.54,16.54,0,0,0-.1-5.94l-.86.2-.46.11-.43.1-.9.21c.83,3.2.2,6.75-.85,10.15a11.28,11.28,0,0,1-.4,1.17,1.84,1.84,0,0,1-.51.72,10,10,0,0,1-1,.69c-.38.24-.76.47-1.13.68a8.12,8.12,0,0,1-2.28.91A16.23,16.23,0,0,1,186.66,65Z" transform="translate(0 -0.29)"/></g><path class="cls-58" d="M52.75,107.17a24.43,24.43,0,0,1-3,0l-3-.08v.68l3,0a24.57,24.57,0,0,0,3-.13,5.4,5.4,0,0,0,2.81-1.3,5.3,5.3,0,0,0,2.07-2.38l-.21-.06-.11,0-.11,0-.22-.06a4.81,4.81,0,0,1-1.78,2.12A4.88,4.88,0,0,1,52.75,107.17Z" transform="translate(0 -0.29)"/><path class="cls-58" d="M53.11,107.53a21.26,21.26,0,0,1-4.95.11l0,.23v.23l0,.22a21.64,21.64,0,0,0,5.1-.34,5.89,5.89,0,0,0,2.36-1.12,16.37,16.37,0,0,0,1.87-1.76l-.16-.15-.09-.08-.08-.07-.17-.15A7.84,7.84,0,0,1,53.11,107.53Z" transform="translate(0 -0.29)"/><path class="cls-59" d="M109,186.93l.32,1.56v.07s0,0-.05,0l-.12-.09s-.15-.12-.26-.24-.23-.22-.33-.34a13.7,13.7,0,0,1-2-3.33l-.46-1,0,1.08a12,12,0,0,0,.42,3.65c.15.59.32,1.16.43,1.73a.62.62,0,0,1,0,.15s0,.09,0,0l0-.08v0l-.05-.08-.25-.34a10,10,0,0,0-1.14-1.23,9.84,9.84,0,0,0-2.81-1.81l-.09.21,0,.1,0,.11-.08.2a9.18,9.18,0,0,1,2.64,1.66,10.25,10.25,0,0,1,2.59,3.67c0-.15,0-.28,0-.56l0-.67a6.78,6.78,0,0,0-.14-1.48c-.13-.61-.31-1.19-.46-1.76a11.46,11.46,0,0,1-.43-3.48l-.51.11a14.15,14.15,0,0,0,2.12,3.44c.12.12.24.25.37.37a5.16,5.16,0,0,0,.49.41c.22.15.44.29.67.43l.17.11s.15.13.11,0l-.06-.38c0-.24-.11-.54-.16-.81l-.12-.54-.21-1-.4-2,3.32,4.23-.88-3.69c-.27-1.15-.21-.91-.24-1.05l.08.11.22.31,1.71,2.34.12-3.08a.45.45,0,0,1,.07-.28s0,0,.17,0a3.86,3.86,0,0,0,1.1.42v-.68a4.71,4.71,0,0,1-.91-.37,1,1,0,0,0-.4-.06.77.77,0,0,0-.44.2,1,1,0,0,0-.27.73l0,1.09v.18l-.05-.06-.59-.8L110,181.65l1,3.91.33,1.3-.86-1.07L108.12,183Z" transform="translate(0 -0.29)"/><polygon class="cls-60" points="134.08 201.65 134.24 201.77 134.24 201.54 134.24 201.43 134.24 201.31 134.24 201.09 134.08 201.2 133.93 201.09 133.93 201.31 133.93 201.43 133.93 201.54 133.93 201.77 134.08 201.65"/><path class="cls-61" d="M357.83,156c0-1.54.11-3.08.1-4.63s-.06-3.09-.13-4.63l-.54-9.22c-.31-6.13.13-12.33-.84-18.48l-.23,0-.11,0-.12,0-.22,0c1,6,.6,12.24.95,18.4s1,12.28.69,18.43l-.13,4.62-.07,2.31,0,1.2c.17.47.28.75.43,1.13a43,43,0,0,0,1.91,4.24,41.62,41.62,0,0,0,2.45,3.95,24,24,0,0,1,2.25,4l1.81,4.25c.58,1.42,1.25,2.84,1.77,4.24a6.37,6.37,0,0,1,.38,2.16c0,.38,0,.71-.19.79a.46.46,0,0,1-.58-.05l-.18.13-.09.07-.09.07-.18.14a1.12,1.12,0,0,0,1.51.19,1.08,1.08,0,0,0,.42-.69,3.51,3.51,0,0,0,0-.64,7,7,0,0,0-.43-2.37c-.57-1.48-1.22-2.85-1.82-4.27l-1.83-4.24a24.5,24.5,0,0,0-2.33-4,41.09,41.09,0,0,1-2.44-3.89,42.51,42.51,0,0,1-1.91-4.17l-.4-1,0-1.11.05-2.31Z" transform="translate(0 -0.29)"/><path class="cls-61" d="M349.23,159.4,346,140.05c-1.22-6.42-1.51-12.95-2.08-19.47l-.23,0h-.23l-.22,0c.6,6.5.93,13.07,2.2,19.51l3.37,19.32.55,3.26a32.77,32.77,0,0,1-.81,4.34,23.6,23.6,0,0,0-1.06,4.41,19,19,0,0,0,.84,4.46,12.3,12.3,0,0,1,0,4.36c-.1.73-.25,1.46-.4,2.18a5.2,5.2,0,0,0-.21,2.35,2.16,2.16,0,0,0,2,1.45,2.74,2.74,0,0,0,2.24-1,4.17,4.17,0,0,0,.85-2.24,18.5,18.5,0,0,0,0-2.28,12.66,12.66,0,0,1,.76-4.29l-.21-.07-.11,0-.1,0-.22-.07a13.34,13.34,0,0,0-.77,4.5,18.09,18.09,0,0,1,0,2.2,3.56,3.56,0,0,1-.7,1.9,2.12,2.12,0,0,1-1.73.76,1.56,1.56,0,0,1-1.45-1,4.82,4.82,0,0,1,.2-2.07c.15-.74.3-1.48.4-2.23a12.86,12.86,0,0,0-.08-4.56,18.83,18.83,0,0,1-.85-4.33,23.67,23.67,0,0,1,1-4.3,33.2,33.2,0,0,0,.81-4.48Z" transform="translate(0 -0.29)"/><path class="cls-62" d="M313.71,46.09" transform="translate(0 -0.29)"/><path class="cls-61" d="M319.89,40.83a13.21,13.21,0,0,0,3.58-2.28A11.61,11.61,0,0,0,326,35.09l-.21-.1-.1,0-.11,0-.2-.09a11,11,0,0,1-2.29,3.33,12.7,12.7,0,0,1-3.39,2.29A16.05,16.05,0,0,0,316,42.57a10.58,10.58,0,0,0-2.63,3.38l.2.1.11.05.1,0,.21.1A10,10,0,0,1,316.4,43,15.59,15.59,0,0,1,319.89,40.83Z" transform="translate(0 -0.29)"/><path class="cls-61" d="M312,36.95a24.19,24.19,0,0,0-.07,5c.09,1.64.27,3.28.47,4.91.41,3.26.94,6.49,1.2,9.74l.23,0H314l.22,0c-.3-3.28-.87-6.52-1.32-9.76-.22-1.62-.41-3.24-.52-4.87a23.76,23.76,0,0,1,0-4.86,11.47,11.47,0,0,1,1.7-4.47,10.1,10.1,0,0,1,3.35-3.36A14.16,14.16,0,0,1,322,27.5a9.09,9.09,0,0,1,2.35-.24,2.06,2.06,0,0,1,1.76,1l.19-.11.1-.06.1-.05.2-.11a2.55,2.55,0,0,0-1-1,3.18,3.18,0,0,0-1.31-.36,9.63,9.63,0,0,0-2.53.28,14.75,14.75,0,0,0-4.65,1.81,10.64,10.64,0,0,0-3.48,3.58A12,12,0,0,0,312,36.95Z" transform="translate(0 -0.29)"/><path class="cls-61" d="M330.1,26.26a6.42,6.42,0,0,0-4,1.78,5.47,5.47,0,0,0-1.39,4.15,8.58,8.58,0,0,0,1.43,4.14,14.21,14.21,0,0,0,2.91,3.25l.41.36c.06.1.31.17.35.17l.25.07c.34.09.67.21,1,.32a13.54,13.54,0,0,1,1.91.88,13.89,13.89,0,0,1,3.33,2.55,15,15,0,0,1,3.79,7.41l.22-.05.11,0,.12,0,.22,0a15.66,15.66,0,0,0-4-7.69,14.5,14.5,0,0,0-3.49-2.64,14.13,14.13,0,0,0-2-.9c-.35-.12-.69-.24-1-.33-.17-.05-.4-.09-.39-.12l-.41-.35a13.66,13.66,0,0,1-2.83-3.11,8,8,0,0,1-1.38-3.89,5,5,0,0,1,1.23-3.79,6,6,0,0,1,3.7-1.66,13.12,13.12,0,0,1,8.06,2,13.26,13.26,0,0,1,5.29,6.39,15.58,15.58,0,0,1,.68,8.32c-.44,2.81-1.1,5.62-1.65,8.43l.22,0,.12,0,.11,0,.23,0c.53-2.82,1.17-5.61,1.6-8.48a16.18,16.18,0,0,0-.77-8.62,13.8,13.8,0,0,0-5.55-6.61A13.59,13.59,0,0,0,330.1,26.26Z" transform="translate(0 -0.29)"/><path class="cls-62" d="M342.86,51.27" transform="translate(0 -0.29)"/><path class="cls-61" d="M341.42,87.82a103.32,103.32,0,0,1-.79-18.25c.19-6.11,0-12.23.15-18.33h-.68c-.11,6.12.12,12.23,0,18.33A103.8,103.8,0,0,0,341,87.9l0,.25.46,0,.71-18.19c.09-3,.3-6.06.48-9.08l.56-9.07-.22,0h-.23l-.23,0-.51,9.1c-.17,3-.36,6.07-.43,9.1L341,88.1l.45,0Z" transform="translate(0 -0.29)"/><path class="cls-61" d="M345.83,53.1a6.45,6.45,0,0,0,.89-3.95,2.25,2.25,0,0,0-1.39-1.68,1.62,1.62,0,0,0-2.05.91l.22.07.1,0,.11,0,.21.07a1,1,0,0,1,1.22-.54,1.66,1.66,0,0,1,1,1.22,6,6,0,0,1-.75,3.63,17.74,17.74,0,0,0-1.34,3.76,8.14,8.14,0,0,1-.51,1.83,1.48,1.48,0,0,1-1.23.9v.68a2.11,2.11,0,0,0,1.79-1.31,8.51,8.51,0,0,0,.5-2A17.23,17.23,0,0,1,345.83,53.1Z" transform="translate(0 -0.29)"/><path class="cls-62" d="M313.74,43.44" transform="translate(0 -0.29)"/><path class="cls-61" d="M303.4,107.9c-.93-3.61-.06-7.32.33-11A58.54,58.54,0,0,1,306,86.05L305.8,86l-.1,0-.11,0-.21-.07a59.13,59.13,0,0,0-2.2,11c-.22,1.85-.43,3.69-.61,5.56a18.17,18.17,0,0,0,0,2.83A20.35,20.35,0,0,0,303,108c.78,3.64,1.8,7.24,1.87,10.93a16.27,16.27,0,0,1-.74,5.4,50.24,50.24,0,0,1-2.38,5l.2.09.11,0,.1,0,.21.09a49.67,49.67,0,0,0,2.35-5.09,16.86,16.86,0,0,0,.71-5.61C305.29,115.13,304.21,111.51,303.4,107.9Z" transform="translate(0 -0.29)"/><path class="cls-61" d="M357,95.47a24.49,24.49,0,0,0-5.38-9.58,36.75,36.75,0,0,0-4-3.85c-.7-.59-1.43-1.16-2.17-1.71l-2.16-1.69-.14.19-.06.09L343,79l-.13.18,2.17,1.67c.73.54,1.46,1.08,2.15,1.66a36.18,36.18,0,0,1,3.93,3.75,24,24,0,0,1,5.36,9.32c1,3.5.91,7.18,1.29,10.83a25.13,25.13,0,0,0,1.09,5.43,13.08,13.08,0,0,0,2.77,4.84l.16-.15.09-.08.08-.08.17-.16a12.43,12.43,0,0,1-2.68-4.58,24.55,24.55,0,0,1-1.12-5.29C358,102.76,358,99,357,95.47Z" transform="translate(0 -0.29)"/><path class="cls-61" d="M341.83,77.15a17.64,17.64,0,0,0-1.48-1.64l-.14.18-.07.09-.07.09-.14.17a17.24,17.24,0,0,1,1.57,1.42,20.15,20.15,0,0,0,1.37,1.71L343,79l.08-.09.07-.08.16-.17A20.08,20.08,0,0,1,341.83,77.15Z" transform="translate(0 -0.29)"/><path class="cls-61" d="M349.75,120a35.82,35.82,0,0,1-6.33.28v.68a36.37,36.37,0,0,0,6.42-.51c2.13-.27,4.22-.6,6.34-1l0-.22,0-.12,0-.11,0-.22C353.95,119.22,351.85,119.63,349.75,120Z" transform="translate(0 -0.29)"/><path class="cls-61" d="M341,110.76l-.46-11.69h-.68l.69,11.68.19,4.76.1,2.38,0,1.19,0,.6a1.57,1.57,0,0,0,.13.75.91.91,0,0,0,.72.33l.55,0,1.09.09v-.68l-1.06-.07a3.72,3.72,0,0,1-.79-.08Z" transform="translate(0 -0.29)"/><path class="cls-61" d="M357,186.86a31.22,31.22,0,0,0-2-4.25,13.74,13.74,0,0,1-1.84-4.13l-.23,0-.11,0-.12,0-.22,0a14.11,14.11,0,0,0,2,4.32,30.7,30.7,0,0,1,2.09,4.14,21.42,21.42,0,0,0,2.16,4.2,10.69,10.69,0,0,0,.76.93,1.91,1.91,0,0,0,1.15.71,1.89,1.89,0,0,0,1.32-.4,5.83,5.83,0,0,0,.89-.86l-.17-.14-.09-.08-.08-.07-.17-.15c-.48.59-1,1.14-1.62,1.09a1.34,1.34,0,0,1-.79-.5,10.12,10.12,0,0,1-.74-.86A21,21,0,0,1,357,186.86Z" transform="translate(0 -0.29)"/><path class="cls-61" d="M361.9,189.35c-1-2.06-1.57-4.29-2.66-6.36l-.2.11-.1.05-.1.06-.19.1c1.12,2,1.81,4.16,2.85,6.23l.73,1.56a7.33,7.33,0,0,0,.87,1.55,2,2,0,0,0,1.76.78,2,2,0,0,0,1.63-1.09l-.2-.1-.11-.05-.1,0-.21-.1a1.33,1.33,0,0,1-1.07.78,1.45,1.45,0,0,1-1.27-.53,7,7,0,0,1-.85-1.42Z" transform="translate(0 -0.29)"/><path class="cls-62" d="M368,191.78" transform="translate(0 -0.29)"/><path class="cls-61" d="M364.37,187.82c-.71-2.17-1.24-4.42-2.13-6.58l-.21.09-.1,0-.11,0-.2.09c.93,2.06,1.54,4.29,2.33,6.46a21.88,21.88,0,0,0,1.3,3.23q.19.39.42.77a4.41,4.41,0,0,0,.24.39.8.8,0,0,0,.57.34,3.35,3.35,0,0,0,1-.09,1.32,1.32,0,0,0,.51-.26,1.51,1.51,0,0,0,.33-.44l-.2-.1-.11-.05-.1,0-.21-.1a.6.6,0,0,1-.42.38,3,3,0,0,1-.73.09c-.08,0-.07,0-.15-.09s-.15-.22-.22-.33-.3-.48-.43-.73A21.36,21.36,0,0,1,364.37,187.82Z" transform="translate(0 -0.29)"/><path class="cls-61" d="M366.35,186.28a41.3,41.3,0,0,0-2.16-5.37l-.21.1-.1,0-.11,0-.2.09a40.75,40.75,0,0,1,2.35,5.23c.31.92.62,1.84,1,2.74l.5,1.35a2.45,2.45,0,0,1,.28,1.23l.22,0h.23l.23,0a3,3,0,0,0-.38-1.54L367.4,189C367,188.07,366.69,187.18,366.35,186.28Z" transform="translate(0 -0.29)"/><path class="cls-61" d="M278.19,108.8a59.46,59.46,0,0,1,7.4-7.82,18,18,0,0,0,3.61-4.11A45.37,45.37,0,0,0,292,92.26l-.2-.1-.1,0-.11-.05-.2-.1a44.89,44.89,0,0,1-2.78,4.6,17.35,17.35,0,0,1-3.46,4,60,60,0,0,0-7.37,8c-4.51,5.67-8.13,12-11.79,18.16l.19.11.1.06.09.06.2.12C270.22,120.78,273.76,114.48,278.19,108.8Z" transform="translate(0 -0.29)"/><path class="cls-61" d="M288.26,118.69c-5.68,4.4-11.93,8.15-17.1,13.29l.16.16.08.08.08.08.16.15c5-5.12,11.23-8.94,16.9-13.41a49.71,49.71,0,0,0,7.89-7.46,51.86,51.86,0,0,0,3.11-4.46l2.89-4.58-.19-.12-.1-.06-.09-.06-.2-.12c-1.92,3.05-3.67,6.22-5.86,9A49.21,49.21,0,0,1,288.26,118.69Z" transform="translate(0 -0.29)"/><path class="cls-61" d="M253.65,132.85a2.27,2.27,0,0,0,.73-.59,5.31,5.31,0,0,1,.6-.61,6.54,6.54,0,0,1,1.46-.89c1.07-.47,2.2-.83,3.3-1.25,2.2-.82,4.47-1.56,6.7-2.34l-.07-.22,0-.1,0-.11-.07-.21c-2.23.82-4.46,1.58-6.68,2.46-1.11.44-2.23.82-3.32,1.32a7,7,0,0,0-1.55,1c-.51.41-.76,1-1.27,1.19a30.81,30.81,0,0,0-5.86,4l-2.76,2.23a4.83,4.83,0,0,0-.71.63,1.48,1.48,0,0,0-.37,1,1.63,1.63,0,0,0,.5,1,1.42,1.42,0,0,0,1.07.38l0-.22v-.23l0-.23a.86.86,0,0,1-.87-.75c0-.4.35-.78.82-1.14.94-.81,1.8-1.49,2.73-2.28A30.4,30.4,0,0,1,253.65,132.85Z" transform="translate(0 -0.29)"/><path class="cls-61" d="M248.43,138.58c2.42-1.78,4.75-3.68,7.28-5.25l-.13-.19-.06-.09-.06-.1-.12-.18c-2.53,1.66-4.82,3.63-7.19,5.47-.61.44-1.15,1-1.72,1.48-.28.26-.58.49-.84.78a2.22,2.22,0,0,0-.61,1.11,1.4,1.4,0,0,0,.46,1.28,2.77,2.77,0,0,0,3.52-.08l-.14-.17-.07-.09-.07-.09-.14-.18a2.21,2.21,0,0,1-1.82.54,2.33,2.33,0,0,1-.9-.38.82.82,0,0,1-.29-.75c.08-.58.72-1.11,1.25-1.6S247.83,139,248.43,138.58Z" transform="translate(0 -0.29)"/><path class="cls-61" d="M252.42,144a1.82,1.82,0,0,1-1.64.58,3,3,0,0,1-1.47-1.12c-.21-.25-.41-.54-.37-.68s.37-.39.59-.61q.74-.69,1.51-1.35,1.53-1.33,3.15-2.55.81-.61,1.64-1.19a13,13,0,0,0,1.67-1.27l-.16-.16-.08-.08-.08-.08-.16-.16a12.65,12.65,0,0,1-1.56,1.21q-.83.6-1.64,1.23-1.62,1.25-3.15,2.61-.77.68-1.51,1.38l-.37.35a1,1,0,0,0-.37.55,1.48,1.48,0,0,0,.49,1.1,3.5,3.5,0,0,0,1.75,1.26,1.86,1.86,0,0,0,1.14-.1,3.36,3.36,0,0,0,.91-.6c1-.92,2.05-1.77,3.08-2.66a22.33,22.33,0,0,1,3.22-2.41,11.12,11.12,0,0,1,1.78-.88,8,8,0,0,1,.94-.3,1.85,1.85,0,0,1,.85-.09c.2,0,.3.24.53.57a3.5,3.5,0,0,0,.78.8,4.41,4.41,0,0,0,2,.81l0-.22,0-.12v-.11l0-.23a3.75,3.75,0,0,1-1.73-.66,2.85,2.85,0,0,1-.65-.64c-.09-.12-.17-.27-.31-.43a1.1,1.1,0,0,0-.59-.37,2.36,2.36,0,0,0-1.15.1,8.61,8.61,0,0,0-1,.33,11.7,11.7,0,0,0-1.86.95,22.77,22.77,0,0,0-3.26,2.51C254.46,142.15,253.41,143,252.42,144Z" transform="translate(0 -0.29)"/><path class="cls-61" d="M269.76,143.84a5,5,0,0,1,.7,1.21c.1.44-.09.63-.58.72a3.14,3.14,0,0,1-2.53-.74,3.07,3.07,0,0,1-.86-1,2.91,2.91,0,0,1-.24-1.31,12.36,12.36,0,0,0,0-3l-.22.06-.11,0-.12,0-.21.05a12.34,12.34,0,0,1,0,2.87,3.5,3.5,0,0,0,.33,1.57,4,4,0,0,0,4,2,1.41,1.41,0,0,0,.79-.41,1.06,1.06,0,0,0,.15-.92,5,5,0,0,0-.78-1.33,3.49,3.49,0,0,1-.09-2.69c.26-.93.6-1.85.93-2.79a16.1,16.1,0,0,0,.78-2.91,11.51,11.51,0,0,0,0-3l-.22,0h-.23l-.23,0a10.87,10.87,0,0,1,.09,2.87,15.54,15.54,0,0,1-.7,2.81c-.3.93-.64,1.87-.89,2.84A4,4,0,0,0,269.76,143.84Z" transform="translate(0 -0.29)"/><path class="cls-61" d="M292.6,124.3c-3.51-1.1-7.2-.9-10.76-.92v.68c3.58-.06,7.2-.33,10.62.67s6,3.84,9.54,5l.06-.21,0-.11,0-.1.07-.22C298.83,128.1,296.17,125.29,292.6,124.3Z" transform="translate(0 -0.29)"/><path class="cls-61" d="M293.85,157.13c-.86-.88-1.63-1.86-2.48-2.78a23.09,23.09,0,0,0-2.79-2.54c-2-1.55-4.11-2.85-6.12-4.29a64.78,64.78,0,0,1-5.7-4.77,24,24,0,0,0-6.23-4.23l-.09.21,0,.1,0,.11-.09.2c4.56,1.91,7.72,6,11.88,8.84,2,1.44,4.18,2.72,6.14,4.23a22.57,22.57,0,0,1,2.75,2.46c.84.9,1.62,1.87,2.51,2.77a9.31,9.31,0,0,0,3.08,2.23,10.34,10.34,0,0,0,3.72.75c2.52.11,5-.28,7.41.16a9.34,9.34,0,0,1,7.62,10.6l.22,0,.12,0,.11,0,.23,0a10,10,0,0,0-8.2-11.25c-2.53-.43-5,0-7.49-.11a9.85,9.85,0,0,1-3.56-.69A8.85,8.85,0,0,1,293.85,157.13Z" transform="translate(0 -0.29)"/><path class="cls-61" d="M291.52,165a10.18,10.18,0,0,0-1.78,2.17l.2.11.1.05.11.05.2.1a9.65,9.65,0,0,1,1.5-2.17,10,10,0,0,1,2.12-1.57l-.11-.19-.06-.1-.05-.09-.12-.2A10.5,10.5,0,0,0,291.52,165Z" transform="translate(0 -0.29)"/><path class="cls-62" d="M191.78,13.64" transform="translate(0 -0.29)"/><path class="cls-62" d="M199.41,9.51" transform="translate(0 -0.29)"/><path class="cls-61" d="M176.33,114.09a7.91,7.91,0,0,1,1.28-2.62,14.38,14.38,0,0,1,1-1.13,11.22,11.22,0,0,1,1-1l-.14-.18-.07-.09-.07-.09-.14-.17a11.29,11.29,0,0,0-1.05,1.16,15,15,0,0,0-1,1.2,8.43,8.43,0,0,0-1.25,2.82,25.42,25.42,0,0,0-1,6h.68A24.87,24.87,0,0,1,176.33,114.09Z" transform="translate(0 -0.29)"/><polygon class="cls-61" points="175.89 119.01 176.57 118.08 176.38 117.97 176.28 117.92 176.18 117.86 175.99 117.75 175.5 118.78 174.83 119.69 175.02 119.81 175.12 119.87 175.21 119.93 175.41 120.05 175.89 119.01"/><path class="cls-61" d="M189.71,108.28a25.68,25.68,0,0,1-2.63-.85,9.59,9.59,0,0,0-2.77-.68,4.45,4.45,0,0,0-1.47.15,8.1,8.1,0,0,0-1.32.6l-2.46,1.3.11.2.05.1.06.1.1.19,2.44-1.35a7.7,7.7,0,0,1,1.19-.58,3.87,3.87,0,0,1,1.28-.16c1.76.08,3.47,1,5.31,1.41l2.71.67a5.81,5.81,0,0,1,2.42.92.87.87,0,0,1,.22,1,2.13,2.13,0,0,1-.84.83,2.75,2.75,0,0,1-2.39.16l-.08.2,0,.11,0,.1-.09.21a3.4,3.4,0,0,0,3-.25,2.68,2.68,0,0,0,1.07-1.13,1.45,1.45,0,0,0-.36-1.59,2.89,2.89,0,0,0-1.35-.69l-1.36-.33Z" transform="translate(0 -0.29)"/><path class="cls-61" d="M187.11,121.53a14,14,0,0,0-1.67-.41,8.14,8.14,0,0,0-1.74,0,11.91,11.91,0,0,1-3.27.05,4.2,4.2,0,0,1-1.32-.84l-1.33-1c-.23-.17-.43-.35-.64-.52a3.61,3.61,0,0,1-.57-.55,9.12,9.12,0,0,1-.88-1.37l-.2.11-.09.05-.1.06-.19.11a9.71,9.71,0,0,0,1,1.46,4.13,4.13,0,0,0,.65.61c.23.19.45.37.68.54l1.35,1a4.65,4.65,0,0,0,1.54.92,12,12,0,0,0,3.46-.09,7.65,7.65,0,0,1,1.63,0A13.7,13.7,0,0,1,187,122a6.5,6.5,0,0,0,1.73.29,2.09,2.09,0,0,0,.93-.18,1.4,1.4,0,0,0,.65-.76,3.7,3.7,0,0,0,.23-.89,1.15,1.15,0,0,0-.34-1,3.69,3.69,0,0,0-1.7-.65c-2.25-.45-4.5-.58-6.74-.84l0,.22v.23l0,.23c2.24.23,4.51.32,6.69.72a3.38,3.38,0,0,1,1.44.48c.32.24.17.81,0,1.3s-.56.65-1.12.65A6.07,6.07,0,0,1,187.11,121.53Z" transform="translate(0 -0.29)"/><path class="cls-61" d="M188,115.36l-6.26-1.18,0,.23,0,.11,0,.12,0,.22,6.27,1a5.16,5.16,0,0,1,1.39.6c.22.12.51.26.67.36a1.4,1.4,0,0,1,.22.24l.14.16a.54.54,0,0,1,.08.11,1.85,1.85,0,0,1-.06,1.29.85.85,0,0,1-.36.43c-.09.06-.28,0-.53-.05l-.06.21,0,.11,0,.1-.06.22a1.35,1.35,0,0,0,1,0,1.47,1.47,0,0,0,.63-.77,2.91,2.91,0,0,0,.16-.87,1.67,1.67,0,0,0-.19-.93,1.11,1.11,0,0,0-.16-.21l-.12-.13a1.86,1.86,0,0,0-.33-.32c-.29-.17-.49-.24-.74-.37A5.73,5.73,0,0,0,188,115.36Z" transform="translate(0 -0.29)"/><path class="cls-61" d="M189.15,112.2c-2.09-.57-4.21-.76-6.23-1.27l-.05.22,0,.11,0,.12-.05.21c2.1.45,4.24.57,6.26,1a3.14,3.14,0,0,1,.68.26,2.74,2.74,0,0,1,.55.48,5.66,5.66,0,0,1,.87,1.23,1.73,1.73,0,0,1,.16,1.31,1,1,0,0,1-.84.75v.68a1.65,1.65,0,0,0,1.39-1.24,2.32,2.32,0,0,0-.24-1.75,6.16,6.16,0,0,0-1-1.32,3.22,3.22,0,0,0-.67-.54A3.49,3.49,0,0,0,189.15,112.2Z" transform="translate(0 -0.29)"/><path class="cls-61" d="M189.76,109.55l-2.69-.55a8.9,8.9,0,0,1-1.28-.41,7.56,7.56,0,0,0-1.42-.27V109a7,7,0,0,1,1.28.19,9.38,9.38,0,0,0,1.35.36c.91.17,1.83.28,2.71.44a1.92,1.92,0,0,1,1.69,1.52c0,.37,0,1-.13,1.06a.59.59,0,0,1-.38.18,1.13,1.13,0,0,1-.52-.09l-.1.2-.05.11,0,.1-.1.2a1.74,1.74,0,0,0,.82.13,1.19,1.19,0,0,0,.83-.4,1.17,1.17,0,0,0,.29-.84,3.65,3.65,0,0,0,0-.74,2,2,0,0,0-.8-1.31A3.26,3.26,0,0,0,189.76,109.55Z" transform="translate(0 -0.29)"/><path class="cls-61" d="M215.91,112.62a8.37,8.37,0,0,1,.11-4,11.38,11.38,0,0,1,2-3.46l-.18-.14-.09-.07-.09-.07-.17-.13a12,12,0,0,0-2,3.71,8.86,8.86,0,0,0,0,4.2,6.38,6.38,0,0,1,.19,2c-.06.57-.65,1.1-.77,1.9a2,2,0,0,0,.84,2.12,1.76,1.76,0,0,0,1.22.18,1.41,1.41,0,0,0,1-.8l-.2-.08-.11,0-.1,0-.21-.09a1,1,0,0,1-1.31.33,1.45,1.45,0,0,1-.58-1.49c0-.6.59-1.1.71-1.91A6.67,6.67,0,0,0,215.91,112.62Z" transform="translate(0 -0.29)"/><path class="cls-61" d="M218.51,125.8a1.45,1.45,0,0,1-.47.9,1.06,1.06,0,0,1-.93.09c-.68-.21-.66-1-.56-1.82a35.83,35.83,0,0,1,1-4.65,42.23,42.23,0,0,0,.88-4.75c.2-1.6.27-3.21.33-4.81h-.68c0,1.6-.1,3.19-.27,4.76a41.67,41.67,0,0,1-.81,4.69,36.15,36.15,0,0,0-1,4.73,4.54,4.54,0,0,0,0,1.27,1.36,1.36,0,0,0,.9,1.05,1.53,1.53,0,0,0,1.37-.16,1.87,1.87,0,0,0,.64-1.17l1.15-4.66.58-2.33.29-1.16.14-.56s0-.08,0-.07a.09.09,0,0,1,.06.07,2,2,0,0,1,0,.45,6.34,6.34,0,0,1-.12,1.14c-.14.77-.37,1.54-.51,2.35-.24,1.56-.69,3.09-1,4.67l.22,0,.12,0,.11,0,.22,0c.31-1.55.75-3.11,1-4.71.12-.77.34-1.54.48-2.35a6.92,6.92,0,0,0,.11-1.25,2.1,2.1,0,0,0-.12-.73.78.78,0,0,0-.71-.55c-.18-.06-.22.09-.29.19s-.09.33-.14.48l-.14.6-.27,1.17-.55,2.34Z" transform="translate(0 -0.29)"/><path class="cls-61" d="M229.94,120.7c.28-1.42.6-2.85.76-4.33a23.31,23.31,0,0,0-.23-4.41,15.33,15.33,0,0,0-.94-4.34,27.4,27.4,0,0,0-2.47-3.68l-.18.14-.09.07-.09.07-.18.13a27.4,27.4,0,0,1,2.45,3.52,14.82,14.82,0,0,1,.95,4.16,22.82,22.82,0,0,1,.28,4.3c-.14,1.42-.43,2.84-.7,4.28l-.86,4.28a4.89,4.89,0,0,1-.24,1,.55.55,0,0,1-.66.16c-.53-.16-.71-.91-.7-1.58-.09-2.82,1.35-5.63.79-8.72l-.22,0-.12,0-.11,0-.23,0c.57,2.77-.8,5.59-.69,8.6a3.48,3.48,0,0,0,.2,1.16,1.47,1.47,0,0,0,.9.92,1.07,1.07,0,0,0,1.27-.41,4.57,4.57,0,0,0,.29-1.14Z" transform="translate(0 -0.29)"/><path class="cls-61" d="M223.75,126.64l1.5-10.17-.23,0-.11,0-.12,0-.22,0-1.28,10.22c-.06.43-.13.83-.18,1.29a1.25,1.25,0,0,0,.15.77,1.1,1.1,0,0,0,.68.45,2.29,2.29,0,0,0,.73.07,2.07,2.07,0,0,0,.7-.23,2,2,0,0,0,1-1.09,4.85,4.85,0,0,0,.31-1.3l.18-1.28.36-2.57-.22,0h-.23l-.23,0-.3,2.54a12.48,12.48,0,0,1-.4,2.47,1.43,1.43,0,0,1-.67.82,1.59,1.59,0,0,1-.52.19,1.82,1.82,0,0,1-.55,0C223.3,128.53,223.7,127.46,223.75,126.64Z" transform="translate(0 -0.29)"/><path class="cls-61" d="M222.91,125a12.83,12.83,0,0,1-.57,2.1,2.44,2.44,0,0,1-1.16,1.55.91.91,0,0,1-1.27-.69,3.14,3.14,0,0,1,.12-1l.23-1.09-.23,0-.11,0-.12,0-.22,0-.2,1.09a3.61,3.61,0,0,0-.1,1.21,1.51,1.51,0,0,0,.79,1.09,1.49,1.49,0,0,0,1.32,0,3,3,0,0,0,1.42-1.9,13.29,13.29,0,0,0,.54-2.19c.28-1.47.39-3,.62-4.41a12.11,12.11,0,0,1,1.24-4.12l-.19-.11-.1-.06-.1-.05-.2-.11a12.68,12.68,0,0,0-1.21,4.37C223.22,122.11,223.14,123.59,222.91,125Z" transform="translate(0 -0.29)"/><polygon class="cls-61" points="216.03 106.29 215.64 106.13 215.58 106.35 215.55 106.45 215.52 106.57 215.47 106.78 215.93 106.73 216.33 106.89 216.38 106.67 216.41 106.56 216.43 106.45 216.48 106.23 216.03 106.29"/><path class="cls-62" d="M193.59,4.27" transform="translate(0 -0.29)"/><path class="cls-61" d="M194.34,132a31,31,0,0,1-1.15-6.84l-.23,0h-.23l-.22,0a37,37,0,0,0,4.07,13.46l.19-.11.1-.06.09-.05.2-.11A31.27,31.27,0,0,1,194.34,132Z" transform="translate(0 -0.29)"/><path class="cls-61" d="M185.39,126.56l7.67-.06v-.68l-7.67.28c-1.28,0-2.54,0-3.87.11a4.53,4.53,0,0,0-1.93.67,3.62,3.62,0,0,0-.72.75,3.11,3.11,0,0,1-.62.61l.13.18.07.09.07.09.14.18c.59-.42.9-1.11,1.3-1.4a4,4,0,0,1,1.65-.61C182.81,126.6,184.12,126.63,185.39,126.56Z" transform="translate(0 -0.29)"/><path class="cls-61" d="M168.57,148.62a5.82,5.82,0,0,1-2.75-2.41,21,21,0,0,1-1.6-3.45,9.21,9.21,0,0,1-.78-3.64,3.63,3.63,0,0,1,1.78-3,21.78,21.78,0,0,1,3.47-1.56c1.2-.49,2.37-1,3.53-1.63a40.62,40.62,0,0,0,6.52-4.23l-.14-.18-.07-.09-.07-.09-.14-.17a40,40,0,0,1-6.38,4.21q-1.69.89-3.46,1.64a22,22,0,0,0-3.55,1.63,4.6,4.6,0,0,0-1.44,1.44,4.19,4.19,0,0,0-.57,2,9.68,9.68,0,0,0,.84,3.85,21.4,21.4,0,0,0,1.67,3.53,6.3,6.3,0,0,0,3,2.57,7.85,7.85,0,0,0,3.91.46,11,11,0,0,0,3.72-1.25,46.43,46.43,0,0,0,6.26-4.57,36.6,36.6,0,0,1,6.61-3.84c2.3-1.14,4.63-2.22,7-3.2l-.08-.2,0-.11,0-.1-.09-.21c-2.38,1-4.71,2.12-7,3.27a37.19,37.19,0,0,0-6.68,3.95,46.2,46.2,0,0,1-6.15,4.57,10.53,10.53,0,0,1-3.55,1.23A7.39,7.39,0,0,1,168.57,148.62Z" transform="translate(0 -0.29)"/><path class="cls-61" d="M203.95,121.26q-5.58,2-11.29,3.6l.06.22,0,.1,0,.11.06.21q5.7-1.71,11.26-3.82t11-4.45L215,117l0-.11,0-.1-.1-.21Q209.49,119.15,203.95,121.26Z" transform="translate(0 -0.29)"/><path class="cls-61" d="M208.41,106.43a13.94,13.94,0,0,0-6.14,3.44l.17.16.08.07.09.08.16.15a13.39,13.39,0,0,1,5.78-3.47,53.69,53.69,0,0,1,6.78-1.31l0-.22v-.23l0-.23A54.07,54.07,0,0,0,208.41,106.43Z" transform="translate(0 -0.29)"/><path class="cls-61" d="M218.33,132.32q-10.86,2.54-21.54,5.81l.07.22,0,.1,0,.11.07.21q10.62-3.36,21.45-6t21.85-4.36l0-.22,0-.12,0-.11,0-.23Q229.17,129.67,218.33,132.32Z" transform="translate(0 -0.29)"/><path class="cls-61" d="M195.82,119.07A24.49,24.49,0,0,0,200,115.2c1.3-1.47,1.88-3.37,2.8-4.94l-.2-.11-.09-.05-.1-.06-.19-.11c-.94,1.7-1.45,3.52-2.65,4.92a24,24,0,0,1-4,3.86l-1.13.83-1.23.87c-.25.23-1,.51-.31.65l.91.4c.44.18.88.36,1.33.51a18.17,18.17,0,0,0,5.63,1v-.68a17.55,17.55,0,0,1-5.46-.86c-.44-.14-.88-.3-1.31-.47l-.39-.15c-.1,0,0-.06,0-.09l1.06-.78Z" transform="translate(0 -0.29)"/><polygon class="cls-61" points="202.73 109.86 202.86 109.87 202.66 109.75 202.57 109.69 202.47 109.64 202.28 109.52 202.34 109.64 202.21 109.64 202.4 109.75 202.5 109.81 202.6 109.86 202.8 109.98 202.73 109.86"/><path class="cls-61" d="M136.82,129.19a7.47,7.47,0,0,1,1.69-3.9,16.49,16.49,0,0,1,3.26-2.89,65.43,65.43,0,0,1,24.07-10.6l0-.22,0-.11,0-.12,0-.22A66,66,0,0,0,141.47,122a17,17,0,0,0-3.33,3,7.94,7.94,0,0,0-1.77,4.14,15.59,15.59,0,0,0,.21,4.48,22.53,22.53,0,0,0,1,4.36,5,5,0,0,0,1.32,1.91,4.53,4.53,0,0,0,2.11,1,18.12,18.12,0,0,0,4.49,0c5.91-.38,11.79-1,17.67-1.67l0-.22v-.23l0-.23c-5.87.67-11.74,1.37-17.63,1.78a17.75,17.75,0,0,1-4.35,0,4,4,0,0,1-1.87-.86,4.43,4.43,0,0,1-1.19-1.7,22.2,22.2,0,0,1-1-4.24A15.15,15.15,0,0,1,136.82,129.19Z" transform="translate(0 -0.29)"/><path class="cls-61" d="M170.33,121.91a73.48,73.48,0,0,0-16.51,2.94l.07.22,0,.1,0,.11.07.21a73,73,0,0,1,16.34-3.14,150,150,0,0,1,16.7-.28v-.68A150.6,150.6,0,0,0,170.33,121.91Z" transform="translate(0 -0.29)"/><path class="cls-61" d="M191.62,121.16a9.13,9.13,0,0,1-2,.36l0,.23V122l0,.22a9.7,9.7,0,0,0,2.11-.6,11.54,11.54,0,0,0,2-.83l-.11-.19-.06-.1-.06-.09-.12-.2A11,11,0,0,1,191.62,121.16Z" transform="translate(0 -0.29)"/><path class="cls-63" d="M63.15,122.08c-2.8-4.18-5.95-8.27-10-11.34a26.33,26.33,0,0,0-3.21-2.08c-.56-.3-1.13-.59-1.72-.84a8.43,8.43,0,0,1-1.64-.83,22.33,22.33,0,0,1-2.89-2.34c-.45-.43-.89-.87-1.31-1.33-.21-.23-.4-.46-.59-.7a2.59,2.59,0,0,1-.39-.66l-.23,0h-.23l-.22,0a2.61,2.61,0,0,0,.53,1q.31.39.63.74.65.71,1.36,1.36a22.92,22.92,0,0,0,3,2.39,9.08,9.08,0,0,0,1.73.86c.57.24,1.13.52,1.68.81a25.76,25.76,0,0,1,3.15,2c4,3,7.17,7,10,11.15.85,1.27,1.68,2.56,2.51,3.84l1.27,2L65.73,126l-4.56-12-2.28-6a26.54,26.54,0,0,1-1.74-6.08l-.22,0H56.7l-.23,0a27.12,27.12,0,0,0,1.83,6.22l2.32,6,4.65,12,.43-.22C64.86,124.63,64,123.34,63.15,122.08Z" transform="translate(0 -0.29)"/><path class="cls-63" d="M46.41,136.5c.52-4,1.31-8,2-12l-.23,0-.11,0-.12,0-.22,0c-.6,4-1.32,8-1.77,12.08a101.77,101.77,0,0,0-.66,12.21H46A101.23,101.23,0,0,1,46.41,136.5Z" transform="translate(0 -0.29)"/><path class="cls-63" d="M70.69,148.38c-8.35.23-16.69.2-25-.06V149c8.36.18,16.72.14,25.07-.17l8.6-.29-.42,3.7c-.14,1.34-.25,2.69-.31,4a59.92,59.92,0,0,0,.25,8.1l.22,0h.23l.23,0a59.3,59.3,0,0,1-.32-8c0-1.34.15-2.67.27-4l.45-4.32Z" transform="translate(0 -0.29)"/><path class="cls-61" d="M86.87,145.91q-3.69,1.47-7.45,2.73l.08.22,0,.1,0,.11.07.21q3.74-1.37,7.4-3t7.32-3.16l-.1-.2-.05-.11,0-.1-.1-.21Q90.52,144.33,86.87,145.91Z" transform="translate(0 -0.29)"/><path class="cls-61" d="M113.93,142.16l-.07-.38-.05-.26a1,1,0,0,0-.25,0l-.71,0-1.26,0h-2.51q-2.52,0-5,.14-5,.26-10,1l0,.23,0,.11,0,.12,0,.22q4.95-.76,9.95-1.07,2.5-.16,5-.2l2.5,0h1.8s.06,0,.06.05l0,.23a2.86,2.86,0,0,1-.27,2.23,2.7,2.7,0,0,1-2.11.7c-1.66.08-3.33,0-5,0-3.33-.07-6.78-.09-10,1l.07.21,0,.11,0,.1.08.22c3.1-1.1,6.48-1.13,9.81-1.09,1.67,0,3.35,0,5-.06a6.12,6.12,0,0,0,1.29-.17,2.14,2.14,0,0,0,1.17-.74A3.28,3.28,0,0,0,113.93,142.16Z" transform="translate(0 -0.29)"/><path class="cls-61" d="M107.38,147.27c-3.68-.63-7.41-.84-11.11-1.11v.68c3.71.19,7.42.33,11.08.88a32.5,32.5,0,0,1,5.36,1.34c.86.29,1.74.64,2,1.4a1,1,0,0,1-.1,1,1.33,1.33,0,0,1-1,.32v.68a2,2,0,0,0,1.53-.57,1.64,1.64,0,0,0,.19-1.64,2.31,2.31,0,0,0-1-1.17,6.74,6.74,0,0,0-1.34-.55A33,33,0,0,0,107.38,147.27Z" transform="translate(0 -0.29)"/><path class="cls-61" d="M114.49,153.3a1.47,1.47,0,0,0-.57-1.24,3.55,3.55,0,0,0-1.2-.43c-.78-.2-1.56-.37-2.34-.53q-2.36-.47-4.75-.71a49.85,49.85,0,0,0-9.61,0l0,.23v.23l0,.22a49.22,49.22,0,0,1,9.49-.09q2.37.21,4.71.65c.78.14,1.56.31,2.33.5a3.26,3.26,0,0,1,1,.34,1,1,0,0,1,.39.85,1.52,1.52,0,0,1-1.31,1.41,4.19,4.19,0,0,1-2.22-.23,19.65,19.65,0,0,0-4.72-1,40.76,40.76,0,0,0-9.6.55l0,.22,0,.12,0,.11,0,.23a40.19,40.19,0,0,1,9.45-.65,19.11,19.11,0,0,1,4.62.95,4.66,4.66,0,0,0,2.48.21,2.36,2.36,0,0,0,1.15-.63A1.79,1.79,0,0,0,114.49,153.3Z" transform="translate(0 -0.29)"/><path class="cls-61" d="M88.89,161.68A18.61,18.61,0,0,1,84,161c-1.61-.43-3.28-.72-4.94-1l0,.23v.23l0,.22c1.63.28,3.25.52,4.89.92a19.09,19.09,0,0,0,5,.56,14.16,14.16,0,0,0,4.93-1.21c1.56-.65,3-1.44,4.55-2.14l-.09-.2-.05-.11,0-.1-.1-.21C95.11,159.63,92.21,161.48,88.89,161.68Z" transform="translate(0 -0.29)"/><path class="cls-61" d="M105.83,157.84l-7.65.29v.68l7.64-.52,1.91-.07a7.45,7.45,0,0,0,2-.22,1.8,1.8,0,0,0,.9-.66,2,2,0,0,0,.34-1.06,2.81,2.81,0,0,0-.79-2l-.16.15-.09.08-.08.07-.17.15a2.17,2.17,0,0,1,.67,1.48,1.22,1.22,0,0,1-.82,1.21,7.14,7.14,0,0,1-1.81.24Z" transform="translate(0 -0.29)"/><path class="cls-63" d="M68.79,123.35a46.61,46.61,0,0,0-3.88-12.08,60.34,60.34,0,0,0-3-5.64,8.38,8.38,0,0,0-5-4.06l-.05.22,0,.11,0,.12,0,.22A7.76,7.76,0,0,1,61.44,106a59.88,59.88,0,0,1,3,5.54,46.11,46.11,0,0,1,3.94,11.92c1.38,8.33-.67,16.78.28,25.27l.22,0h.23l.23,0C68.28,140.29,70.26,131.78,68.79,123.35Z" transform="translate(0 -0.29)"/><path class="cls-61" d="M128.12,153.12a6.24,6.24,0,0,0-1.21-2.35,5.16,5.16,0,0,0-2.22-1.46,19.66,19.66,0,0,0-2.52-.66c-.84-.18-1.68-.35-2.53-.49a45.17,45.17,0,0,0-10.3-.63v.68a44.53,44.53,0,0,1,10.17.51,38.64,38.64,0,0,1,5,1.08,4.66,4.66,0,0,1,2,1.3,5.78,5.78,0,0,1,1.14,2.17,32.42,32.42,0,0,1,.77,5,17.42,17.42,0,0,1-.13,5,11.79,11.79,0,0,1-5.69,7.86l.11.19.06.1.05.09.11.2a12.41,12.41,0,0,0,5.91-8.34,18,18,0,0,0,.08-5.2A32.69,32.69,0,0,0,128.12,153.12Z" transform="translate(0 -0.29)"/><path class="cls-62" d="M89.57,188.59" transform="translate(0 -0.29)"/><path class="cls-62" d="M91.1,186.35" transform="translate(0 -0.29)"/><path class="cls-61" d="M88.34,187.51a4.5,4.5,0,0,1-1.29,1l.11.2.05.1.06.1.11.19a5.05,5.05,0,0,0,1.31-1.28,11.43,11.43,0,0,1,1.23-1.16l-.14-.17-.08-.09-.07-.08-.15-.17A11.85,11.85,0,0,0,88.34,187.51Z" transform="translate(0 -0.29)"/><path class="cls-61" d="M97.07,191a20.36,20.36,0,0,0-7.27-5l-.08.21,0,.1,0,.11-.08.21a19.8,19.8,0,0,1,7.18,4.63,19.2,19.2,0,0,1,4.33,7.36l.21-.07.11,0,.1,0,.22-.07A19.76,19.76,0,0,0,97.07,191Z" transform="translate(0 -0.29)"/><path class="cls-61" d="M68.44,205.22c-6.87-1.41-13.79-2.79-20.32-5.32a24.88,24.88,0,0,1-8.85-5.34,17.52,17.52,0,0,1-4.49-9.16l-.23,0-.11,0-.12,0-.22,0A18.17,18.17,0,0,0,38.82,195a25.45,25.45,0,0,0,9.09,5.43c6.61,2.51,13.56,3.86,20.44,5.23s13.76,2.9,20.23,5.6a16.1,16.1,0,0,0,2.54.86,5.59,5.59,0,0,0,2.75,0,7,7,0,0,0,4-3.62,58.47,58.47,0,0,0,3.9-9.85l-.21-.06-.11,0-.1,0-.22-.07a58,58,0,0,1-3.8,9.74,6.45,6.45,0,0,1-3.57,3.36c-1.61.47-3.32-.16-4.92-.8C82.25,208,75.32,206.59,68.44,205.22Z" transform="translate(0 -0.29)"/><path class="cls-61" d="M90.89,192.41A44.13,44.13,0,0,0,87,188.14l-.16.17-.07.08-.08.09-.15.16a43.6,43.6,0,0,1,4,4.06c1.2,1.48,2.33,3,3.46,4.55l.17-.13.09-.07.09-.07.18-.14C93.35,195.35,92.15,193.86,90.89,192.41Z" transform="translate(0 -0.29)"/><path class="cls-61" d="M75,181.17l-12.79-5.38-.08.21,0,.1,0,.11-.08.2,12.86,5.17c4.22,1.83,8.41,3.89,11.73,7.06l.15-.16.08-.09.07-.08.16-.17C83.56,184.95,79.26,182.93,75,181.17Z" transform="translate(0 -0.29)"/><path class="cls-61" d="M90.71,175.06A101.8,101.8,0,0,1,101,166.73l-.13-.19-.06-.09-.07-.1-.13-.18a117.85,117.85,0,0,0-19.31,18.19l.17.14.09.08.08.07.18.15A102.41,102.41,0,0,1,90.71,175.06Z" transform="translate(0 -0.29)"/><path class="cls-61" d="M79.21,179.64a65.14,65.14,0,0,1-6.93.23v.68a65.37,65.37,0,0,0,7-.46l7-.48,0-.22v-.23l0-.23Z" transform="translate(0 -0.29)"/><path class="cls-64" d="M240.65,110.25c3.85,2.94,5.33,14.4-.43,17.82a334.18,334.18,0,0,0-43.34,10.38c-.4-.7-.77-1.41-1.11-2.14a31.53,31.53,0,0,1-2.83-10.15q0-.51-.09-1c2.63-.76,5.27-1.6,7.89-2.51h0c4.84-1.67,9.63-3.59,14.24-5.71h.14a1.75,1.75,0,0,0,.51,1.31,1.3,1.3,0,0,0,2-.31l.1,0c-.1.54-.22,1.12-.35,1.73a38.49,38.49,0,0,0-1.14,5.66,2.15,2.15,0,0,0,.17,1.18,1.24,1.24,0,0,0,2,.15,2.41,2.41,0,0,0,.37-.92l2.2-9.13c.52,0,.6.56.6,1.08a26.34,26.34,0,0,1-.62,3.55c-.24,1.57-.66,3-1,4.6-.09.43-.17.86-.26,1.28a2.3,2.3,0,0,0-.06,1,1.21,1.21,0,0,0,1.09.91,1.54,1.54,0,0,0,1.17-.54,3.38,3.38,0,0,0,.65-1.15,22.42,22.42,0,0,0,1-5.41,15.16,15.16,0,0,1,1.39-5.54c-.63,3.72-1.08,7.47-1.53,11.22a1.27,1.27,0,0,0,.12.9,1.16,1.16,0,0,0,.86.36,1.44,1.44,0,0,0,.91-.21,2.32,2.32,0,0,0,1-1.78c.12-.65.34-2.4.47-3.53a10,10,0,0,0,0,1.19,2.21,2.21,0,0,0,.48,1.45.92.92,0,0,0,1.36,0,1.33,1.33,0,0,0,.18-.53q.67-3.43,1.34-6.85c.12-.6.24-1.2.3-1.8a21.86,21.86,0,0,0-.25-5.08A12.36,12.36,0,0,0,229,107.2a12,12,0,0,0-.79-1.18l-.42-.57,0,0a44.49,44.49,0,0,1,7.76,1.93A19.09,19.09,0,0,1,240.65,110.25Z" transform="translate(0 -0.29)"/><path class="cls-65" d="M305.22,118.13a28.45,28.45,0,0,0,2.81,5.7,9.56,9.56,0,0,0,4.92,3.85,14.29,14.29,0,0,0,6.46-.1l15.29-2.6c-1.08,2.87-.47,6,.2,9a13.65,13.65,0,0,1-4.81-.46,32.15,32.15,0,0,0-18.34.83,2.9,2.9,0,0,1-1.68.25,2.77,2.77,0,0,1-1.23-.92L303.65,128a1.48,1.48,0,0,1-.46-.8c0-.41.3-.73.51-1.08.59-1,2.07-4.76,1.33-7.18" transform="translate(0 -0.29)"/><path class="cls-66" d="M308,123.83a28.44,28.44,0,0,1-2.81-5.7l-.2.77c.74,2.42-.74,6.2-1.33,7.18-.21.35-.55.68-.51,1.08a1.49,1.49,0,0,0,.46.8l3.26,3.59a48.48,48.48,0,0,0,5.53-4.05A9.86,9.86,0,0,1,308,123.83Z" transform="translate(0 -0.29)"/><path class="cls-67" d="M314.3,129.56a172.43,172.43,0,0,1,18.74-3l0,2c-5.49-.76-11,.29-16.57.79a15.87,15.87,0,0,1-2.37.09" transform="translate(0 -0.29)"/><path class="cls-67" d="M314,130.47c5.88-.41,11.87-.74,17.59.69a2.34,2.34,0,0,1,.9.37.84.84,0,0,1,.33.87,12.08,12.08,0,0,0-2.67-.73,46.89,46.89,0,0,0-8.75-1.12c-.85,0-1.71,0-2.56.05-1.74,0-3.47-.1-5.2-.22" transform="translate(0 -0.29)"/><path class="cls-67" d="M333.09,132.41a1,1,0,0,0-.18-.82,1.41,1.41,0,0,0-.61-.47,7.7,7.7,0,0,0-1.21-.34c-.8-.19-1.6-.34-2.41-.47a40.85,40.85,0,0,0-4.88-.45,96.66,96.66,0,0,0-9.78.27l0,.23v.23l0,.22a96.06,96.06,0,0,1,9.71-.38,40.32,40.32,0,0,1,4.83.39c.8.12,1.59.25,2.38.43a7.53,7.53,0,0,1,1.13.3,1.07,1.07,0,0,1,.36.24.27.27,0,0,1,.07.18s0,0-.06,0l-.09,0-.17-.06-.59-.17c-.4-.1-.79-.19-1.19-.26L328.1,131a45.54,45.54,0,0,0-4.78-.67c-1.62-.16-3.23,0-4.82-.06l-4.77-.23,0,.22v.23l0,.23,4.82.18c1.6,0,3.2-.13,4.78,0a45,45,0,0,1,4.73.61l2.36.43c.39.07.78.15,1.16.24l.56.16.4.14.48.2.07-.08A1.48,1.48,0,0,0,333.09,132.41Z" transform="translate(0 -0.29)"/><path class="cls-59" d="M100.76,187.08a8.57,8.57,0,0,0-.66-5.73,2.34,2.34,0,0,0-.77-1,1,1,0,0,0-.75-.12,1.25,1.25,0,0,0-.61.38,2,2,0,0,0-.43,1.23,17.79,17.79,0,0,0,.4,4.63,17.17,17.17,0,0,0,.65,2.24,2.61,2.61,0,0,0,.71,1.08,1.48,1.48,0,0,0,1.38.32l-.07-.22,0-.1,0-.11-.07-.21a.82.82,0,0,1-.75-.19,2,2,0,0,1-.53-.81,16.66,16.66,0,0,1-.65-2.14,17.23,17.23,0,0,1-.44-4.45,1.46,1.46,0,0,1,.28-.9.53.53,0,0,1,.68-.17,1.91,1.91,0,0,1,.58.79,8.08,8.08,0,0,1,.69,5.4,11.68,11.68,0,0,0-.37,2.3,5,5,0,0,0,.56,2.32,5.37,5.37,0,0,0,1.54,1.82,5.3,5.3,0,0,0,1.05.6,2.52,2.52,0,0,0,1.25.23,1.07,1.07,0,0,0,.68-.34,1.08,1.08,0,0,0,.25-.71,4.14,4.14,0,0,0-.2-1.22,4.93,4.93,0,0,0-3.41-3.21,4.25,4.25,0,0,0-1.23-.14,1.78,1.78,0,0,0-1.27.51l.17.15.09.08.08.07.17.15c.33-.38,1.19-.36,1.84-.2a4.31,4.31,0,0,1,3,2.77,3.61,3.61,0,0,1,.19,1,.44.44,0,0,1-.43.5,3.19,3.19,0,0,1-1.91-.7,4.85,4.85,0,0,1-1.41-1.63,4.47,4.47,0,0,1-.53-2.08A11.33,11.33,0,0,1,100.76,187.08Z" transform="translate(0 -0.29)"/><path class="cls-52" d="M198.84,13h0l0-.17-.2,0,.18-.06v.11a4.66,4.66,0,0,1,1.37.58A21.16,21.16,0,0,0,194,5.79a28.21,28.21,0,0,0-4.08-2,19.26,19.26,0,0,0-10.68-.76A5.06,5.06,0,0,0,176,.72a14.13,14.13,0,0,1,1.37,2.64v0l-.26-.15a5.7,5.7,0,0,0-1.89-.48A8.18,8.18,0,0,0,171.7,3a14.6,14.6,0,0,1,2.89.27,5.8,5.8,0,0,1,1.45.45l0,.06a15.65,15.65,0,0,0-7.22,4.19A13.1,13.1,0,0,0,165.43,16a9.68,9.68,0,0,1,2.29-2.36,8.43,8.43,0,0,0-.88,1.4,16.52,16.52,0,0,0-1.32,4.52,2.63,2.63,0,0,0,.07,1.66,5.14,5.14,0,0,1,2.5-1.33,12.35,12.35,0,0,1-.05,1.81l-.3.27a3.34,3.34,0,0,0-1.27,2.36,4.71,4.71,0,0,0,1.15.49l0,.12V25a1.64,1.64,0,0,1,1.38.74,4.21,4.21,0,0,1,.59,1.48,81,81,0,0,1,1.52,8.69,57.47,57.47,0,0,1,.69-10.74c.06-.35.12-.71.2-1.06a4.85,4.85,0,0,0,2,0l3.78-.59a46.85,46.85,0,0,0,7.42-1.57,34.8,34.8,0,0,0,7-3.39c.78.62,1.57,1.24,2.35,1.14,1.08-.14,2-.24,3-.43a14.46,14.46,0,0,0,2.07-.56l.21-.07c-.12-1-.47-1.68-.62-2.66S199,14.07,198.84,13Z" transform="translate(0 -0.29)"/><path class="cls-52" d="M165.94,18.56a11.35,11.35,0,0,1,2-4.79L169,12.42l-1.38,1a10.43,10.43,0,0,0-1.23,1.06l-.28.3-.12.13-.14.19s0,0,0,0V15l0-.16.06-.36.11-.54a14.19,14.19,0,0,1,.64-2.1A11.13,11.13,0,0,1,169,8.18a14.58,14.58,0,0,1,3.46-2.67,16.22,16.22,0,0,1,2-.92l.52-.19.63-.22a1.5,1.5,0,0,0,.62-.32c.07-.05.2-.1.13-.21l-.11-.2a4.93,4.93,0,0,0-.8-.31c-.29-.08-.38-.1-.57-.15s-.69-.13-1-.18a15,15,0,0,0-2.1-.14l.09.53A7,7,0,0,1,174.41,3c.45,0,.9.08,1.34.15a4.2,4.2,0,0,1,1.7.62c.07-.07.1-.08.17-.16h0l0-.11V3.26c-.06-.19-.15-.39-.24-.59l-.2-.43-.16-.33-.31-.57-.06-.1s.08,0,.12,0l.12.06.19.1.37.23a5.33,5.33,0,0,1,1.25,1.22l.15.21c.08.09.13.27.24.29l.62-.12c.3-.06.6-.1.9-.15.6-.08,1.21-.13,1.81-.16A18.9,18.9,0,0,1,189.62,4a24.06,24.06,0,0,1,3.31,1.52l.8.45a8,8,0,0,1,.68.53c.47.39.91.8,1.34,1.23a21,21,0,0,1,2.35,2.78c.35.49.67,1,1,1.53l.22.39.12.22h0l-.17-.06-.35-.1.26.29v-.11l-.06-.42-.39.13-.18.06-1.14.39,1.2.26.16,0-.25-.28V13h0l.1-.29h0l.16.17.08.08h0l.23.24h0l.1-.29h0v-.15l0-.23-.22,0-.23,0,.06.65.18-.06-.45-.29v.11l0,.24.22.05.3.09.15.05.32.13c.4.18,1,.58,1.48.87l-.78-1.58-.32-.6-.23-.41c-.32-.54-.65-1.07-1-1.58a21.63,21.63,0,0,0-2.43-2.85c-.45-.44-.91-.86-1.39-1.26a7.64,7.64,0,0,0-.78-.59L193.23,5a24.68,24.68,0,0,0-3.4-1.55,19.51,19.51,0,0,0-7.38-1.11c-.62,0-1.25.09-1.87.17-.31,0-.62.09-.93.15l-.28.06,0,0-.12-.17a5.92,5.92,0,0,0-1.39-1.35l-.42-.26L177.2.81l-.3-.13a10.34,10.34,0,0,0-1.48-.38c.25.39.53.8.75,1.17l.23.39.17.31.27.54,0,.11h0l0,0-.05,0-.23-.07a6.46,6.46,0,0,0-.7-.15c-.47-.08-.93-.12-1.4-.15a7.49,7.49,0,0,0-2.83.3L170,3.25h1.75a14.46,14.46,0,0,1,2,.12c.33,0,.67.1,1,.17l.43.1.1,0c.14,0,0,.07-.08.09l-.42.15-.53.2a16.75,16.75,0,0,0-2.05,1,15.1,15.1,0,0,0-3.57,2.78,11.63,11.63,0,0,0-2.41,3.84,14.69,14.69,0,0,0-.66,2.17l-.11.55,0,.28c0,.14,0,.31-.07.45l-.12.92-.05.46a2,2,0,0,0,0,.38c.29-.42.62-.9.91-1.28l.22-.27.19-.21.27-.28a9.94,9.94,0,0,1,1.17-1l-.33-.34a11.8,11.8,0,0,0-2,5c-.09.46-.18.91-.26,1.39a3.51,3.51,0,0,0,0,.74,2.26,2.26,0,0,0,.33,1,7.9,7.9,0,0,1,.67-.6,4.43,4.43,0,0,1,.45-.3,5.1,5.1,0,0,1,1-.44l.21-.06v.26l0,1.08c0,.05,0,0-.07.09l-.21.19c-.14.13-.27.28-.4.42a4.3,4.3,0,0,0-.67,1,2.61,2.61,0,0,0-.19.59,2,2,0,0,0,0,.35v.24c0,.08.12.09.17.14a5,5,0,0,0,1.15.48l-.18-.27,0,.17,0,.31.3,0a1.37,1.37,0,0,1,1.1.55,3.32,3.32,0,0,1,.56,1.27c.25,1,.46,1.95.64,2.93.37,2,.64,4,.91,6l.53,0a57.65,57.65,0,0,1,.14-5.9q.11-1.47.3-2.94l.21-1.46c0-.24.08-.49.12-.72l.09-.44h0l.26,0a4.6,4.6,0,0,0,.58,0c.38,0,.75-.08,1.11-.14l2.16-.33c1.44-.23,2.88-.43,4.32-.69a34.81,34.81,0,0,0,4.28-1A27.66,27.66,0,0,0,189,20.61c.66-.33,1.3-.67,1.94-1l1-.55.21-.13h0l.31.24a5.56,5.56,0,0,0,1,.62,2,2,0,0,0,1.24.19l2.18-.31a13.88,13.88,0,0,0,2.16-.49l.54-.15c.08,0,.29-.09.45-.15l.13,0a.63.63,0,0,0,0-.13l0-.26-.07-.36-.06-.28-.15-.54a9,9,0,0,1-.41-2.09L199.17,13,199,13l-.12,0h-.11l-.23,0,.24,2.18a9.58,9.58,0,0,0,.43,2.18l.14.51.06.25,0,.17s.06,0-.07,0l-.51.14a13.27,13.27,0,0,1-2.08.48l-2.14.31a2.35,2.35,0,0,1-1.75-.68l-.55-.42-.1-.08-.11.07-.23.14-.26.15-.94.55c-.63.36-1.26.7-1.91,1a28,28,0,0,1-8.19,2.65c-1.42.26-2.86.47-4.3.7l-2.16.34c-.36.06-.71.11-1.06.14a4,4,0,0,1-.51,0l-.29,0-.5-.11-.19,1c-.05.25-.09.49-.13.74l-.2,1.48q-.18,1.48-.29,3a58.19,58.19,0,0,0-.12,6l.52,0c-.28-2-.56-4-.94-6-.19-1-.4-2-.66-3a3.79,3.79,0,0,0-.66-1.46,1.86,1.86,0,0,0-1.51-.73l.26.28,0-.2,0-.21-.2-.06a4.83,4.83,0,0,1-.94-.37c-.06,0,0-.08,0-.28a2.12,2.12,0,0,1,.16-.48,3.83,3.83,0,0,1,.59-.88c.12-.14.24-.27.38-.4l.2-.19c.07-.07.26-.18.21-.35l0-1.17,0-.85a4.7,4.7,0,0,0-.84.2,5.56,5.56,0,0,0-1.07.48,4.88,4.88,0,0,0-.49.33,1.59,1.59,0,0,0-.2.16s-.06-.1-.07-.21a3.07,3.07,0,0,1,0-.65C165.76,19.47,165.85,19,165.94,18.56Z" transform="translate(0 -0.29)"/></g></g></g></svg>