<svg xmlns="http://www.w3.org/2000/svg" xmlns:xlink="http://www.w3.org/1999/xlink" viewBox="0 0 394.23 357.89"><defs><style>.cls-1{isolation:isolate;}.cls-2{fill:#3e7031;opacity:0.38;}.cls-24,.cls-3,.cls-4{fill:#dcbe9a;}.cls-4{stroke:#9e886e;}.cls-15,.cls-4,.cls-41,.cls-48,.cls-5{stroke-miterlimit:10;}.cls-5{fill:#806149;stroke:#836649;}.cls-6{fill:#a98265;}.cls-7{opacity:0.31;fill:url(#Dégradé_sans_nom_41);}.cls-13,.cls-14,.cls-15,.cls-16,.cls-19,.cls-22,.cls-23,.cls-24,.cls-25,.cls-27,.cls-47,.cls-7{mix-blend-mode:multiply;}.cls-8{fill:#564030;}.cls-9{fill:#ba3b3f;}.cls-10{fill:#0f0105;}.cls-11{fill:#ad8f7a;}.cls-12,.cls-14,.cls-15{fill:#5c4a54;}.cls-13{fill:#fce6d0;opacity:0.48;}.cls-14,.cls-15{opacity:0.17;}.cls-15{stroke:#5c4a54;}.cls-16{fill:#c2a58e;opacity:0.34;}.cls-17{fill:#b27044;}.cls-18{fill:#353535;}.cls-19{fill:#d98082;opacity:0.53;}.cls-20{fill:#6f8099;}.cls-21{fill:#6d7f99;}.cls-22{fill:#68543b;opacity:0.23;}.cls-23{fill:url(#Dégradé_sans_nom_19);}.cls-24{opacity:0.19;}.cls-25{opacity:0.26;}.cls-26,.cls-34,.cls-48{fill:none;}.cls-27{opacity:0.24;}.cls-28{fill:#bb7375;}.cls-29{fill:#777;}.cls-30{fill:#836f5f;}.cls-31{fill:#c8b49c;}.cls-32{fill:#743b32;}.cls-33{fill:#542540;}.cls-34{stroke:#000;stroke-linecap:round;stroke-linejoin:round;stroke-width:0.5px;}.cls-35{fill:#edd5ba;}.cls-36{fill:#67584d;}.cls-37{fill:#62533d;}.cls-38{fill:#c2bebc;}.cls-39{fill:#ba7f00;}.cls-40{fill:#f1e3d8;}.cls-41{fill:url(#Dégradé_sans_nom_13);stroke:url(#Dégradé_sans_nom_14);}.cls-42{fill:#efeeed;}.cls-43{fill:#fcbdaf;}.cls-44{fill:#eeac9a;}.cls-45{fill:#9d7451;opacity:0.73;}.cls-46{opacity:0.62;}.cls-47{opacity:0.45;}.cls-48{stroke:#574b4c;}</style><linearGradient id="Dégradé_sans_nom_41" x1="301.13" y1="304.05" x2="314.2" y2="304.05" gradientUnits="userSpaceOnUse"><stop offset="0" stop-color="#d4ae92"/><stop offset="0.23" stop-color="#cca587"/><stop offset="1" stop-color="#b28a66"/></linearGradient><linearGradient id="Dégradé_sans_nom_19" x1="241.82" y1="126.55" x2="317.34" y2="156.1" gradientUnits="userSpaceOnUse"><stop offset="0.36" stop-color="#dcb79c"/><stop offset="0.64" stop-color="#d7b297"/><stop offset="0.99" stop-color="#caa387"/><stop offset="1" stop-color="#caa387"/></linearGradient><linearGradient id="Dégradé_sans_nom_13" x1="-2520.04" y1="-1748.64" x2="-2494.06" y2="-1748.64" gradientTransform="translate(-2808.1 -433.4) rotate(155.1)" gradientUnits="userSpaceOnUse"><stop offset="0" stop-color="#575757"/><stop offset="0.99" stop-color="#b5b5b5"/></linearGradient><linearGradient id="Dégradé_sans_nom_14" x1="-2521.68" y1="-1748.56" x2="-2493.56" y2="-1748.56" gradientTransform="translate(-2808.1 -433.4) rotate(155.1)" gradientUnits="userSpaceOnUse"><stop offset="0.01" stop-color="#f0f0f0"/><stop offset="1" stop-color="#fff"/></linearGradient></defs><title>transformation</title><g class="cls-1"><g id="Calque_2" data-name="Calque 2"><g id="V3"><ellipse class="cls-2" cx="197.11" cy="314.98" rx="42.77" ry="197.14" transform="translate(-121.32 506.46) rotate(-88.98)"/><path class="cls-3" d="M213.25,144.17c-4.88-.68-9.74-2-14.62-1.67-.88.06-3.28,0-4.17.09-2.44.26-3,3-3,5.63a4.59,4.59,0,0,0,4.49,4.59h.76a4.94,4.94,0,0,0,1.19-.16,71.54,71.54,0,0,1,15.3.6c2.43.34,4.56-2.26,4.59-4.49C217.76,146,215.69,144.52,213.25,144.17Z"/><path class="cls-4" d="M183.1,152H183"/><path class="cls-4" d="M183.36,152c-.53,0-1.41-.06-1.94-.11a8.13,8.13,0,0,1-1.7-.27,2.07,2.07,0,0,1-1.28-1,1.41,1.41,0,0,1,.19-1.52,2.39,2.39,0,0,1,1.41-.84,8.08,8.08,0,0,1,1.72-.14q1.75,0,3.49.09c.7,0,4.56-.14,5.25-.07"/><path class="cls-4" d="M184.19,154.64l.06,0a3.06,3.06,0,0,0,1.65.23,7,7,0,0,0,1.59-.42"/><path class="cls-4" d="M203.58,142.87l.53-.2.49-.17.83-.29a18.77,18.77,0,0,1,7.2-1,12.23,12.23,0,0,1,3.51.79,17,17,0,0,1,3.17,1.76l1,.63a19.64,19.64,0,0,0,0,3.22,23.53,23.53,0,0,0,.63,4c.07.28.14.56.22.85s.25.86.39,1.28a27.79,27.79,0,0,1-9.72,2.87c-4,.45-8-.21-11.93-.57a49.22,49.22,0,0,0-12,.24l-1.49.24a12.68,12.68,0,0,1-1.46.22,1.72,1.72,0,0,1-1.3-.37c-.34-.29-.62-.77-.39-1.14a1.68,1.68,0,0,1,.89-.92"/><path class="cls-4" d="M203.43,146.13"/><path class="cls-4" d="M216.06,150.6a18.29,18.29,0,0,1-2.18,1.54,14.51,14.51,0,0,1-2.79,1.24,11.1,11.1,0,0,1-3,.5,9.07,9.07,0,0,1-3-.45c-.48-.15-1-.34-1.45-.51s-1-.33-1.47-.48c-.85-.26-1.7-.48-2.56-.69l-.87-.2-1,.12c-1.34.18-2.67.4-4,.7-.71.16-1.41.33-2.1.52a44.21,44.21,0,0,0-4.24,1.37,7,7,0,0,1-1.54.4,2.83,2.83,0,0,1-1.52-.22,1.78,1.78,0,0,1-.67-.55,1.72,1.72,0,0,1-.25-.44s0-.08-.06-.13a2.46,2.46,0,0,1-.07-1,2.55,2.55,0,0,1,.06-.28c0-.07,0-.14.05-.2a4.69,4.69,0,0,1,2.1-2.28,9.68,9.68,0,0,1,2.57-1l.4-.1.5-.11c.88-.17,1.78-.28,2.68-.38l1.53-.13c.56,0,2.07-.1,2.26-.11.35,0,4.8-2.78,9.37-2.79,4.92,0,10,2.76,10.35,2.77"/><path class="cls-4" d="M192.67,143.75c-.74-.15-1.48-1.09-2.06-1.56a2.27,2.27,0,0,1-.86-1.93,1.42,1.42,0,0,1,.52-.91,2,2,0,0,1,1-.4,5.23,5.23,0,0,1,2.21.36l4.43,1.38c1.84.59,4.38,1.36,6.2,2"/><path class="cls-4" d="M201.22,146.5"/><path class="cls-4" d="M191.34,147.87c-1.67-.16-1.78-.77-3.41-1.19-.5-.14-1-.28-1.51-.45a7.76,7.76,0,0,1-1.45-.58,2,2,0,0,1-1-1.07,1.43,1.43,0,0,1,.34-1.36,2.22,2.22,0,0,1,1.28-.73,4.77,4.77,0,0,1,1.54,0c1,.16,2.09.36,3.13.52,1.57.26,3,1.16,4.62,1.39a26.22,26.22,0,0,1,2.56.75c.31.11,1.46.35,2.47.65"/><path class="cls-4" d="M207.27,135.28c1.23.34,2.47.65,3.73.9a41.44,41.44,0,0,1-5.17-.48c-3.47-.56-6.94-1.23-10.42-1.84l-5.2-.93a3.59,3.59,0,0,1-1.19-.39,1.29,1.29,0,0,1-.65-.93,2.18,2.18,0,0,1,.23-1.19l.09-.16.32,0,5.18.77,0,.09a1.13,1.13,0,0,0,.44.43,4.92,4.92,0,0,0,1.06.37l1,.3,2.1.61C201.66,133.67,204.45,134.51,207.27,135.28Z"/><path class="cls-4" d="M210.61,131c-.91,0-1.82,0-2.72,0a20.87,20.87,0,0,0-2.92.15,2.86,2.86,0,0,0-2,.8.41.41,0,0,0-.06.25l-13.65-1.71-.64-.08-.95-.12-1.22-.17a3,3,0,0,1-1.8-.74c-.49-.66.43-1.35,2-1.54a25.6,25.6,0,0,1,5.46.06c1.9.18,3.8.41,5.66.68C202.27,129.17,206.49,130,210.61,131Z"/><path class="cls-5" d="M304.2,328.77c-.33-1.11-2.36-8.1-2.45-8.81a.72.72,0,0,0-.24-.54.79.79,0,0,0-.47-.08c-2.22.08-4.44-8.42-6.66-8.34-1,0-2.19.3-2.29,1.22,0,.22,0,.47-.12.63a.73.73,0,0,1-.38.19c-6.66,1.79-5.23,6.73-12.15,6.85-.13,0-16.65,4.09-20.59,4.68a13.69,13.69,0,0,0-4.58,1.43,5.55,5.55,0,0,0-1.71,1.53,6.39,6.39,0,0,0-.94,2.07,15.68,15.68,0,0,0-.41,2.29,17.56,17.56,0,0,0-.18,2.32,3.76,3.76,0,0,0,.59,2.09,3.49,3.49,0,0,0,1,1,282.09,282.09,0,0,0,31.63,1.7c6.58,0,13-.21,19-.59l.18-.14,0,0a4.59,4.59,0,0,0,.78-1,5.59,5.59,0,0,0,.74-1.84,8.76,8.76,0,0,0,0-3.31A28.48,28.48,0,0,0,304.2,328.77Z"/><path class="cls-5" d="M314.61,308.42c-.33-1.11-2.36-8.1-2.45-8.81a.72.72,0,0,0-.24-.54.79.79,0,0,0-.47-.08c-2.22.08-4.44-8.42-6.66-8.34-1,0-2.19.3-2.29,1.22,0,.22,0,.47-.12.63a.73.73,0,0,1-.38.19c-6.66,1.79-5.23,6.73-12.15,6.85-.13,0-16.65,4.09-20.59,4.68a13.69,13.69,0,0,0-4.58,1.43,5.55,5.55,0,0,0-1.71,1.53,6.39,6.39,0,0,0-.94,2.07,15.68,15.68,0,0,0-.41,2.29,17.56,17.56,0,0,0-.18,2.32A3.76,3.76,0,0,0,262,316a3.49,3.49,0,0,0,1,1,282.09,282.09,0,0,0,31.63,1.7c6.58,0,13-.21,19-.59l.18-.14,0,0a4.59,4.59,0,0,0,.78-1,5.59,5.59,0,0,0,.74-1.84,8.76,8.76,0,0,0,0-3.31A28.48,28.48,0,0,0,314.61,308.42Z"/><path class="cls-6" d="M320,189.9A142,142,0,0,1,316,203.59a205.73,205.73,0,0,0-5.67,20.71c-.69,3.14-1.29,6.3-1.82,9.46h-.28l.08,1.2.17,2.62,2,31.21c.68,10.67,1.34,21.37,2.9,32l-1.91.38-.88.15a72.59,72.59,0,0,1-8.87,1c-.78-6-1.29-12.08-1.66-18.14-.41-6.58-.68-13.17-1-19.76l-.46-10.1a52.93,52.93,0,0,0,2.27-9.75,177,177,0,0,1,5-21.17c1.05-3.47,2.22-6.91,3.48-10.32s2.59-6.8,3.7-10.27a52.78,52.78,0,0,0,2.37-10.72c0-.43.08-.87.11-1.31C317.08,190.52,318.54,190.23,320,189.9Z"/><path class="cls-6" d="M314.67,190.91c0,.36,0,.72-.08,1.07a51.74,51.74,0,0,1-2.25,10.55c-1.07,3.46-2.37,6.85-3.61,10.27s-2.39,6.88-3.42,10.38a177,177,0,0,0-4.9,21.28,61.09,61.09,0,0,1-1.82,8.68c-.12.36-.24.72-.37,1.07l0,1.06.34,9.16c.25,6.59.46,13.18.82,19.78.32,6,.78,12.11,1.51,18.14,0,.16,0,.31.06.47a153.71,153.71,0,0,0,2.87,16.4c-1,.18-2.1.34-3.15.47l-.93.11c-1.1.13-2.21.23-3.32.3l-1.33.09-1.51,0a71.15,71.15,0,0,1-9.21-.56c-.94-.12-1.88-.26-2.81-.41l.52-.35h-.52v-.12c0-2.83-.08-5.66-.24-8.47s-.39-5.68-.62-8.51c0-.14,0-.27,0-.4,0-.42-.07-.84-.1-1.25L279.79,290l-1.88-23.41-.13-1.58c-.21-.63-.4-1.26-.58-1.89a1.35,1.35,0,0,0,0-.14,57.46,57.46,0,0,1-1.88-11.26c-.55-7.71.12-15.45.7-23.17l2.8-36.78.7.08c3.05.3,6.1.3,9.14.33,6.08.05,12.17.07,18.24-.42C309.47,191.57,312.08,191.3,314.67,190.91Z"/><path class="cls-7" d="M314,304.77c-.36-1.12-.67-2.25-.94-3.38-3.94.45-7.93.72-11.91.81q.4,2.26.88,4.52c4.35-.32,8.44-.74,12.2-1.26C314.13,305.22,314,305,314,304.77Z"/><path class="cls-8" d="M251.48,335.75l0-2c8.9.21,17.8.42,26.7.43s17.85.14,26.48-1.94l.08.31.09.34A70.33,70.33,0,0,1,291.59,335c-4.46.31-8.92.44-13.37.56C269.3,335.73,260.38,335.74,251.48,335.75Z"/><path class="cls-8" d="M303.55,316.06l-.14-2a44,44,0,0,0,11.95-1.33l.11.3.12.33A45.18,45.18,0,0,1,303.55,316.06Z"/><polygon class="cls-8" points="261.38 316.39 261.46 314.39 275.38 315.41 275.37 315.73 275.37 316.08 261.38 316.39"/><path class="cls-8" d="M271.54,320.88l1.84.79a17.1,17.1,0,0,0-2,7h-.67A18.44,18.44,0,0,1,271.54,320.88Z"/><path class="cls-8" d="M272.36,321.42l2,.16a44.28,44.28,0,0,0-.57,8.07l-.32,0-.35,0A45.64,45.64,0,0,1,272.36,321.42Z"/><path class="cls-9" d="M155,100.88l-2.32-.21c-2.48-.25-4.94-.56-7.4-.92s-4.9-.77-7.35-1.2l-.76-.14-.54-.51q-.73-.7-1.45-1.41-1.43-1.43-2.81-2.91c-2.3-2.46-4.5-5-6.65-7.61L121,80.28l-2.34-2.85-.44-.54c-1-1.25-2.06-2.49-3-3.8q-.39-.53-.77-1.08t-.72-1.12A17.71,17.71,0,0,0,110.38,69q-.71-.31-1.45-.56l-.74-.24h0a33.88,33.88,0,0,0-4.38-.89l-.78-.13c.12,2.88.7,8.32.88,9.87l-.61-.36-7.43-3.94L86,67.51l-.57-.3L85,67l-.36-.19Q81.05,69,77.61,71.41,75.16,73.13,72.81,75l-1.17.93-1.15.94c-.76.64-1.5,1.29-2.19,2A14.72,14.72,0,0,0,65,83.65q-.18.41-.33.84c-.21.56-.39,1.14-.56,1.72q-.13.43-.24.87-.1,1.61-.26,3.22-.08.8-.18,1.61t-.21,1.6c-.7,5.14-1.75,10.21-2.75,15.28q-.37,1.9-.73,3.81-.18,1-.34,1.91c-.56,3.18-1,6.36-1.32,9.57a67.65,67.65,0,0,0-.29,7.06,50.52,50.52,0,0,0,.57,7,69.36,69.36,0,0,0,6.12,3.48q1,.53,2.11,1c2.07,1,4.18,1.87,6.31,2.72l.91.36.27.1.27.1c2.22.85,4.45,1.66,6.7,2.45l2.25.79c2.83,1,5.67,2,8.49,3s5.62,2.11,8.38,3.31q3.64,1.58,7.14,3.44,1.17.62,2.32,1.27,0-.49.06-1t.11-1q.13-1,.33-1.94l0-.16,0-.16c.12-.51.24-1,.38-1.51s.26-.9.41-1.35.32-.89.49-1.32c.27-.65.57-1.29.89-1.92.11-.21.21-.42.32-.63l.15-.29c.14-.25.29-.51.45-.76l.47-.73h0c-.32.48-.63,1-.92,1.48l.28.11c.26-.45.55-.9.84-1.33,0-.06,0-.12,0-.18l-.2-.07.17-.25a.44.44,0,0,1,0-.08,51.18,51.18,0,0,1-7.62-3.94l-.37-.24.28.18c.92.57,1.86,1.12,2.81,1.64a45.27,45.27,0,0,0,4.89,2.34l0,0,.28.12h0l0,0c0,.12,0,.23,0,.34q0,.47,0,.93t-.08.91l.29.12c.26.11.53.2.8.28s.54.15.82.21c-.11-1-.21-2-.3-3.07q-.17-1.88-.32-3.76-.31-3.76-.56-7.52-.13-1.88-.25-3.76c-.44-7-.8-14.1-1.2-21.15h0s0-.1,0-.16,0,0,0-.06,0-.09,0-.13V109l0-.27v-.13l0-.19,0-.19v-.1l0-.19v-.08l0-.18v-.06l0-.18v0l0-.16v0l0-.14c0-.08,0-.14,0-.18v0l.66.34a225.13,225.13,0,0,0,22.47,9.68l1.49.54a177.63,177.63,0,0,0,18-.34l1-.07,2.19-.17,3-.29,1.32-.15,2.45-.29,1.18-.15c1.18-.16,2.36-.32,3.53-.5h0c0-.85-.05-1.71-.06-2.56,0-.29,0-.57,0-.86q0-1.71.06-3.42,0-1.25,0-2.51t.05-2.51c0-.09,0-.19,0-.28,0-.26,0-.52,0-.78,0-.52.05-1,.08-1.57A99,99,0,0,1,155,100.88Zm-64.33-.19c-.24.34-.47.69-.7,1,.23-.35.46-.7.7-1Zm-3.28,5.68q.5-1.06,1.06-2.09c-.2.37-.39.74-.58,1.11s-.32.65-.48,1-.34.76-.51,1.14C87,107.14,87.19,106.76,87.36,106.38Zm-.66,1.5-.33.81Zm-.48,1.22q-.15.41-.3.82Q86.07,109.51,86.22,109.1Zm-.43,1.19q-.4,1.18-.73,2.39Q85.39,111.47,85.79,110.29Zm.26-2.17.15-.35Zm.48-1.08.2-.42ZM87,106l.22-.43Zm3.37-5.44,0,0-.08-.06h0Zm-.68,1.53-.46.75ZM89,103.19l-.44.76Zm-1.45,1.74.24-.43Zm.58-1,.24-.42Zm.62-1,.25-.39Zm.68-1.05.22-.33Zm-4.71,9.87-.11.35Zm-.52,1.78h0q-.14.54-.27,1.08Q84.1,114,84.24,113.43Zm.73-.38q-.11.42-.21.85Q84.86,113.48,85,113.05Zm-.31,1.27q-.09.43-.18.85Q84.57,114.76,84.66,114.33Zm-.25,1.23c-.08.41-.15.82-.21,1.23-.11.72-.2,1.44-.29,2.17.09-.73.18-1.45.29-2.17C84.26,116.38,84.34,116,84.41,115.56Zm-.5,3.41c-.09.72-.16,1.44-.25,2.17C83.75,120.41,83.83,119.69,83.91,119ZM82.4,124.3c.27-1.42.46-2.87.65-4.33-.24,1.82-.47,3.63-.87,5.39Q82.3,124.83,82.4,124.3Zm.9-6.11-.06.39Zm-1.51,8.7q-.14.49-.3,1h0Q81.65,127.37,81.79,126.88Zm15.93,10.66-14.84-9.92c-.09.32-.19.63-.29.95l-.33-.21c.11-.32.21-.64.3-1,.17-.62.32-1.24.45-1.86.22-1.09.39-2.19.52-3.29-.14,1.1-.3,2.2-.52,3.29-.13.62-.28,1.24-.45,1.86l15,10,.58.39Z"/><path class="cls-9" d="M114.09,147.57l.18-.26s0,0,0,0l-.27-.11,0,.06c0,.11,0,.21,0,.32Z"/><path class="cls-10" d="M121.26,17.07l-.38,0h-.1l-.13,0-.55-.1a18,18,0,0,1-2.15-.57,31,31,0,0,1-4.06-1.71l-.57-.29-.57-.29-.39-.68a15.45,15.45,0,0,0-2.9-3.44,22.18,22.18,0,0,0-8.85-4.59,30.44,30.44,0,0,0-17.71.41L82.21,6c-.16-.26-.31-.52-.48-.78h0C81.18,4.3,80.6,3.44,80,2.6c-.31-.43-.63-.86-1-1.28-.16-.22-.33-.42-.5-.63L78.17.24,78.06.1,78,0S78,0,78,0l0,.34V.64l0,.4c0,.27,0,.53,0,.8a21.62,21.62,0,0,0,.26,3.35l.07.39h0l-.07-.39L77.72,5c0,.13.05.27.07.4a14.61,14.61,0,0,0-6-1.14A14.86,14.86,0,0,0,68,4.85c-.31.08-.61.19-.91.3l-.22.08-.11,0-.17.08c-.11,0-.21.11-.3.16l-.06,0h1l.49,0c.33,0,.66.08,1,.12s.66.1,1,.16a25.67,25.67,0,0,1,3.83,1,16.63,16.63,0,0,1,2.52,1.34l-.8.22.36.17a42,42,0,0,0-8.67,4.06q-1.15.72-2.23,1.52l-.54.41-.42.33-.19.16-.09.08,0,0s0,0,0,0l.49-.06,1.28-.13,3.47-.33L66.24,18c-.41.58-.39.48-.28.53l.33.18a2.83,2.83,0,0,1,.36.21c.21.12.39.26.59.4l.39-.07c0,.14,0,.28,0,.41l.21.17a214.65,214.65,0,0,0,29.64,3.51q2.17.1,4.33.16c1.32,0,2.64.06,4,.07,2.77,0,5.53,0,8.28-.13l1.45-.09c0-.11,0-.21,0-.32l.91.07c0,.06,0,.12,0,.18l.71-.06A20.06,20.06,0,0,0,119.2,22l.67-.46.62-.46a2.05,2.05,0,0,0,.37-.34,5.25,5.25,0,0,1-.59.08c-.55,0-1.09.07-1.64.07a19.38,19.38,0,0,1-3.26-.28c-.38-.06-.76-.14-1.14-.23a11.57,11.57,0,0,0-1.39-.38c.07,0,1.45-.41,1.51-.41,1-.3,2.07-.64,3.09-1,.84-.3,1.67-.63,2.49-1l1-.41.21-.09.11-.05.06,0h0ZM78.64,7.47h0c-.08-.3-.16-.6-.23-.9Q78.52,7,78.64,7.47ZM78,6.54c-.1-.37-.18-.75-.25-1.13C77.87,5.79,78,6.16,78,6.54Z"/><path class="cls-4" d="M233.71,135.66l-1.36,0a61.16,61.16,0,0,0-8.7,1A39.2,39.2,0,0,1,215,137c-.76-.05-1.52-.13-2.28-.23l-1.31-.19a49.76,49.76,0,0,1-5-1.11c-2.8-.78-5.6-1.62-8.39-2.44l-2.1-.62-1-.31a5.16,5.16,0,0,1-1-.35.91.91,0,0,1-.27-.24.7.7,0,0,1-.13-.29.78.78,0,0,1,0-.24,1.1,1.1,0,0,1,.57-.75,2.91,2.91,0,0,1,1-.32c.35-.05.71-.14,1.06-.17l.45,0c.27,0,.53,0,.8,0a14.8,14.8,0,0,1,3,.44c1.41.34,2.78.81,4.17,1.26a31.84,31.84,0,0,0,4.24,1.14,11.3,11.3,0,0,0,4.41,0l0-.11v-.06l0-.06,0-.11a10.92,10.92,0,0,1-4.28,0,31.64,31.64,0,0,1-4.2-1.11c-1.39-.44-2.77-.91-4.2-1.25l-.56-.13A35.18,35.18,0,0,0,211,128.57c.74-.21,1.46-.43,2.19-.69a3.13,3.13,0,0,0,1.83-1.41,1.66,1.66,0,0,0,.15-1.18,2.39,2.39,0,0,0-.6-1,9.75,9.75,0,0,0-1.83-1.4,15.59,15.59,0,0,0-4.2-1.84,10.32,10.32,0,0,1-2.13-.7,2.39,2.39,0,0,1-.81-.69,1.86,1.86,0,0,1-.35-1,3,3,0,0,1,.66-2,5.94,5.94,0,0,1,.79-.85,18.16,18.16,0,0,1,4.91,1.54A46.1,46.1,0,0,0,218,120a45.75,45.75,0,0,0,5.72.84,14.58,14.58,0,0,1,.85,1.22c.53.84,1,1.71,1.63,2.54a13,13,0,0,0,2.09,2.24,13.14,13.14,0,0,0,4.11,2.36A36.11,36.11,0,0,0,233.71,135.66Z"/><path class="cls-3" d="M294.91,49.83a4.6,4.6,0,0,0-.39-.38,3.48,3.48,0,0,0-3.22-.78,2.83,2.83,0,0,0-2,2.47,1.27,1.27,0,0,0,0,.23"/><path class="cls-3" d="M288.79,52.92a19.83,19.83,0,0,1-.81,3.34,31.81,31.81,0,0,1-2.35,5l-.43.77"/><path class="cls-11" d="M134.93,281.5a17,17,0,0,1,.85,7.22l-.44.17a18.64,18.64,0,0,1-2.59.68,31.84,31.84,0,0,1-5.34.5c-.9,0-1.8,0-2.7,0l-2.7-.14a38.82,38.82,0,0,1-5.37-.62c-6.32-1.11-12.43-3.44-18.46-6,0-.53-.06-1.07-.05-1.61.13-3.58.37-7.15.66-10.71a24.07,24.07,0,0,0,4.84-.57,40,40,0,0,0,6-1.56,9,9,0,0,0,1.48,2,13.81,13.81,0,0,0,4.73,2.93,60.58,60.58,0,0,0,10.34,3.08c.88.18,1.76.34,2.64.48a20.41,20.41,0,0,1,2.58.48,4.56,4.56,0,0,1,2.17,1.28A7,7,0,0,1,134.93,281.5Z"/><path class="cls-11" d="M116.37,304.58a18.27,18.27,0,0,1,1,8l-.51.19a21.72,21.72,0,0,1-2.94.75,37.28,37.28,0,0,1-6.07.55c-1,0-2,0-3.07,0l-3.07-.16a45.44,45.44,0,0,1-6.11-.68c-7.19-1.22-14.13-3.79-21-6.58a17.47,17.47,0,0,1-.06-1.78c.15-3.94.42-7.88.75-11.81a28.17,28.17,0,0,0,5.5-.62,46.58,46.58,0,0,0,6.82-1.72,9.94,9.94,0,0,0,1.68,2.21,15.78,15.78,0,0,0,5.38,3.23,70.47,70.47,0,0,0,11.75,3.4c1,.2,2,.37,3,.52a23.84,23.84,0,0,1,2.93.53,5.22,5.22,0,0,1,2.47,1.41A7.69,7.69,0,0,1,116.37,304.58Z"/><path class="cls-12" d="M114,237.27c-.65,4.53-1,31.72-1.89,32.15l-.45.22a19.36,19.36,0,0,1-4.65,1.51,18.13,18.13,0,0,1-6.49-.3l-.83-.22c-.3-.09-2.74-30.15-2.31-31.47s3-10.89,2.88-12.32a1,1,0,0,0,0-.12,266.91,266.91,0,0,0,1.94-30.56c.22-11.12.24-22.24,1.14-33.3,1.41-.42,2.8-.88,4.17-1.39l.2-.07.21-.08.1,0,.51-.19.48-.18c1.42-.55,2.83-1.14,4.22-1.77.13.13,1.38-2.77,1.49-2.64.55.65,1.37,13.41,1.43,16.32q.17,8.75.48,17.49C116.84,196.55,114.33,234.88,114,237.27Z"/><path class="cls-10" d="M86,30.21a34.2,34.2,0,0,0-1.62,4.23,27,27,0,0,0-.7,2.74q-.14.7-.23,1.41l0,.29V39s0,.06,0,0,0,0-.25-.22a3.9,3.9,0,0,0-1-.52,4,4,0,0,0-2.27-.06,3.79,3.79,0,0,0-1.05.49,3.35,3.35,0,0,0-.82.83,3.8,3.8,0,0,0-.63,2.18,3.73,3.73,0,0,0,1,2.6,4.72,4.72,0,0,0,.44.37,6,6,0,0,0,1,.53,9.16,9.16,0,0,1,1.8.92,3.1,3.1,0,0,1,1,1.58,18.1,18.1,0,0,1,.35,4.1,35.8,35.8,0,0,0,.45,4.2,29,29,0,0,0,.92,3.84l-1.19-.27c-6.53-1.5-15.32-28.75-16.57-32.88l.1-.3A121.46,121.46,0,0,0,86,30.21Z"/><path class="cls-13" d="M114.81,30.14l-.25,0A123.85,123.85,0,0,1,87,30.31a32.23,32.23,0,0,0-1.51,3.61,37.78,37.78,0,0,0,11,1.59c7.25,0,13.79-1.94,18.47-5C114.9,30.36,114.86,30.25,114.81,30.14Z"/><path class="cls-12" d="M73.48,177.92c-.14-.58-.3-1.16-.43-1.74-.08-.34-.15-.68-.21-1a27.65,27.65,0,0,1-.43-2.8,46.35,46.35,0,0,1-.22-4.94,46.93,46.93,0,0,0,.22,5.15,27.65,27.65,0,0,0,.43,2.8c.06.34.13.69.21,1,.13.58.29,1.16.43,1.74.12.41.24.81.37,1.22,0-.06,0-.13,0-.19C73.73,178.75,73.6,178.33,73.48,177.92Z"/><path class="cls-12" d="M75.24,237.41a39.65,39.65,0,0,1-.59-7.72l-.41-19-.42-19c0-1.73-.07-3.46-.08-5.19,0,1.8,0,3.6.08,5.4l.42,19,.41,19a39.65,39.65,0,0,0,.59,7.72c.09.39.2.77.32,1.14v-.18Q75.38,238,75.24,237.41Z"/><path class="cls-14" d="M82.44,165.78c0-.07,0-.14,0-.21a56.94,56.94,0,0,1-10.17-1.42c0,1.09-.07,2.18-.08,3.27,0-1,0-2,.08-3.05A57,57,0,0,0,82.44,165.78Z"/><path class="cls-14" d="M73.86,179.37v0c0,.62,0,1.24-.06,1.86,0,1.73-.06,3.47,0,5.2,0-1.67,0-3.33,0-5C73.81,180.75,73.83,180.06,73.86,179.37Z"/><path class="cls-12" d="M75.24,237.41q.14.6.33,1.18v.21l-.06,1s-1.05,48.77-.61,52.39c0,.14,0,.22.06.22l1.34.08h.32a39,39,0,0,0,6.81-.41,63.76,63.76,0,0,0,8.26-2.2l.4-.14c.71-.24,3.83-36.72,3.83-36.72a32.74,32.74,0,0,1,.78-4.81c.11-.44.25-.87.38-1.3a28.4,28.4,0,0,1,1.49-8c.46-1.35,1-2.65,1.54-3.95.28-.69.53-1.39.75-2.09q.47-2.72.82-5.46c.08-.64.16-1.27.24-1.91,0-.19,0-.38.06-.57,1.31-9.44,1.92-22.57,2.63-25.78s.9-25.13-.35-36A67.92,67.92,0,0,1,85,165.86c-.84,0-1.69,0-2.53-.08a57,57,0,0,1-10.16-1.42c0,1-.07,2-.08,3.05a46.35,46.35,0,0,0,.22,4.94,27.65,27.65,0,0,0,.43,2.8c.06.34.13.69.21,1,.13.58.29,1.16.43,1.74.12.41.25.83.37,1.24,0,.06,0,.13,0,.19v0c0,.69-.05,1.37-.07,2.06,0,1.66-.05,3.32,0,5s0,3.46.08,5.19l.42,19"/><path class="cls-15" d="M76.84,292.2h.32a37.54,37.54,0,0,0,4.57-.15c2.45-27.31,5-54.64,3.69-82-.73-14.8-2.61-29.63-2.44-44.4a57,57,0,0,1-10.16-1.42c0,1-.07,2-.08,3.05a46.35,46.35,0,0,0,.22,4.94,27.65,27.65,0,0,0,.43,2.8c.06.34.13.69.21,1,.13.58.29,1.16.43,1.74.12.41.25.83.37,1.24,0,.06,0,.13,0,.19v0c0,.69-.05,1.37-.07,2.06,0,1.66-.05,3.32,0,5s0,3.46.08,5.19l.42,19,.41,19a39.65,39.65,0,0,0,.59,7.72q.14.6.33,1.18v.21l-.06,1S75,288.5,75.44,292.12h.06Z"/><path class="cls-16" d="M113.19,270.87a9.21,9.21,0,0,1-1.23-1.31,18.12,18.12,0,0,1-5.71,1.72,15.86,15.86,0,0,1-7.34-.28h0q-.2,2.06-.36,4.11a37.26,37.26,0,0,0,6.86.62,31.21,31.21,0,0,0,12.36-2.27A15.19,15.19,0,0,1,113.19,270.87Z"/><path class="cls-16" d="M82.71,298.38a36.31,36.31,0,0,0,13.92-2.47,17.29,17.29,0,0,1-5.14-2.81,10.12,10.12,0,0,1-1.93-2.18,61.1,61.1,0,0,1-7.84,1.7,37.65,37.65,0,0,1-6.33.61q-.22,2.23-.4,4.47A43.48,43.48,0,0,0,82.71,298.38Z"/><path class="cls-17" d="M208.65,94.24a63.64,63.64,0,0,1,.14,8.09c0,.46-.06.92-.09,1.38a5.21,5.21,0,0,1-.22,1.33,3.84,3.84,0,0,1-.71,1.13l-.9,1a17.88,17.88,0,0,1-1.76,1.79,9.07,9.07,0,0,0,.39-1.57,27.92,27.92,0,0,0,.26-4.2q0-1.05-.06-2.1l0-.52,0-.26,0-.19c0-.08,0-.16,0-.23l-.14,0a11.37,11.37,0,0,1,.16-2,5.15,5.15,0,0,1,1.18-2.58A4.9,4.9,0,0,1,208.65,94.24Z"/><path class="cls-17" d="M205.43,101.15c0,.7.07,1.39.08,2.09a27.88,27.88,0,0,1-.24,4.16,7.91,7.91,0,0,1-.54,1.93,6.38,6.38,0,0,1-.33.64,5.33,5.33,0,0,1-.83,1.1,9.25,9.25,0,0,1-3.49,2.14l-.41.13h0a7.63,7.63,0,0,0,1.51-3.2,13.79,13.79,0,0,0,.27-2l.11-.34a18,18,0,0,1,.38-3.54l.1-.35c0-.07,0-.14.06-.2a4.93,4.93,0,0,1,2.48-3.09,3.79,3.79,0,0,1,.46-.2l.1,0,.14,0,.09,0,0,.6Z"/><path class="cls-17" d="M201.78,87.8a4.7,4.7,0,0,1-.7,3.07,8.45,8.45,0,0,1-2.24,2.33c-.88.66-1.83,1.22-2.75,1.83a13.06,13.06,0,0,0-2.58,2.12,5.19,5.19,0,0,0-1.39,3,3.13,3.13,0,0,0,.33,1.67,3.22,3.22,0,0,0,1.21,1.22,10.47,10.47,0,0,0,3.2,1,17.08,17.08,0,0,0,2,.24,2.36,2.36,0,0,0-.47.56,7.69,7.69,0,0,0-.61,1.67,8.3,8.3,0,0,1-1.68,3,8.78,8.78,0,0,1-6.08,3v.34a9.08,9.08,0,0,0,6.29-3.14,8.54,8.54,0,0,0,1.71-3.11,7.57,7.57,0,0,1,.58-1.62,2,2,0,0,1,.61-.67,1.57,1.57,0,0,1,.68-.27,1,1,0,0,1,.75.2l.07.06a1.32,1.32,0,0,1,.38.6,4.64,4.64,0,0,1,.14,1.69l0,.49c0,.13,0,.26,0,.38a15,15,0,0,1-.33,2.58,7.34,7.34,0,0,1-1.49,3.08c-.11.14-.24.27-.36.4s-.26.28-.39.41c-.54.53-2.46,1.85-3.2,2.37a26.46,26.46,0,0,1-2.9,0,23.32,23.32,0,0,1-5.23-.91c-1.71-.49-3.37-1.11-5.07-1.68a29.42,29.42,0,0,0-5.2-1.33,14.39,14.39,0,0,0-4-.06l-.69.12-1.33.31c-.11-1.37,0-2.79-.06-4.17.07-1.7,0-3.34.15-5,.32,0,.87-.12,1.18-.16s2-.36,2.29-.43l.37-.33c.65-.58,1.32-1.16,2-1.7a35.95,35.95,0,0,1,9-5.23c.49-.19,1-.38,1.47-.55q1.33-.87,2.64-1.77,2.33-1.6,4.59-3.29c.88-.67,1.76-1.35,2.61-2.05.42-.36.85-.71,1.26-1.09a5.57,5.57,0,0,1,1.26-1,1.07,1.07,0,0,1,.73-.06,1.47,1.47,0,0,1,.62.42A2.7,2.7,0,0,1,201.78,87.8Z"/><path class="cls-17" d="M112.09,156.6l-.21-.09a10.3,10.3,0,0,0-1.44-.5c.11-.51.22-1,.36-1.51a24.39,24.39,0,0,1,2.18-5.18l.91.36.28.11.22.09a11.23,11.23,0,0,0,1.76.51l.47.09a11.11,11.11,0,0,0,1.83.15,10.92,10.92,0,0,0,2.06-.21c.68-.13,1.34-.29,2-.35a16.43,16.43,0,0,1,4,.34l.58.08c.33.33.65.68.94,1l0,.06.24.3a38.49,38.49,0,0,0,2.61,3.06c.68.7,1.39,1.37,2.14,2a9.74,9.74,0,0,1-3.45-1.13c-1.33-.67-2.51-1.59-3.84-2.32l-.29-.16-.21-.1a6.52,6.52,0,0,0-2.13-.64,4.09,4.09,0,0,0-2.43.45l.06.1,0,0,0,.05.05.1a3.75,3.75,0,0,1,2.23-.42,6.07,6.07,0,0,1,1.84.5l.4.18.12.07c1.36.71,2.6,1.69,4,2.39a9.72,9.72,0,0,0,3.92,1.16h.76l1.2-.09a2,2,0,0,1,1.11.12,3.16,3.16,0,0,1,.84.78,3.24,3.24,0,0,1,.55,1,2.27,2.27,0,0,1,.1.61,1.64,1.64,0,0,1,0,.27,1.88,1.88,0,0,1-.56,1.23,3.94,3.94,0,0,1-2.17.74,6.9,6.9,0,0,1-2.34-.18,13.34,13.34,0,0,0-2.34-.63,20.47,20.47,0,0,0-2.43,0c-.8,0-1.6.06-2.4,0a9.31,9.31,0,0,1-4.55-1.1l-.06.1,0,.06,0,0-.06.1a9.65,9.65,0,0,0,4.72,1.11c.81,0,1.61,0,2.41-.05a18.87,18.87,0,0,1,2.38,0,13.33,13.33,0,0,1,2.3.61,7.21,7.21,0,0,0,2.44.18,7,7,0,0,0,1.2-.24,2.76,2.76,0,0,0,1.1-.58,2.11,2.11,0,0,0,.62-1.33,12.89,12.89,0,0,0,3.36.55l.71,0,.62-.3c.83-.4,1.64-.83,2.43-1.31.51-.29,1-.63,1.49-.9a4.21,4.21,0,0,1,1.6-.51,15.12,15.12,0,0,1,1.72-.05,3,3,0,0,1,1.13.22,5.35,5.35,0,0,0-.87.53l-1,.73-1.41,1-.52.36-.18.12c-.73.47-1.27,1.16-1.94,1.67l-1,.77-1,.74-4.18,2.94.07.1,0,0,0,.05.07.09,4.15-3,1-.75,1-.79c.68-.53,1.2-1.22,1.91-1.68l.5-.34.53-.37,1.07-.73,1.06-.72a4.16,4.16,0,0,1,1-.57l0,0,.13,0a.93.93,0,0,1,.9.26,2.25,2.25,0,0,1,.39,1.1,2.92,2.92,0,0,1,0,.47,10,10,0,0,0-1.1.13,7.27,7.27,0,0,0-.72.16l-.24.08a4.34,4.34,0,0,0-1.3.63,16.89,16.89,0,0,0-1.78,1.59l-.75.73a2.88,2.88,0,0,0-.59.14,5.16,5.16,0,0,0-1.71,1.16q-2.77,2.63-5.69,5.07c-1.08-.24-2.16-.55-3.24-.8a26.6,26.6,0,0,0-6.19-.62v.34a26.24,26.24,0,0,1,6.13.5c1,.24,2,.56,3,.81l.41.1.28-.24c1.87-1.59,3.7-3.25,5.47-5a4.9,4.9,0,0,1,1.61-1.11l.13,0a2.48,2.48,0,0,1,.54-.1,1.79,1.79,0,0,1,.95.17l.2.12.09.08a2.19,2.19,0,0,1,.54.63c.14.27.34.62.22.83a1.78,1.78,0,0,1-.32.34l-.36.35-.73.7c-2,1.85-3.93,3.71-5.9,5.54a13.35,13.35,0,0,1-1.4,1.1c-.56.09-1.12.16-1.68.21-.4,0-.8.07-1.19.09h-.24a36.48,36.48,0,0,1-4.45-.18l-5.28-.5a17.44,17.44,0,0,1-3.77-3.44c-1.11-1.32-2.14-2.71-3.3-4-.69-.8-1.45-1.51-2.17-2.25-.32-.34-.64-.68-.92-1l-.07-.09-.1-.13-.23-.31c-.5-.7-1-1.43-1.55-2.1l-.3-.33c-.14-.15-.28-.3-.43-.44"/><path class="cls-9" d="M113.82,157.75a10.38,10.38,0,0,1,1.18.83c-1.46.64-3.23,1.37-4.72,1.92.62-1.17,1.38-2.59,1.88-3.82A11,11,0,0,1,113.82,157.75Z"/><path class="cls-18" d="M88.69,10.46A105.27,105.27,0,0,0,72,13c-.51.64-1,1.29-1.53,2a162,162,0,0,1,19.25-2.7c-.15-.3-.3-.59-.46-.86S88.89,10.75,88.69,10.46Z"/><path class="cls-18" d="M100.28,15.93h-.05l-.08,0-.31-.1a7.1,7.1,0,0,1-1.22-.57,15.14,15.14,0,0,1-2.32-1.71L96,13.23a200.22,200.22,0,0,0-25.79,3.33.61.61,0,0,1-.52-.14l-.7,1,.17.17a1.75,1.75,0,0,1,.2.21,5,5,0,0,1,.33.4l.22-.07c0,.06,0,.13,0,.19a68.71,68.71,0,0,1,7.93-1.23,127.22,127.22,0,0,1,12.7-1,28.2,28.2,0,0,1,8.15,1.14c.35-.23.69-.46,1-.71l.54-.41.12-.09.07-.05,0,0h0Z"/><path class="cls-19" d="M115.57,24.36c0-.08,0-.16,0-.24l-.72,0-.71,0c-2.78.12-5.55.11-8.33.06s-5.55-.16-8.31-.32a214.7,214.7,0,0,1-29.15-3.68l-.63-.13h0a153.74,153.74,0,0,0,28,10.19,123.43,123.43,0,0,0,19-.95l.93-.12.5-.07c-.07-.62-.13-1.24-.16-1.86A22,22,0,0,1,115.57,24.36Z"/><path class="cls-17" d="M153.72,160a.45.45,0,0,1,.24.37c0,.3-.37.59-.6.9l-.77.9-.05.06a2.18,2.18,0,0,0-1.8-.17,7.6,7.6,0,0,0-2.16,1.14,2,2,0,0,0-.9-.27l.51-.5a15.61,15.61,0,0,1,1.73-1.59,5,5,0,0,1,2.14-.84c.34-.05.7-.09,1-.11h.13l.2,0A.74.74,0,0,1,153.72,160Z"/><path class="cls-17" d="M152.57,162.66a1,1,0,0,1,.33,1.2,5.89,5.89,0,0,1-1,1.39c-.38.45-.76.89-1.15,1.33-.78.87-1.6,1.71-2.43,2.54s-1.69,1.62-2.59,2.37c-.23.22-.47.41-.72.6s-.42.31-.64.44a7.69,7.69,0,0,1-1.57.77,5.68,5.68,0,0,1-1.68.31,5,5,0,0,1-.62,0l.16-.1.23-.17.43-.31q.48-.38.94-.79c2-1.85,3.91-3.73,5.87-5.59l.74-.7.37-.35a1.89,1.89,0,0,0,.37-.4.71.71,0,0,0,0-.59,3.4,3.4,0,0,0-.22-.48,2.58,2.58,0,0,0-.56-.66,7.34,7.34,0,0,1,2-1.06,1.92,1.92,0,0,1,1.52.1l.06,0Z"/><path class="cls-20" d="M273.27,135.28c-.43-3-.72-6.09-.88-9.15,0-.37,0-.73-.05-1.1,0-.91-.07-1.82-.09-2.73,0-2.54,0-5.08.18-7.62,0-.13,0-.27,0-.4.12-1.75.28-3.49.51-5.22.89-6.86,6.82-20.39,6.82-20.39a37.94,37.94,0,0,1-2.42,8s6.53-9.22,20.39-15.46l.35-.17.66.26a22.17,22.17,0,0,1,3.92,2.18,29.61,29.61,0,0,1,6.66,6.41,39.12,39.12,0,0,1,7.44,30.3c-.12.73-.27,1.44-.44,2.16s-.06,1.34-.1,2l0,.45c-.22,3.35-.54,6.71-.51,10.1.06,7.1,1.77,14,3.62,20.78s3.41,13.61,5.07,20.44l2.51,10.23.54,2.15c-.93.39-1.88.76-2.83,1.1-1.14.4-2.3.76-3.47,1.09l-1,.29q-2.22.58-4.47,1l-.94.17c-2.6.46-5.23.78-7.86,1-6.06.37-12.13.24-18.2.07-3-.09-6.07-.15-9.06-.51l-.72-.09-.94-.14-.9-.16a134.63,134.63,0,0,0-2.69-30.22c0-.23-.09-.45-.14-.67"/><path class="cls-20" d="M276.09,160.19l-2.67.63q-3.57.65-7.19,1a105.25,105.25,0,0,1-16,.16,230.39,230.39,0,0,1-27.18-3.69c-.43-.95-.82-1.9-1.16-2.89q-.31-.92-.56-1.86-.11-.43-.21-.86a24.24,24.24,0,0,1-.59-4,20.23,20.23,0,0,1,.06-3.08c0-.31.07-.62.12-.94h0l43.2-6.37.68-.1c.2,0,8.59-1.32,8.68-1.5"/><path class="cls-21" d="M272.41,126.66c0-.36,0-.73-.06-1.09-.06-1.3-.09-2.59-.09-3.88,0-2.43.08-4.86.26-7.28q-20.26,6.2-40.12,13.53l0,.65c0,.29,0,.58.06.87a34.89,34.89,0,0,0,1.07,6.24c0,.11.06.22.09.33.12.46.26.92.41,1.38,1.37-.26,2.74-.51,4.11-.75l.86-.14q13.91-2.36,28-3.35l1-.08q2.44-.16,4.89-.28Q272.57,129.73,272.41,126.66Z"/><path class="cls-22" d="M290.07,145.75c.57-.58,1.14-1.16,1.69-1.76a49,49,0,0,0,4.44-5.51c1.34-1.94,2.54-4,3.76-6s2.45-4.08,3.84-6a29.38,29.38,0,0,1,4.8-5.3l-.08-.36s-23.44,26.1-36,32.36c-9.33,4.66-36.77,2.36-50.21.88q.14.46.3.92c.34,1,.74,1.91,1.16,2.84A233.8,233.8,0,0,0,251,161.41a106.85,106.85,0,0,0,16-.16q3.6-.32,7.15-.95Z"/><path class="cls-3" d="M292.49,63.35c.75-1.09,1.49-2.18,2.13-3.33a14.4,14.4,0,0,0,1.49-3.6,8.92,8.92,0,0,0,.15-3.81,5.51,5.51,0,0,0-1.74-3.16,3.48,3.48,0,0,0-3.22-.78,2.83,2.83,0,0,0-2,2.47,1.27,1.27,0,0,0,0,.23"/><path class="cls-3" d="M297.12,78c0-.12,0-.25,0-.38a42.39,42.39,0,0,0-1.58-7.33c0-.48-.05-1-.1-1.45a.89.89,0,0,0-.08-.3c0-.37-.05-.74-.09-1.11a23.65,23.65,0,0,0-.16-4,.81.81,0,0,0-.23-.47.73.73,0,0,0,.73-.72,82.45,82.45,0,0,0-.53-15,.82.82,0,0,0-1.36-.55,2.8,2.8,0,0,0-.36.44c0-.57,0-1.15-.07-1.72a14.91,14.91,0,0,0,3-.42.75.75,0,0,0,.37-1.26,6.61,6.61,0,0,0-3.57-1.53c0-.42-.05-.84-.08-1.25-.07-1-1.64-1-1.6,0,0,.37,0,.75,0,1.12-1.63-.07-3.29.07-4.72.07h-.54c0-.21,0-.41-.07-.62-.11-1-1.7-1-1.6,0l.07.65h-.36a.76.76,0,0,0-.52-1.33,41.88,41.88,0,0,0-4.45.35.73.73,0,0,0-.77-.87l-.21,0h0l-1.94.23a.76.76,0,0,0,.26-.77q7.89-1.55,15.8-3c1-.19.6-1.65-.41-1.46q-10.77,2-21.52,4.15a.68.68,0,0,0-.49.35,43.29,43.29,0,0,0-5.13,1.25.73.73,0,0,0-.06,1.41.64.64,0,0,0,0,.11l-.2,0a.76.76,0,0,0-.53,1q-2.86.31-5.73.52a21.67,21.67,0,0,1,2,6.52l.38.55c.06.47.1.94.14,1.41a22.1,22.1,0,0,1-.13,4.26,22.84,22.84,0,0,1-.85,3.85c-.2.63-.44,1.25-.63,1.85a4.2,4.2,0,0,0-.22,1.78,2,2,0,0,0,.86,1.37,3.49,3.49,0,0,0,1.65.58,6.86,6.86,0,0,0,.72,0h.34l.12.79c.15,1,.3,2,.49,3a2.62,2.62,0,0,0,1.31,1.63l.21.11.15.06c0,.1,0,.2,0,.3a3.18,3.18,0,0,0,.66,1.46,10.08,10.08,0,0,0,1.28,1.15,5.94,5.94,0,0,1,1.17,1.35c.64,1,1,2.1,1.6,3.11a7,7,0,0,0,1,1.39,5.13,5.13,0,0,0,1.35,1,6.85,6.85,0,0,0,3.36.73,9.56,9.56,0,0,0,3.42-.77l.3-.14.37-.17a26.44,26.44,0,0,0,5.29-3.53,37.06,37.06,0,0,0,3.62-3.53l.19.17A36.45,36.45,0,0,1,284.76,78a33.23,33.23,0,0,1-2.86,2.16,19.68,19.68,0,0,1-2.56,1.47,25.92,25.92,0,0,1-.53,6.84l0,.19c.17.62-2.15,6.82-2.56,8,2.53-2.14,6.21-5.91,9-7.66a4,4,0,0,1,1.41-1c1.66-1.22,3.56-2.15,5.29-3.3a24.46,24.46,0,0,1,5.44-2.8C297.33,80.6,297.26,79.3,297.12,78Zm-5.36-32.57h.13q0,.54,0,1.08C291.86,46.15,291.81,45.79,291.76,45.43Zm1.36,17.77a.73.73,0,0,0-.23-.12l-.09-.07,0,0c.12-.56.23-1.11.33-1.67,0,.53,0,1.06,0,1.59C293.14,63,293.13,63.09,293.11,63.2Z"/><path class="cls-23" d="M233.63,136c.12.46.26.92.41,1.38,1.37-.26,2.74-.51,4.12-.75l.86-.14q13.92-2.36,28-3.35l1-.08q2.44-.16,4.9-.28-.35-3.06-.51-6.14c0-.36,0-.73-.06-1.09s0-.65,0-1c-9.53,3.48-28.33,7.07-39.27,9,.14.7.3,1.41.48,2.1C233.56,135.8,233.59,135.91,233.63,136Z"/><path class="cls-24" d="M228.29,126.83a13,13,0,0,1-2.09-2.24l-.2-.29a12.77,12.77,0,0,1-.64,5.76c-1.24,3-8.76,5.22-14.46,6.47l.47.09,1.31.19c.76.1,1.52.18,2.28.23a39.2,39.2,0,0,0,8.69-.41,61.17,61.17,0,0,1,8.7-1c.45,0,.72,0,1.18,0a35.51,35.51,0,0,1-1.12-6.45A13.14,13.14,0,0,1,228.29,126.83Z"/><path class="cls-12" d="M105.7,171.51c-.14-2.49-.17-5-.46-7.45v0h0c0-.07,0-.13,0-.2-.11-.87-1.46-.64-1.49.18a20.07,20.07,0,0,0,.25,3.77.78.78,0,0,0,.05.19c.05,1.18.08,2.36.15,3.54.13,2.27.76,4.68.41,6.93-.15,1,1.3,1.38,1.45.42C106.43,176.38,105.83,174,105.7,171.51Z"/><g class="cls-25"><path class="cls-3" d="M296.67,43.74a6.08,6.08,0,0,0-3.37-1.53c0-.42,0-.84-.08-1.25-.07-1-1.55-1-1.51,0,0,.37,0,.75,0,1.12-1.54-.07-3.11.07-4.46.07h-.51c0-.21,0-.41-.06-.62-.11-1-1.61-1-1.51,0l.06.65h-.34a.77.77,0,0,0-.49-1.33,37.42,37.42,0,0,0-4.21.35c0-.43-.22-.92-.72-.87l-.2,0h0l-1.84.23a.78.78,0,0,0,.24-.77q7.46-1.55,14.92-3c1-.19.57-1.65-.39-1.46q-10.18,2-20.33,4.15a.65.65,0,0,0-.46.35,39,39,0,0,0-4.85,1.25.74.74,0,0,0-.06,1.41.66.66,0,0,0,0,.11l-.18,0a.77.77,0,0,0-.5,1q-2.7.31-5.42.52a33,33,0,0,1,1.6,4.61c4.76-1.87,10-2.86,14.66-1.59,2.93.21,5.44,1.17,6.63,4,.21.23.43.47.63.72a21.85,21.85,0,0,1,3.5,6.14,8.11,8.11,0,0,1,1.78-3.57c1.17-1.21,3.3-1.66,4.51-.5,1,1,1,2.62,1.86,3.76a3.11,3.11,0,0,0,.21.24,87.25,87.25,0,0,0-.62-10.67.77.77,0,0,0-1.28-.55,2.77,2.77,0,0,0-.34.44c0-.57,0-1.15-.06-1.72a13.35,13.35,0,0,0,2.86-.42A.76.76,0,0,0,296.67,43.74Zm-4.92,1.68h.13q0,.54,0,1.08C291.86,46.15,291.81,45.79,291.76,45.43Z"/><path class="cls-26" d="M296.67,43.74a6.08,6.08,0,0,0-3.37-1.53c0-.42,0-.84-.08-1.25-.07-1-1.55-1-1.51,0,0,.37,0,.75,0,1.12-1.54-.07-3.11.07-4.46.07h-.51c0-.21,0-.41-.06-.62-.11-1-1.61-1-1.51,0l.06.65h-.34a.77.77,0,0,0-.49-1.33,37.42,37.42,0,0,0-4.21.35c0-.43-.22-.92-.72-.87l-.2,0h0l-1.84.23a.78.78,0,0,0,.24-.77q7.46-1.55,14.92-3c1-.19.57-1.65-.39-1.46q-10.18,2-20.33,4.15a.65.65,0,0,0-.46.35,39,39,0,0,0-4.85,1.25.74.74,0,0,0-.06,1.41.66.66,0,0,0,0,.11l-.18,0a.77.77,0,0,0-.5,1q-2.7.31-5.42.52a33,33,0,0,1,1.6,4.61c4.76-1.87,10-2.86,14.66-1.59,2.93.21,5.44,1.17,6.63,4,.21.23.43.47.63.72a21.85,21.85,0,0,1,3.5,6.14,8.11,8.11,0,0,1,1.78-3.57c1.17-1.21,3.3-1.66,4.51-.5,1,1,1,2.62,1.86,3.76a3.11,3.11,0,0,0,.21.24,87.25,87.25,0,0,0-.62-10.67.77.77,0,0,0-1.28-.55,2.77,2.77,0,0,0-.34.44c0-.57,0-1.15-.06-1.72a13.35,13.35,0,0,0,2.86-.42A.76.76,0,0,0,296.67,43.74Zm-4.92,1.68h.13q0,.54,0,1.08C291.86,46.15,291.81,45.79,291.76,45.43Z"/><polygon class="cls-3" points="291.72 46.43 291.79 44.43 291.91 44.47 292.99 44.84 292.84 45.4 292.56 46.49 291.28 46.6 291.44 45.48 291.75 45.43 292.1 45.37 292.57 46.41 291.26 46.53 290.92 45.46 291.86 46.39 291.72 46.43"/><path class="cls-3" d="M297.37,43,296,44.46a4.09,4.09,0,0,0-1.25-.83,5.77,5.77,0,0,0-.76-.27l-.21-.06-.46-.1-.93-.16-.11-1.94V41h.09l.1,0,0,0a.28.28,0,0,0-.07.12.4.4,0,0,0-.07-.23c-.06-.07,0,0,.27,0,.09,0,.06.08.07.17v.28l0,.57,0,1.13c-.69,0-1.47-.06-2.08-.06l-1,0-1.07,0-1.29,0H286l0-.26-.06-.51-.06-.49v-.18h0l.12,0h0a.29.29,0,0,0-.07.1c0,.05,0,0,0-.1a.52.52,0,0,0-.09-.21.48.48,0,0,0,.18,0,.53.53,0,0,0,.17,0v.12l.05.53.09,1h-1.82l0-1.41s-.24-.1-.21-.08.24-.15.19-.11a.32.32,0,0,0,0,.08.34.34,0,0,0,0,.08h0c0-.07,0,.09,0,.08h-.07l-.37,0-.73.06-2.93.23-1.18.09.16-1.06a.12.12,0,0,0,0,0,.81.81,0,0,0,.2-.13c.06-.06.06-.11.05,0a.31.31,0,0,0,0,.07v.23l-.19,0-.92.11-.07-.92h0l1,.8-1.87.22L277,40.07a.31.31,0,0,0-.13-.07l-.08,0,.54-1,.13,0,9.55-1.9,4.78-.95.6-.12s0,0,0,0a.89.89,0,0,0,.05.12c0,.06,0,0,0,0a.36.36,0,0,0-.15,0c-.06,0,0,0,0,0s0,0,0-.08,0,0,0,0,0,0-.07,0l-.6.12-1.19.24-18.47,3.67-.49.37q-1.66.31-3.29.76l-.81.24-.4.12-.31.1c-.06,0,0,0,0,0a.13.13,0,0,0,.07.1l3.28,1.33-2.93-.43-.17,0-.33.52-.18,0s0,0,0,0l0,0a.25.25,0,0,0,0,.17l.24.77-.79.07-4.59.41.57,1.51c.14.39.27.78.39,1.18l.09.32.06.23,1.23-.42q.95-.31,1.91-.57a28.11,28.11,0,0,1,3.93-.76,21.4,21.4,0,0,1,4-.11,15.81,15.81,0,0,1,2,.26c.33.05.66.14,1,.22l.23.06.16,0,.5.05A9.14,9.14,0,0,1,281.3,48a6.18,6.18,0,0,1,1.56,1.45,7.24,7.24,0,0,1,.57.89c.09.15.15.32.23.47s.06.1.19.27a18.85,18.85,0,0,1,2.34,3.27q.25.43.48.88l.21.42.11.23.21.47.1.24,0,.12s0,.1,0,0a6.65,6.65,0,0,1,.31-.88l.1-.21c.06-.11.14-.27.22-.4a6.23,6.23,0,0,1,.55-.78A4.37,4.37,0,0,1,292,52.83a3,3,0,0,1,1.89.74,2.66,2.66,0,0,1,.32.33,1.8,1.8,0,0,1,.15.22,3.07,3.07,0,0,1,.21.47c.12.32.21.66.36,1a2,2,0,0,0,.28.46s.07.11.07.06v-.38q0-.83,0-1.71l0-1.1-.08-1.44q-.1-1.44-.24-2.87c0-.45-.1-1-.15-1.38a.57.57,0,0,0-.26-.34c-.07,0-.08-.11-.23.11a6.38,6.38,0,0,0-.77.77c-.06-.16-.11-.17-.15-.14l-.13.06,0,0s0,0,0,0v-.27l0-.54,0-.93c0-.27,0-.56,0-.82l.75,0,.67-.06c.36,0,.72-.1,1.07-.17l.53-.12a.46.46,0,0,0,.3-.16.43.43,0,0,0,0-.57l.22-.23.24-.25A1.11,1.11,0,0,1,297,45a1.17,1.17,0,0,1-.66.39l-.56.13c-.37.08-.75.14-1.13.19l-.43,0-.35,0c0,.12,0,.26,0,.38v.34s0,.06,0,0a1.32,1.32,0,0,1,.26-.29.38.38,0,0,1,.21-.07,1.09,1.09,0,0,1,.49.14,1.3,1.3,0,0,1,.62.79c.1.59.13,1,.19,1.5q.16,1.44.27,2.89l.1,1.45.08,1.81c0,1.37.06,2.67.06,4l-.13.11-.06.05s-.11-.11-.16-.16a5.22,5.22,0,0,1-.54-.74c-.14-.23-.26-.45-.38-.69s-.26-.47-.43-.83-.36-.86-.55-1.32a3.11,3.11,0,0,0-.33-.59,1,1,0,0,0-.15-.19,1,1,0,0,0-.13-.13,2.09,2.09,0,0,0-1.34-.5A3.46,3.46,0,0,0,289.3,55a5.29,5.29,0,0,0-.46.67l-.2.38c-.09.2-.19.4-.27.61-.32.85-.6,1.89-.87,2.8,0,0-.09-.13-.13-.25l-.14-.35-.29-.71c-.19-.48-.39-1-.6-1.41L286,56.1l-.23-.45q-.22-.42-.47-.84a17.83,17.83,0,0,0-2.24-3.07,1.69,1.69,0,0,1-.37-.53c-.07-.13-.12-.28-.2-.4a6.18,6.18,0,0,0-.49-.75,5.11,5.11,0,0,0-1.31-1.19,8.08,8.08,0,0,0-3.47-1.09l-.47,0h-.13l-.2,0-.25-.06c-.31-.07-.61-.15-.92-.2a14.69,14.69,0,0,0-1.88-.23,20.25,20.25,0,0,0-3.8.13,26.89,26.89,0,0,0-3.75.76q-.93.26-1.84.56L263,49l-1.49.57-.25-1-.13-.48-.11-.38c-.12-.38-.25-.75-.39-1.12l-.46-1.19-.75-1.87,6.26-.62-.57.85a1.56,1.56,0,0,1,.15-1.23,1.34,1.34,0,0,1,.53-.5,1.48,1.48,0,0,1,.33-.12l.18,0-.51.49c0-.08.05-.15.09-.23l.35.92a1.48,1.48,0,0,1-.9-1.23,1.4,1.4,0,0,1,.79-1.37,4.52,4.52,0,0,1,.5-.18l.42-.13.84-.25q1.68-.48,3.4-.82l-.5.38a1.38,1.38,0,0,1,1-.73l.6-.12,1.19-.25,2.38-.5,4.77-1,9.53-2,1.19-.25.6-.12a1.57,1.57,0,0,1,1.88,1.08,1.55,1.55,0,0,1-.1,1.22,1.52,1.52,0,0,1-1,.73l-.6.12-4.76,1-9.52,2,.68-1a1.66,1.66,0,0,1-.55,1.64l-.67-1.56,1.84-.24.94-.12.08.93h0l-1-.81.19,0a1.69,1.69,0,0,1,.42,0,1.48,1.48,0,0,1,.83.43,1.78,1.78,0,0,1,.48,1.4l-1-1,3.08-.27L284,40l.38,0a1.63,1.63,0,0,1,.32,0,1.57,1.57,0,0,1,.43.11,1.65,1.65,0,0,1,1,1.29,1.7,1.7,0,0,1-.51,1.51l-.63-1.61h.34l-.91,1-.05-.53v-.15c0-.09,0-.19,0-.29a1.57,1.57,0,0,1,.19-.63,1.55,1.55,0,0,1,1.06-.75,1.82,1.82,0,0,1,1.08.12,1.76,1.76,0,0,1,.84.76c0,.09.08.18.12.27a.58.58,0,0,1,0,.09v0s0,0,0,0l3.11-.1V41h0v-.13a1.62,1.62,0,0,1,.62-1.26,1.74,1.74,0,0,1,1.27-.34,1.79,1.79,0,0,1,1.13.58,1.72,1.72,0,0,1,.34.59,1.48,1.48,0,0,1,.07.31l0,.15V41c0,.56,0,.39,0,.42h0l.24.06a7.8,7.8,0,0,1,1,.35A6.09,6.09,0,0,1,297.37,43Z"/></g><g class="cls-27"><path class="cls-28" d="M90.47,100.72A22,22,0,0,0,84.64,111a65.54,65.54,0,0,0-1.8,11.8l-.33,3.64a2.11,2.11,0,0,0,1.34,2.43l8.29,5.54L90.86,101l-2.33,2.65"/></g><path class="cls-9" d="M83.64,149.15c-3-1-6-2.1-8.95-3.24,0,.26-.08.51-.12.77,2.2.82,4.41,1.6,6.63,2.35-2.22-.76-4.43-1.53-6.63-2.35a87.58,87.58,0,0,1-4.12,16.07l1.24.34,1,.25h0l-1-.25-1.24-.34c-.11.31-.22.62-.33.92l1.54.41,1,.23h0a57.62,57.62,0,0,0,12.69,1.5,67.92,67.92,0,0,0,19.28-2.69l.25-.07.75-.23c1.41-.42,2.8-.88,4.17-1.39l.2-.34c0-.14,0-.27,0-.41v-.1c0-.15,0-.3,0-.46a103.24,103.24,0,0,0-9.46-4.7C95,153,89.3,151.12,83.64,149.15Zm16.67,6.76c-3.44-1.47-7-2.74-10.5-4l-4.26-1.44,4.26,1.44c3.54,1.22,7.06,2.49,10.5,4q2.47,1,4.88,2.22Q102.78,157,100.31,155.91Z"/><path class="cls-26" d="M114.13,105.32c-.1.51-.22,1-.33,1.53l0,.09a2.12,2.12,0,0,0,.16.42,49.34,49.34,0,0,0,1.77-13.22"/><path class="cls-28" d="M115.71,94.13a49,49,0,0,0-.62-7.68"/><g class="cls-27"><path class="cls-28" d="M136.6,112.36c-3.22-2.48-5.63-5.88-8.85-8.36-1.35-1-2.83-1.9-4.08-3.06-2.16-2-3.48-4.72-5.28-7a9.72,9.72,0,0,1-1.56-2.35,10.06,10.06,0,0,1-.44-2.2,18.19,18.19,0,0,0-3.2-7.94l.12.43a16.59,16.59,0,0,1,1.15,4.24,49,49,0,0,1,.62,7.68,53,53,0,0,1-1.26,13.06,225.13,225.13,0,0,0,22.47,9.68l1.49.54c3.29.11,6.59.11,9.88,0a1.73,1.73,0,0,0-.06-.58A20.28,20.28,0,0,1,136.6,112.36Z"/></g><path class="cls-29" d="M314.67,190.91l.95-.15c0,.43-.06.87-.11,1.31a52.78,52.78,0,0,1-2.37,10.72c-1.11,3.48-2.44,6.87-3.7,10.27S307,219.91,306,223.38a177,177,0,0,0-5,21.17,52.93,52.93,0,0,1-2.27,9.75l-.05-1.16a61.09,61.09,0,0,0,1.82-8.68,177,177,0,0,1,4.9-21.28c1-3.49,2.18-7,3.42-10.38s2.54-6.82,3.61-10.27A51.74,51.74,0,0,0,314.59,192C314.63,191.63,314.65,191.27,314.67,190.91Z"/><path class="cls-29" d="M314.36,300.6c-1.65-10.53-2.4-21.19-3.19-31.84L308.76,236c-.09.53-.18,1.06-.26,1.59l2,31.21c.68,10.67,1.34,21.37,2.9,32l-1.91.38-.88.15a72.59,72.59,0,0,1-8.87,1c0,.16,0,.32.07.48a73.29,73.29,0,0,0,8.91-.81l.87-.14c.64-.1,1.28-.22,1.92-.34l1-.18C314.44,301.07,314.4,300.84,314.36,300.6Z"/><path class="cls-29" d="M308.6,233.75l.17,2.26c-.09.53-.18,1.06-.26,1.59l-.17-2.62c.07-.41.14-.82.21-1.23Z"/><path class="cls-29" d="M308.54,233.76c-.07.41-.14.82-.21,1.23l-.08-1.2h.28Z"/><path class="cls-29" d="M304.81,319c0,.18.09.35.13.53l-1,.15-.12-.5Z"/><path class="cls-29" d="M304.81,319l-1,.18a153.71,153.71,0,0,1-2.87-16.4l.84,0A152.61,152.61,0,0,0,304.81,319Z"/><path class="cls-29" d="M303.85,319.21l.12.5q-1.57.23-3.13.39l-.14-.42C301.76,319.55,302.81,319.39,303.85,319.21Z"/><path class="cls-29" d="M301.75,302.3c0,.16,0,.32.07.48l-.84,0c0-.16,0-.31-.06-.47Z"/><path class="cls-29" d="M301.75,302.3l-.83,0c-.73-6-1.18-12.09-1.51-18.14-.36-6.59-.56-13.19-.82-19.78l-.34-9.16a.89.89,0,0,0,0-.1c.13-.29.23-.57.34-.87l.46,10.1c.31,6.59.57,13.18,1,19.76C300.46,290.22,301,296.28,301.75,302.3Z"/><path class="cls-29" d="M300.71,319.69l.14.42-.93.09-.14-.41Z"/><path class="cls-29" d="M299.77,319.79l.14.41-1,.09-.4,0c-.69,0-1.38-.1-2.07-.17C297.57,320,298.67,319.92,299.77,319.79Z"/><path class="cls-29" d="M298.53,320.27l.4,0q-1.72.13-3.44.18c-.63-.08-1.25-.17-1.87-.27l1.51,0,1.33-.09C297.15,320.17,297.84,320.23,298.53,320.27Z"/><path class="cls-29" d="M298.59,253.14l.05,1.16c-.11.29-.21.58-.34.87a.89.89,0,0,1,0,.1l0-1.06C298.35,253.86,298.48,253.5,298.59,253.14Z"/><path class="cls-29" d="M282.12,318.87l-.52.35h0c0-.12,0-.23,0-.34Z"/><path class="cls-29" d="M280.71,301.38c0,.14,0,.27,0,.4L280,302l0-.41Z"/><path class="cls-29" d="M277.79,265l.13,1.58c-.21-.57-.41-1.14-.6-1.72l-.14-1.89a1.35,1.35,0,0,1,0,.14C277.38,263.73,277.58,264.36,277.79,265Z"/><path class="cls-29" d="M298.93,320.29l1,0"/><path class="cls-29" d="M281.6,318.76c0-2.83-.08-5.66-.24-8.47s-.39-5.68-.62-8.51"/><path class="cls-29" d="M303.85,319.21c-1,.18-2.1.34-3.15.47"/><path class="cls-29" d="M300.84,320.11q1.57-.16,3.13-.39"/><path class="cls-29" d="M293.62,320.2a71.15,71.15,0,0,1-9.21-.56"/><path class="cls-29" d="M299.77,319.79c-1.1.13-2.21.23-3.32.3"/><path class="cls-29" d="M298.93,320.29l1-.09"/><path class="cls-29" d="M277.91,266.56l-.13-1.58c-.21-.63-.4-1.26-.58-1.89a1.35,1.35,0,0,0,0-.14l.14,1.89C277.5,265.42,277.7,266,277.91,266.56Z"/><path class="cls-29" d="M320,189.9A142,142,0,0,1,316,203.59a205.73,205.73,0,0,0-5.67,20.71c-.69,3.14-1.29,6.3-1.82,9.46"/><path class="cls-29" d="M308.5,237.6l2,31.21c.68,10.67,1.34,21.37,2.9,32"/><polyline class="cls-29" points="308.54 233.76 308.44 233.77 308.26 233.78 308.33 234.98"/><path class="cls-29" d="M308.54,233.76c-.07.41-.14.82-.21,1.23l.17,2.62c.09-.53.18-1.06.26-1.59l-.17-2.26Z"/><path class="cls-29" d="M310.62,301.34a72.59,72.59,0,0,1-8.87,1"/><path class="cls-29" d="M301.82,302.78a73.29,73.29,0,0,0,8.91-.81"/><path class="cls-29" d="M313.41,300.81l-1.91.38"/><path class="cls-29" d="M311.6,301.83c.64-.1,1.28-.22,1.92-.34"/><path class="cls-29" d="M313.51,301.49l1-.18c0-.24-.08-.47-.12-.71l-1,.2C313.44,301,313.48,301.27,313.51,301.49Z"/><path class="cls-29" d="M280,302l.76-.23c0-.14,0-.27,0-.4l-.75.22"/><path class="cls-29" d="M296.46,320.1l-1.33.09-1.51,0c.63.1,1.25.19,1.87.27q1.72,0,3.44-.18l-.4,0C297.84,320.23,297.15,320.17,296.46,320.1Z"/><path class="cls-29" d="M310.62,301.34l.11.64.87-.14c0-.22-.07-.43-.1-.65Z"/><line class="cls-29" x1="300.92" y1="320.35" x2="300.84" y2="320.11"/><line class="cls-29" x1="299.91" y1="320.2" x2="299.96" y2="320.33"/><path class="cls-29" d="M300.84,320.11l-.14-.42-.93.11.14.41"/><path class="cls-29" d="M281.6,319.22"/><path class="cls-29" d="M281.6,319.22h0"/><path class="cls-29" d="M301.75,302.3c-.78-6-1.29-12.08-1.66-18.14-.41-6.58-.68-13.17-1-19.76l-.46-10.1"/><path class="cls-29" d="M298.26,255.27l.34,9.16c.25,6.59.46,13.18.82,19.78.32,6,.78,12.11,1.51,18.14"/><path class="cls-29" d="M301,302.81a153.71,153.71,0,0,0,2.87,16.4"/><path class="cls-29" d="M304.81,319a152.61,152.61,0,0,1-3-16.25"/><path class="cls-29" d="M298.59,253.14c-.12.36-.24.72-.37,1.07l0,1.06a.89.89,0,0,0,0-.1c.13-.29.23-.57.34-.87Z"/><path class="cls-29" d="M304,319.72l1-.15c0-.18-.09-.35-.13-.53l-1,.18Z"/><path class="cls-29" d="M301,302.81l.84,0c0-.16,0-.32-.07-.48l-.83,0C300.94,302.5,301,302.66,301,302.81Z"/><path class="cls-17" d="M118.64,43.47a5.11,5.11,0,0,0-1.31-2A8,8,0,0,1,116,39.43a7.84,7.84,0,0,1-.66-2.38,16.43,16.43,0,0,1,0-2.47,19.52,19.52,0,0,0,0-2.43,6.19,6.19,0,0,0-.49-2l-.25,0A123.86,123.86,0,0,1,87,30.31l-1-.11a34.2,34.2,0,0,0-1.62,4.23,27,27,0,0,0-.7,2.74q-.14.7-.23,1.41l0,.29V39s0,.06,0,0,0,0-.25-.22a3.9,3.9,0,0,0-1-.52,4,4,0,0,0-2.27-.06,3.79,3.79,0,0,0-1.05.49,3.35,3.35,0,0,0-.82.83,3.8,3.8,0,0,0-.63,2.18,3.73,3.73,0,0,0,1,2.6,4.72,4.72,0,0,0,.44.37,6,6,0,0,0,1,.53,9.17,9.17,0,0,1,1.8.92,3.1,3.1,0,0,1,1,1.58,18.1,18.1,0,0,1,.35,4.1,35.8,35.8,0,0,0,.45,4.2q.17,1,.42,2l-.26-.35-.28-.06.09.29c.08.25.16.49.25.73l.37.08c.1.38.21.75.32,1.12l.25.06.26.35q.24.32.45.66c1,1.63.83,2.69.88,4.6,0,.29-.25.76-.27,1.06,0,.06-.57.56-.57.62s.6.11.57.3l1.15.64a5.83,5.83,0,0,1,1.38.26c1.59.51,2.69,1.7,4.12,2.46,3.86,2,7.9,3.88,11.63,6.2-.64-2.79-1.71-5.76-1.91-8.59,0-.15,0-.3,0-.45q-.17-2.61-.12-5.22c0-.2,0-1.09,0-1.29l.5.13.33.08v0a16,16,0,0,0,4.49,1c2.49.14,4.4-.22,5.77-2.12a10.17,10.17,0,0,0,1.7-6.33,9.68,9.68,0,0,0,.69-.69l0,0a1.46,1.46,0,0,0,.32-.56,1.18,1.18,0,0,0,0-.63L115.65,51l-.06-.22.15-.12.11-.08a2.08,2.08,0,0,0,.84-1.25,3.14,3.14,0,0,0-.26-1.65c-.15-.4-.35-.78-.51-1.19,0-.09-.07-.19-.11-.29l-.25,0v-.31l.42,0,0,0v0a4,4,0,0,0,1.82-.49,2,2,0,0,0,.76-.83A1.67,1.67,0,0,0,118.64,43.47Z"/><path class="cls-30" d="M135.72,281.09a8,8,0,0,0-1.62-2.67,5.31,5.31,0,0,0-2.54-1.44,21.74,21.74,0,0,0-2.67-.44q-1.31-.17-2.62-.41a59.35,59.35,0,0,1-10.3-2.82,13.2,13.2,0,0,1-4.65-2.74,8.15,8.15,0,0,1-.86-1,1.38,1.38,0,0,1-.31.14,8.77,8.77,0,0,0,.94,1.15,13.81,13.81,0,0,0,4.73,2.93,60.57,60.57,0,0,0,10.34,3.08c.88.18,1.76.34,2.64.48a20.43,20.43,0,0,1,2.58.48,4.56,4.56,0,0,1,2.17,1.28,7,7,0,0,1,1.37,2.38,17,17,0,0,1,.85,7.22,10.81,10.81,0,0,0,1-.47A18.14,18.14,0,0,0,135.72,281.09Z"/><path class="cls-30" d="M136.81,288.25c0,.46-.06.92-.11,1.37q-.54.23-1.09.42c.07-.44.13-.88.18-1.32A10.81,10.81,0,0,0,136.81,288.25Z"/><path class="cls-30" d="M135.33,288.89l.44-.17c0,.44-.1.88-.18,1.32a19.26,19.26,0,0,1-2.71.65,32.91,32.91,0,0,1-5.48.39c-.91,0-1.83,0-2.73-.09l-2.72-.21a39.9,39.9,0,0,1-5.42-.74A66.77,66.77,0,0,1,106,286.92c-2.62-1-5.2-2.09-7.76-3.23,0-.12,0-.25,0-.37,6,2.53,12.14,4.86,18.46,6a38.82,38.82,0,0,0,5.37.62l2.7.14c.9,0,1.8,0,2.7,0a31.84,31.84,0,0,0,5.34-.5A18.64,18.64,0,0,0,135.33,288.89Z"/><path class="cls-30" d="M100.9,271.32h.25c-.34,3.56-.62,7.13-.77,10.71a14.08,14.08,0,0,0,.06,1.61l-.21-.07a14.89,14.89,0,0,1,0-1.54C100.33,278.44,100.58,274.88,100.9,271.32Z"/><path class="cls-29" d="M257.81,37.77h0a1.29,1.29,0,0,0-.19-.08l.29.06Z"/><path class="cls-29" d="M315.65,190.28c0,.16,0,.32,0,.48l-.95.15,0-.46Z"/><path class="cls-29" d="M291.76,63.5v.12l-.14.22-.14.2c0-.17,0-.33,0-.5l.16,0Z"/><path d="M220.74,143.68h0Z"/><path class="cls-29" d="M257.61,37.69l0,.11"/><path class="cls-29" d="M259.3,37.1c-.35-.11-.71-.2-1.07-.27"/><path class="cls-29" d="M327.44,186.86c-.93.38-1.88.75-2.83,1.08-1.14.4-2.3.75-3.47,1.07"/><path class="cls-29" d="M320.11,189.29q-2.22.57-4.47,1"/><path class="cls-29" d="M277.92,190.77l-.9-.16"/><line class="cls-26" x1="220.44" y1="143.36" x2="220.26" y2="143.39"/><path class="cls-26" d="M221.14,151.56a23.53,23.53,0,0,1-.59-3.93,19.62,19.62,0,0,1,.06-3"/><path class="cls-26" d="M220.31,144.43a19.64,19.64,0,0,0,0,3.22,23.53,23.53,0,0,0,.63,4"/><path class="cls-26" d="M221.12,152.47c.12.43.25.86.39,1.28,0,.11.07.22.11.32l.08.24c.32.92.69,1.83,1.08,2.71"/><path class="cls-26" d="M220.78,143.3l-.34.06a1.09,1.09,0,0,0,0,.13"/><line class="cls-26" x1="220.72" y1="143.68" x2="220.74" y2="143.68"/><path class="cls-26" d="M220.39,143.73c0,.23-.06.46-.09.7l.3.17c0-.31.07-.62.12-.92"/><path class="cls-26" d="M220.72,143.66l-.3-.18,0,.24.33-.05Z"/><path class="cls-31" d="M151.67,157.88l.13,0,0,0,0,0,.08-.09-.18-.13-.17,0-.28.11a1.37,1.37,0,0,1,.31.18Z"/><path class="cls-31" d="M151.29,160l-.24.08.25,0Z"/><path class="cls-31" d="M152,159.82a7.23,7.23,0,0,0-.72.16V160l-.25,0a4.34,4.34,0,0,0-1.3.63,16.9,16.9,0,0,0-1.78,1.59l-.75.73a2.57,2.57,0,0,1,.44,0l.51-.5a15.6,15.6,0,0,1,1.73-1.59,5,5,0,0,1,2.14-.84c.34-.05.7-.09,1-.11a2,2,0,0,0,0-.24A10,10,0,0,0,152,159.82Z"/><polygon class="cls-31" points="147.46 160.31 147.93 160.28 148.46 159.91 147.98 159.95 147.46 160.31"/><path class="cls-31" d="M151.31,157.72a5.35,5.35,0,0,0-.87.53l-1,.73-1.41,1,.48,0,1.07-.73,1.06-.72a4.16,4.16,0,0,1,1-.57A1.37,1.37,0,0,0,151.31,157.72Z"/><path class="cls-31" d="M147.29,160.43c-.73.47-1.27,1.16-1.94,1.67l-1,.77-1,.74-4.18,2.94.07.1,0,0,0,.05.07.09,4.15-3,1-.75,1-.79c.68-.53,1.2-1.22,1.91-1.68l.5-.34-.46,0Z"/><path class="cls-31" d="M149.62,164.59a3.4,3.4,0,0,0-.22-.48,2.58,2.58,0,0,0-.56-.66c-.05,0-.09-.1-.14-.13l-.13-.08a2,2,0,0,0-.9-.27,2.57,2.57,0,0,0-.44,0,2.88,2.88,0,0,0-.59.14,5.16,5.16,0,0,0-1.71,1.16q-2.77,2.63-5.69,5.07l.42.09c1.87-1.59,3.7-3.25,5.47-5a4.89,4.89,0,0,1,1.61-1.11l.13,0a2.48,2.48,0,0,1,.54-.1,1.79,1.79,0,0,1,.95.17l.2.12.09.08a2.18,2.18,0,0,1,.54.63c.14.27.34.62.22.83a1.78,1.78,0,0,1-.32.34l-.36.35-.73.7c-2,1.85-3.93,3.71-5.9,5.54a13.35,13.35,0,0,1-1.4,1.1l.66-.11q.48-.38.94-.79c2-1.85,3.91-3.73,5.87-5.59l.74-.7.37-.35a1.89,1.89,0,0,0,.37-.4A.71.71,0,0,0,149.62,164.59Z"/><path class="cls-31" d="M142.53,160.29l.41,0-.62.3-.71,0,.65-.27Z"/><path class="cls-31" d="M139.66,169.46l-.28.24-.41-.1.27-.24Z"/><path class="cls-31" d="M139.23,169.37l-.27.24c-1-.25-2-.57-3-.81a26.24,26.24,0,0,0-6.13-.5V168a26.6,26.6,0,0,1,6.19.62C137.08,168.81,138.16,169.13,139.23,169.37Z"/><path class="cls-31" d="M138.27,159.74a2.28,2.28,0,0,1,0,.26l-.11,0-.12,0a1.64,1.64,0,0,0,0-.27l.2.08Z"/><path class="cls-30" d="M117.27,304.14a8.75,8.75,0,0,0-1.84-2.95,6.08,6.08,0,0,0-2.89-1.59,25.44,25.44,0,0,0-3-.49q-1.49-.19-3-.45a69.11,69.11,0,0,1-11.71-3.11,15.11,15.11,0,0,1-5.28-3,9.34,9.34,0,0,1-1.59-2l-.34.11a9.94,9.94,0,0,0,1.68,2.21,15.79,15.79,0,0,0,5.38,3.23,70.47,70.47,0,0,0,11.75,3.4c1,.2,2,.37,3,.52a23.83,23.83,0,0,1,2.93.53,5.22,5.22,0,0,1,2.47,1.41,7.68,7.68,0,0,1,1.56,2.62,18.27,18.27,0,0,1,1,7.94h0l-.47.18a21.72,21.72,0,0,1-2.94.75,37.27,37.27,0,0,1-6.07.55c-1,0-2,0-3.07,0l-3.07-.16a45.47,45.47,0,0,1-6.11-.68c-7.19-1.22-14.13-3.79-21-6.58,0,.14,0,.28,0,.41,2.91,1.26,5.85,2.47,8.82,3.56a77.67,77.67,0,0,0,12,3.44,46.7,46.7,0,0,0,6.17.82l3.1.23c1,.06,2.07.09,3.11.1a38.54,38.54,0,0,0,6.23-.43,22.47,22.47,0,0,0,3.08-.71h0c.41-.13.81-.28,1.21-.45.06-.5.1-1,.13-1.5l0,0A19.45,19.45,0,0,0,117.27,304.14Z"/><path class="cls-31" d="M137.8,173.4h-.24a36.47,36.47,0,0,1-4.45-.18l-5.28-.5-.53-.05.42.29.15.09.6.06,4.61.41a36.82,36.82,0,0,0,4.48.15q.59,0,1.18-.08Z"/><path class="cls-31" d="M138.27,159.74a2.28,2.28,0,0,1,0,.26,12.89,12.89,0,0,0,3.36.55l.65-.27A13.5,13.5,0,0,1,138.27,159.74Z"/><path class="cls-31" d="M137.57,157.89a3.27,3.27,0,0,0-.91-.85,2.18,2.18,0,0,0-1.24-.16l-1.2.08a5.33,5.33,0,0,1-.7,0l-.39,0a9.74,9.74,0,0,1-3.45-1.13c-1.33-.67-2.51-1.59-3.84-2.32l-.29-.16-.21-.1a6.52,6.52,0,0,0-2.13-.64,4.09,4.09,0,0,0-2.43.45l.06.1,0,0,0,.05.05.1a3.75,3.75,0,0,1,2.23-.42,6.07,6.07,0,0,1,1.84.5l.4.18.12.07c1.36.71,2.6,1.69,4,2.39a9.72,9.72,0,0,0,3.92,1.16h.76l1.2-.09a2,2,0,0,1,1.11.12,3.16,3.16,0,0,1,.84.78,3.25,3.25,0,0,1,.55,1,2.27,2.27,0,0,1,.1.61l.2.08h0a2.4,2.4,0,0,0-.12-.76A3.28,3.28,0,0,0,137.57,157.89Z"/><path class="cls-31" d="M138,159.93a1.88,1.88,0,0,1-.56,1.23,3.94,3.94,0,0,1-2.17.74,6.9,6.9,0,0,1-2.34-.18,13.33,13.33,0,0,0-2.34-.63,20.48,20.48,0,0,0-2.43,0c-.8,0-1.6.06-2.4,0a9.31,9.31,0,0,1-4.55-1.1l-.06.1,0,.06,0,0-.06.1a9.65,9.65,0,0,0,4.72,1.11c.81,0,1.61,0,2.41-.05a18.87,18.87,0,0,1,2.38,0,13.32,13.32,0,0,1,2.3.61,7.21,7.21,0,0,0,2.44.18,7,7,0,0,0,1.2-.24,2.76,2.76,0,0,0,1.1-.58,2.11,2.11,0,0,0,.62-1.33l-.11,0Z"/><path class="cls-10" d="M116.44,23.1c0,.06,0,.12,0,.18l-.88.07c0-.11,0-.21,0-.32"/><path class="cls-30" d="M116.33,24.07h0Z"/><path class="cls-30" d="M116,45.88v0h0Z"/><path class="cls-30" d="M117.61,161.88l.07.09h-.06Z"/><path class="cls-30" d="M114.29,147.25l0,0s0,0,0,0Z"/><path class="cls-30" d="M114.27,147.28c0,.12,0,.23,0,.34l-.2-.08Z"/><path class="cls-30" d="M114.09,147.55l-.1.15c0-.06,0-.12,0-.19Z"/><path class="cls-30" d="M114,147.12l0,.06a.44.44,0,0,1,0-.08Z"/><path class="cls-30" d="M114,147.51l-.2-.08.17-.25C114,147.29,114,147.4,114,147.51Z"/><path class="cls-30" d="M113.13,149l-.15.28-.28-.1.15-.29Z"/><path class="cls-30" d="M110.44,156c0,.11,0,.22-.07.33l-.24-.07c0-.11,0-.22.07-.33Z"/><path class="cls-30" d="M110.28,160.49l0,0,0,0Z"/><path class="cls-32" d="M114.09,147.55l-.1.15a10.73,10.73,0,0,1-.06,1.66l.28.11a11.17,11.17,0,0,0,.08-1.84Z"/><path class="cls-32" d="M110.58,154.44c-.15.5-.27,1-.38,1.51l.24.07c.11-.51.22-1,.36-1.51a24.39,24.39,0,0,1,2.18-5.18l-.28-.1A24.52,24.52,0,0,0,110.58,154.44Z"/><path class="cls-32" d="M110.13,156.27a23.74,23.74,0,0,0-.5,3.91l.29.16a23.8,23.8,0,0,1,.45-4Z"/><path class="cls-30" d="M110.23,160.51l-.3.11v0l.1-.19Z"/><path class="cls-30" d="M109.92,161.15a1.23,1.23,0,0,0,0,.14l-.1,0Z"/><path class="cls-30" d="M109.92,160.62v.18l-.09-.05.07-.12Z"/><path class="cls-30" d="M109.92,160.59v0h0Z"/><path class="cls-30" d="M109.9,160.63l-.07.12-.11-.06Z"/><path class="cls-28" d="M110.23,160.51l-.3.11v.18l.15.08.19-.35Z"/><path class="cls-9" d="M109.73,160.7l.18-.07,0,0,.1-.19-.1-.06-.29-.16c0,.16,0,.31,0,.46v.1c0,.14,0,.27,0,.41l-.2.34.2-.07.21-.08.1-.18c0-.12,0-.23,0-.35l-.09-.05Z"/><path class="cls-30" d="M103.83,59.69v.05l-.37-.14Z"/><path class="cls-30" d="M87.06,30.16l-.08.16-1-.11.12-.26A2.28,2.28,0,0,0,87.06,30.16Z"/><path class="cls-32" d="M103.8,76.8c-.31-.19-.62-.37-.92-.54l-7.58-4.1L86,66.59c0,.31-1.59.14-1.66.45L95,72.75l7.66,3.94c.46.25.9.51,1.34.78l.46.29c0-.22-.09-.43-.13-.65a68,68,0,0,1-1.16-9.92c-.24,0-.72,0-1-.07A67.89,67.89,0,0,0,103.8,76.8Z"/><path class="cls-30" d="M84.4,58.81l-.27-.06c-.09-.22-.16-.44-.23-.67Q84.17,58.44,84.4,58.81Z"/><path class="cls-30" d="M75.1,293h.28c-.38,3.93-.68,7.87-.85,11.81a15.52,15.52,0,0,0,.07,1.78l-.23-.08a16.42,16.42,0,0,1,0-1.7C74.47,300.86,74.74,296.93,75.1,293Z"/><path class="cls-30" d="M74.6,306.59c0,.14,0,.28,0,.41l-.23-.09c0-.14,0-.27,0-.4Z"/><path class="cls-33" d="M83.42,292.12a39,39,0,0,1-6.81.41c0,.2,0,.39-.06.58a39.67,39.67,0,0,0,6.91-.7A64.63,64.63,0,0,0,92,290.5c-.11-.18-.22-.35-.32-.53l0-.05A63.76,63.76,0,0,1,83.42,292.12Z"/><path class="cls-9" d="M115,158.58c-1.46.64-3.23,1.37-4.72,1.92l0,0-.19.35h0l-.15-.08c0,.12,0,.23,0,.35a1.23,1.23,0,0,0,0,.14l.51-.19-.24-.14.24.14.48-.18c1.42-.55,3.18-1.27,4.57-1.89C115.34,158.87,115.15,158.72,115,158.58Z"/><path class="cls-9" d="M116.2,27.3a22.11,22.11,0,0,1,.11-3.22h0c0-.17,0-.34.07-.52l.74-.35-.71.06-.88.07c0,.12,0,.25,0,.37,0-.12,0-.25,0-.37l-1.45.09c-2.75.15-5.52.16-8.28.13-1.32,0-2.64,0-4-.07s-2.89-.09-4.33-.16a214.63,214.63,0,0,1-29.64-3.51h0l-.21-.17c0-.13,0-.27,0-.41l-.39.07-.51.08c0,.07,0,.15,0,.22s.05.23.07.35V20a13.28,13.28,0,0,1,.06,4.26,13.25,13.25,0,0,1-.57,1.62l0,.07.44.12a14.37,14.37,0,0,0,.38-1.75,13.78,13.78,0,0,0,.4-2,13.78,13.78,0,0,1-.4,2,14.39,14.39,0,0,1-.38,1.75h0l-.1.32A121.49,121.49,0,0,0,86,30.21l.12-.26a2.28,2.28,0,0,0,.91.21l-.08.16a123.86,123.86,0,0,0,27.58-.14l.25,0-.07-.14.07.14.32,0h0l.32,0h0l.75-.1.67-.09q-.12-.38-.23-.77C116.47,28.51,116.32,27.91,116.2,27.3Zm-10.41-3q-2.08,0-4.16-.12,2.08.08,4.16.12l1.38,0Zm8.33-.06h0Zm1.43-.3h0l-.22.08Zm-.78,5.91-.09,0h0l.09,0,0,0Zm.18-.1-.09.05.09-.05c0,.09.08.18.12.26C115,29.89,115,29.8,114.95,29.71Zm-.12-5.55.72,0Zm.71,5.36c0-.09,0-.18,0-.27l.17,0-.17,0C115.57,29.34,115.56,29.44,115.54,29.53Zm.54-.34q-.06-.46-.1-.93,0,.47.1.93Z"/><path class="cls-30" d="M66.85,20V20h0l-.11-.08Z"/><path class="cls-30" d="M66.35,25.9l0,.07h-.05Z"/><path class="cls-9" d="M66.38,26h-.05L66,25.88l.11.37.06,0,.31.09.12.36.1-.3.1-.32Z"/><path class="cls-30" d="M66.19,26.26l0,.07,0-.09Z"/><path class="cls-34" d="M70.11,162.79"/><path class="cls-34" d="M71.35,163.14"/><path class="cls-34" d="M105.3,162.15"/><path class="cls-34" d="M109.62,160.74"/><path class="cls-34" d="M109.62,160.64"/><path class="cls-35" d="M115.53,45.93v.31l.25,0-.05-.16a.3.3,0,0,1,0-.06l.22-.11Z"/><path class="cls-36" d="M95.28,294.54l.43,2a16.47,16.47,0,0,0-6.17,2.6,4.15,4.15,0,0,0-1.1,1c-.2.32-.21.51,0,.76a1.22,1.22,0,0,0,1,.43,2.66,2.66,0,0,0,1.32-.48A7.9,7.9,0,0,0,93,298.49c.58-.86.7-2.14,1.59-3.25a3.76,3.76,0,0,1,1.67-1.11,5.5,5.5,0,0,1,1.9-.29,2.88,2.88,0,0,1,1.89.68,1.92,1.92,0,0,1,.59,2l-.31-.1-.33-.11a1.22,1.22,0,0,0-.46-1.2,2.1,2.1,0,0,0-1.4-.41,3.67,3.67,0,0,0-2.79,1.2c-.61.78-.7,2-1.36,3.2a9.08,9.08,0,0,1-2.6,2.8,4,4,0,0,1-2,.78,2.66,2.66,0,0,1-2.21-.89,2.07,2.07,0,0,1-.51-1.28,2.33,2.33,0,0,1,.35-1.27,5.51,5.51,0,0,1,1.47-1.48A18.31,18.31,0,0,1,95.28,294.54Z"/><path class="cls-36" d="M98.93,295.73l1,1.73a9.55,9.55,0,0,0-2.79,2.39,10.44,10.44,0,0,0-1.72,3.32l-1.51-.82A14.93,14.93,0,0,1,99,299l1.36-.62a11.53,11.53,0,0,1,2.23-.77l2.17-.53.54-.13a1.72,1.72,0,0,1,.42-.08l.16,0,.37,0-2.07,2c-.26.27-.56.56-.78.81s-.39.47-.57.74l-.29.45-.09.15a3.58,3.58,0,0,0-.17.34,4.52,4.52,0,0,0-.26.81.92.92,0,0,0,0,.19l.11-.14a3.46,3.46,0,0,1,.26-.28,4.37,4.37,0,0,1,.39-.33c.14-.11.3-.22.55-.38a14.52,14.52,0,0,1,2.31-1.21c.4-.17.81-.32,1.22-.45.16-.06.53-.16.8-.24s.58-.16.86-.22c.57-.14,1.1-.23,1.67-.34.88-.22.29.09.73.16-.57.55-1.06,1-1.44,1.43a4.51,4.51,0,0,0-.67,1,12,12,0,0,0-.58,1.49c-.31,1-.57,2.07-.86,3.1l-.31-.07-.34-.08c.26-1.06.5-2.12.78-3.18A13.42,13.42,0,0,1,108,301a3.5,3.5,0,0,1,.44-.78c.63-.51-.27-.16-.61-.08l-.31.1-.38.14c-.38.14-.76.29-1.13.46a13.44,13.44,0,0,0-2.11,1.19l-.71.54c-.25.19-.54.5-.81.75l-.21.21-.26.32-.53.65-1.2,1.52c0-.08,0-.19,0-.24l-.05-.08s-.06-.17-.1-.12l-.11,0s0,0,0-.1l0-.17,0-.34a19.86,19.86,0,0,1,.45-2.49,9.7,9.7,0,0,1,.49-1.4,8,8,0,0,1,.35-.74c.06-.12.13-.25.2-.37l0-.06a2.67,2.67,0,0,1,.32-.45l.12-.13s0,0-.06,0l-.11,0-.39.13a2.33,2.33,0,0,0-.37.17l-1.25.62a13.5,13.5,0,0,0-4.41,3.08l-2.75,3.42,1.23-4.25a12.28,12.28,0,0,1,1.9-3.94A11.49,11.49,0,0,1,98.93,295.73Z"/><path class="cls-36" d="M117.64,272.28l.52,1.93a22.1,22.1,0,0,0-4.84,1.69,10.75,10.75,0,0,0-2.05,1.35,2.86,2.86,0,0,0-.65.8.86.86,0,0,0-.09.22.26.26,0,0,0,0,.16.16.16,0,0,0,.13.07H111c.41,0,.82,0,1.21,0a6.9,6.9,0,0,0,2.23-.43,3.58,3.58,0,0,0,1.68-1.27c.38-.57.62-1.43,1.07-2.18l.6-1.15a3.29,3.29,0,0,1,.37-.59,2,2,0,0,1,.62-.52,6.81,6.81,0,0,1,2.62-.64,7.18,7.18,0,0,1,1.33.05,2.23,2.23,0,0,1,1.35.62,1.42,1.42,0,0,1,.37.75,1.6,1.6,0,0,1-.11.79,4.24,4.24,0,0,1-.67,1.18l-.25-.2-.28-.21a3.56,3.56,0,0,0,.52-1,.65.65,0,0,0-.14-.76c-.4-.4-1.3-.39-2.06-.33a6,6,0,0,0-2.19.62c-.45.22-.74,1.19-1.09,1.87s-.54,1.5-1,2.37a4.83,4.83,0,0,1-2.18,1.84,8.24,8.24,0,0,1-2.65.64c-.44,0-.87.06-1.3.07a6.44,6.44,0,0,1-.92,0,1.33,1.33,0,0,1-.87-.48,1.62,1.62,0,0,1-.28-1.05,2.88,2.88,0,0,1,.24-1.07,4.42,4.42,0,0,1,1-1.33,12.28,12.28,0,0,1,2.34-1.7A23.89,23.89,0,0,1,117.64,272.28Z"/><path class="cls-36" d="M119.85,273.5l1.39,1.44a14.12,14.12,0,0,0-4,7l-1.65-.54a7.23,7.23,0,0,1,1.92-2.28c.66-.59,1.33-1.19,2-1.77a18.6,18.6,0,0,1,4.65-3l3.32-1.39-2.52,2.54a11.82,11.82,0,0,0-3.33,7.06l-1.15-.26a9.88,9.88,0,0,1,3.42-4l2-1.52c.34-.25.65-.5,1-.76a2.63,2.63,0,0,1,1.39-.54l1.45-.06-1.17.86c-.92.68-1.16,2.22-1.53,3.53a36.15,36.15,0,0,0-.78,4.1l-.32,0-.35,0a36.86,36.86,0,0,1,.67-4.2c.16-.7.32-1.37.53-2.08a3.87,3.87,0,0,1,1.23-2l.3.84c-.55,0-1.18.66-1.84,1.17l-1.94,1.57a8.84,8.84,0,0,0-3,3.57l-1.5,4.21.32-4.47a13.14,13.14,0,0,1,3.48-8l.81,1.17a17.12,17.12,0,0,0-4.18,2.84c-.65.57-1.28,1.17-1.92,1.78a5.81,5.81,0,0,0-1.46,1.75l-1.66-.54A16,16,0,0,1,119.85,273.5Z"/><path class="cls-37" d="M301,27.57l-.47-.23c-4.73-2.55-9.51-5-14.29-7.51q-5.88,1.18-11.73,2.5l-1,.51c-3.06.5-21.54,17.62-22.77,23a23.2,23.2,0,0,1,7.57-4.13l.22-.06a27.86,27.86,0,0,0-3.18,8.19c3.76-7.32,24.91-12.55,26.66-5v0a4.26,4.26,0,0,1,1.35,3v.1a21.63,21.63,0,0,1,1.43,7.82l.9,2.49c.13-.32.25-.64.36-.94a37.09,37.09,0,0,0,1.29-4.73l0-.18v-.06a2.61,2.61,0,0,1,1.94-2.15,3.19,3.19,0,0,1,2.86.73,5,5,0,0,1,1.58,2.92,7.83,7.83,0,0,1-.22,3.52A13.08,13.08,0,0,1,292,60.6c-.62,1-1.34,2-2,2.9l-.23.3,0,.36c.16,1.17.38,2.32.64,3.61.13.61.27,1.25.41,1.83A2.74,2.74,0,0,0,291,70l.25.64,1.65.31.07-.31a41,41,0,0,1,1.77,7.27l.16.8,1,0h.16c.47-2.64,1-5.28,1.56-7.91a162.22,162.22,0,0,1,8.9-28.17C304.61,37.66,302.82,32.61,301,27.57Z"/><g class="cls-27"><path class="cls-28" d="M89.66,166.14l2.8-10.31a23.92,23.92,0,0,1,1.06-3.26c-3-1.05-6-2-9.07-3.06-3.27-1.09-6.54-2.2-9.78-3.4a95.35,95.35,0,0,1-4.56,17.62l1.37.38,1.07.28a63.09,63.09,0,0,0,14,1.78C87.58,166.18,88.62,166.16,89.66,166.14Z"/></g><polygon class="cls-38" points="133.76 170.47 133.75 170.56 134.02 170.74 133.76 170.47"/><path class="cls-38" d="M114.68,189.77l-1.18,13.57,4.61-7,.66-4.67,1.09,4.07,3.71-5.77-.34-6s1.23,3.73,2.1,5.78l2.91-5,0-6.58,1.4,6.62,2.21-4.47,1.5-10.52-1.53-.94-9.56,2.67-2.16,2,3,.61-3.13.05-12,12.19,6.51-1.09-6.41,2.09-8.45,6.93Z"/><path class="cls-39" d="M205.4,91.06a1,1,0,0,1,1.16,1.6l-91.81,98.26a1,1,0,1,1-1.47-1.38l91.81-98.26A1,1,0,0,1,205.4,91.06Z"/><path class="cls-39" d="M113.32,191a1,1,0,0,0,1.43,0l91.81-98.26a1,1,0,0,0,0-1.43l-93.42,99.41A1,1,0,0,0,113.32,191Z"/><path class="cls-40" d="M206.51,91.23a1,1,0,0,0-.81-.26Z"/><path class="cls-41" d="M211.23,86.12s-9.25,18.25-9.47,18.36-8.19,3-9.58,2.12,1.41-10.22,1.41-10.22Z"/><polygon class="cls-42" points="211.16 85.99 198.75 100.65 192.63 105.98 197.47 99.61 211.16 85.99"/><polygon class="cls-43" points="193.35 106.95 191.43 104.95 190.64 105.86 192.88 107.45 193.35 106.95"/><polygon class="cls-43" points="192.26 108.16 190.34 106.16 189.55 107.06 191.79 108.65 192.26 108.16"/><polygon class="cls-43" points="190.97 109.45 189.05 107.46 188.26 108.36 190.5 109.95 190.97 109.45"/><polygon class="cls-43" points="134.08 170.81 132.07 168.61 131.3 169.55 133.62 171.32 134.08 170.81"/><polygon class="cls-44" points="131.05 170.03 132.98 172.01 133.76 171.1 131.52 169.53 131.05 170.03"/><polygon class="cls-43" points="124.27 181.44 122.26 179.24 121.49 180.18 123.81 181.95 124.27 181.44"/><polygon class="cls-44" points="121.23 180.65 123.17 182.64 123.95 181.73 121.7 180.15 121.23 180.65"/><polygon class="cls-44" points="132.05 168.73 133.98 170.72 134.76 169.81 132.52 168.23 132.05 168.73"/><polygon class="cls-43" points="115.37 190.72 113.35 188.53 112.59 189.47 114.91 191.24 115.37 190.72"/><polygon class="cls-44" points="112.33 189.94 114.27 191.93 115.05 191.02 112.8 189.44 112.33 189.94"/><polygon class="cls-44" points="113.33 188.65 115.27 190.63 116.05 189.73 113.8 188.15 113.33 188.65"/><polygon class="cls-44" points="189.01 107.49 190.95 109.48 191.73 108.57 189.48 106.99 189.01 107.49"/><polygon class="cls-44" points="190.12 106.04 192.15 108.22 192.91 107.28 190.58 105.52 190.12 106.04"/><path class="cls-45" d="M285.39,320c-.33-16.89-1.46-61.75-2.75-68.5-1.7-8.83,8-54.13,9.12-59.36l7-.05c-4.16,19.28-11.23,52.53-10.13,58.27,1.66,8.64,2.82,67.49,2.87,70Z"/><g class="cls-46"><g class="cls-47"><polyline class="cls-48" points="300.55 193.18 289.94 194.94 298.89 200.89 288.29 202.68 297.26 208.6 286.67 210.43 295.68 216.3 285.1 218.22 294.15 224.02 283.59 226.04 292.72 231.72 282.19 233.91 291.43 239.39 280.98 241.91 290.5 246.85 280.62 251.34 291.05 254.62 281.41 260 291.65 264.1 281.88 269.24 292.07 273.48 282.26 278.53 292.41 282.85 282.57 287.85 292.71 292.22 282.85 297.17 292.97 301.58 283.09 306.5 293.2 310.93 283.31 315.83 293.4 320.29"/></g></g></g></g></g></svg>